<?xml version="1.0" standalone="no"?><!DOCTYPE svg PUBLIC "-//W3C//DTD SVG 1.1//EN" "http://www.w3.org/Graphics/SVG/1.1/DTD/svg11.dtd" ><svg xmlns="http://www.w3.org/2000/svg"><metadata></metadata><defs><font id="1.000;Aa;AaBanruokaishu;2019" horiz-adv-x="1000"><font-face font-family="Aa般若楷书" font-weight="400" font-stretch="normal" units-per-em="1000" panose-1="0 0 0 0 0 0 0 0 0 0" ascent="969" descent="-226" x-height="0" bbox="-58 -195 1025 882" underline-thickness="50" underline-position="-100" unicode-range="U+000d-ff5e" /><missing-glyph horiz-adv-x="296"  /><glyph glyph-name="exclam" unicode="!" d="M138 206 q-10 -3 -21 -4 q-18 -1 -20 18 l6 4 q-5 216 -17 432 q6 47 56 44 q33 1 32 -31 q-2 -218 -8 -436 q-4 -23 -29 -27 l1 0 ZM72 51 q10 48 62 45 q51 2 61 -45 q-11 -45 -61 -42 q-51 -4 -62 42 Z" /><glyph glyph-name="quotedbl" unicode="&quot;" d="M106 590 q-22 2 -31 21 q-9 67 -10 135 q4 33 38 31 q36 3 41 -29 l0 -3 l0 1 q-1 -14 -2.5 -67.5 q-1.5 -53.5 -5.5 -71.5 q-10 -17 -30 -17 ZM211 590 q-24 -2 -32 19 q-7 69 -9 137 q2 34 38 31 q36 2 41 -31 q-3 -67 -7 -135 q-7 -20 -31 -21 Z" /><glyph glyph-name="numbersign" unicode="#" d="M172 541 q13 73 29 145 q21 23 56 16 q19 1 26 -14 q-4 -22 -15.5 -79.5 q-11.5 -57.5 -18.5 -71.5 q59 1 117 5 l-5 7 q6 35 14 69 q8 54 15 70 q7 16 56 14 q18 0 24 -13 q-4 -21 -14.5 -75.5 q-10.5 -54.5 -17.5 -68.5 q24 1 47 2 q19 2 26 -12 q-2 -37 -30.5 -39.5 q-28.5 -2.5 -56.5 -3.5 l5 -7 q-7 -33 -27.5 -134.5 q-20.5 -101.5 -28.5 -122.5 q27 1 54 2 q14 3 20 -7 q-2 -40 -29.5 -45 q-27.5 -5 -59.5 -3 l5 -7 q-16 -72 -29 -145 q-5 -13 -25.5 -14 q-20.5 -1 -30.5 0 q-19 0 -25 15 q4 21 15 77.5 q11 56.5 18 70.5 l-116 -6 l5 -7 l-28 -135 q-5 -13 -26.5 -14.5 q-21.5 -1.5 -32.5 -0.5 q-17 -1 -23 13 q1 19 12.5 72 q11.5 53 17.5 69 q-19 -1 -39 -1 q-20 -2 -32 9 l0 3 l0 1 q14 36 30 39 q16 3 55 3 l-5 7 q3 16 27 126.5 q24 110.5 30 129.5 q-20 -1 -41 -1 q-20 -2 -32 10 q0 2 0 4 q4 11 10 21 l0 1 q34 27 79 19 l-5 7 ZM235 483 l5 -7 q-7 -37 -26.5 -135 q-19.5 -98 -28.5 -121 q58 1 116 5 l-5 7 q7 39 26.5 135.5 q19.5 96.5 29.5 121.5 l-117 -6 Z" /><glyph glyph-name="dollar" unicode="$" d="M51 97 q6 13 20 15 q6 -4 61.5 -32 q55.5 -28 102.5 -36 l-5 9 l0 40 l1 256 l3 8 q-58 23 -116.5 61 q-58.5 38 -63.5 109 q3 72 57.5 112.5 q54.5 40.5 120.5 52.5 l-4 9 l0 36 q23 16 55 16 q49 5 34 -44 l-5 -9 q29 0 102.5 -14.5 q73.5 -14.5 82.5 -43.5 q-3 -35 -34 -47 q-19 4 -59.5 31.5 q-40.5 27.5 -93.5 31.5 l5 -9 q-1 -120 -1 -241 l-3 -8 q63 -26 135.5 -73 q72.5 -47 78.5 -122 q-3 -90 -66.5 -140.5 q-63.5 -50.5 -147.5 -63.5 l4 -9 q0 -33 2 -66 q-12 -8 -25 -12 l1 -1 q-14 -6 -29 -5 q-31 -1 -34.5 8 q-3.5 9 -1.5 38 q1 17 1 35 l5 9 q-30 1 -108 17.5 q-78 16.5 -88 45.5 q3 20 12 38 l1 -2 ZM309 46 q112 30 121 145 q-9 75 -79 109 l1 0 l-38 20 l2 1 l-5 0 l3 -5 q1 -130 1 -261 l-6 -9 ZM236 649 q-83 -23 -84 -110 q10 -77 86 -107 l-7 8 q3 101 -1 201 l6 8 ZM312 323 l-3 2 l1 -3 l2 1 Z" /><glyph glyph-name="percent" unicode="%" d="M39 525 q2 72 47.5 116.5 q45.5 44.5 116.5 45.5 q71 -1 118 -45.5 q47 -44.5 49 -116.5 q-2 -72 -48.5 -118 q-46.5 -46 -118.5 -48 q-73 2 -118 48 q-45 46 -46 118 ZM120 525 q-1 -42 17.5 -84 q18.5 -42 65.5 -45 q49 3 67 44.5 q18 41.5 17 84.5 q1 42 -17.5 83.5 q-18.5 41.5 -66.5 44.5 q-47 -3 -65.5 -45 q-18.5 -42 -17.5 -83 ZM619 692 q11 1 21 -5 l-329 -658 q-25 -26 -63 -20 q-15 -1 -22 10 q-1 2 0 3 l325 648 q25 32 68 22 ZM511 177 q2 72 47.5 116.5 q45.5 44.5 116.5 45.5 q71 -1 118 -45.5 q47 -44.5 49 -116.5 q-2 -72 -48.5 -118 q-46.5 -46 -118.5 -48 q-73 2 -118 48 q-45 46 -46 118 ZM592 177 q-1 -42 17.5 -84 q18.5 -42 65.5 -45 q49 3 67 44.5 q18 41.5 17 84.5 q1 42 -17.5 83 q-18.5 41 -66.5 44 q-47 -3 -65.5 -44.5 q-18.5 -41.5 -17.5 -82.5 Z" /><glyph glyph-name="ampersand" unicode="&amp;" d="M519 185 l-16 -18 l0 -10 q16 -20 63.5 -73.5 q47.5 -53.5 53.5 -65.5 q-4 -10 -35 -10 q-31 0 -43 1 q-46 7 -70 54 l0 1 l-32 37 q-88 -86 -209 -92 q-78 0 -134 40.5 q-56 40.5 -59 123.5 q5 69 62.5 128 q57.5 59 112.5 95 l-1 11 l-11 19 l0 1 q-44 63 -50 137 q3 68 51.5 102 q48.5 34 112.5 34 q122 2 129 -118 q-3 -53 -45 -98.5 q-42 -45.5 -84 -74.5 l1 -13 q75 -90 145 -185 q56 75 102 157 q9 15 25 17 q32 -5 43 -32 q-1 -6 -4 -13 l-10 -14 l0 -2 q-46 -71 -98 -138 l0 -1 ZM229 63 q103 5 173 82 l-1 13 q-40 47 -78 96 l0 1 q-40 49 -77 101 q-103 -72 -118 -193 q8 -93 101 -100 ZM230 577 q5 -72 50 -129 q28 22 59.5 58.5 q31.5 36.5 34.5 73.5 q4 73 -65 82 q-74 -9 -79 -85 Z" /><glyph glyph-name="quotesingle" unicode="&#39;" d="M116 570 q-24 1 -33 21 q-11 71 -11 143 q5 34 41 31 q37 2 41 -32 q0 -28 -1 -71.5 q-1 -43.5 -6 -70.5 q-9 -20 -31 -21 Z" /><glyph glyph-name="parenleft" unicode="(" d="M253 698 q4 -2 5 -8 q0 -3 -1 -6 q-24 -36 -49 -73 q-93 -164 -88 -354 q-2 -115 27 -230.5 q29 -115.5 115 -197.5 l-11 -12 l0 -1 q-11 -8 -24 -8 q-14 0 -23 8 q-93 82 -137.5 200.5 q-44.5 118.5 -44.5 240.5 q4 214 132 386 q19 28 42 51 q16 10 35 8 q11 1 21 -5 l1 1 Z" /><glyph glyph-name="parenright" unicode=")" d="M45 702 q19 2 35 -8 q23 -23 42 -51 q127 -173 131 -386 q0 -121 -44 -240 q-44 -119 -137 -201 q-9 -8 -23 -8 q-13 0 -24 8 l0 1 q-7 4 -8 12 q0 3 2 6 q30 31 56 65 q49 78 65.5 172 q16.5 94 15.5 185 q3 182 -82 342 q-29 43 -56 85 q-1 3 0 5 q8 13 27 13 Z" /><glyph glyph-name="asterisk" unicode="*" d="M212 381 l-7 -9 q7 3 41 18 q34 15 44 22 q7 3 16 3 q32 -3 33 -38 q-6 -22 -51.5 -30 q-45.5 -8 -63.5 -10 l3 -15 q11 -11 39.5 -42.5 q28.5 -31.5 32.5 -45.5 q-13 -24 -43 -31 q-21 2 -34 19 l0 2 l-41 75 q-11 -24 -29.5 -58 q-18.5 -34 -44.5 -37 q-11 0 -19 7 l1 1 q-19 6 -30 23 q4 8 34.5 42.5 q30.5 34.5 40.5 45.5 l3 15 l-98 19 q-13 7 -17 19 q0 3 1 5 q4 27 31 35 q11 -2 51 -21 q40 -19 51 -25 l-7 9 l-10 99 q1 11 20.5 13 q19.5 2 27.5 1 q26 2 36 -15 l-11 -96 Z" /><glyph glyph-name="plus" unicode="+" d="M23 354 q6 19 28 16 l185 0 l-5 9 l0 199 q2 15 23.5 16 q21.5 1 32.5 0 q22 3 28 -16 l0 -199 l-5 -9 l189 0 q36 3 29 -33 q-7 -18 -29 -15 l-189 0 l5 -9 l0 -201 q-3 -13 -24 -14.5 q-21 -1.5 -30 -0.5 q-22 -2 -30 15 l0 201 l5 9 l-185 0 q-36 -3 -28 32 Z" /><glyph glyph-name="comma" unicode="," d="M176 50 q-2 -47 -41.5 -90 q-39.5 -43 -86.5 -46 q-10 -1 -13 8 q3 11 27.5 35 q24.5 24 27.5 44 q-3 9 -20.5 17.5 q-17.5 8.5 -20.5 41.5 q9 50 62 48 q60 0 65 -58 Z" /><glyph glyph-name="hyphen" unicode="-" d="M33 355 q5 19 27 16 l291 0 q23 3 30 -16 l0 -18 q-9 -16 -30 -14 l-291 0 q-20 -3 -27 14 l0 18 Z" /><glyph glyph-name="period" unicode="." d="M32 51 q7 54 64 54 q54 -1 59 -54 q-6 -51 -59 -51 q-56 -2 -64 51 Z" /><glyph glyph-name="slash" unicode="/" d="M300 702 q17 0 24 -12 l0 -1 q-12 -46 -106 -379.5 q-94 -333.5 -119 -420.5 q-6 -11 -26.5 -12.5 q-20.5 -1.5 -30.5 -0.5 q-16 -2 -22 12 l1 3 q5 22 51 180.5 q46 158.5 58 200.5 q56 207 111 414 q6 13 27 15 q21 2 32 1 Z" /><glyph glyph-name="zero" unicode="0" d="M40 344 q-2 116 51 224 q53 108 184 116 q137 -7 187 -113.5 q50 -106.5 47 -226.5 q2 -116 -51.5 -223.5 q-53.5 -107.5 -182.5 -115.5 q-137 7 -187.5 112.5 q-50.5 105.5 -47.5 226.5 ZM134 344 q-4 -81 20 -185.5 q24 -104.5 121 -114.5 q94 10 118.5 115 q24.5 105 21.5 185 q3 79 -24 185 q-27 106 -116 116 q-98 -10 -121.5 -115 q-23.5 -105 -19.5 -186 Z" /><glyph glyph-name="one" unicode="1" d="M209 584 q-28 2 -39 22 q3 8 11 11 q30 16 93 48.5 q63 32.5 91 36.5 q16 1 19 -14 q-2 -88 -5 -177 l0 -403 q2 -39 4 -79 q-3 -13 -25.5 -18 q-22.5 -5 -34.5 -5 q-22 -1 -30 15 q1 301 2 601 l7 8 q-14 -7 -48.5 -25.5 q-34.5 -18.5 -44.5 -20.5 Z" /><glyph glyph-name="two" unicode="2" d="M94 585 l-7 8 q-1 4 -2 11 q1 8 4 13 q31 41 85 62 q54 21 104 21 q180 3 188 -173 q-8 -117 -105 -240.5 q-97 -123.5 -185 -206.5 l-4 -15 q149 1 298 2 q18 2 29 -8 q-5 -49 -57 -39 q-182 1 -365 2 q-18 2 -20 21 q20 30 162 178 q142 148 162 301 q1 53 -22 95.5 q-23 42.5 -81 44.5 q-55 -6 -95.5 -45.5 q-40.5 -39.5 -57.5 -45.5 q-17 1 -30 14 l-1 -1 l0 1 Z" /><glyph glyph-name="three" unicode="3" d="M120 576 q-29 9 -37 38 q9 35 83 60 q74 25 108 26 q72 1 134 -34 q62 -35 66 -114 q-11 -109 -114 -157 l-1 -17 q56 -16 97 -57.5 q41 -41.5 43 -102.5 q-3 -105 -75.5 -157 q-72.5 -52 -171.5 -52 q-35 0 -113 21 q-78 21 -87 58 q-2 35 25 48 q14 -1 23 -12 l-1 -1 q66 -67 157 -74 q65 2 110.5 48.5 q45.5 46.5 47.5 111.5 q-15 138 -122 142.5 q-107 4.5 -130 13.5 q-2 10 -2 21 q11 15 32 12 q51 -2 101 10 l-1 1 q93 38 98 137 q-6 112 -119 116 q-55 -5 -96.5 -43 q-41.5 -38 -54.5 -43 Z" /><glyph glyph-name="four" unicode="4" d="M33 233 q1 14 10 25 q96 137 189 275 q45 74 96 143 q26 31 66 25 q24 0 30 -22 q-1 -206 -3 -412 l-5 -9 q13 1 53.5 1 q40.5 0 45.5 -10 l0 -4 l-6 -9 l0 -1 q-10 -21 -40 -20.5 q-30 0.5 -53 2.5 l5 -9 q1 -90 2 -180 q-3 -12 -29.5 -16.5 q-26.5 -4.5 -38.5 -4.5 q-19 0 -21 17 l0 111 q1 37 1 73 l5 9 l-277 0 q-22 -2 -30 16 ZM335 575 q-28 -39 -113.5 -165 q-85.5 -126 -95.5 -153 l214 0 l-5 9 l0 309 Z" /><glyph glyph-name="five" unicode="5" d="M251 49 q73 3 109.5 56 q36.5 53 36.5 122 q1 69 -32.5 119.5 q-33.5 50.5 -107.5 52.5 q-42 -3 -71.5 -24 q-29.5 -21 -47.5 -24 q-20 4 -18 26 q0 149 -1 297 q7 16 27 13 q144 1 287 1 q18 3 29 -7 q-4 -34 -39 -34 q-60 2 -121 3 l-106 0 l5 -9 l0 -210 l-7 -8 q39 14 80 13 q201 -5 208 -206 q-13 -215 -231 -221 q-40 0 -107.5 22 q-67.5 22 -74.5 65 q3 13 9 24 l-1 1 q4 9 14 8 q27 -5 61.5 -40 q34.5 -35 98.5 -40 Z" /><glyph glyph-name="six" unicode="6" d="M435 684 l6 -17 q1 0 1 -2 q-6 -17 -28 -14 q-122 -14 -193.5 -94 q-71.5 -80 -80.5 -202 q68 68 164 62 q88 -2 141 -59 q53 -57 54 -144 q-11 -197 -208 -208 q-76 1 -137.5 42.5 q-61.5 41.5 -87.5 114.5 q-18 65 -16 132 q1 157 88 264 q87 107 242 138 q11 2 21 2 q22 1 34 -17 l0 2 ZM414 209 q1 64 -26.5 116 q-27.5 52 -98.5 55 q-68 -3 -107 -53.5 q-39 -50.5 -40 -115.5 q1 -65 40 -114.5 q39 -49.5 107 -52.5 q63 4 94 55.5 q31 51.5 31 109.5 Z" /><glyph glyph-name="seven" unicode="7" d="M475 631 q-33 -72 -131 -311.5 q-98 -239.5 -105 -287.5 q-23 -27 -65 -24 q-23 -3 -33 15 q13 43 110.5 286.5 q97.5 243.5 129.5 319.5 l-277 0 q-34 -5 -37 27 q10 14 28 11 l364 0 q19 2 22 -15 q-2 -10 -6 -22 l0 1 Z" /><glyph glyph-name="eight" unicode="8" d="M38 206 q15 124 134 172 l0 16 q-94 48 -95 152 q4 77 66.5 115.5 q62.5 38.5 133.5 38.5 q75 0 135.5 -39.5 q60.5 -39.5 63.5 -120.5 q-7 -99 -97 -145 l0 -16 q53 -21 92 -66.5 q39 -45.5 41 -104.5 q-3 -103 -70.5 -151 q-67.5 -48 -164.5 -48 q-94 0 -164.5 48.5 q-70.5 48.5 -74.5 148.5 ZM427 200 q-1 67 -41.5 112 q-40.5 45 -108.5 47 q-67 -1 -110 -43.5 q-43 -42.5 -44 -109.5 q1 -67 43.5 -110.5 q42.5 -43.5 110.5 -45.5 q141 9 150 150 ZM391 540 q-7 110 -114 122 q-106 -11 -114 -118 q0 -53 28.5 -95.5 q28.5 -42.5 85.5 -45.5 q55 2 84.5 43.5 q29.5 41.5 29.5 93.5 Z" /><glyph glyph-name="nine" unicode="9" d="M113 22 q-5 9 -7 19 q8 17 29 14 q123 13 194.5 93.5 q71.5 80.5 79.5 202.5 q-67 -68 -164 -62 q-88 2 -141 59 q-53 57 -54 144 q11 197 208 208 q128 -4 185 -87 q57 -83 56 -201 q-1 -157 -88 -264.5 q-87 -107.5 -242 -138.5 q-10 -2 -21 -2 q-22 0 -35 17 l0 -2 ZM135 497 q-1 -64 26.5 -116 q27.5 -52 98.5 -55 q67 3 106.5 54 q39.5 51 40.5 115 q-1 64 -41 114 q-40 50 -106 53 q-64 -3 -94.5 -55 q-30.5 -52 -30.5 -110 Z" /><glyph glyph-name="colon" unicode=":" d="M72 51 q6 54 62 54 q55 -1 61 -54 q-7 -51 -61 -51 q-56 -2 -62 51 ZM72 415 q6 55 62 55 q55 -2 61 -55 q-7 -51 -61 -51 q-56 -1 -62 51 Z" /><glyph glyph-name="semicolon" unicode=";" d="M90 415 q6 55 62 55 q55 -2 61 -55 q-7 -51 -61 -51 q-56 -1 -62 51 ZM213 50 q-2 -47 -41.5 -90.5 q-39.5 -43.5 -86.5 -46.5 q-9 -1 -12 7 q4 11 28.5 36 q24.5 25 28.5 45 q-1 9 -10 11 l0 -1 q-31 14 -33 49 q11 46 61 45 q59 1 65 -55 Z" /><glyph glyph-name="less" unicode="&lt;" d="M43 353 q5 17 23 21 l-1 1 q45 21 242 111.5 q197 90.5 226 102.5 q26 -11 16 -47 q-6 -13 -21 -21 l-390 -170 l0 -16 q172 -76 341 -159 q33 -11 63 -27 q12 -21 7 -48 q-3 -13 -18 -12 q-27 6 -116.5 50.5 q-89.5 44.5 -124.5 62.5 l2 1 q-17 1 -10 3 q-109 51 -217 105 q-29 11 -22 42 Z" /><glyph glyph-name="equal" unicode="=" d="M548 430 q-8 -17 -29 -14 l-448 0 q-21 -3 -28 14 l0 27 q7 18 28 15 l448 0 q22 3 29 -15 l0 -27 ZM548 234 q-8 -17 -29 -14 l-448 0 q-21 -3 -28 14 l0 28 q7 16 28 13 l448 0 q21 3 29 -13 l0 -28 Z" /><glyph glyph-name="greater" unicode="&gt;" d="M549 332 q-13 -21 -112.5 -67.5 q-99.5 -46.5 -134.5 -62.5 q-35 -18 -130 -64.5 q-95 -46.5 -113 -52.5 q-16 2 -16.5 19.5 q-0.5 17.5 0.5 29.5 q3 14 16 19 q196 91 392 182 l0 16 l-374 165 q-28 11 -32 21 q-4 10 -2 40 q5 9 18 8 q13 0 24 -4 q220 -105 442 -206 q30 -11 22 -43 Z" /><glyph glyph-name="question" unicode="?" d="M219 700 q68 1 131.5 -33.5 q63.5 -34.5 68.5 -109.5 q-5 -61 -54 -110.5 q-49 -49.5 -85 -98.5 q-24 -52 -21 -95.5 q3 -43.5 -42 -46.5 q-35 -1 -36 33 q10 135 76.5 185.5 q66.5 50.5 76.5 128.5 q-6 109 -117 109 q-60 -7 -102.5 -59.5 q-42.5 -52.5 -61.5 -60.5 q-22 6 -36 29 q-2 4 -2 10 q2 7 6 13 q31 47 87 76 q56 29 111 30 ZM157 51 q10 48 62 45 q51 2 61 -45 q-11 -45 -61 -42 q-51 -4 -62 42 Z" /><glyph glyph-name="at" unicode="@" d="M502 532 q9 19 32 18 q28 -1 40 -21 q-4 -37 -14 -74 q-27 -106 -34 -214 q-3 -26 20 -33 q65 6 98 73.5 q33 67.5 33 126.5 q-3 123 -79.5 186 q-76.5 63 -194.5 63 q-128 -5 -204.5 -97 q-76.5 -92 -78.5 -216 q0 -280 276 -292 q87 5 148 39.5 q61 34.5 85 39.5 q21 1 25 -19 q-3 -15 -17 -22 l0 -1 q-108 -79 -241 -80 q-159 1 -256 86.5 q-97 85.5 -100 248.5 q4 156 108 256 q104 100 260 103 q133 0 237.5 -72 q104.5 -72 110.5 -214 q-1 -100 -61 -176.5 q-60 -76.5 -164 -80.5 q-58 -3 -79 50 q-51 -47 -118 -50 q-136 10 -126 150 q1 95 54.5 172 q53.5 77 154.5 82 q50 3 85 -31 l0 -1 ZM470 438 q1 27 -10.5 53.5 q-11.5 26.5 -43.5 28.5 q-76 -6 -103.5 -76.5 q-27.5 -70.5 -25.5 -137.5 q-1 -32 10 -63 q11 -31 48 -33 q69 8 97.5 87.5 q28.5 79.5 27.5 140.5 Z" /><glyph glyph-name="A" unicode="A" d="M429 261 l-242 0 l5 -6 q-43 -118 -90 -234 l0 -1 q-14 -12 -35 -11 q-9 -1 -31.5 0 q-22.5 1 -25.5 11 q1 2 1 6 q11 26 24 50 l-1 1 q114 288 226 576 q10 35 43 37 q36 6 53 -23 q3 -2 2 -5 q87 -241 181 -479 q9 -20 35.5 -84 q26.5 -64 29.5 -77 q-3 -11 -25 -13 q-22 -2 -32 -1 q-22 -3 -36 12 q-49 116 -87 235 l5 6 ZM406 303 q-25 53 -50.5 133 q-25.5 80 -45.5 140 q-46 -138 -99 -273 l195 0 Z" /><glyph glyph-name="B" unicode="B" d="M79 496 q-1 85 -6 169 q-1 30 31 26 q97 8 196 9 q68 1 147 -29 q79 -30 86 -108 q-13 -135 -151 -165 l0 -18 q71 -10 126 -50.5 q55 -40.5 58 -117.5 q-11 -135 -137.5 -171.5 q-126.5 -36.5 -240.5 -31.5 l-83 0 q-19 -2 -29 13 q-2 18 0 55 q2 37 3 57 l0 362 ZM475 218 q-5 73 -72 104.5 q-67 31.5 -132 30.5 q-54 -1 -109 -4 l5 -9 q1 -139 2 -278 l-5 -9 q96 -5 199 21.5 q103 26.5 112 143.5 ZM167 402 l-3 -6 q-3 7 -9 12 l8 -12 q0 -1 -1 -3 l3 0 q83 -2 178 30.5 q95 32.5 103 130.5 q-2 59 -55 87 l1 1 q-59 18 -122 17 q-54 2 -107 -4 l4 -9 l0 -244 ZM165 393 l-2 2 l1 1 l2 -3 l-1 0 Z" /><glyph glyph-name="C" unicode="C" d="M390 -3 q-159 3 -245 100 q-86 97 -87 253 q3 143 94.5 244 q91.5 101 236.5 106 q45 0 103 -11 q58 -11 95 -36 q10 -7 16 -14 q-14 -26 -47 -32 q-18 3 -63.5 25.5 q-45.5 22.5 -105.5 25.5 q-122 -6 -181 -101 q-59 -95 -59 -207 q0 -90 40 -168.5 q40 -78.5 123 -118.5 q35 -17 72 -21 q96 7 179 53 q3 1 8 2 l-2 1 q16 12 35 15 q11 0 16 -10 l0 -2 q4 -4 3 -9 q-10 -56 -96 -76 q-86 -20 -135 -19 Z" /><glyph glyph-name="D" unicode="D" d="M78 427 q-2 118 -5 236 q7 24 34 23 q110 12 222 10 q8 0 16 -2 l-1 0 q141 -11 220 -100 q79 -89 80 -228 q-5 -152 -109 -244.5 q-104 -92.5 -250 -108.5 q-91 -6 -184 -4 q-17 -1 -27 11 q2 54 4 110 l0 297 ZM167 63 l-3 -6 q-3 7 -9 12 l8 -12 q0 -1 -1 -3 q49 -2 97 3 q117 20 203.5 103 q86.5 83 90.5 206 q-1 116 -67 198.5 q-66 82.5 -188 86.5 q-68 -2 -136 -4 l5 -9 l0 -575 ZM163 56 l1 1 l2 -3 l-3 2 Z" /><glyph glyph-name="E" unicode="E" d="M496 56 q22 4 33 -8 q-5 -14 -14 -29 q-20 -18 -51 -10 q-179 -1 -358 -2 q-32 1 -32.5 17.5 q-0.5 16.5 1.5 42.5 q-1 302 -2 603 q5 29 38 24 q190 -2 380 1 q18 -1 35 -6 q-7 -42 -47 -41 q-81 1 -163 1 l-158 0 l5 -9 l0 -232 l-5 -9 q149 1 296 2 q21 2 35 -4 q-6 -17 -17 -33 q-14 -12 -57 -10.5 q-43 1.5 -62 2.5 l-195 0 l5 -9 l0 -284 l-5 -9 q169 1 338 2 Z" /><glyph glyph-name="F" unicode="F" d="M78 490 q-2 72 -4 144 q-2 22 0 40.5 q2 18.5 29 19.5 l390 0 q16 0 32 -7 l0 -3 l-7 -18 l0 -2 l-1 4 q-7 -23 -49.5 -22 q-42.5 1 -59.5 3 q-124 -1 -249 -3 l5 -9 q1 -46 1 -93 l0 -141 l-5 -9 l211 1 l79 0 q18 2 30 -7 l-1 -1 q0 -9 -7 -16 l0 -1 l-3 -6 l1 -4 l-2 3 q-9 -19 -29 -13 l-279 0 l5 -9 q1 -160 1 -320 q-3 -10 -28.5 -13 q-25.5 -3 -36.5 -3 q-20 -2 -28 13 q3 101 5 202 l0 270 Z" /><glyph glyph-name="G" unicode="G" d="M638 -9 q-8 -15 -26 -13 q-14 -1 -27 5 l0 1 l-9 3 l1 0 l-26 13 l0 69 q-76 -74 -184 -72 q-153 4 -231 106 q-78 102 -78 247 q3 143 94.5 244 q91.5 101 236.5 106 q45 0 103 -11 q58 -11 95 -36 q10 -7 16 -14 q-14 -26 -47 -32 q-17 3 -63 25.5 q-46 22.5 -106 25.5 q-122 -6 -181 -101 q-59 -95 -59 -207 q-1 -108 52.5 -204.5 q53.5 -96.5 172.5 -103.5 q54 2 103 39.5 q49 37.5 78 80.5 l-1 5 l0 123 l5 9 q-87 0 -174 -1 q-9 0 -20 1 q-3 2 -3 3 q2 16 12 29 l-1 2 q9 14 25 12 l212 -1 q26 2 30 -21 l0 -332 Z" /><glyph glyph-name="H" unicode="H" d="M510 678 q27 17 61 18 q25 5 33 -14 q-2 -70 -3 -140 l0 -313 q0 -103 4 -207 q-29 -20 -64 -19 q-21 -2 -31 13 q4 166 3 331 l5 9 l-358 0 l5 -9 q2 -161 4 -323 q-9 -10 -25 -13 l1 0 q-20 -6 -40 -6 q-21 -1 -31 13 q2 331 0 662 q27 18 62 16 l5 0 l-1 0 q22 4 28 -14 q-4 -137 -3 -274 l-5 -9 l358 0 l-5 9 q-1 135 -3 270 Z" /><glyph glyph-name="I" unicode="I" d="M26 690 q5 19 27 16 l231 0 q38 3 30 -34 q-6 -16 -48 -15.5 q-42 0.5 -51 1.5 l5 -9 l0 -602 l-5 -9 q40 3 69 3.5 q29 0.5 30 -37.5 q-9 -16 -30 -14 l-231 0 q-35 -3 -27 32 q6 19 49.5 18.5 q43.5 -0.5 56.5 -2.5 l-5 9 q5 263 3 526 q-2 38 -3 76 l5 9 q-47 -3 -76 -3.5 q-29 -0.5 -30 35.5 Z" /><glyph glyph-name="J" unicode="J" d="M18 690 q5 19 27 16 l231 0 q38 3 30 -34 q-5 -15 -46 -15 q-41 0 -55 1 l5 -9 q-1 -184 -2 -368 q4 -114 -24 -222.5 q-28 -108.5 -137 -168.5 q-15 -9 -32 -10 q-14 0 -22 11 q-3 -1 -4 -3 l1 6 q-15 18 -27 40 l3 -1 q12 2 22 8 l-1 1 l6 0 l-2 1 q66 34 97 107.5 q31 73.5 31 145.5 l0 377 q-2 38 -3 76 l5 9 q-16 -1 -57 -1.5 q-41 -0.5 -46 15.5 l0 18 ZM-14 -57 l0 0 q0 -1 1 -1 l0 0 l-1 1 Z" /><glyph glyph-name="K" unicode="K" d="M74 680 q12 10 27 13 l-1 0 q16 4 34 3 q25 5 34 -14 q-2 -70 -3 -140 l0 -157 q144 148 285 299 q37 19 79 12 q11 1 15 -8 q-13 -15 -114 -121.5 q-101 -106.5 -137 -144.5 l0 -11 l200 -293 l0 -1 q12 -16 39.5 -53.5 q27.5 -37.5 30.5 -46.5 q-3 -9 -27.5 -10.5 q-24.5 -1.5 -35.5 -1.5 q-20 -1 -36 9 q-113 176 -228 350 l-72 -74 q1 -15 3 -122 q2 -107 2 -144 q-9 -10 -25 -13 l1 0 q-20 -6 -41 -6 q-20 -1 -30 13 q2 331 0 662 ZM100 693 q-1 0 -1 1 l0 0 l1 -1 ZM99 694 l0 0 q-1 0 -1 1 l0 1 l1 -2 Z" /><glyph glyph-name="L" unicode="L" d="M165 197 q0 -67 -1 -134 l-5 -9 q168 1 335 2 q20 2 33 -6 l0 -1 l0 -1 l-1 1 l0 1 q-1 -19 -13 -34 l0 -1 q-7 -14 -24 -11 l-383 0 q-24 -3 -32 17 q-1 330 -1 659 q25 18 60 16 l7 0 l-1 0 q22 4 28 -14 q-3 -242 -2 -485 Z" /><glyph glyph-name="M" unicode="M" d="M65 643 q2 37 26.5 44 q24.5 7 54.5 5 q44 -1 62 -41 l-1 0 l4 -7 q53 -100 103 -235 q50 -135 88 -241 q4 5 4 10 q101 242 191 488 q12 24 42 26 q30 2 53 0 q46 -6 45.5 -63 q-0.5 -57 -4.5 -87 l0 -313 q2 -103 4 -207 q-9 -10 -25 -13 l1 -1 q-17 -5 -35 -5 q-23 -2 -34 13 q2 107 3 214 l0 338 l-190 -468 q-9 -15 -25 -24 q-27 -2 -54 -1 q-24 -3 -31 19 l-194 476 l0 -341 q2 -102 4 -205 q-9 -10 -24 -13 l1 -1 q-19 -5 -39 -5 q-21 -2 -31 13 q3 313 1 625 Z" /><glyph glyph-name="N" unicode="N" d="M563 7 q-22 3 -46.5 29.5 q-24.5 26.5 -36.5 45.5 l-326 472 l0 -52 q3 -239 5 -478 q-9 -10 -25 -13 l1 0 q-20 -6 -40 -6 q-21 -1 -31 13 q4 327 3 653 q13 29 50 21 q60 -9 88 -76 l318 -454 l0 306 q-2 103 -4 205 q9 10 25 13 l-1 1 q19 6 38 5 q23 2 33 -13 q-4 -324 -3 -649 q-9 -33 -48 -23 Z" /><glyph glyph-name="O" unicode="O" d="M58 350 q1 158 86 253 q85 95 246 98 q161 -3 241 -99.5 q80 -96.5 80 -251.5 q0 -154 -80.5 -252 q-80.5 -98 -240.5 -101 q-164 2 -248 97.5 q-84 95.5 -84 255.5 ZM615 352 q2 112 -49.5 206 q-51.5 94 -175.5 100 q-127 -5 -182 -97.5 q-55 -92.5 -54 -208.5 q-2 -118 52 -211.5 q54 -93.5 184 -98.5 q124 6 175.5 102 q51.5 96 49.5 208 Z" /><glyph glyph-name="P" unicode="P" d="M77 495 q-2 85 -4 170 q3 32 35 30 q108 3 215 5 q84 2 149 -33 q65 -35 69 -129 q-10 -142 -135 -178 q-125 -36 -243 -30 l5 -9 q2 -148 4 -297 q-9 -10 -25 -13 l1 -1 q-24 -7 -49 -5 q-17 0 -25 13 q2 106 3 212 l0 265 ZM272 659 q-54 -1 -109 -4 l5 -9 l0 -266 l-5 -9 l69 0 q89 -2 149.5 31 q60.5 33 63.5 130 q5 65 -41 107 l0 1 q-43 22 -93 19 l-39 0 Z" /><glyph glyph-name="Q" unicode="Q" d="M491 -7 q-4 5 -6 11 l1 0 l5 3 q-41 -10 -83 -10 q-158 3 -244.5 101 q-86.5 98 -87.5 252 q2 150 90.5 248.5 q88.5 98.5 241.5 102.5 q150 -4 235 -105 q85 -101 86 -246 q1 -99 -40.5 -184.5 q-41.5 -85.5 -130.5 -134.5 l2 -12 q30 -58 76.5 -109.5 q46.5 -51.5 115.5 -54.5 q25 1 48 -7 q-19 -16 -53 -24 q-34 -8 -59 -8 q-69 2 -108.5 41.5 q-39.5 39.5 -67.5 97.5 q-9 20 -22 37 l1 1 ZM633 352 q1 108 -53 204 q-54 96 -172 102 q-124 -6 -180.5 -99 q-56.5 -93 -55.5 -207 q-4 -153 99 -262 q54 56 130 60 q80 -1 121 -70 q62 47 87 122 q25 75 24 150 ZM408 42 q24 0 48 5 l-3 14 q-23 38 -64 46 q-41 -5 -78 -28 l0 -16 q46 -21 97 -21 Z" /><glyph glyph-name="R" unicode="R" d="M77 494 q-2 86 -4 172 q3 32 35 30 q114 2 228 4 q81 1 141.5 -36.5 q60.5 -37.5 63.5 -126.5 q-2 -78 -51.5 -125 q-49.5 -47 -120.5 -65 q14 -45 97.5 -174 q83.5 -129 95.5 -150 q-2 -11 -14 -14 l-56 0 q-19 3 -35 11 q-92 151 -171 308 l6 5 q-64 -7 -129 -4 l5 -9 q2 -148 4 -296 q-9 -10 -25 -13 l1 -1 q-20 -5 -41 -5 q-22 -2 -33 13 q2 106 3 212 l0 264 ZM311 659 q-74 -1 -148 -5 l5 -9 l0 -266 l-5 -9 l69 0 q88 -2 149.5 31 q61.5 33 64.5 130 q5 65 -42 107 l0 1 q-43 22 -93 20 Z" /><glyph glyph-name="S" unicode="S" d="M53 95 q5 8 14 8 q17 -4 71 -33.5 q54 -29.5 134 -33.5 q67 1 114 43 q47 42 49 111 q-24 113 -189.5 164.5 q-165.5 51.5 -189.5 173.5 q6 93 88.5 133 q82.5 40 165.5 39 q28 0 103 -14 q75 -14 84 -42 q-3 -35 -35 -43 q-14 4 -54.5 31 q-40.5 27 -91.5 31 q-64 1 -114 -25 q-50 -26 -53 -97 q24 -104 188.5 -157.5 q164.5 -53.5 187.5 -179.5 q-5 -107 -87.5 -157.5 q-82.5 -50.5 -182.5 -49.5 q-38 0 -116.5 14.5 q-78.5 14.5 -98.5 47.5 q5 19 12 37 l1 -1 Z" /><glyph glyph-name="T" unicode="T" d="M521 687 q22 3 32 -10 q-1 -10 -7 -19 l1 -4 l-2 3 q-15 -19 -53 -18 q-38 1 -57 3 l-107 0 l5 -9 q-4 -304 4 -609 q-29 -20 -64 -19 q-21 -1 -31 13 q5 308 3 615 l5 9 l-212 -1 q-21 -2 -34 6 q1 41 41 40 l476 0 Z" /><glyph glyph-name="U" unicode="U" d="M340 -3 q-166 3 -217.5 96 q-51.5 93 -46.5 242 q-1 175 -3 349 q26 18 59 16 q26 5 35 -14 q-2 -70 -3 -140 l0 -161 q-6 -104 21 -220.5 q27 -116.5 155 -126.5 q153 10 173 137 q20 127 11 248 q-1 131 -3 262 q26 18 60 16 q25 5 34 -14 q-4 -202 -3 -404 q4 -279 -272 -286 Z" /><glyph glyph-name="V" unicode="V" d="M548 692 q10 1 31.5 -1 q21.5 -2 24.5 -13 q-1 -6 -9 -25 q-8 -19 -11 -27 q-96 -249 -193 -499 l0 -1 q-5 -13 -16.5 -44.5 q-11.5 -31.5 -15.5 -38.5 q-13 -42 -61 -34 q-8 1 -16 4 q-13 15 -22 33 q-91 236 -181 471 l0 1 q-23 49 -43 100 l-2 2 l0 4 q-12 31 -27 60 q30 10 61 7 q21 2 35 -11 l0 -1 q108 -268 208 -539 q98 272 201 540 q14 15 36 12 Z" /><glyph glyph-name="W" unicode="W" d="M10 680 q0 11 30 12 q30 1 41 0 q22 2 31 -17 q71 -271 152 -537 q18 59 87 283 q69 224 77 257 q8 13 31 14 q23 1 38 0 q21 3 32 -13 l24 -74 l146 -462 l26 87 q45 153 89 306 q16 69 38 135 q11 20 35 20.5 q24 0.5 44 -0.5 q15 1 23 -9 q-1 -4 -11 -33.5 q-10 -29.5 -13 -38.5 q-34 -100 -63 -201 q-17 -59 -65 -206.5 q-48 -147.5 -53 -167.5 q-17 -29 -52 -26 q-33 -2 -50 26 q-2 8 -20 64 q-18 56 -23 71 q-64 202 -124 406 l-168 -542 q-17 -30 -53 -25 q-34 -3 -51 26 q-46 153 -93 304 l-105 341 Z" /><glyph glyph-name="X" unicode="X" d="M334 308 q-47 -62 -92 -126 q-54 -78 -106 -157 q-12 -14 -39 -15.5 q-27 -1.5 -42 -0.5 q-14 -1 -19 9 q10 19 104 145 q94 126 147 201 l0 10 q-31 43 -118.5 167 q-87.5 124 -98.5 143 q3 9 29.5 9 q26.5 0 33.5 -1 q22 1 34 -17 q47 -72 96 -145 q35 -51 72 -100 q87 119 164 244 l-1 1 q11 17 37 17.5 q26 0.5 42 -0.5 q14 1 20 -8 q-11 -19 -98 -143 q-87 -124 -118 -166 l0 -10 q31 -43 134 -183.5 q103 -140.5 116 -163.5 q-3 -10 -27 -10 q-24 0 -32 1 q-23 1 -40 16 q-53 79 -107 157 q-45 63 -91 126 Z" /><glyph glyph-name="Y" unicode="Y" d="M344 287 q1 -14 1.5 -119.5 q0.5 -105.5 0.5 -146.5 q-27 -18 -61 -16 q-23 -3 -32 13 q3 101 5 202 q0 9 0 33.5 q0 24.5 1 30.5 l-89 158 l0 1 q-15 26 -70.5 124 q-55.5 98 -62.5 113 q3 13 25 13 q22 0 32 -1 q25 1 35 -20 q23 -34 87 -152.5 q64 -118.5 87 -161.5 q27 50 55 100 l120 212 q13 17 33 20 l-1 0 q9 3 17 2 q28 4 39 -15 q-12 -28 -102.5 -185 q-90.5 -157 -119.5 -205 Z" /><glyph glyph-name="Z" unicode="Z" d="M554 31 l0 0 q0 -1 -1 -1 l0 0 l1 1 ZM21 27 q27 50 215 307.5 q188 257.5 213 314.5 l-357 -1 q-23 -5 -32 11 q2 36 39 35 q215 -1 430 -2 q22 -1 25 -22 q-25 -53 -206 -299 q-181 -246 -214 -317 q196 1 392 2 q17 0 32 -7 l0 -2 q-4 -35 -43 -39 q-227 2 -455 1 q-28 -4 -39 18 Z" /><glyph glyph-name="bracketleft" unicode="[" d="M72 685 q8 16 28 16 l149 0 q18 2 29 -13 l0 -11 l0 0 q-2 -1 -2 -3 l1 -1 q-10 -16 -58 -14.5 q-48 1.5 -64 2.5 l5 -9 l0 -787 l-5 -9 q15 1 65 1.5 q50 0.5 57 -11.5 l0 -19 q-9 -12 -28 -9 l-147 0 q-20 -2 -28 12 q0 41 2 83 l0 603 q-2 85 -4 169 Z" /><glyph glyph-name="backslash" unicode="\" d="M324 -168 l1 -3 q-2 -10 -21.5 -11 q-19.5 -1 -26.5 0 q-22 -3 -33 16 l-239 865 l1 3 q5 12 21 13 l27 0 q22 -1 34 -18 l236 -864 l0 -1 Z" /><glyph glyph-name="bracketright" unicode="]" d="M227 -170 q-9 -14 -28 -12 l-147 0 q-36 -6 -29 28 q6 12 55.5 11.5 q49.5 -0.5 66.5 -1.5 l-5 9 l0 787 l5 9 q-16 -1 -64 -2.5 q-48 -1.5 -58 14.5 q1 1 -1 4 l0 11 q11 15 30 13 l149 0 q20 0 28 -16 q-2 -84 -4 -169 q1 -344 2 -686 Z" /><glyph glyph-name="asciicircum" unicode="^" d="M197 669 q24 -1 38 -21 l122 -243 l0 -2 q-3 -12 -23 -12.5 q-20 -0.5 -28 0.5 q-21 -2 -35 14 l-79 168 l-82 -168 q-8 -13 -29.5 -14 q-21.5 -1 -34.5 0 q-13 0 -26 2 l130 256 q17 24 47 20 Z" /><glyph glyph-name="underscore" unicode="_" d="M42 -48 q-21 -3 -29 14 l0 19 q9 17 29 15 l441 0 q21 1 29 -15 l0 -19 q-8 -15 -29 -14 l-441 0 Z" /><glyph glyph-name="grave" unicode="`" d="M162 531 q-15 0 -27 8 q-13 11 -62.5 58 q-49.5 47 -56.5 65 q9 30 43 29 q20 1 36 -11 q17 -20 54.5 -67.5 q37.5 -47.5 41.5 -62.5 q-7 -20 -29 -19 Z" /><glyph glyph-name="a" unicode="a" d="M478 20 q-2 -17 -25 -21.5 q-23 -4.5 -38 -3.5 q-22 2 -23 20.5 q-1 18.5 1 35.5 q-58 -49 -134 -53 q-105 2 -164.5 66.5 q-59.5 64.5 -60.5 167.5 q0 109 56 180 q56 71 169 73 q78 0 134 -53 q-2 56 58 45 q31 3 27 -26 l0 -431 ZM119 239 q-1 -71 29.5 -134.5 q30.5 -63.5 110.5 -67.5 q77 5 106 69.5 q29 64.5 28 132.5 q1 66 -29.5 135 q-30.5 69 -105.5 74 q-78 -5 -109 -73 q-31 -68 -30 -136 Z" /><glyph glyph-name="b" unicode="b" d="M66 571 q-1 55 -3 112 q3 11 26.5 14.5 q23.5 3.5 35.5 3.5 q22 3 29 -16 q-2 -69 -3 -139 l0 -138 q61 76 158 77 q98 -2 158 -66 q60 -64 62 -161 q0 -114 -57 -186 q-57 -72 -175 -74 q-84 3 -146 61 q5 -57 -56 -50 q-21 -2 -32 9 q5 276 3 553 ZM442 258 q1 68 -31.5 127 q-32.5 59 -108.5 63 q-71 -5 -110.5 -71 q-39.5 -66 -40.5 -132 q-1 -75 31 -139.5 q32 -64.5 115 -68.5 q83 5 114.5 77 q31.5 72 30.5 144 Z" /><glyph glyph-name="c" unicode="c" d="M38 239 q10 235 244 246 q38 0 88 -9 q50 -9 82 -29 l1 -5 q1 -34 -31 -40 q-8 3 -45 23 q-37 20 -95 23 q-91 -3 -126 -64 q-35 -61 -33 -144 q0 -76 38 -137.5 q38 -61.5 120 -65.5 q69 4 106.5 31.5 q37.5 27.5 50.5 31.5 q26 -11 21 -43 q-30 -35 -83 -47.5 q-53 -12.5 -98 -11.5 q-107 2 -172.5 68 q-65.5 66 -67.5 173 Z" /><glyph glyph-name="d" unicode="d" d="M422 61 q-65 -60 -155 -63 q-112 3 -170.5 76 q-58.5 73 -58.5 181 q2 102 64 165 q62 63 165 65 q93 -3 155 -70 l0 156 q-1 55 -3 112 q3 11 26.5 14.5 q23.5 3.5 35.5 3.5 q23 3 28 -16 q-2 -69 -2 -139 l0 -429 q2 -37 4 -74 l0 -16 q-24 -22 -58 -18 q-45 3 -31 52 ZM124 255 q-1 -71 30.5 -142 q31.5 -71 112.5 -76 q90 3 123.5 63 q33.5 60 31.5 142 q-1 69 -43 135 q-42 66 -117 71 q-74 -4 -106.5 -65 q-32.5 -61 -31.5 -128 Z" /><glyph glyph-name="e" unicode="e" d="M118 237 l5 -10 q3 -86 40.5 -137.5 q37.5 -51.5 128.5 -52.5 q52 3 94 26.5 q42 23.5 66 26.5 q19 -9 13 -34 q-6 -11 -18 -16 l1 0 q-72 -42 -156 -42 q-253 3 -254 256 q2 108 66.5 169 q64.5 61 171.5 62 q211 -15 208 -230 q-4 -24 -31 -18 l-335 0 ZM276 448 q-68 -2 -107 -48.5 q-39 -46.5 -43 -112.5 l-5 -9 l285 0 l-5 9 q1 62 -28 110 q-29 48 -97 51 Z" /><glyph glyph-name="f" unicode="f" d="M41 447 q-15 -2 -26 5 q2 7 3 13 q30 34 82 20 l-5 9 l0 27 q2 82 56.5 130.5 q54.5 48.5 134.5 49.5 q22 3 28 -15 q-3 -34 -41 -37 q-38 -3 -74 -38 q-28 -53 -23 -117 l-5 -9 q48 1 96 1 q12 1 23 -5 q-9 -35 -27.5 -35.5 q-18.5 -0.5 -58.5 2.5 l-33 0 l5 -9 q1 -209 1 -418 q-25 -17 -56 -16 q-22 -3 -31 13 q3 83 5 166 l0 255 l5 9 q-29 0 -59 -1 Z" /><glyph glyph-name="g" unicode="g" d="M120 246 q-2 -72 27 -138 q29 -66 111 -71 q76 4 111 63.5 q35 59.5 35 129.5 q1 71 -32 142 q-33 71 -113 76 q-78 -5 -109 -69 q-31 -64 -30 -133 ZM258 -141 q92 3 123 64.5 q31 61.5 29 142.5 q-60 -67 -151 -68 q-228 13 -226 246 q1 227 224 241 q95 2 155 -70 l0 55 q24 17 54 15 q25 6 27 -17 q-2 -117 -3 -234 q10 -147 -17.5 -277 q-27.5 -130 -214.5 -139 q-50 0 -109 19 q-59 19 -97 54 q-10 7 -12 19 l0 1 l1 1 q5 12 11 24 l-1 1 q5 12 19 13 q16 -1 25 -13 l-1 -1 q69 -69 164 -77 Z" /><glyph glyph-name="h" unicode="h" d="M64 678 q14 11 30 12 q13 2 29 3 q24 5 32 -13 q-2 -70 -3 -140 l0 -120 q72 63 168 65 q172 -14 173 -172.5 q1 -158.5 4 -289.5 q-12 -7 -25 -12 l1 -1 q-17 -5 -34 -5 q-22 -2 -33 13 q2 106 3 211 l0 70 q2 53 -18 99.5 q-20 46.5 -81 49.5 q-50 -3 -91 -40.5 q-41 -37.5 -68 -77.5 q5 -27 2 -141 q-3 -114 2 -166 q-12 -7 -25 -12 l1 -1 q-17 -5 -34 -5 q-22 -2 -33 13 q2 330 0 660 Z" /><glyph glyph-name="i" unicode="i" d="M77 459 q8 13 24 13 l-1 0 q20 6 40 5 q22 4 28 -14 q-2 -218 0 -437 q-3 -12 -28.5 -16.5 q-25.5 -4.5 -36.5 -4.5 q-19 -2 -26 13 l0 441 ZM62 621 q10 45 58 45 q51 1 61 -45 q-12 -43 -61 -40 q-47 -2 -58 40 Z" /><glyph glyph-name="j" unicode="j" d="M17 -183 q-13 0 -21 10 q-1 -2 -4 -3 l1 6 q-16 18 -28 39 l3 -1 q12 2 22 9 l-1 1 l7 0 l-2 1 q64 35 95.5 108 q31.5 73 31.5 144 q-1 164 -3 327 q25 17 57 18 q25 5 34 -14 q-2 -69 -3 -139 q3 -105 -0.5 -211 q-3.5 -106 -61.5 -199 q-18 -27 -55.5 -60 q-37.5 -33 -71.5 -36 ZM107 619 q11 43 57 43 q48 0 58 -43 q-12 -40 -58 -38 q-45 -2 -57 38 ZM-12 -121 l0 0 q0 -1 1 -1 l0 0 l-1 1 Z" /><glyph glyph-name="k" unicode="k" d="M64 678 q26 17 60 15 l7 0 l-1 0 q22 5 28 -13 q-2 -70 -3 -140 l0 -266 q83 75 167 149 l-1 1 q29 31 47.5 43 q18.5 12 59.5 11 q20 2 35 -9 q-90 -78 -180 -158 l1 -12 q19 -27 96 -141 q77 -114 87 -135 q-12 -17 -38 -15 q-30 -3 -52 12 l0 1 q-75 121 -151 241 l-72 -63 q4 -15 2 -78 q-2 -63 2 -98 q-12 -7 -25 -12 l1 -1 q-18 -5 -38 -5 q-21 -2 -32 13 q2 330 0 660 Z" /><glyph glyph-name="l" unicode="l" d="M63 678 q25 15 57 15 q25 5 34 -13 q-4 -225 -3 -451 q-6 -104 3 -206 q-12 -7 -25 -12 l1 -1 q-17 -5 -34 -5 q-22 -2 -33 13 q2 330 0 660 Z" /><glyph glyph-name="m" unicode="m" d="M287 485 q95 2 139 -81 q59 84 162 81 q165 -3 168 -167 q1 -145 2 -290 q-2 -12 -23.5 -15.5 q-21.5 -3.5 -32.5 -3.5 q-23 -1 -33 14 q1 57 2 113 l0 150 q2 52 -14 105 q-16 53 -78 57 q-58 -4 -90 -58.5 q-32 -54.5 -35 -106.5 q-2 -38 -2 -77 l0 -179 q-7 -11 -24 -14 l1 0 q-17 -4 -35 -4 q-21 -3 -27 14 q2 63 2 126 l0 137 q2 50 -16.5 104 q-18.5 54 -76.5 58 q-43 -4 -80.5 -52 q-37.5 -48 -40.5 -89 q0 -140 1 -281 q-28 -19 -64 -18 q-19 -3 -25 14 q2 49 3 98 l0 240 q-1 52 -6 103 q30 21 68 22 q26 -1 26 -17 q0 -16 -3 -39 q55 54 132 56 Z" /><glyph glyph-name="n" unicode="n" d="M64 460 q25 17 59 16 l5 0 l-1 0 q28 1 29 -13.5 q1 -14.5 -2 -39.5 q71 62 166 62 q176 -14 176.5 -172.5 q0.5 -158.5 3.5 -289.5 q-12 -7 -25 -12 l1 -1 q-17 -5 -34 -5 q-22 -2 -33 13 q2 62 3 124 l0 157 q1 53 -20 99.5 q-21 46.5 -82 49.5 q-48 -3 -90.5 -41 q-42.5 -38 -68.5 -76 q5 -27 2 -141.5 q-3 -114.5 2 -166.5 q-12 -7 -25 -12 l1 -1 q-16 -5 -33 -5 q-23 -2 -34 13 q2 222 0 442 Z" /><glyph glyph-name="o" unicode="o" d="M38 243 q1 230 228 242 q238 -4 229 -242 q-1 -106 -61 -174.5 q-60 -68.5 -168 -70.5 q-232 9 -228 245 ZM127 243 q-3 -78 23.5 -140 q26.5 -62 115.5 -66 q86 4 114 67.5 q28 63.5 26 138.5 q3 76 -24.5 138.5 q-27.5 62.5 -115.5 66.5 q-87 -4 -114.5 -66.5 q-27.5 -62.5 -24.5 -138.5 Z" /><glyph glyph-name="p" unicode="p" d="M127 477 q26 -2 26.5 -22.5 q0.5 -20.5 -1.5 -41.5 q65 74 164 72 q112 -3 169.5 -73.5 q57.5 -70.5 57.5 -178.5 q-1 -103 -62 -168 q-61 -65 -165 -67 q-99 -2 -164 73 q1 -115 2 -230 q-2 -17 -26 -22 q-24 -5 -39 -4 q-20 -4 -26 12 q2 72 4 144 q-1 244 -2 488 q7 14 22 14 l-1 1 q20 5 41 3 ZM462 233 q1 72 -32 141 q-33 69 -114 74 q-83 -5 -120.5 -72.5 q-37.5 -67.5 -36.5 -142.5 q0 -73 39 -132.5 q39 -59.5 118 -63.5 q76 4 111 65.5 q35 61.5 35 130.5 Z" /><glyph glyph-name="q" unicode="q" d="M445 474 q19 5 37 3 q19 4 25 -11 l-1 -625 q-2 -21 -23 -23 l1 0 q-20 -5 -40 -3 q-18 -3 -22 12 q-1 78 3 157 l0 85 q-67 -67 -162 -71 q-109 3 -166.5 72.5 q-57.5 69.5 -58.5 174.5 q2 100 62.5 168.5 q60.5 68.5 162.5 71.5 q99 1 163 -73 q-14 47 20 61 l-1 1 ZM119 245 q-1 -70 32 -136.5 q33 -66.5 112 -71.5 q77 4 116 64 q39 60 39 132 q1 74 -35.5 142 q-36.5 68 -118.5 73 q-77 -5 -111.5 -69 q-34.5 -64 -33.5 -134 Z" /><glyph glyph-name="r" unicode="r" d="M63 459 q9 12 25 13 l-1 0 q20 6 40 5 q29 -1 28.5 -18 q-0.5 -17 -3.5 -44 q60 62 143 70 q24 3 33 -15 q5 -37 -30 -40 q-15 3 -29 5 q-80 -15 -119 -89 l1 -5 q2 -157 3 -315 q-3 -13 -27.5 -17 q-24.5 -4 -36.5 -4 q-19 -2 -27 13 l0 441 Z" /><glyph glyph-name="s" unicode="s" d="M29 50 q2 19 11 36 q6 7 14 7 q18 -3 64 -26 q46 -23 94 -26 q90 2 98 90 q-17 73 -136.5 113 q-119.5 40 -136.5 132 q5 60 65.5 85 q60.5 25 112.5 24 q23 1 77 -7 q54 -8 61 -31 l-1 -1 q-3 -12 -11 -24 l0 -1 q-5 -11 -17 -12 q-13 1 -24 9 l1 1 q-40 25 -86 27 q-34 0 -64 -16 q-30 -16 -32 -54 q17 -75 135.5 -115.5 q118.5 -40.5 135.5 -123.5 q-3 -75 -58.5 -107.5 q-55.5 -32.5 -123.5 -31.5 q-28 0 -99 13 q-71 13 -80 39 ZM41 87 q-1 0 -1 -1 l1 2 l0 -1 Z" /><glyph glyph-name="t" unicode="t" d="M40 439 q-15 -2 -25 5 q2 7 3 13 q2 5 6 9 l-1 5 l2 -4 q15 18 41 10 l32 0 l-5 9 q-1 57 -3 113 q2 7 19 10.5 q17 3.5 24 3.5 q24 3 41 -13 l-4 -114 l-5 -9 q51 1 102 1 q12 1 23 -5 q-9 -35 -29 -35.5 q-20 -0.5 -58 2.5 l-39 0 l5 -9 q-2 -28 -3 -170 q-1 -142 25 -189 q34 -28 78 -23 q16 3 24 -7 q-5 -39 -42 -45 q-106 1 -134 55.5 q-28 54.5 -24 149.5 l0 229 l5 9 q-29 0 -58 -1 Z" /><glyph glyph-name="u" unicode="u" d="M482 23 q-25 -18 -57 -16 q-32 0 -34 12 q-2 12 1 42 q-72 -62 -166 -63 q-146 8 -165.5 117 q-19.5 109 -11.5 224 q-1 60 -3 120 q10 10 25 13 l-1 1 q14 6 30 5 q25 3 37 -13 q-2 -62 -3 -124 l0 -157 q-1 -54 20 -99 q21 -45 82 -48 q50 3 91 39.5 q41 36.5 68 75.5 q-1 18 -2 141 q-1 123 -2 166 q11 8 23 13 l0 1 q17 6 34 5 q23 2 34 -13 q-1 -222 0 -442 Z" /><glyph glyph-name="v" unicode="v" d="M231 10 q-19 4 -30 16 l-130 313 q-29 64 -61 127 l1 1 q4 7 16 9 q12 2 26 1 q30 3 51 -16 q67 -179 142 -355 q75 178 150 354 l-1 1 q21 22 56 16 q6 0 21 -1.5 q15 -1.5 13 -10.5 q-34 -67 -65 -136 l-125 -291 q-17 -27 -49 -28 l-16 0 l1 0 Z" /><glyph glyph-name="w" unicode="w" d="M404 478 q31 4 45 -21 q63 -173 130 -345 q47 118 89 238 q18 59 41 115 q20 15 48 12 q7 0 23.5 -2 q16.5 -2 15.5 -10 q-78 -215 -166 -428 q-13 -31 -45 -28 q-27 -2 -46 11 q-71 175 -135 352 q-65 -177 -136 -352 q-17 -13 -44 -11 q-26 -3 -41 17 q-28 58 -49 118 q-63 161 -123 321 l0 1 l-1 2 q15 10 39 9 q29 3 49 -12 q22 -58 40 -117 q42 -119 90 -236 q71 171 131 347 q15 23 45 19 Z" /><glyph glyph-name="x" unicode="x" d="M237 196 q-22 -31 -76.5 -102 q-54.5 -71 -86.5 -84 q-21 -2 -43 -1 q-14 -1 -18 12 l3 7 q94 104 175 219 l0 10 q-55 72 -110 144 l0 1 q-8 10 -18 20 l0 1 q-5 7 -19 22 q-14 15 -16 21 q12 14 36 11 q39 1 51 -10.5 q12 -11.5 36 -45.5 l86 -113 q60 79 121 157 q24 15 54 12 q24 4 34 -13 q-2 -3 -3 -8 q-23 -23 -44 -48 l0 -2 q-10 -9 -56 -70.5 q-46 -61.5 -60 -79.5 l0 -11 q84 -114 179 -220 q2 -2 2 -5 q-13 -15 -36 -11 q-62 0 -98 64 q-47 61 -93 123 Z" /><glyph glyph-name="y" unicode="y" d="M200 26 q-4 17 -34 83.5 q-30 66.5 -42 91.5 l-74 167 l1 0 q-12 20 -21 42 l0 1 q-3 7 -11 24.5 q-8 17.5 -9 23.5 q10 21 36 19 q38 3 59 -25 q66 -170 138 -338 q49 106 93 214 q23 60 47 120 q18 34 55 28 q27 3 40 -15 q0 -7 -4 -14 l1 -1 q-16 -38 -37 -74 l1 0 q-123 -267 -249 -534 q-21 -24 -56 -20 q-25 -4 -36 15 q5 10 46.5 88 q41.5 78 55.5 104 Z" /><glyph glyph-name="z" unicode="z" d="M74 438 q-18 -3 -25 8 q2 11 5 22 l1 1 q10 10 25 8 l323 0 q18 0 22 -16 q-1 -7 -5 -12 l0 -1 q-137 -195 -287 -383 l-4 -14 l232 1 l52 0 q15 2 25 -6 q-4 -32 -35 -35 q-177 1 -355 1 q-21 1 -25 20 q19 24 151.5 190.5 q132.5 166.5 152.5 215.5 l-253 0 Z" /><glyph glyph-name="braceleft" unicode="{" d="M52 262 q2 11 22.5 21.5 q20.5 10.5 32.5 23.5 l0 1 q24 95 9 236.5 q-15 141.5 92 155.5 l39 0 q33 2 29 -27 q-13 -17 -39 -14 q-11 1 -20 -6 l0 -1 q-15 -39 -14 -145 q1 -106 2 -121 q3 -74 -59 -113 l0 -15 q64 -41 59 -118 l0 -214 q4 -75 35.5 -65 q31.5 10 35.5 -29 q-8 -15 -29 -13 l-39 0 q-99 6 -88 109 q2 40 3.5 139.5 q1.5 99.5 -16.5 150.5 l0 1 q-10 19 -31 28 q-16 4 -24 15 Z" /><glyph glyph-name="bar" unicode="|" d="M72 687 q9 17 30 15 l20 0 q21 1 29 -15 l0 -854 q-8 -17 -29 -15 l-20 0 q-22 -2 -30 15 l0 854 Z" /><glyph glyph-name="braceright" unicode="}" d="M247 262 q-8 -11 -24 -15 q-21 -9 -31 -28 l0 -1 q-18 -51 -16.5 -150.5 q1.5 -99.5 3.5 -139.5 q10 -103 -88 -109 l-39 0 q-37 -4 -30 31 q3 7 26 10 q23 3 36 11 q9 9 10 35 q1 26 0 39 l0 195 q-4 76 58 118 l0 15 q-60 39 -58 113 q1 16 2 121.5 q1 105.5 -14 144.5 l2 3 q-15 7 -32 4 q-32 -2 -30 27 q9 16 30 14 l39 0 q106 -15 91.5 -156.5 q-14.5 -141.5 9.5 -234.5 l-1 -2 q12 -13 33 -23.5 q21 -10.5 23 -21.5 Z" /><glyph glyph-name="asciitilde" unicode="~" d="M157 370 q-36 -4 -56.5 -29.5 q-20.5 -25.5 -38.5 -29.5 q-19 5 -25 24 q-2 0 -2 2 q-1 1 -1 4 q4 36 46 59.5 q42 23.5 76 24.5 q58 -1 107 -33 l-1 0 q46 -30 100 -35 q31 4 49.5 29.5 q18.5 25.5 36.5 29.5 q25 -7 31 -33 q-4 -32 -46 -57.5 q-42 -25.5 -73 -26.5 q-63 4 -112 35.5 q-49 31.5 -91 35.5 Z" /><glyph glyph-name="degree" unicode="°" d="M42 623 q12 116 131 117 q119 -2 132 -117 q-12 -115 -132 -113 q-119 -1 -131 113 ZM109 623 q-2 -70 64 -79 q65 10 65 79 q0 68 -65 78 q-65 -9 -64 -78 Z" /><glyph glyph-name="twosuperior" unicode="²" d="M92 643 q4 28 46 46 q42 18 69 19 q107 -2 111 -110 q-3 -67 -46.5 -126 q-43.5 -59 -91.5 -103 l130 0 q32 -3 24 -37 q-11 -18 -29 -22 l-29 0 l-177 1 q-21 6 -21 28 q11 30 87.5 104.5 q76.5 74.5 87.5 152.5 q3 52 -46 58 q-29 -3 -49 -23.5 q-20 -20.5 -33 -23.5 q-28 7 -33 36 Z" /><glyph glyph-name="threesuperior" unicode="³" d="M124 612 q-26 7 -30 35 q4 28 45.5 45 q41.5 17 67.5 18 q102 0 116 -96 q0 -54 -44 -86 q54 -31 56 -93 q-12 -125 -140 -128 q-28 0 -70.5 14.5 q-42.5 14.5 -46.5 45.5 q-2 31 24 40 q11 -3 33 -22.5 q22 -19.5 62 -22.5 q65 5 75 69 q-9 64 -68.5 58 q-59.5 -6 -68.5 36 q3 24 29.5 23 q26.5 -1 46.5 4 q39 18 48 59 q-6 46 -54 45 q-32 -3 -50 -22 q-18 -19 -31 -22 Z" /><glyph glyph-name="periodcentered" unicode="·" d="M197 275 q-82 3 -89 84 q8 81 89 88 q81 -8 93 -88 q-8 -83 -93 -84 Z" /><glyph glyph-name="Eacute" unicode="É" d="M496 65 q22 4 28 -14 q-3 -19 -13 -38 l0 1 q-23 -25 -60 -14 q-172 -1 -345 -2 q-29 3 -28.5 34.5 q0.5 31.5 2.5 56.5 q-1 291 -2 581 q3 37 41.5 35.5 q38.5 -1.5 76.5 -4.5 q148 1 295 3 q23 2 30 -18 l-12 -30 q-13 -21 -50.5 -20 q-37.5 1 -58.5 3 q-42 1 -84 1 l-158 0 l0 -232 q148 1 296 2 q22 5 30 -12 q-4 -51 -48.5 -53 q-44.5 -2 -82.5 2 l-195 0 l0 -284 q169 1 338 2 ZM271 752 q3 17 34 56.5 q31 39.5 48 60.5 q10 12 26 11 q40 2 53 -30 q-6 -26 -56.5 -68.5 q-50.5 -42.5 -75.5 -47.5 q-23 -3 -29 18 Z" /><glyph glyph-name="germandbls" unicode="ß" d="M224 90 q55 -34 119 -36 q90 -4 100 81 q-12 80 -94 118 q-82 38 -94 123 q8 67 63 101.5 q55 34.5 63 92.5 q-2 45 -33 60 q-31 15 -70 14 q-107 5 -112 -100 l0 -542 l-3 -3 l-73 0 l-3 3 l0 542 q10 177 191 166 q69 1 124.5 -30 q55.5 -31 58.5 -107 q-8 -68 -65 -112.5 q-57 -44.5 -65 -80.5 q12 -50 96.5 -96 q84.5 -46 96.5 -145 q-11 -156 -173 -147 q-69 -4 -130 27 q-1 6 -1 32.5 q0 26.5 0 35.5 l4 3 Z" /><glyph glyph-name="agrave" unicode="à" d="M478 20 q-2 -17 -25 -21.5 q-23 -4.5 -38 -3.5 q-22 2 -23 20.5 q-1 18.5 1 35.5 q-58 -49 -134 -53 q-105 2 -164.5 66.5 q-59.5 64.5 -60.5 167.5 q0 109 56 180 q56 71 169 73 q78 0 134 -53 q-2 56 58 45 q31 3 27 -26 l0 -431 ZM119 239 q-1 -71 29.5 -134.5 q30.5 -63.5 110.5 -67.5 q77 5 106 69.5 q29 64.5 28 132.5 q1 66 -29.5 135 q-30.5 69 -105.5 74 q-78 -5 -109 -73 q-31 -68 -30 -136 ZM305 543 q-25 3 -60.5 34 q-35.5 31 -54.5 51 l1 1 q-13 8 -18 22 q3 9 27.5 16 q24.5 7 36.5 7 q14 1 23 -9 q14 -18 44 -55.5 q30 -37.5 33 -50.5 q-7 -19 -32 -16 Z" /><glyph glyph-name="aacute" unicode="á" d="M478 20 q-2 -17 -25 -21.5 q-23 -4.5 -38 -3.5 q-22 2 -23 20.5 q-1 18.5 1 35.5 q-58 -49 -134 -53 q-105 2 -164.5 66.5 q-59.5 64.5 -60.5 167.5 q0 109 56 180 q56 71 169 73 q78 0 134 -53 q-2 56 58 45 q31 3 27 -26 l0 -431 ZM119 239 q-1 -71 29.5 -134.5 q30.5 -63.5 110.5 -67.5 q77 5 106 69.5 q29 64.5 28 132.5 q1 66 -29.5 135 q-30.5 69 -105.5 74 q-78 -5 -109 -73 q-31 -68 -30 -136 ZM221 559 q3 14 30.5 47 q27.5 33 38.5 46 l0 1 q10 20 32 21 q11 0 36 -7 q25 -7 28 -16 q-4 -14 -18 -22 l1 -1 q-19 -20 -54.5 -51 q-35.5 -31 -60.5 -34 q-25 -2 -33 16 Z" /><glyph glyph-name="atilde" unicode="ã" d="M473 20 q-7 -43 -58 -34 q-17 3 -17.5 28.5 q-0.5 25.5 0.5 40.5 q-56 -62 -139 -66 q-106 3 -162.5 72 q-56.5 69 -57.5 171 q-1 108 52.5 183.5 q53.5 75.5 167.5 78.5 q88 -2 139 -72 q-2 36 5 50.5 q7 14.5 48 13.5 q29 -4 22 -35 l0 -431 ZM114 239 q-1 -72 32.5 -131 q33.5 -59 112.5 -62 q77 4 108.5 64 q31.5 60 30.5 129 q1 68 -31.5 131.5 q-32.5 63.5 -108.5 68.5 q-78 -4 -111.5 -67 q-33.5 -63 -32.5 -133 ZM198 664 q40 -3 66 -23.5 q26 -20.5 50 -23.5 q29 2 42 19 q13 17 26 19 q20 -13 18 -43 q1 -8 -5 -16 l1 1 q-28 -45 -81 -49 q-36 3 -59.5 23.5 q-23.5 20.5 -54.5 23.5 q-23 -2 -36 -19 q-13 -17 -27 -19 q-18 14 -17 42 q2 25 27.5 44.5 q25.5 19.5 49.5 20.5 Z" /><glyph glyph-name="adieresis" unicode="ä" d="M473 20 q-7 -43 -58 -34 q-17 3 -17.5 28.5 q-0.5 25.5 0.5 40.5 q-56 -62 -139 -66 q-106 3 -162.5 72 q-56.5 69 -57.5 171 q-1 108 52.5 183.5 q53.5 75.5 167.5 78.5 q88 -2 139 -72 q-2 36 5 50.5 q7 14.5 48 13.5 q29 -4 22 -35 l0 -431 ZM114 239 q-1 -72 32.5 -131 q33.5 -59 112.5 -62 q77 4 108.5 64 q31.5 60 30.5 129 q1 68 -31.5 131.5 q-32.5 63.5 -108.5 68.5 q-78 -4 -111.5 -67 q-33.5 -63 -32.5 -133 ZM130 609 q4 51 54 53 q50 -3 54 -53 q-6 -46 -54 -48 q-49 2 -54 48 ZM300 609 q3 51 53 53 q50 -3 54 -53 q-6 -46 -54 -48 q-48 2 -53 48 Z" /><glyph glyph-name="aring" unicode="å" d="M473 20 q-7 -43 -58 -34 q-17 3 -17.5 28.5 q-0.5 25.5 0.5 40.5 q-56 -62 -139 -66 q-106 3 -162.5 72 q-56.5 69 -57.5 171 q-1 108 52.5 183.5 q53.5 75.5 167.5 78.5 q88 -2 139 -72 q-2 36 5 50.5 q7 14.5 48 13.5 q29 -4 22 -35 l0 -431 ZM114 239 q-1 -72 32.5 -131 q33.5 -59 112.5 -62 q77 4 108.5 64 q31.5 60 30.5 129 q1 68 -31.5 131.5 q-32.5 63.5 -108.5 68.5 q-78 -4 -111.5 -67 q-33.5 -63 -32.5 -133 ZM179 609 q5 81 87 86 q83 -4 87 -86 q-5 -80 -87 -83 q-81 3 -87 83 ZM225 611 q2 -39 41 -41 q38 3 42 41 q-3 39 -42 42 q-38 -4 -41 -42 Z" /><glyph glyph-name="ae" unicode="æ" d="M422 -1 q-17 2 -18 21.5 q-1 19.5 0 34.5 q-58 -62 -144 -66 q-106 3 -162.5 72 q-56.5 69 -57.5 171 q-1 108 52.5 183.5 q53.5 75.5 167.5 78.5 q118 1 182 -95 q69 97 189 95 q107 -3 155 -70.5 q48 -67.5 47 -168.5 q3 -29 -25 -27 l-334 0 l0 -16 q2 -69 53 -116.5 q51 -47.5 120 -49.5 q50 3 93 25 q43 22 60 25 q21 -11 15 -41 q-7 -32 -71.5 -49 q-64.5 -17 -96.5 -17 q-101 -5 -173 62 q12 -58 -52 -52 ZM115 239 q-1 -72 32.5 -131 q33.5 -59 112.5 -62 q77 4 111.5 63.5 q34.5 59.5 33.5 129.5 q1 73 -31.5 134.5 q-32.5 61.5 -113.5 65.5 q-78 -4 -112 -66.5 q-34 -62.5 -33 -133.5 ZM631 439 q-140 -11 -155 -152 l284 0 q3 138 -129 152 Z" /><glyph glyph-name="egrave" unicode="è" d="M118 237 l5 -10 q3 -86 40.5 -137.5 q37.5 -51.5 128.5 -52.5 q52 3 94 26.5 q42 23.5 66 26.5 q19 -9 13 -34 q-6 -11 -18 -16 l1 0 q-72 -42 -156 -42 q-253 3 -254 256 q2 108 66.5 169 q64.5 61 171.5 62 q211 -15 208 -230 q-4 -24 -31 -18 l-335 0 ZM276 448 q-68 -2 -107 -48.5 q-39 -46.5 -43 -112.5 l-5 -9 l285 0 l-5 9 q1 62 -28 110 q-29 48 -97 51 ZM305 543 q-25 3 -60.5 34 q-35.5 31 -54.5 51 l1 1 q-13 8 -18 22 q3 9 27.5 16 q24.5 7 36.5 7 q14 1 23 -9 q14 -18 44 -55.5 q30 -37.5 33 -50.5 q-7 -19 -32 -16 Z" /><glyph glyph-name="eacute" unicode="é" d="M118 237 l5 -10 q3 -86 40.5 -137.5 q37.5 -51.5 128.5 -52.5 q52 3 94 26.5 q42 23.5 66 26.5 q19 -9 13 -34 q-6 -11 -18 -16 l1 0 q-72 -42 -156 -42 q-253 3 -254 256 q2 108 66.5 169 q64.5 61 171.5 62 q211 -15 208 -230 q-4 -24 -31 -18 l-335 0 ZM276 448 q-68 -2 -107 -48.5 q-39 -46.5 -43 -112.5 l-5 -9 l285 0 l-5 9 q1 62 -28 110 q-29 48 -97 51 ZM211 559 q3 14 30.5 47 q27.5 33 38.5 46 l0 1 q10 20 32 21 q11 0 36 -7 q25 -7 28 -16 q-4 -14 -18 -22 l1 -1 q-20 -21 -55 -51.5 q-35 -30.5 -60 -33.5 q-24 -2 -33 16 Z" /><glyph glyph-name="ecircumflex" unicode="ê" d="M118 237 l5 -10 q3 -86 40.5 -137.5 q37.5 -51.5 128.5 -52.5 q52 3 94 26.5 q42 23.5 66 26.5 q19 -9 13 -34 q-6 -11 -18 -16 l1 0 q-72 -42 -156 -42 q-253 3 -254 256 q2 108 66.5 169 q64.5 61 171.5 62 q211 -15 208 -230 q-4 -24 -31 -18 l-335 0 ZM276 448 q-68 -2 -107 -48.5 q-39 -46.5 -43 -112.5 l-5 -9 l285 0 l-5 9 q1 62 -28 110 q-29 48 -97 51 ZM396 591 l0 -1 l-1 0 l1 1 ZM278 674 q14 2 24 -7 l-1 -1 q62 -47 117 -100 q-11 -14 -31 -16 l1 0 q-14 -5 -29 -6 q-19 3 -44.5 31.5 q-25.5 28.5 -37.5 42.5 q-15 -16 -38 -43.5 q-23 -27.5 -43 -30.5 q-15 1 -29 6 l1 0 q-20 2 -31 16 q6 10 53.5 48.5 q47.5 38.5 62.5 51.5 l-1 1 q12 9 26 7 Z" /><glyph glyph-name="edieresis" unicode="ë" d="M118 228 q0 -178 174 -182 q51 3 93.5 25 q42.5 22 59.5 25 q21 -11 15 -41 q-7 -32 -71.5 -49 q-64.5 -17 -96.5 -17 q-252 9 -249 265 q8 227 233 240 q107 -3 155.5 -70.5 q48.5 -67.5 47.5 -168.5 q3 -29 -26 -27 l-335 0 ZM276 439 q-140 -11 -155 -152 l285 0 q3 138 -130 152 ZM130 609 q4 51 54 53 q50 -3 54 -53 q-6 -46 -54 -48 q-49 2 -54 48 ZM300 609 q3 51 53 53 q50 -3 54 -53 q-6 -46 -54 -48 q-48 2 -53 48 Z" /><glyph glyph-name="iacute" unicode="í" d="M77 459 q9 12 25 13 l-1 0 q19 6 39 5 q22 4 28 -14 q-2 -218 0 -437 q-3 -12 -28 -16.5 q-25 -4.5 -36 -4.5 q-19 -2 -27 13 l0 441 ZM72 559 q3 14 30.5 47 q27.5 33 38.5 46 l0 1 q10 20 32 21 q11 0 36 -7 q25 -7 28 -16 q-4 -14 -18 -22 l1 -1 q-20 -21 -55 -51.5 q-35 -30.5 -60 -33.5 q-24 -2 -33 16 Z" /><glyph glyph-name="icircumflex" unicode="î" d="M103 459 q2 19 22 23.5 q20 4.5 36 3.5 q24 1 23 -23 q-2 -218 0 -437 q-2 -19 -22.5 -25 q-20.5 -6 -37.5 -5 q-20 1 -21 22 l0 441 ZM145 683 q15 -5 71 -50 q56 -45 63 -67 q-11 -30 -47 -29 q-20 3 -47 33.5 q-27 30.5 -41 46.5 q-13 -15 -40 -45.5 q-27 -30.5 -48 -34.5 q-35 0 -47 29 q7 21 63 66.5 q56 45.5 73 50.5 Z" /><glyph glyph-name="ntilde" unicode="ñ" d="M69 460 q14 31 54 25 q27 -1 28 -21.5 q1 -20.5 -2 -43.5 q70 73 171 74 q142 -9 161 -124.5 q19 -115.5 11 -225.5 q2 -60 3 -120 q-2 -17 -21.5 -22.5 q-19.5 -5.5 -34.5 -5.5 q-24 -3 -25 22 q2 62 3 124 l0 157 q1 55 -22.5 96.5 q-23.5 41.5 -84.5 43.5 q-50 -2 -92.5 -38 q-42.5 -36 -70.5 -75 q2 -152 3 -302 q-15 -31 -55 -28 q-23 0 -26 22 q2 222 0 442 ZM218 664 q40 -3 66 -23.5 q26 -20.5 50 -23.5 q29 2 42 19 q13 17 26 19 q20 -13 18 -43 q1 -8 -5 -16 l1 1 q-28 -45 -81 -49 q-36 3 -59.5 23.5 q-23.5 20.5 -54.5 23.5 q-23 -2 -36 -19 q-13 -17 -27 -19 q-18 14 -17 42 q2 25 27.5 44.5 q25.5 19.5 49.5 20.5 Z" /><glyph glyph-name="oacute" unicode="ó" d="M38 243 q1 230 228 242 q238 -4 229 -242 q-1 -106 -61 -174.5 q-60 -68.5 -168 -70.5 q-232 9 -228 245 ZM127 243 q-3 -78 23.5 -140 q26.5 -62 115.5 -66 q86 4 114 67.5 q28 63.5 26 138.5 q3 76 -24.5 138.5 q-27.5 62.5 -115.5 66.5 q-87 -4 -114.5 -66.5 q-27.5 -62.5 -24.5 -138.5 ZM191 559 q4 11 34.5 50 q30.5 39 43.5 55 q9 9 22 8 q39 1 65 -21 q-5 -12 -17 -22 l1 -1 q-19 -20 -54.5 -51 q-35.5 -31 -60.5 -34 q-25 -2 -34 16 Z" /><glyph glyph-name="ocircumflex" unicode="ô" d="M43 243 q0 110 54 179.5 q54 69.5 169 71.5 q124 -1 175 -67.5 q51 -66.5 49 -183.5 q0 -105 -57 -178 q-57 -73 -167 -76 q-119 2 -171.5 71.5 q-52.5 69.5 -51.5 182.5 ZM122 243 q-2 -79 26.5 -136.5 q28.5 -57.5 117.5 -60.5 q86 3 116.5 61.5 q30.5 58.5 28.5 135.5 q2 79 -27.5 136 q-29.5 57 -117.5 60 q-88 -3 -117 -60.5 q-29 -57.5 -27 -135.5 ZM261 683 q14 -5 70.5 -50 q56.5 -45 64.5 -67 q-12 -29 -48 -29 q-20 4 -47.5 34.5 q-27.5 30.5 -40.5 45.5 q-12 -15 -39.5 -45.5 q-27.5 -30.5 -47.5 -34.5 q-36 0 -48 29 q7 22 63.5 67 q56.5 45 72.5 50 Z" /><glyph glyph-name="odieresis" unicode="ö" d="M43 243 q0 110 54 179.5 q54 69.5 169 71.5 q124 -1 175 -67.5 q51 -66.5 49 -183.5 q0 -105 -57 -178 q-57 -73 -167 -76 q-119 2 -171.5 71.5 q-52.5 69.5 -51.5 182.5 ZM122 243 q-2 -79 26.5 -136.5 q28.5 -57.5 117.5 -60.5 q86 3 116.5 61.5 q30.5 58.5 28.5 135.5 q2 79 -27.5 136 q-29.5 57 -117.5 60 q-88 -3 -117 -60.5 q-29 -57.5 -27 -135.5 ZM130 609 q4 51 54 53 q50 -3 54 -53 q-6 -46 -54 -48 q-49 2 -54 48 ZM300 609 q3 51 53 53 q50 -3 54 -53 q-6 -46 -54 -48 q-48 2 -53 48 Z" /><glyph glyph-name="oslash" unicode="ø" d="M143 19 q-108 84 -100 224 q0 110 54 179.5 q54 69.5 169 71.5 q28 0 55 -5 q13 45 23 67.5 q10 22.5 56 22.5 q21 -3 18 -25 l-32 -84 q64 -34 85 -97 q21 -63 19 -130 q0 -105 -57 -178 q-57 -73 -167 -76 q-32 0 -62 6 l-39 -105 q-17 -27 -51 -19 q-17 1 -18 17 q2 14 20.5 63 q18.5 49 26.5 68 ZM411 243 q8 93 -50 162 q-67 -177 -135 -355 q20 -4 40 -4 q86 3 116.5 61.5 q30.5 58.5 28.5 135.5 ZM122 243 q-9 -91 44 -162 l134 355 q-17 3 -34 3 q-88 -3 -117 -60.5 q-29 -57.5 -27 -135.5 Z" /><glyph glyph-name="ugrave" unicode="ù" d="M482 23 q-25 -18 -57 -16 q-32 0 -34 12 q-2 12 1 42 q-72 -62 -166 -63 q-146 8 -165.5 117 q-19.5 109 -11.5 224 q-1 60 -3 120 q10 10 25 13 l-1 1 q14 6 30 5 q25 3 37 -13 q-2 -62 -3 -124 l0 -157 q-1 -54 20 -99 q21 -45 82 -48 q50 3 91 39.5 q41 36.5 68 75.5 q-1 18 -2 141 q-1 123 -2 166 q11 8 23 13 l0 1 q17 6 34 5 q23 2 34 -13 q-1 -222 0 -442 ZM305 543 q-25 3 -60.5 34 q-35.5 31 -54.5 51 l1 1 q-13 8 -18 22 q3 9 27.5 16 q24.5 7 36.5 7 q14 1 23 -9 q14 -18 44 -55.5 q30 -37.5 33 -50.5 q-7 -19 -32 -16 Z" /><glyph glyph-name="ucircumflex" unicode="û" d="M477 23 q-13 -31 -54 -25 q-27 1 -28 21.5 q-1 20.5 2 44.5 q-69 -74 -171 -75 q-143 9 -161.5 124.5 q-18.5 115.5 -10.5 225.5 q-1 60 -3 120 q14 31 53 28 q27 3 28 -22 q-2 -62 -3 -124 l0 -157 q-1 -56 22.5 -96 q23.5 -40 84.5 -42 q51 2 93 36.5 q42 34.5 70 74.5 q-1 151 -3 302 q14 31 53 28 q25 1 28 -22 q-1 -222 0 -442 ZM261 683 q14 -5 70.5 -50 q56.5 -45 64.5 -67 q-12 -29 -48 -29 q-20 4 -47.5 34.5 q-27.5 30.5 -40.5 45.5 q-12 -15 -39.5 -45.5 q-27.5 -30.5 -47.5 -34.5 q-36 0 -48 29 q7 22 63.5 67 q56.5 45 72.5 50 Z" /><glyph glyph-name="udieresis" unicode="ü" d="M482 23 q-25 -18 -57 -16 q-32 0 -34 12 q-2 12 1 42 q-72 -62 -166 -63 q-146 8 -165.5 117 q-19.5 109 -11.5 224 q-1 60 -3 120 q10 10 25 13 l-1 1 q14 6 30 5 q25 3 37 -13 q-2 -62 -3 -124 l0 -157 q-1 -54 20 -99 q21 -45 82 -48 q50 3 91 39.5 q41 36.5 68 75.5 q-1 18 -2 141 q-1 123 -2 166 q11 8 23 13 l0 1 q17 6 34 5 q23 2 34 -13 q-1 -222 0 -442 ZM125 609 q9 46 59 44 q50 2 59 -44 q-11 -42 -59 -39 q-47 -3 -59 39 ZM295 609 q9 46 58 44 q50 2 59 -44 q-11 -42 -59 -39 q-47 -2 -58 39 Z" /><glyph glyph-name="yacute" unicode="ý" d="M204 30 q-23 52 -102 226.5 q-79 174.5 -89 207.5 q5 27 33 23 q39 5 54 -31 q69 -175 142 -348 q53 114 100 229 q24 64 50 126 q14 27 45 23 q31 5 40 -21 q-17 -48 -140.5 -309.5 q-123.5 -261.5 -155.5 -328.5 q-18 -21 -46 -17 q-28 -5 -36 19 q5 17 47 93.5 q42 76.5 58 107.5 ZM191 553 q3 18 34 57 q31 39 48 60 q10 12 25 11 q40 2 53 -30 q-6 -26 -56 -68.5 q-50 -42.5 -75 -47.5 q-23 -4 -29 18 Z" /><glyph glyph-name="lslash" unicode="&#x142;" d="M71 375 q-1 152 -3 303 q14 29 54 24 q26 3 27 -22 q-2 -70 -3 -140 l0 -126 l87 46 l-1 -1 q8 5 17 5 q33 -10 25 -51 q0 -15 -13 -23 l-115 -61 q2 -153 3 -305 q-15 -31 -55 -28 q-23 0 -26 22 q3 136 3 271 q-15 -9 -48.5 -26 q-33.5 -17 -46.5 -19 q-34 12 -27 53 q0 14 13 21 l109 57 Z" /><glyph glyph-name="nacute" unicode="&#x144;" d="M64 460 q25 17 59 16 q31 0 32.5 -12.5 q1.5 -12.5 -1.5 -40.5 q71 62 166 62 q176 -14 176.5 -172.5 q0.5 -158.5 3.5 -289.5 q-12 -7 -25 -12 l1 -1 q-17 -5 -34 -5 q-22 -2 -33 13 q2 62 3 124 l0 157 q1 53 -20 99.5 q-21 46.5 -82 49.5 q-48 -3 -90.5 -41 q-42.5 -38 -68.5 -76 q5 -27 2 -141.5 q-3 -114.5 2 -166.5 q-12 -7 -25 -12 l1 -1 q-16 -5 -33 -5 q-23 -2 -34 13 q2 222 0 442 ZM221 559 q3 14 30.5 47 q27.5 33 38.5 46 l0 1 q10 20 32 21 q11 0 36 -7 q25 -7 28 -16 q-4 -14 -18 -22 l1 -1 q-20 -21 -55 -51.5 q-35 -30.5 -60 -33.5 q-24 -2 -33 16 Z" /><glyph glyph-name="endash" unicode="&#x2013;" d="M300 338 q-16 -1 -25 9 q1 32 31 33 l392 0 q17 1 26 -9 q-2 -31 -32 -33 l-392 0 Z" /><glyph glyph-name="emdash" unicode="&#x2014;" d="M1 338 q-16 -1 -25 9 q1 32 31 33 l992 0 q17 1 26 -9 q-2 -31 -32 -33 l-992 0 Z" /><glyph glyph-name="uni2015" unicode="&#x2015;" d="M50 338 q-16 -1 -25 9 q1 32 31 33 l892 0 q17 1 26 -9 q-2 -31 -32 -33 l-892 0 Z" /><glyph glyph-name="quotedblleft" unicode="&#x201c;" d="M461 659 q3 52 47 96 q44 44 96 47 q4 1 7 -3 q-5 -6 -12 -11 l0 -1 q-41 -27 -47 -76 q3 -16 23.5 -27.5 q20.5 -11.5 23.5 -39.5 q-15 -44 -67 -42 q-62 -1 -71 57 ZM663 659 q3 52 47 96 q44 44 96 47 q4 1 7 -3 q-5 -6 -12 -11 l0 -1 q-41 -27 -47 -76 q3 -16 23.5 -27.5 q20.5 -11.5 23.5 -39.5 q-15 -44 -67 -42 q-62 -1 -71 57 Z" /><glyph glyph-name="quotedblright" unicode="&#x201d;" d="M494 697 q-3 -51 -48.5 -96 q-45.5 -45 -95.5 -48 q-4 -1 -6 3 q11 15 33.5 33 q22.5 18 25.5 54 q-3 18 -23.5 27.5 q-20.5 9.5 -23.5 41.5 q15 45 67 42 q63 2 71 -57 ZM292 697 q-3 -51 -48.5 -96 q-45.5 -45 -95.5 -48 q-4 -1 -6 3 q11 15 33.5 33 q22.5 18 25.5 54 q-3 18 -23.5 27.5 q-20.5 9.5 -23.5 41.5 q15 45 67 42 q63 2 71 -57 Z" /><glyph glyph-name="ellipsis" unicode="&#x2026;" d="M825 275 q-73 2 -86 72 q12 70 86 73 q77 -1 90 -74 q-10 -75 -90 -71 ZM491 275 q-72 4 -86 72 q12 70 86 73 q76 -2 88 -74 q-10 -74 -88 -71 ZM157 275 q-73 3 -88 72 q12 70 86 73 q77 -1 89 -74 q-9 -74 -87 -71 Z" /><glyph glyph-name="uni2161" unicode="&#x2161;" d="M262 692 q5 19 27 16 l421 0 q38 3 30 -34 q-5 -16 -45.5 -15.5 q-40.5 0.5 -51.5 1.5 l5 -9 l0 -597 l-5 -9 q39 3 67.5 3.5 q28.5 0.5 29.5 -37.5 q-9 -16 -30 -14 l-421 0 q-35 -2 -27 32 q5 19 42.5 18.5 q37.5 -0.5 50.5 -2.5 l-5 9 q11 299 0 597 l5 9 q-38 -3 -65 -3.5 q-27 -0.5 -28 35.5 ZM570 660 l-142 0 l5 -9 l0 -597 l-5 -9 l142 0 l-5 9 q11 299 0 597 l5 9 Z" /><glyph glyph-name="uni2162" unicode="&#x2162;" d="M214 692 q5 19 27 16 l501 0 q38 3 30 -34 q-4 -14 -32.5 -14.5 q-28.5 -0.5 -38.5 0.5 l5 -9 l0 -597 l-5 -9 q32 2 51.5 1 q19.5 -1 19.5 -35 q-9 -16 -30 -14 l-501 0 q-35 -2 -27 32 q4 18 38 17.5 q34 -0.5 46 -1.5 l-5 9 q11 299 0 597 l5 9 q-34 -3 -58.5 -3 q-24.5 0 -25.5 35 ZM628 660 l-92 0 l5 -9 l0 -597 l-5 -9 l92 0 l-5 9 q11 299 0 597 l5 9 ZM463 660 l-92 0 l5 -9 l0 -597 l-5 -9 l92 0 l-5 9 q11 299 0 597 l5 9 Z" /><glyph glyph-name="uni3001" unicode="&#x3001;" d="M170 114 q8 12 25 10 q34 -5 112 -50 q78 -45 87 -77 q-2 -13 -11 -25 l1 -2 q-10 -17 -28 -28 l1 -1 q-12 -14 -31 -15 q-25 2 -38 24 q-50 83 -113 155 q-4 4 -5 9 Z" /><glyph glyph-name="uni3002" unicode="&#x3002;" d="M338 37 q3 55 -48 63 q-51 -8 -49 -63 q1 -51 49 -60 q48 9 48 60 ZM290 -64 q-104 1 -119 102 q15 101 119 105 q107 -3 119 -106 q-14 -100 -119 -101 Z" /><glyph glyph-name="uni300A" unicode="&#x300a;" d="M801 736 l0 1 q19 26 55 18 q14 1 16 -12 q-11 -34 -97.5 -177.5 q-86.5 -143.5 -114.5 -190.5 q-11 -15 -11 -35 q14 -67 110 -209 q96 -142 110 -197 q-5 -19 -26 -15 q-30 -7 -45 17 q-103 177 -203 356 l0 1 q-18 22 -27 47 q6 14 14 26 l219 370 ZM621 736 l0 1 q19 26 55 18 q14 1 16 -12 q-11 -34 -97.5 -177.5 q-86.5 -143.5 -114.5 -190.5 q-11 -15 -11 -35 q14 -67 110 -209 q96 -142 110 -197 q-5 -19 -26 -15 q-30 -7 -45 17 q-103 177 -203 356 l0 1 q-18 22 -27 47 q6 14 14 26 l219 370 Z" /><glyph glyph-name="uni300B" unicode="&#x300b;" d="M434 340 q-9 -25 -27 -47 l0 -1 l-203 -356 q-18 -25 -52 -17 q-17 -1 -19 15 q11 37 94.5 177 q83.5 140 112.5 189 l0 1 q11 19 12 41 q0 18 -10 33 q-29 47 -115 189.5 q-86 142.5 -97 178.5 q2 13 16 12 q36 8 55 -19 l219 -370 q8 -12 14 -26 ZM614 340 q-9 -25 -27 -47 l0 -1 l-203 -356 q-18 -25 -52 -17 q-17 -1 -19 15 q11 37 94.5 177 q83.5 140 112.5 189 l0 1 q11 19 12 41 q0 18 -10 33 q-29 47 -115 189.5 q-86 142.5 -97 178.5 q2 13 16 12 q36 8 55 -19 l219 -370 q8 -12 14 -26 Z" /><glyph glyph-name="uni3010" unicode="&#x3010;" d="M611 782 l249 0 q12 2 14 -9 q-2 -13 -10 -24 q-58 -95 -83 -204 q-19 -103 -18 -208 q-1 -91 21 -208 q22 -117 72 -190 q13 -15 18 -32 q-3 -9 -13 -8 l-251 0 l1 883 Z" /><glyph glyph-name="uni3011" unicode="&#x3011;" d="M400 -101 l-251 0 q-10 -1 -13 8 q5 17 18 32 l0 1 q49 72 71 190 q22 118 22 207 q2 105 -18 208 q-25 109 -83 204 q-8 11 -10 24 q3 11 14 9 l249 0 l1 -883 Z" /><glyph glyph-name="uni2460" unicode="&#x2460;" d="M397 486 q-20 2 -30 12 q-2 2 -2 5 q7 13 66.5 44 q59.5 31 89.5 35 q16 1 18 -13 q-4 -244 0 -487 q-2 -12 -21 -17.5 q-19 -5.5 -32 -5.5 q-22 -2 -31 16 q1 215 2 429 l7 8 q-31 -20 -67 -26 ZM949 314 q-6 -189 -136.5 -310 q-130.5 -121 -317.5 -125 q-187 4 -318 124.5 q-131 120.5 -137 310.5 q5 194 134.5 315.5 q129.5 121.5 320.5 125.5 q190 -4 319.5 -126 q129.5 -122 134.5 -315 ZM878 315 q-4 164 -111.5 280 q-107.5 116 -273.5 121 q-166 -5 -273.5 -121 q-107.5 -116 -111.5 -280 q4 -162 112.5 -275.5 q108.5 -113.5 272.5 -118.5 q164 5 272.5 118.5 q108.5 113.5 112.5 275.5 Z" /><glyph glyph-name="uni2461" unicode="&#x2461;" d="M949 314 q-6 -189 -136.5 -310 q-130.5 -121 -317.5 -125 q-187 4 -318 124.5 q-131 120.5 -137 310.5 q5 194 134.5 315.5 q129.5 121.5 320.5 125.5 q190 -4 319.5 -126 q129.5 -122 134.5 -315 ZM878 315 q-4 164 -111.5 280 q-107.5 116 -273.5 121 q-166 -5 -273.5 -121 q-107.5 -116 -111.5 -280 q4 -162 112.5 -275.5 q108.5 -113.5 272.5 -118.5 q164 5 272.5 118.5 q108.5 113.5 112.5 275.5 ZM335 505 q6 35 62 55.5 q56 20.5 88 20.5 q139 3 148 -133 q-6 -83 -73.5 -171 q-67.5 -88 -129.5 -147 l-4 -15 l201 0 q20 3 30 -10 q-5 -44 -51 -35 q-36 1 -72 2 l-197 0 q-20 2 -22 21 q15 26 118.5 132 q103.5 106 118.5 219 q1 35 -13 66 q-14 31 -54 33 q-44 -4 -69 -35 q-25 -31 -47 -35 q-20 4 -32 22 q0 4 -2 10 Z" /><glyph glyph-name="uni2462" unicode="&#x2462;" d="M381 478 q-11 1 -19 7 l0 1 q-15 9 -19 25 q7 27 64.5 47 q57.5 20 84.5 21 q55 1 104.5 -25 q49.5 -26 52.5 -88 q-8 -74 -74 -113 l-1 -15 q84 -31 92 -118 q-3 -80 -58.5 -119 q-55.5 -39 -130.5 -39 q-28 0 -89 16 q-61 16 -68 46 q-2 33 26 44 q15 -2 26 -14 l-1 -1 q46 -48 109 -52 q45 2 75 35.5 q30 33.5 31 77.5 q-10 101 -87.5 99.5 q-77.5 -1.5 -97.5 16.5 q-1 7 -1 13 q5 14 44.5 16 q39.5 2 58.5 5 l-1 1 q66 26 67 97 q-3 76 -79 80 q-39 -4 -66 -32 q-27 -28 -43 -32 ZM949 314 q-6 -189 -136.5 -310 q-130.5 -121 -317.5 -125 q-187 4 -318 124.5 q-131 120.5 -137 310.5 q5 194 134.5 315.5 q129.5 121.5 320.5 125.5 q190 -4 319.5 -126 q129.5 -122 134.5 -315 ZM878 315 q-4 164 -111.5 280 q-107.5 116 -273.5 121 q-166 -5 -273.5 -121 q-107.5 -116 -111.5 -280 q4 -162 112.5 -275.5 q108.5 -113.5 272.5 -118.5 q164 5 272.5 118.5 q108.5 113.5 112.5 275.5 Z" /><glyph glyph-name="uni2463" unicode="&#x2463;" d="M949 314 q-6 -189 -136.5 -310 q-130.5 -121 -317.5 -125 q-187 4 -318 124.5 q-131 120.5 -137 310.5 q5 194 134.5 315.5 q129.5 121.5 320.5 125.5 q190 -4 319.5 -126 q129.5 -122 134.5 -315 ZM878 315 q-4 164 -111.5 280 q-107.5 116 -273.5 121 q-166 -5 -273.5 -121 q-107.5 -116 -111.5 -280 q4 -162 112.5 -275.5 q108.5 -113.5 272.5 -118.5 q164 5 272.5 118.5 q108.5 113.5 112.5 275.5 ZM282 237 q11 33 98 157.5 q87 124.5 118 167.5 q15 18 38 17 q34 6 46 -20 q-1 -147 -2 -295 l-5 -9 q6 1 38.5 1.5 q32.5 0.5 36.5 -11.5 q0 -7 -2 -13 q0 2 -2 2 l0 -2 l-4 -7 l1 -1 q-7 -13 -30.5 -12 q-23.5 1 -37.5 2 l5 -9 q1 -62 1 -125 q-2 -14 -25 -17.5 q-23 -3.5 -36 -3.5 q-18 0 -21 18 l0 128 l5 9 l-196 0 q-23 0 -26 23 ZM499 457 q-19 -27 -71.5 -104.5 q-52.5 -77.5 -58.5 -98.5 l135 0 l-5 9 l0 194 Z" /><glyph glyph-name="uniFF01" unicode="&#xff01;" d="M285 224 q-10 -3 -21 -4 q-18 -1 -20 18 l6 4 q-5 216 -17 432 q6 47 56 44 q33 1 32 -31 q-2 -218 -8 -436 q-4 -23 -29 -27 l1 0 ZM219 69 q10 48 62 45 q51 2 61 -45 q-11 -45 -61 -42 q-51 -4 -62 42 Z" /><glyph glyph-name="uniFF08" unicode="&#xff08;" d="M808 758 q4 -2 5 -8 q0 -3 -1 -6 q-24 -36 -49 -73 q-93 -164 -88 -354 q-2 -115 27 -230.5 q29 -115.5 115 -197.5 l-11 -12 l0 -1 q-11 -8 -24 -8 q-14 0 -23 8 q-93 82 -137.5 200.5 q-44.5 118.5 -44.5 240.5 q4 214 132 386 q19 28 42 51 q16 10 35 8 q11 1 21 -5 l1 1 Z" /><glyph glyph-name="uniFF09" unicode="&#xff09;" d="M142 750 q19 2 35 -8 q23 -23 42 -51 q127 -173 131 -386 q0 -121 -44 -240 q-44 -119 -137 -201 q-9 -8 -23 -8 q-13 0 -24 8 l0 1 q-7 4 -8 12 q0 3 2 6 q30 31 56 65 q49 78 65.5 172 q16.5 94 15.5 185 q3 182 -82 342 q-29 43 -56 85 q-1 3 0 5 q8 13 27 13 Z" /><glyph glyph-name="uniFF0C" unicode="&#xff0c;" d="M354 104 q-3 -66 -54 -140 q-51 -74 -107 -81 q-4 0 -6 5 q13 34 38.5 62 q25.5 28 27.5 75 q-2 21 -19 30 l1 2 q-38 17 -41 65 q17 60 77 59 q73 4 83 -77 Z" /><glyph glyph-name="uniFF1A" unicode="&#xff1a;" d="M198 51 q6 54 62 54 q55 -1 61 -54 q-7 -51 -61 -51 q-56 -2 -62 51 ZM198 415 q6 55 62 55 q55 -2 61 -55 q-7 -51 -61 -51 q-56 -1 -62 51 Z" /><glyph glyph-name="uniFF1B" unicode="&#xff1b;" d="M219 415 q6 55 62 55 q55 -2 61 -55 q-7 -51 -61 -51 q-56 -1 -62 51 ZM342 50 q-2 -47 -41.5 -90.5 q-39.5 -43.5 -86.5 -46.5 q-9 -1 -12 7 q4 11 28.5 36 q24.5 25 28.5 45 q-1 9 -10 11 l0 -1 q-31 14 -33 49 q11 46 61 45 q59 1 65 -55 Z" /><glyph glyph-name="uniFF1F" unicode="&#xff1f;" d="M301 700 q68 1 131.5 -33.5 q63.5 -34.5 68.5 -109.5 q-5 -61 -54 -110.5 q-49 -49.5 -85 -98.5 q-24 -52 -21 -95.5 q3 -43.5 -42 -46.5 q-35 -1 -36 33 q10 135 76.5 185.5 q66.5 50.5 76.5 128.5 q-6 109 -117 109 q-60 -7 -102.5 -59.5 q-42.5 -52.5 -61.5 -60.5 q-22 6 -36 29 q-2 4 -2 10 q2 7 6 13 q31 47 87 76 q56 29 111 30 ZM239 51 q10 48 62 45 q51 2 61 -45 q-11 -45 -61 -42 q-51 -4 -62 42 Z" /><glyph glyph-name="uniFF5E" unicode="&#xff5e;" d="M398 369 q-36 -4 -55.5 -29 q-19.5 -25 -39.5 -29 q-19 4 -25 23 q-2 0 -2 2 q-1 1 -1 4 q0 11 6 21 l0 1 q42 60 116 62 q64 -4 109 -34 q45 -30 97 -34 q29 4 49 30 q20 26 37 30 q27 -8 33 -34 q-4 -30 -46 -55.5 q-42 -25.5 -75 -27.5 q-64 4 -112.5 35 q-48.5 31 -90.5 35 Z" /><glyph glyph-name="bullet" unicode="&#x2022;" d="M402 391 q7 92 98 99 q90 -8 98 -97 q-8 -90 -98 -99 q-88 10 -98 97 Z" /><glyph glyph-name="SF110000" unicode="&#x2502;" d="M522 852 l0 -993 l-50 0 l0 993 l50 0 Z" /><glyph glyph-name="circle" unicode="&#x25cb;" d="M499 35 q37 4 73 12 q186 47 234 235 q3 12 8 36.5 q5 24.5 5 36.5 q-4 35 -12 69 q-46 195 -240 244 q-34 8 -68 12 q-34 -4 -69 -12 q-194 -48 -240 -244 q-8 -34 -11 -69 q4 -134 95 -225 q91 -91 225 -95 ZM499 719 q13 -1 39 -5.5 q26 -4.5 39 -7.5 q218 -55 272 -273 q3 -13 7.5 -39 q4.5 -26 5.5 -39 q0 -15 -5 -41 q-5 -26 -9 -41 q-53 -212 -266 -260 q-41 -10 -83 -13 q-153 3 -256 102 q-103 99 -107 253 q0 13 5 38.5 q5 25.5 8 39.5 q52 219 272 273 q13 3 39 7.5 q26 4.5 39 5.5 Z" /><glyph glyph-name="uni2605" unicode="&#x2605;" d="M499 699 l94 -273 l277 0 l-226 -172 l82 -262 l-227 153 l-227 -153 l82 262 l-226 172 l277 0 l94 273 Z" /><glyph glyph-name="uni2606" unicode="&#x2606;" d="M323 47 l176 133 l176 -129 l4 4 l-71 211 l180 132 l-223 0 l-66 215 l-4 0 l-66 -215 l-219 0 l176 -132 l-67 -215 l4 -4 ZM499 699 l94 -273 l277 0 l-226 -172 l82 -262 l-227 156 l-227 -156 l79 262 l-223 172 l277 0 l94 273 Z" /><glyph glyph-name="uni3042" unicode="&#x3042;" d="M539 -91 q95 24 178 87 q83 63 88 170 q-2 89 -58.5 138 q-56.5 49 -141.5 57 q-77 -138 -187 -250 q25 -50 36 -98 q0 -20 -16 -33 l-8 -1 q-26 2 -40.5 30 q-14.5 28 -14.5 51 q-37 -32 -97 -71.5 q-60 -39.5 -110 -43.5 q-36 8 -42.5 75.5 q-6.5 67.5 -4.5 102.5 q79 154 242 223 q8 98 32 195 q-59 -4 -128 2 q-69 6 -99 68 q93 -29 191 -27 q23 2 47 4 q22 79 28 160 q-13 32 -47 43 l0 4 l17 1 q90 4 100 -83 q-31 -57 -55 -121 l8 0 q44 3 98.5 27 q54.5 24 91.5 27 q28 -1 35 -28 q-12 -34 -108.5 -52.5 q-96.5 -18.5 -135.5 -20.5 q-26 -88 -32 -180 q72 24 149 31 q10 25 11 51 q-9 31 -39 43 q12 4 26 4 q56 -7 76 -62 q-5 -19 -8 -40 q99 -15 176.5 -68 q77.5 -53 81.5 -162 q-8 -132 -116 -192.5 q-108 -60.5 -224 -72.5 l0 12 ZM359 307 q-67 -36 -129.5 -97 q-62.5 -61 -66.5 -140 q-3 -42 28 -68 q47 15 92 51 q45 36 80 70 q-6 92 -4 184 ZM402 256 q0 -44 8 -86 q82 85 133 191 q-74 -4 -141 -35 l0 -70 Z" /><glyph glyph-name="uni3044" unicode="&#x3044;" d="M707 221 q28 1 70.5 12.5 q42.5 11.5 46.5 45.5 q1 4 0 8 q-17 81 -71 139.5 q-54 58.5 -140 59.5 l0 4 q18 2 35 2 q186 -8 239 -191 q15 -39 19 -80 q3 -42 -23 -75 q-33 5 -43 36 q-23 17 -64 24.5 q-41 7.5 -69 10.5 l0 4 ZM438 342 q-23 -34 -70.5 -113.5 q-47.5 -79.5 -53.5 -114.5 q3 -27 6 -55 q2 -20 -15 -26 q-28 5 -51 20 q-83 64 -106.5 199 q-23.5 135 -22.5 234 q2 83 -31 160 q81 -42 94 -129 q-6 -61 -12 -121 q-2 -51 17 -138.5 q19 -87.5 77 -99.5 q87 97 168 199 l0 -15 Z" /><glyph glyph-name="uni3046" unicode="&#x3046;" d="M461 -126 q211 178 223 450 q2 46 -12 101.5 q-14 55.5 -70 60.5 q-72 -7 -139.5 -56.5 q-67.5 -49.5 -99.5 -56.5 q-32 2 -62 32 q-30 30 -43 58 l0 15 q33 -30 76 -40 q40 5 109.5 36.5 q69.5 31.5 146.5 35.5 q94 -4 124.5 -69.5 q30.5 -65.5 27.5 -149.5 q-14 -283 -269 -417 l-12 0 ZM434 842 q45 -72 134.5 -87 q89.5 -15 99.5 -77 q2 -29 -27 -32 q-13 2 -39.5 21.5 q-26.5 19.5 -42.5 29.5 q-42 21 -82 53.5 q-40 32.5 -43 82.5 l0 9 Z" /><glyph glyph-name="uni3048" unicode="&#x3048;" d="M543 455 q-104 -14 -188 -74 q-14 -14 -31 -20 q-70 27 -71 102 l1 15 l8 0 q11 -33 39 -46 q65 5 147 42.5 q82 37.5 130 42.5 q59 -5 67 -62 q-3 -16 -26 -33.5 q-23 -17.5 -37 -25.5 q-59 -41 -128.5 -126 q-69.5 -85 -113.5 -147 q121 -19 159.5 -93.5 q38.5 -74.5 168.5 -84.5 q65 2 125 28 q5 2 8 3 q16 0 43.5 -7.5 q27.5 -7.5 30.5 -27.5 q-8 -34 -71 -40 q-63 -6 -92 -4 q-44 -1 -107 8 q-63 9 -93 44 l-39 57 q-18 29 -48.5 63.5 q-30.5 34.5 -65.5 37.5 q-24 -2 -46 -11 q-7 -10 -37 -50 q-30 -40 -37 -45 q-4 2 -5 5 q-11 -23 -31 -49 q-20 -26 -47 -28 q-26 0 -28 25 q9 47 40 87 q104 63 208.5 184.5 q104.5 121.5 174.5 221.5 l-8 8 ZM410 799 q51 -63 129 -81 q78 -18 86 -77 q-3 -30 -35 -30 q-60 27 -115 73 q-55 46 -69 115 l4 0 Z" /><glyph glyph-name="uni304A" unicode="&#x304a;" d="M98 92 q18 -32 54 -35 q88 83 184 156 l0 226 l-35 0 q-17 -2 -35 -4 q-92 -8 -118 75 q45 -30 98 -36 q46 0 90 12 l0 192 q-6 48 -55 54 l0 8 q24 6 49 6 q70 1 84 -68 q-39 -83 -43 -176 q19 7 63 26 q44 19 50 21 q31 2 39 -24 q-7 -33 -66.5 -54.5 q-59.5 -21.5 -89.5 -27.5 l0 -211 q133 91 293 98 q73 0 141.5 -42 q68.5 -42 73.5 -122 q-3 -95 -68.5 -142.5 q-65.5 -47.5 -154.5 -47.5 q-79 4 -152 34 l0 7 q54 -13 109 -15 q79 1 136 47 q57 46 60 129 q-3 69 -54 100.5 q-51 31.5 -114 31.5 q-156 -14 -270 -125 l0 -62 q4 -76 8 -154 q4 -54 -47 -60 q-9 2 -12 12 q-37 67 -101 108 q-10 -17 -24 -31 q-6 -12 -19 -10 q-29 2 -55.5 28.5 q-26.5 26.5 -28.5 56.5 q0 10 2 19 l8 0 ZM680 584 q37 27 83 29 q49 -2 97.5 -38 q48.5 -36 52.5 -87 q0 -23 -11 -41 q-14 10 -50 20 q-21 -1 -52 -12.5 q-31 -11.5 -50 -19.5 l0 8 q20 16 46 39.5 q26 23.5 28 50.5 q-3 31 -35.5 41 q-32.5 10 -58.5 9 q-24 0 -50 -3 l0 4 ZM332 -20 q4 37 4 73 l0 105 q-64 -54 -117 -121 q51 -32 105 -57 l8 0 Z" /><glyph glyph-name="uni304B" unicode="&#x304b;" d="M313 728 q17 8 36 8 q65 -10 100 -70 q-2 -8 -19 -40 q-17 -32 -24 -50 l-4 -4 q-15 -34 -27 -70 q64 13 129 15 q133 0 133 -132 q-3 -46 -13 -93 q-17 -109 -68.5 -210.5 q-51.5 -101.5 -160.5 -142.5 l-4 18 q-3 9 -4 19 q-14 36 -47 53 q-22 21 -39 47 l8 0 q51 -36 113 -43 q81 45 120.5 150.5 q39.5 105.5 39.5 193.5 q1 39 -13.5 73 q-14.5 34 -59.5 36 q-76 -2 -150 -23 q-82 -204 -168 -406 q-11 -27 -32.5 -58.5 q-21.5 -31.5 -53.5 -34.5 q-26 2 -28 29 q10 47 44 83 q61 78 105 174 q44 96 79 189 q-28 -11 -84.5 -36.5 q-56.5 -25.5 -72.5 -29.5 q-80 26 -97 105 q41 -30 90 -39 q28 2 85.5 20 q57.5 18 93.5 27 q13 38 27.5 89 q14.5 51 15.5 91 q-3 46 -50 55 l0 7 ZM676 549 q104 -29 184.5 -93.5 q80.5 -64.5 84.5 -180.5 q-2 -36 -39 -39 l-11 12 q-10 21 -80.5 34.5 q-70.5 13.5 -95.5 16.5 q21 2 79 14 q58 12 65 33 q-6 59 -72.5 116.5 q-66.5 57.5 -114.5 86.5 Z" /><glyph glyph-name="uni304C" unicode="&#x304c;" d="M20 471 q23 -36 66 -39 q96 12 191 42 q43 86 47 180 q-5 49 -54 63 l0 7 q17 6 35 6 q28 -1 65 -22 q37 -21 40 -50 q-2 -12 -12 -19 q-3 -7 -7 -12 q-17 -24 -30.5 -66.5 q-13.5 -42.5 -28.5 -70.5 q71 21 145 20 q68 -1 93 -42 q25 -41 24 -103 q0 -101 -34.5 -201 q-34.5 -100 -102.5 -176 q-39 -54 -105 -59 q-5 17 -8 36 q-20 32 -47 56 q-17 23 -35 47 l8 0 q51 -23 101 -47 l8 0 q26 0 39 20 q43 36 62 90 q33 66 48 120.5 q15 54.5 15 129.5 q2 101 -98 97 q-57 -1 -109 -27 q-21 0 -31 -19 q-51 -116 -94 -235 q-24 -61 -51 -121 q-7 -16 -25.5 -50 q-18.5 -34 -21.5 -42 q-24 -26 -58 -27 q-21 7 -24 31 q3 23 34 61 q31 38 48 62 q36 56 72.5 141 q36.5 85 60.5 148 q6 9 8 20 l4 8 q-79 -19 -141 -63 q-15 -3 -31 -4 q-18 4 -45.5 38 q-27.5 34 -30.5 56 q0 9 2 16 l8 0 ZM633 541 q87 -6 179 -85 q92 -79 99 -166 q5 -53 -44 -62 q-10 3 -15 12 q-2 19 -31.5 24.5 q-29.5 5.5 -47.5 6.5 q-46 21 -97 20 q18 3 64 14 q46 11 57 17 q20 1 27 16 q-2 27 -19 47 q-16 41 -74 88 q-58 47 -98 68 ZM766 623 q39 0 88.5 -20 q49.5 -20 54.5 -64 q-1 -19 -18 -29 q-29 5 -62.5 47 q-33.5 42 -62.5 66 ZM844 697 q40 0 89.5 -15 q49.5 -15 54.5 -63 q-3 -19 -19 -27 q-18 3 -39 27.5 q-21 24.5 -32 38.5 q-24 23 -54 39 Z" /><glyph glyph-name="uni304D" unicode="&#x304d;" d="M203 580 q28 -6 58 -6 q41 0 92.5 9.5 q51.5 9.5 87.5 27.5 q-20 26 -47.5 79.5 q-27.5 53.5 -53.5 59.5 q-29 -2 -51 -18 l-8 4 q18 21 32 47 q15 10 35 10 q22 0 56 -14.5 q34 -14.5 37 -38.5 q-4 -51 28 -94 q9 -12 11 -27 q32 12 76.5 37.5 q44.5 25.5 68.5 28.5 q33 3 47 -23 q-1 -21 -20 -31 q-72 -31 -148 -51 q10 -11 37.5 -57.5 q27.5 -46.5 40.5 -67.5 q70 40 145 55 q31 4 43 -20 q-7 -25 -71 -45.5 q-64 -20.5 -94 -28.5 q64 -100 153 -180 q16 -9 31 -19 q14 -11 12 -32 q-1 -46 -35 -74 q-20 1 -32 16 q-18 14 -58 30 q-40 16 -63 21 q-96 22 -195 19 q-53 2 -115.5 -20 q-62.5 -22 -68.5 -85 q10 -84 111.5 -109 q101.5 -25 174.5 -22 q19 2 39 4 q22 0 51 -10.5 q29 -10.5 32 -36.5 q-7 -29 -36 -33 q-104 -3 -246 33.5 q-142 36.5 -156 152.5 q9 107 111.5 129 q102.5 22 188.5 17 q100 -6 199 -12 q-3 17 -28.5 45.5 q-25.5 28.5 -37.5 44.5 l-74 109 q-115 -51 -239 -62 q-66 9 -121 54 l0 8 q41 -9 106 -19 q67 2 120.5 20.5 q53.5 18.5 113.5 33.5 q-42 63 -78 129 l-8 0 q-79 -32 -164 -35 q-15 1 -31 4 l0 0 q-3 5 -26.5 20 q-23.5 15 -32.5 19 l0 4 Z" /><glyph glyph-name="uni304F" unicode="&#x304f;" d="M691 -103 q-1 -23 -21 -29 q-33 6 -49 37 q-30 60 -70 116 q-33 48 -93 128.5 q-60 80.5 -99 117.5 q-31 23 -46 59 q-5 10 -5 22 q19 64 150.5 198.5 q131.5 134.5 150.5 209.5 q-12 30 -43 47 l0 7 q42 0 79 -23 q37 -23 39 -70 q-10 -47 -55 -71 q-42 -36 -151.5 -136.5 q-109.5 -100.5 -133.5 -132.5 q-5 -9 -5 -19 q6 -36 36 -59 q70 -60 137 -121 q69 -77 129 -161 q27 -31 38.5 -54 q11.5 -23 11.5 -66 Z" /><glyph glyph-name="uni3050" unicode="&#x3050;" d="M445 810 q42 0 79 -23 q37 -23 39 -70 q-21 -59 -170 -176.5 q-149 -117.5 -170 -187.5 q8 -49 50 -78 q63 -51 176 -166 q113 -115 125 -196 q0 -29 -23 -43 q-30 2 -45.5 28 q-15.5 26 -25.5 51 q-46 83 -160.5 219 q-114.5 136 -128.5 189 q19 52 149.5 187 q130.5 135 149.5 205 q-5 40 -45 54 l0 7 ZM676 592 q43 -3 88.5 -26 q45.5 -23 49.5 -71 q0 -17 -13 -28 q-16 5 -54.5 50.5 q-38.5 45.5 -70.5 70.5 l0 4 ZM574 541 q44 0 82.5 -22 q38.5 -22 41.5 -70 q-2 -26 -26 -33 q-15 6 -42.5 54.5 q-27.5 48.5 -55.5 70.5 Z" /><glyph glyph-name="uni3051" unicode="&#x3051;" d="M457 447 q-55 6 -102 31 l0 8 q33 -7 66 -7 q125 6 247 35 l0 111 q11 119 -105 115 l0 12 q28 19 60 19 q99 -7 107 -105 q-5 -29 -11 -59 l0 -86 q59 20 121 20 q19 -1 47.5 -15 q28.5 -14 31.5 -34 q0 -8 -5 -14 q-35 -4 -70 0 l-59 0 q-33 0 -66 -4 q6 -149 -15 -306 q-21 -157 -145 -259 q-29 -26 -67 -35 q115 114 147.5 278.5 q32.5 164.5 28.5 318.5 q-104 -22 -211 -24 ZM125 283 q0 -77 27 -148 q24 16 55.5 88 q31.5 72 42.5 103 l0 -8 q-1 -3 -6 -19.5 q-5 -16.5 -6 -22.5 q-14 -53 -27 -106 q-20 -65 -23 -133 q1 -12 0 -29.5 q-1 -17.5 -16 -19.5 q-68 14 -79 136.5 q-11 122.5 -7 185.5 q4 133 39 262 q18 58 23 117 q-3 45 -43 67 l0 6 q3 6 8 5 q33 -2 68 -32.5 q35 -30.5 38 -64.5 q-1 -13 -8 -24 q-80 -172 -86 -363 Z" /><glyph glyph-name="uni3053" unicode="&#x3053;" d="M473 33 q98 1 194 19 q34 10 67 16 q24 4 50 4 q48 3 56 -40 q1 -32 -31 -38 q-75 -17 -153 -18 l-152 0 q-102 -4 -218 31.5 q-116 35.5 -126 154.5 q2 71 43 129 q-10 -36 -18 -93 q7 -115 100 -142.5 q93 -27.5 188 -22.5 ZM716 595 q0 -10 -5 -19 q-13 -12 -31 -16 q-10 0 -20 0 q-70 -5 -152.5 -38 q-82.5 -33 -105.5 -36 q12 12 60 48 q48 36 73 58 l0 4 q-62 4 -130.5 15.5 q-68.5 11.5 -107.5 66.5 q-16 10 -20 27 q91 -56 200 -51 q43 2 135.5 -5.5 q92.5 -7.5 103.5 -53.5 Z" /><glyph glyph-name="uni3054" unicode="&#x3054;" d="M141 283 q-20 -48 -20 -101 q7 -101 95 -134.5 q88 -33.5 175 -30.5 q140 5 277 36 q26 6 51 7 q47 4 55 -39 q-2 -28 -28 -37 q-31 -8 -129.5 -13.5 q-98.5 -5.5 -136.5 -5.5 q-103 -5 -236 28 q-133 33 -146 157 q5 72 43 133 ZM215 697 q92 -50 255.5 -54.5 q163.5 -4.5 181.5 -58.5 q-12 -41 -58 -35 q-125 -10 -242 -63 q20 18 64.5 51.5 q44.5 33.5 49.5 49.5 l-1 5 q-70 -2 -142 18.5 q-72 20.5 -108 86.5 ZM672 678 q43 -5 93.5 -30 q50.5 -25 54.5 -75 q-2 -25 -24 -33 q-15 2 -29 21 q-14 19 -21 31 q-11 15 -40.5 48.5 q-29.5 33.5 -33.5 37.5 ZM758 736 q41 -4 90.5 -27.5 q49.5 -23.5 53.5 -69.5 q-1 -17 -15 -28 q-32 6 -63 52 q-31 46 -66 65 l0 8 Z" /><glyph glyph-name="uni3055" unicode="&#x3055;" d="M436 237 q-62 1 -129 -27 q-67 -28 -73 -99 q1 -44 32 -74 q50 -47 169 -69.5 q119 -22.5 190 -22.5 q45 6 59 -32 q-2 -25 -28.5 -32.5 q-26.5 -7.5 -46.5 -6.5 q-99 0 -239.5 52 q-140.5 52 -154.5 158 l0 23 q11 112 130 138.5 q119 26.5 210 21.5 q90 1 175 -27 l0 12 q-33 51 -91 130 q-58 79 -100 120 q-127 -47 -262 -51 q-37 1 -70 26.5 q-33 25.5 -35 64.5 l0 7 l4 0 q45 -53 117 -43 q104 2 203 35 q-67 61 -144 109 q-13 12 -12 30 q0 23 11 50.5 q11 27.5 36 29.5 q16 -5 31 -12 q31 -11 62 -20 q109 -19 204 -70 q24 -6 50 -4 q28 -5 32 -34 q-8 -31 -77 -64 q-69 -33 -103 -42 q55 -62 105 -129 q21 -23 75.5 -85 q54.5 -62 61.5 -99 q-3 -44 -42 -57 q-20 3 -51.5 32.5 q-31.5 29.5 -86.5 44.5 q-105 19 -212 16 ZM669 616 q-2 20 -21 30 q-78 70 -183 71 q-13 0 -33 -4.5 q-20 -4.5 -22 -19.5 q3 -19 20 -31 q17 -16 60 -55.5 q43 -39.5 57 -49.5 q63 23 121 54 l1 5 Z" /><glyph glyph-name="uni3057" unicode="&#x3057;" d="M215 666 q-1 51 -16 58 q-15 7 -35 28 l-1 7 q5 8 13 8 q46 0 82.5 -28 q36.5 -28 38.5 -77 q-2 -14 -8 -27 q-25 -90 -27 -184 q-16 -154 -16 -309 q-1 -108 42.5 -144 q43.5 -36 145.5 -33 q114 2 216.5 50.5 q102.5 48.5 189.5 119.5 q-15 -48 -51 -82 q-147 -134 -344 -144 l-19 0 q-104 -2 -180 67 q-36 43 -40.5 107 q-4.5 64 -2.5 118 q6 180 12 359 l0 106 ZM293 644 q0 1 1 1 q0 0 0 -1 l-1 -2 l0 2 Z" /><glyph glyph-name="uni3058" unicode="&#x3058;" d="M527 623 q41 -2 90.5 -25 q49.5 -23 53.5 -70 q-2 -21 -23 -26 q-19 5 -56 48.5 q-37 43.5 -65 64.5 l0 8 ZM441 576 q35 -12 76 -37.5 q41 -25.5 45 -66.5 q-1 -20 -11 -37 l-4 0 q-29 6 -56.5 59.5 q-27.5 53.5 -49.5 81.5 ZM160 760 q53 -3 91.5 -27 q38.5 -24 40.5 -81 q0 -16 -3 -33 q-50 -232 -55 -471 q-7 -181 168 -191 q252 13 434 189 l4 0 q-141 -244 -420 -250 q-225 10 -217 243 q6 272 12 543 q-6 50 -55 70 l0 8 Z" /><glyph glyph-name="uni3059" unicode="&#x3059;" d="M668 611 q93 -2 184 8 q16 5 33 6 q57 -8 60 -65 q-16 -11 -35 -11 q-36 3 -70 19 q-101 12 -203 12 l-90 0 q0 -78 8 -156 q11 -12 11 -28 q31 -70 24 -148 q1 -252 -215 -378 l-8 0 l0 4 q52 49 101 120 q49 71 52 144 l0 8 q-182 -2 -184 180 q1 57 38 98 q37 41 95 43 q24 1 43 -12 l0 121 q-62 -4 -160 -22 q-98 -18 -149 -48 q-22 -11 -51 -20 q-28 1 -62 24 q-34 23 -37 53 q0 7 2 13 q24 -5 35 -27 q19 -6 40 -7 q53 6 104 26 q138 34 278 43 l0 153 q-2 31 -31 43.5 q-29 12.5 -55 14.5 l0 8 l23 12 l24 0 q35 -1 67 -28.5 q32 -27.5 34 -62.5 q-1 -27 -15 -50 q-16 -43 -12 -90 l121 0 ZM521 340 q2 82 -76 95 q-39 -2 -65.5 -34.5 q-26.5 -32.5 -27.5 -70.5 q2 -51 41 -91 q39 -40 91 -42 q32 -2 36 27 l1 116 Z" /><glyph glyph-name="uni305A" unicode="&#x305a;" d="M426 822 q21 8 43 8 q37 0 68.5 -22 q31.5 -22 33.5 -61 q0 -7 -1 -15 q-17 -13 -20.5 -57 q-3.5 -44 -2.5 -64 l101 0 q118 6 235 12 q44 -3 66 -39 q-4 -37 -43 -35 q-44 5 -89 15 q-91 12 -184 12 l-82 0 q3 -73 4 -148 q45 -75 39 -164 q-1 -265 -231 -394 l-8 0 q123 106 165 261 q-81 10 -133.5 60 q-52.5 50 -54.5 135 q1 52 33.5 95 q32.5 43 87.5 46 q32 2 59 -12 l0 117 q-77 -7 -170 -21.5 q-93 -14.5 -162 -48.5 q-18 -11 -40 -12 q-34 2 -55.5 29.5 q-21.5 27.5 -33.5 56.5 q32 -22 70 -31 q34 3 67 12 q161 36 324 50 l0 103 q2 90 -86 97 l0 15 ZM520 334 q2 81 -75 101 q-83 -20 -90 -105 q2 -52 41.5 -91.5 q39.5 -39.5 91.5 -41.5 q27 4 32 31 l0 106 ZM668 791 q39 -6 81 -29 q42 -23 46 -66 q-3 -25 -29 -30 q-17 6 -44.5 54 q-27.5 48 -53.5 67 l0 4 ZM770 830 q36 0 81.5 -12.5 q45.5 -12.5 49.5 -55.5 q0 -16 -6 -30 q-6 -3 -12 -4 q-22 4 -48 42 q-26 38 -65 56 l0 4 Z" /><glyph glyph-name="uni305B" unicode="&#x305b;" d="M367 381 q-1 -76 -2 -152 q6 -202 212 -197 q88 -2 173 13 q10 3 20 4 q19 1 52 -7 q33 -8 37 -31 q-10 -28 -88 -32 q-78 -4 -104 -3 q-219 -2 -288 89.5 q-69 91.5 -63 303.5 q-98 -22 -191 -59 q-79 26 -109 106 q19 -9 43.5 -25 q24.5 -16 42.5 -18 q27 2 101 20 q74 18 113 27 l0 148 q-13 54 -74 47 q16 34 52 40 q54 -13 85 -63 q-7 -17 -12 -32 l0 -128 q146 28 293 35 q12 87 12 175 q0 74 -74 79 q10 27 37 28 q35 -1 70.5 -28 q35.5 -27 40.5 -63 q-11 -13 -16 -27 q-1 -83 -15 -164 l47 0 q56 -1 109 15 q10 4 20 4 q25 -1 53.5 -22 q28.5 -21 39.5 -44 q-8 -14 -23 -16 q-10 1 -20 4 q-115 24 -234 20 q-4 -54 -27.5 -152.5 q-23.5 -98.5 -77.5 -121.5 q-11 12 -20 28 q-29 43 -74 66 q-8 3 -16 8 l0 4 q15 -5 48 -14.5 q33 -9.5 45 -10.5 q36 9 54 81 q18 72 21 104 q-148 -15 -293 -39 Z" /><glyph glyph-name="uni305F" unicode="&#x305f;" d="M297 764 q13 5 28 5 q53 -5 93 -45 q14 -6 12 -23 q-1 -11 -8 -19 q-31 -42 -39 -94 q-9 -8 -8 -20 q31 10 69 31.5 q38 21.5 60 23.5 q27 0 43 -20 q-2 -25 -26.5 -34 q-24.5 -9 -40.5 -20 q-42 -17 -82 -32 q-23 -5 -46 -11 q-23 -64 -102.5 -270.5 q-79.5 -206.5 -101.5 -243.5 q-13 -14 -31 -15 q-22 2 -25 20.5 q-3 18.5 -2 35.5 q3 19 15 35 q48 41 110 194.5 q62 153.5 86 227.5 q-53 -18 -110 -21 q-48 -1 -69.5 15.5 q-21.5 16.5 -43.5 56.5 q11 -2 31.5 -15 q20.5 -13 57.5 -15 q39 2 81 16 q42 14 72 14 q12 35 24 70 q8 41 15 83 q1 52 -50 58 l-12 4 l0 8 ZM777 -16 q42 5 82 10 q35 2 63 -18 q-3 -31 -37.5 -39.5 q-34.5 -8.5 -60.5 -7.5 l-94 0 q-81 -4 -176 21 q-95 25 -103 120 q8 52 22 103 q-2 -46 6 -91 q8 -45 52 -72 q92 -18 184 -26 l62 0 ZM793 428 q-10 39 -94 51 q-84 12 -121 11 q53 19 108 19 q61 1 135 -27 q74 -28 81 -97 q-1 -25 -27 -28 q-7 1 -12 4 l-11 0 q-14 11 -32 12 q-27 -2 -63 -18 q-36 -16 -66 -25 q23 19 60.5 43 q37.5 24 41.5 55 Z" /><glyph glyph-name="uni3060" unicode="&#x3060;" d="M238 760 q18 6 38 6 q67 -6 87 -73 q-5 -29 -23 -51 q-7 -42 -27 -82 q61 38 121 63 q13 0 32.5 -5.5 q19.5 -5.5 21.5 -21.5 q-1 -25 -27 -28 q-25 -11 -50 -26 q-59 -27 -122 -48 q-86 -247 -187 -488 q-9 -27 -36 -33 q-11 -7 -23 -8 q-10 0 -16 8 q-5 18 -5 36 q0 23 9 44 q66 56 123 197.5 q57 141.5 84 227.5 q-48 -11 -96 -11 q-86 -2 -122 74 q16 -9 47 -19.5 q31 -10.5 50 -11.5 q74 1 141 31 q11 28 25 69.5 q14 41.5 15 69.5 q4 67 -60 76 l0 4 ZM422 166 q-4 -22 -4 -45 q4 -88 66.5 -117.5 q62.5 -29.5 140.5 -27.5 q89 9 176 18 q17 1 44.5 -4 q27.5 -5 30.5 -25 q0 -9 -5 -16 q-68 -38 -148 -32 q-82 -3 -199 24.5 q-117 27.5 -129 126.5 q2 51 23 98 l4 0 ZM520 490 q65 16 132 17 q156 6 188 -142 q-8 -9 -20 -10 q-26 9 -50 18 q-66 -9 -133 -31 q21 17 54 35.5 q33 18.5 36 47.5 q-10 41 -90.5 53 q-80.5 12 -116.5 12 ZM813 736 q41 1 101 -15.5 q60 -16.5 66 -66.5 q0 -31 -31 -31 q-17 5 -58.5 46 q-41.5 41 -77.5 59 l0 8 ZM730 654 q45 1 98.5 -19.5 q53.5 -20.5 58.5 -72.5 q-5 -26 -32 -29 q-14 5 -51.5 50 q-37.5 45 -73.5 63 l0 8 Z" /><glyph glyph-name="uni3061" unicode="&#x3061;" d="M305 756 q14 11 33 12 q76 3 88 -67 q-2 -18 -20.5 -66.5 q-18.5 -48.5 -26.5 -77.5 l12 0 q43 4 100 34.5 q57 30.5 111 34.5 q33 1 58 -19 q2 -27 -23 -35 q-36 -12 -74 -19 q-20 -2 -88.5 -22 q-68.5 -20 -107.5 -29 q-41 -155 -62 -313 l4 0 q156 113 347 121 q91 3 157.5 -30.5 q66.5 -33.5 69.5 -133.5 q-11 -125 -121 -189 q-143 -69 -305 -60 l0 12 q108 10 232 74.5 q124 64.5 135 182.5 l0 12 q-3 64 -51 89 q-48 25 -105 24 q-89 -2 -180 -43 q-91 -41 -156 -102 q-15 -24 -23 -43 l-4 -11 q3 -42 -39 -43 q-19 3 -25 30.5 q-6 27.5 -3 43.5 q27 110 55 219 q15 71 23 144 q-56 -8 -113 -8 q-82 14 -86 98 q32 -22 46.5 -36.5 q14.5 -14.5 59.5 -14.5 q53 2 105 16 q4 18 12 61.5 q8 43.5 12 55.5 q3 14 3 27 q1 53 -50 67 l0 4 Z" /><glyph glyph-name="uni3063" unicode="&#x3063;" d="M641 502 q89 1 150 -40.5 q61 -41.5 64 -135.5 q-7 -145 -119 -212 q-112 -67 -244 -65 l4 4 q20 6 39 11 q113 30 190 97.5 q77 67.5 80 191.5 q-4 75 -60 101 q-56 26 -120 24 q-87 -1 -191 -38.5 q-104 -37.5 -172 -93.5 q-12 -12 -28 -16 q-19 3 -51 31 q-32 28 -35 49 l0 6 l6 1 q9 -5 14 -13 q13 -12 33 -12 q61 9 115 40 q156 69 325 70 Z" /><glyph glyph-name="uni3065" unicode="&#x3065;" d="M363 17 q153 24 276.5 105 q123.5 81 130.5 251 q-9 182 -192 176 q-123 -1 -217.5 -41.5 q-94.5 -40.5 -188.5 -115.5 q-8 -7 -28 -20 q-20 -13 -31 -15 q-32 2 -60.5 31.5 q-28.5 29.5 -40.5 58.5 q34 -9 66 -15 q18 2 46.5 16 q28.5 14 43.5 23 q170 98 363 105 q125 2 207.5 -51 q82.5 -53 85.5 -187 q-9 -191 -150.5 -260 q-141.5 -69 -310.5 -68 l0 7 ZM855 697 q39 -1 78.5 -15.5 q39.5 -14.5 54.5 -54.5 q-5 -21 -25 -26 q-27 4 -49 40 q-22 36 -59 52 l0 4 ZM770 623 q34 -1 74.5 -14.5 q40.5 -13.5 44.5 -53.5 q-1 -20 -10 -38 q-24 4 -54.5 40.5 q-30.5 36.5 -54.5 57.5 l0 8 Z" /><glyph glyph-name="uni3066" unicode="&#x3066;" d="M773 -51 q-6 -36 -46 -32 q-19 0 -39 4 q-130 20 -217.5 90 q-87.5 70 -91.5 210 q3 136 80.5 237 q77.5 101 192.5 165 l0 8 q-99 -8 -195 -35 q-114 -26 -215 -82 q-19 -13 -43 -12 q-24 4 -57.5 38 q-33.5 34 -43.5 56 l0 15 l11 0 q20 -34 59 -35 q56 3 109 20 q138 38 278 66 q45 9 90 16 q65 18 128 27 q28 1 76 -10.5 q48 -11.5 53 -41.5 q0 -9 -4 -18 q-13 -13 -31 -12 q-33 4 -66 8 q-10 -1 -40.5 -10.5 q-30.5 -9.5 -42.5 -13.5 q-218 -74 -290 -290 q-4 -13 -10.5 -39 q-6.5 -26 -7.5 -38 q3 -33 14 -64 q61 -161 236 -170 q29 -1 69 -12.5 q40 -11.5 44 -44.5 Z" /><glyph glyph-name="uni3067" unicode="&#x3067;" d="M586 635 q-192 -11 -363 -102 q-12 -7 -37 -18.5 q-25 -11.5 -38 -12.5 q-11 3 -22 8 q-73 27 -95 101 l12 0 q23 -36 66 -35 q32 1 86 15 q54 14 86 24 q101 29 183.5 47 q82.5 18 183.5 35 q29 6 59 8 q26 1 74 -8 q48 -9 53 -39 q-5 -35 -44 -33 q-28 3 -58 6 q-35 0 -68 -12 q-201 -72 -277 -270 q-5 -13 -12 -40 q-7 -27 -8 -38 q8 -260 270 -269 q8 0 15 -4 q12 0 20 8 q32 -14 51 -41 q-36 -39 -88 -37 q-97 8 -182 56 q-130 82 -129 237 q3 133 77.5 236.5 q74.5 103.5 184.5 169.5 l0 8 ZM836 560 q37 -10 82 -35.5 q45 -25.5 49 -68.5 q0 -19 -10 -36 q-5 -3 -11 -4 q-23 6 -56.5 61 q-33.5 55 -53.5 83 ZM730 533 q40 -15 76 -48 q36 -33 38 -78 q-1 -27 -28 -34 q-24 14 -48.5 70.5 q-24.5 56.5 -44.5 89.5 l7 0 Z" /><glyph glyph-name="uni3068" unicode="&#x3068;" d="M520 -12 q32 0 92.5 5.5 q60.5 5.5 86.5 16.5 l12 0 q18 1 48.5 -3.5 q30.5 -4.5 33.5 -26.5 q-10 -36 -91 -44.5 q-81 -8.5 -116 -6.5 l-85 0 q-95 -4 -191 29 q-96 33 -103 144 q3 74 53 136 q50 62 107 104 q13 9 24 19 q-23 62 -38.5 191 q-15.5 129 -16.5 145 q-1 20 -24.5 28 q-23.5 8 -41.5 11 l0 16 q18 10 38 10 q103 -4 106 -104 q-4 -68 -8 -137 q0 -67 20 -132 q51 40 123.5 79 q72.5 39 138.5 42 q39 5 50 -28 q-11 -35 -50 -43 q-116 -38 -279 -121.5 q-163 -83.5 -179 -221.5 q5 -64 67 -87 q62 -23 117 -21 l106 0 Z" /><glyph glyph-name="uni306A" unicode="&#x306a;" d="M719 510 q37 -1 93 -12.5 q56 -11.5 83 -38.5 q22 -28 29 -62 q-4 -23 -28 -21 q-65 10 -154 20 q-117 0 -117 -117 q2 -109 16 -219 q36 -8 92 -33 q56 -25 62 -64 q-1 -20 -14 -34 q-20 4 -35 20 q-47 38 -105 57 q-28 -126 -161 -120 q-55 -2 -117.5 17.5 q-62.5 19.5 -77.5 80.5 q18 60 84.5 79 q66.5 19 122.5 17 q49 0 98 -4 q-6 65 -8 129 q-8 88 43 156 q33 23 104.5 43.5 q71.5 20.5 79.5 46.5 q-28 52 -90 55 l0 4 ZM90 607 q47 -28 101 -31 q75 -1 149 12 q16 28 38 73 q22 45 24 75 q-3 50 -54 51 l0 4 q16 10 34 10 q29 -1 55 -24 q26 -23 28 -52 q0 -11 -4 -20 q-12 -16 -20 -23 q-18 -41 -43 -79 q67 21 132 32 q40 1 52 -33 q-11 -19 -99 -38 q-88 -19 -116 -23 q-25 -53 -108.5 -211 q-83.5 -158 -127.5 -178 q-17 2 -29 14 q-3 7 -3 16 q6 45 34 82 q38 14 100.5 122.5 q62.5 108.5 82.5 150.5 q-63 -17 -128 -20 q-67 15 -98 79 l0 11 ZM461 49 q-37 1 -88.5 -11.5 q-51.5 -12.5 -63.5 -53.5 q13 -41 61 -54.5 q48 -13.5 87 -12.5 q104 7 133 108 q-62 25 -129 24 Z" /><glyph glyph-name="uni306B" unicode="&#x306b;" d="M395 260 l-1 -22 q4 -95 69.5 -128 q65.5 -33 150.5 -31 q80 -2 156 20 q13 6 27 8 q59 -5 109 -39 l1 -4 q-8 -36 -76.5 -42.5 q-68.5 -6.5 -99.5 -4.5 q-106 -4 -220.5 29.5 q-114.5 33.5 -123.5 158.5 q-2 28 4 55 l4 0 ZM613 486 q17 14 49.5 41.5 q32.5 27.5 36.5 48.5 q-30 5 -62 4 q-123 0 -242 -31 l0 4 q139 85 304 82 q29 1 78.5 -11 q49.5 -12 54.5 -48 q-9 -25 -86.5 -47.5 q-77.5 -22.5 -120.5 -42.5 l-12 0 ZM125 728 q38 -11 70.5 -38.5 q32.5 -27.5 34.5 -70.5 q-6 -32 -23 -62 q-69 -147 -70 -309 q2 -84 27 -164 l12 -4 q46 132 94 262 q-25 -182 -63 -362 q1 -39 -35 -41 q-46 15 -62.5 133 q-16.5 118 -15.5 160 q5 137 39 270 q18 62 23 125 q-15 76 -31 101 Z" /><glyph glyph-name="uni306E" unicode="&#x306e;" d="M594 -16 q108 51 190.5 141.5 q82.5 90.5 86.5 216.5 q-3 41 -14 82 q-76 225 -318 230 q-17 0 -35 0 q48 -32 55 -88 q0 -12 -4 -25 q-23 -29 -35 -63 q-38 -81 -141 -240 q-103 -159 -184 -197 q-58 27 -93 98 q-35 71 -36 132 q1 16 10.5 49 q9.5 33 14.5 49 q92 236 341 295 q55 17 111 21 q163 -1 274.5 -92 q111.5 -91 116.5 -259 q-4 -151 -99 -240.5 q-95 -89.5 -237 -117.5 q-4 0 -8 0 l4 8 ZM484 650 q-141 -46 -248 -136.5 q-107 -90.5 -138 -242.5 q9 -42 33.5 -98 q24.5 -56 71.5 -66 q221 209 301 500 l-20 43 Z" /><glyph glyph-name="uni306F" unicode="&#x306f;" d="M547 -71 q-37 0 -99 18 q-62 18 -69 60 q5 77 71 103.5 q66 26.5 132 24.5 q44 -1 87 -8 l-10 3 q16 -1 32 -3 q-4 158 -15 316 q-46 -8 -94 -8 q-106 8 -191 75 l0 7 q82 -30 168 -31 q57 6 113 12 l0 148 q5 68 -59 86 l0 8 l12 12 q37 0 77.5 -23 q40.5 -23 43.5 -63 q0 -11 -8 -20 q-21 -68 -19 -140 q65 19 129 43 l4 0 q34 3 39 -28 q-6 -34 -56.5 -46 q-50.5 -12 -80.5 -20 l-20 -4 l-15 0 q2 -56 8 -113 q8 -103 11 -207 l4 -8 l0 -8 q41 -6 102.5 -35.5 q61.5 -29.5 67.5 -71.5 q0 -5 -2 -10 q-9 -11 -23 -12 q-22 2 -52.5 23.5 q-30.5 21.5 -53.5 31.5 q-19 7 -39 16 q-4 -85 -63.5 -108 q-59.5 -23 -131.5 -20 ZM125 185 q0 -52 8 -105 q9 -14 20 -20 l3 0 q26 56 38 118 q12 62 33 121 q-25 -138 -32 -278 q4 -40 8 -79 q3 -27 -23 -26 q-36 2 -55 33 q-27 61 -31.5 155.5 q-4.5 94.5 -3.5 159.5 q4 108 35.5 211.5 q31.5 103.5 35.5 208.5 q2 21 -9 37 l-7 3 q-13 11 -16 28 q35 -4 64 -30 q29 -26 31 -63 q-1 -23 -15.5 -61 q-14.5 -38 -24.5 -61 q-65 -169 -59 -352 ZM543 107 q-40 1 -84.5 -17.5 q-44.5 -18.5 -48.5 -64.5 q6 -42 59 -52 q53 -10 86 -8 q124 -8 136 111 q-71 29 -148 31 Z" /><glyph glyph-name="uni3070" unicode="&#x3070;" d="M555 752 q45 -3 87 -22 q42 -19 49 -68 q-38 -73 -31 -156 q23 6 79.5 23.5 q56.5 17.5 65.5 19.5 q34 1 43 -28 q-2 -21 -19.5 -29.5 q-17.5 -8.5 -31.5 -17.5 q-66 -18 -133 -27 q10 -127 24 -254 q1 -41 7 -82 q34 -8 94.5 -34.5 q60.5 -26.5 67.5 -63.5 q-2 -22 -24 -25 q-26 2 -67.5 23.5 q-41.5 21.5 -70.5 33.5 q-7 -66 -57 -91.5 q-50 -25.5 -111 -24.5 q-51 -2 -118.5 15 q-67.5 17 -84.5 73 q15 66 72.5 92.5 q57.5 26.5 119.5 25.5 q61 0 121 -12 q-12 158 -16 316 l-47 0 q-25 -2 -51 -4 q-104 6 -175 82 q76 -30 156 -31 q59 -1 117 16 l1 110 q1 38 -12 75.5 q-13 37.5 -55 48.5 l0 16 ZM90 752 l8 0 q28 -3 53.5 -34 q25.5 -31 27.5 -58 q-5 -53 -27 -103 q-69 -169 -74 -352 q0 -19 7.5 -78.5 q7.5 -59.5 21.5 -67.5 l2 1 q35 126 75 250 l0 -15 q-13 -41 -29.5 -131.5 q-16.5 -90.5 -17.5 -137.5 q7 -35 14 -71 q2 -33 -30 -38 q-59 14 -72 128.5 q-13 114.5 -10 163.5 q3 173 47 340 q19 59 22 121 q4 43 -30 70 l12 12 ZM492 107 q-40 1 -84.5 -19 q-44.5 -20 -48.5 -67 q6 -40 61 -49 q55 -9 88 -7 q117 -4 129 111 q-69 28 -145 31 ZM758 728 q33 -5 78 -23 q45 -18 49 -56 q0 -18 -10 -34 q-4 -3 -9 -3 q-21 5 -55.5 46.5 q-34.5 41.5 -52.5 62.5 l0 7 ZM840 783 q35 -6 75.5 -25 q40.5 -19 43.5 -59 q-1 -25 -14 -45 l-3 0 q-21 6 -51.5 55.5 q-30.5 49.5 -50.5 73.5 Z" /><glyph glyph-name="uni3073" unicode="&#x3073;" d="M836 736 q49 -7 91 -32 q42 -25 53 -77 q-6 -29 -34 -36 q-22 3 -36 20 q-16 72 -74 117 l0 8 ZM734 697 q44 -7 87 -38.5 q43 -31.5 46 -79.5 q-1 -30 -29 -37 q-25 7 -33 34 q-30 64 -71 121 ZM20 623 q26 -19 58 -19 q67 6 115.5 46.5 q48.5 40.5 79.5 46.5 q51 -5 63 -53 q-2 -20 -23.5 -36 q-21.5 -16 -35.5 -32 q-60 -83 -105 -201 q-45 -118 -47 -221 q0 -66 33.5 -115 q33.5 -49 103.5 -51 q157 9 238.5 135.5 q81.5 126.5 105.5 265.5 q16 60 19 121 q-11 80 -23 156 q-5 50 43 51 q23 -2 34 -26.5 q11 -24.5 12 -44.5 q7 -98 45 -168.5 q38 -70.5 108 -139.5 q22 -18 35 -43 q4 -12 4 -25 q-2 -32 -35 -34 q-67 13 -124.5 133.5 q-57.5 120.5 -71.5 187.5 q2 -157 -43.5 -335.5 q-45.5 -178.5 -193.5 -261.5 q-58 -28 -122 -31 q-210 14 -207 229 q2 119 45.5 244 q43.5 125 98.5 229 q-57 -67 -140 -82 q-25 2 -44 27.5 q-19 25.5 -26 46.5 Z" /><glyph glyph-name="uni3075" unicode="&#x3075;" d="M527 -64 q-54 2 -114 33.5 q-60 31.5 -104 63.5 q74 -25 152 -27 q30 0 59 8 q16 24 16 53 q-3 56 -32 103 q-5 14 -16 27 q-67 -26 -157.5 -81.5 q-90.5 -55.5 -115.5 -127.5 q0 -35 -30 -43 q-19 2 -51.5 24 q-32.5 22 -43.5 37 q-38 18 -31 63 q0 16 6 44 q6 28 24 31 q1 0 1 -2 q-2 -15 -4 -32 q0 -50 47 -61 q51 5 147 55.5 q96 50.5 150 80.5 q25 11 50 24 q-17 30 -42 82.5 q-25 52.5 -28 85.5 q7 38 59.5 84 q52.5 46 59.5 100 q-7 27 -53.5 61 q-46.5 34 -53.5 104 l0 10 l8 0 q39 -73 117 -105 q4 -1 8 -4 q45 -12 54 -55 q-11 -49 -87.5 -86 q-76.5 -37 -87.5 -105 q4 -33 43 -83.5 q39 -50.5 62 -73.5 l8 0 q47 14 96 12 q103 0 197 -53.5 q94 -53.5 101 -167.5 q-5 -23 -31 -21 q-16 1 -31 8 q-3 5 -8 8 q-14 6 -69 12.5 q-55 6.5 -79 10.5 l4 4 q25 3 65.5 12.5 q40.5 9.5 55.5 26.5 q-13 83 -79 116 q-66 33 -144 32 q-33 0 -66 -3 l-16 -4 q61 -72 66 -166 q1 -42 -16.5 -77.5 q-17.5 -35.5 -65.5 -37.5 Z" /><glyph glyph-name="uni3078" unicode="&#x3078;" d="M20 342 q19 -8 43 -16 q79 13 159.5 103.5 q80.5 90.5 145.5 103.5 q46 -2 90 -31 q44 -29 73 -63 q69 -71 145 -132 q57 -43 163 -100 q106 -57 138 -92 q2 -9 2 -20 q2 -30 -27 -31 q-26 2 -63.5 23 q-37.5 21 -60.5 36 q-167 106 -301 250 q-27 35 -63.5 78 q-36.5 43 -85.5 47 q-49 -7 -113.5 -74.5 q-64.5 -67.5 -80.5 -113.5 q-12 -18 -15.5 -30 q-3.5 -12 -31.5 -13 q-30 1 -71.5 23 q-41.5 22 -45.5 52 Z" /><glyph glyph-name="uni307E" unicode="&#x307e;" d="M473 783 q82 3 121 -66 q-2 -17 -8 -32 q-24 -66 -23 -136 q32 7 89.5 24 q57.5 17 77.5 19 q16 0 37 -9 q21 -9 23 -28 q-12 -23 -103.5 -37 q-91.5 -14 -123.5 -16 l0 -145 l7 4 q34 -2 76 6.5 q42 8.5 49 48.5 q21 -16 47.5 -22.5 q26.5 -6.5 28.5 -26.5 q-10 -33 -93.5 -49.5 q-83.5 -16.5 -114.5 -18.5 q2 -106 19 -211 q54 -7 142.5 -38 q88.5 -31 97.5 -93 q0 -17 -17 -18 q-18 -2 -35 6 q-51 30 -88 49.5 q-37 19.5 -96 38.5 q-9 -84 -64.5 -116.5 q-55.5 -32.5 -134.5 -30.5 q-56 -1 -123 24.5 q-67 25.5 -73 91.5 q8 66 88.5 86.5 q80.5 20.5 134.5 18.5 q59 1 117 -11 q-8 100 -11 199 l-51 0 q-27 -2 -55 -4 q-52 -2 -110.5 13 q-58.5 15 -80.5 69 q82 -32 169 -30 q65 1 128 10 l0 145 q-68 -13 -137 -12 q-57 -1 -116.5 18.5 q-59.5 19.5 -90.5 71.5 q87 -47 187 -43 q79 0 157 8 l0 153 q6 59 -47 77 l0 12 ZM340 76 q-85 1 -117 -74 q17 -47 69 -60.5 q52 -13.5 97 -12.5 q123 -4 142 116 q-92 31 -191 31 Z" /><glyph glyph-name="uni307F" unicode="&#x307f;" d="M523 650 q-73 -20 -132 -66 q-18 -19 -43 -24 q-32 2 -56 30.5 q-24 28.5 -38 55.5 l4 8 q20 -24 47 -31 q48 3 121 32 q73 29 117 50 q67 -20 78 -86 q-11 -32 -43 -51 q-45 -42 -95 -128.5 q-50 -86.5 -85 -140.5 q170 0 332 -51 q14 47 15 95 q2 63 -42 104 q99 -24 96 -127 q-1 -49 -14 -96 q41 -17 91.5 -51 q50.5 -34 57.5 -81 q-15 -22 -43 -16 q-59 48 -125 86 q-38 -80 -97 -149 q-59 -69 -146 -96 q125 115 188 272 q-156 78 -332 78 q-29 -51 -110.5 -169.5 q-81.5 -118.5 -140.5 -132.5 q-27 3 -44 35 q-17 32 -18 57 q6 113 95.5 171 q89.5 58 190.5 71 q30 49 98.5 174 q68.5 125 72.5 177 ZM113 80 q0 -12 5.5 -39.5 q5.5 -27.5 18.5 -30.5 q46 12 108 110.5 q62 98.5 87 146.5 q-77 -11 -145.5 -56 q-68.5 -45 -73.5 -131 Z" /><glyph glyph-name="uni3081" unicode="&#x3081;" d="M473 736 q109 1 114 -105 q-6 -50 -13 -98 q164 3 264 -67 q100 -70 103 -245 q-2 -51 -21 -100 q-43 -109 -136.5 -156.5 q-93.5 -47.5 -205.5 -55.5 l0 4 q21 11 43 20 q97 38 175 108.5 q78 70.5 83 182.5 q-3 143 -93.5 204.5 q-90.5 61.5 -226.5 57.5 q-62 -176 -176 -324 q47 -37 60 -91 q-2 -23 -25 -22 q-48 9 -82 47 l-4 7 q-31 -36 -93 -84.5 q-62 -48.5 -110 -53.5 q-36 6 -53 62.5 q-17 56.5 -17 87.5 q15 168 148 277 q-14 50 -27 124.5 q-13 74.5 -39 118.5 q49 -13 68.5 -74 q19.5 -61 24.5 -106 q5 -19 8 -39 q125 85 274 109 q9 54 18 110 q0 67 -61 93 l0 8 ZM223 338 q-50 -41 -89.5 -96 q-39.5 -55 -41.5 -122 q-1 -24 6.5 -54 q7.5 -30 34.5 -33 q47 3 94.5 39 q47.5 36 77.5 70 q-53 93 -82 196 ZM262 369 q31 -91 90 -168 q99 125 148 277 q-130 -30 -238 -109 Z" /><glyph glyph-name="uni3082" unicode="&#x3082;" d="M617 396 q150 -125 164 -316 q-4 -109 -81.5 -160 q-77.5 -51 -179.5 -50 q-115 3 -156.5 77.5 q-41.5 74.5 -39.5 179.5 q0 33 8 66 q-38 18 -74 51 q-36 33 -39 78 q7 33 68 75.5 q61 42.5 92 65.5 l0 4 q-47 16 -92.5 49 q-45.5 33 -48.5 87 l0 8 l4 0 q23 -38 73 -61 q50 -23 91 -36 q30 85 41 172 q-3 82 -84 101 l0 4 q19 4 37 4 q78 0 109 -71 q8 -15 11 -31 q0 -30 -20 -51 q-17 -28 -32.5 -70.5 q-15.5 -42.5 -26.5 -73.5 q24 -11 28 -35 q-10 -36 -51 -43 q-33 -94 -47 -192 q86 -4 168 -23 q12 -11 14 -27 q-11 -28 -45 -24 q-75 2 -145 28 q-2 -39 -8 -79 q-1 -81 33.5 -132.5 q34.5 -51.5 120.5 -53.5 q94 0 155 48 q61 48 63 145 q-7 163 -114 286 l4 0 ZM375 408 q-31 -5 -85 -27 q-54 -22 -60 -59 q2 -42 35.5 -61.5 q33.5 -19.5 70.5 -24.5 q13 88 39 172 Z" /><glyph glyph-name="uni3083" unicode="&#x3083;" d="M129 342 l8 -4 q26 -11 55 -12 q45 3 77 28 q32 25 71 38 q-21 27 -45.5 52 q-24.5 25 -26.5 61 q12 79 95 75 q75 -2 149 -4 q14 0 27 4 q-4 42 -31 74 q81 -24 92 -105 q-1 -34 -34 -39 l-7 4 q-40 19 -96 39.5 q-56 20.5 -100 22.5 q-46 2 -55 -40 q13 -61 59 -108 l4 -8 l4 -8 q73 38 161 67 q88 29 171 31 q56 1 108 -22.5 q52 -23.5 56 -87.5 q-9 -132 -144 -133 q-86 9 -161 55 l0 4 q17 -8 60 -17 q43 -9 65 -10 q54 0 94.5 25.5 q40.5 25.5 42.5 83.5 q-3 46 -39.5 62.5 q-36.5 16.5 -77.5 15.5 q-169 -9 -313 -101 q41 -51 134.5 -180 q93.5 -129 104.5 -188 q5 -11 6 -23 q-5 -25 -32 -28 q-28 9 -37 40 q-76 193 -211 355 q-32 -19 -54.5 -47.5 q-22.5 -28.5 -72.5 -31.5 q-62 6 -107 52 l0 8 Z" /><glyph glyph-name="uni3086" unicode="&#x3086;" d="M160 158 q39 163 149 289 q4 77 36.5 174.5 q32.5 97.5 123.5 106.5 q112 -11 140 -125 q15 4 32 4 q116 -1 197 -67.5 q81 -66.5 84 -186.5 q-2 -136 -82.5 -225 q-80.5 -89 -218.5 -95 q-23 0 -47 0 q-58 -100 -164 -147 l-8 0 q75 68 118 159 q-126 41 -170.5 140 q-44.5 99 -40.5 223 q-107 -152 -114 -339 q5 -26 -15 -36 q-57 8 -74.5 86 q-17.5 78 -15.5 125 q2 74 16 145 q14 71 16 137 q3 71 -44 120 q90 -7 94 -97 q-2 -61 -19.5 -131 q-17.5 -70 -19.5 -143 q-2 -61 19 -117 l8 0 ZM578 353 q3 112 -15 223 q-143 -29 -235 -144 l0 -43 q-1 -112 49 -193.5 q50 -81.5 162 -111.5 q43 131 39 269 ZM609 76 q123 4 183 84.5 q60 80.5 60 196.5 q-2 105 -66 166 q-64 61 -169 57 q27 -108 24 -219 q5 -148 -51 -285 l19 0 ZM559 596 q-9 41 -32.5 76 q-23.5 35 -69.5 37 q-71 -9 -96.5 -94 q-25.5 -85 -28.5 -144 q99 90 227 125 Z" /><glyph glyph-name="uni3087" unicode="&#x3087;" d="M738 455 q-71 -26 -145 -29 q-43 0 -81 17 l0 -58 q4 -118 27 -235 q42 -6 116.5 -33 q74.5 -27 82.5 -76 q1 -18 -11 -31 q-18 4 -81.5 38 q-63.5 34 -98.5 48 l0 -19 q-11 -109 -126 -101 q-42 -1 -98 16.5 q-56 17.5 -61 67.5 q9 68 94 82.5 q85 14.5 140 11.5 q-16 210 -16 422 q-3 56 -54 78 q15 13 35 13 q52 -10 82 -56 q-16 -71 -31 -164 l8 0 q54 3 105.5 27.5 q51.5 24.5 62.5 27.5 q26 -11 50 -35 l0 -12 ZM406 123 q-34 1 -76 -9 q-42 -10 -49 -50 q13 -37 53 -50 q40 -13 76 -12 q89 0 94 86 q0 12 -4 23 q-46 12 -94 12 Z" /><glyph glyph-name="uni3088" unicode="&#x3088;" d="M406 756 q21 7 44 7 q75 -6 101 -78 q-19 -61 -25 -97.5 q-6 -36.5 -6 -101.5 l3 0 q54 4 115 32 q61 28 95 32 q37 -8 68 -33 q-17 -36 -90 -49.5 q-73 -13.5 -109 -12.5 q-43 3 -82 19 l0 -117 q3 -126 23 -250 q59 -8 159 -40 q100 -32 111 -99 q1 -31 -32 -32 q-20 1 -39 9 q-22 14 -45 31 q-68 43 -146 69 l0 -43 q-15 -132 -153 -128 q-51 -1 -126.5 21.5 q-75.5 22.5 -83.5 84.5 q11 95 120.5 115.5 q109.5 20.5 183.5 15.5 q-7 135 -15 270 l0 304 q-13 55 -71 67 l0 4 ZM398 76 q-37 2 -104.5 -10.5 q-67.5 -12.5 -74.5 -59.5 q4 -52 54 -71 q50 -19 94 -18 q124 -3 133 116 q-2 13 -4 27 q-47 17 -98 16 Z" /><glyph glyph-name="uni3089" unicode="&#x3089;" d="M262 154 q27 11 121 70 q94 59 234 67 q80 1 142 -38.5 q62 -39.5 65 -125.5 q-9 -147 -133.5 -191.5 q-124.5 -44.5 -249.5 -38.5 l4 8 q93 16 200.5 67 q107.5 51 116.5 159 q-8 131 -141 136 q-212 1 -320 -179 q-9 -20 -18.5 -44.5 q-9.5 -24.5 -36.5 -26.5 q-20 3 -40.5 30.5 q-20.5 27.5 -29.5 44.5 l0 15 q37 80 49 178 q12 98 29 186 q25 68 94 103.5 q69 35.5 78 60.5 q-5 17 -41 59.5 q-36 42.5 -41 81.5 l0 7 l8 0 q25 -46 92.5 -84 q67.5 -38 75.5 -96 q-4 -32 -35 -38 q-28 3 -60 6 q-98 6 -145 -77 q-7 -15 -10 -31 q-1 -72 0 -145 q0 -82 -8 -164 Z" /><glyph glyph-name="uni308A" unicode="&#x308a;" d="M422 -126 q119 105 178.5 254.5 q59.5 149.5 59.5 306.5 q2 60 -21 170.5 q-23 110.5 -96 122.5 q-91 -17 -138.5 -169.5 q-47.5 -152.5 -47.5 -239.5 q3 -30 6 -59 q1 -17 -5 -39.5 q-6 -22.5 -26 -24.5 q-43 7 -52 70.5 q-9 63.5 -7 98.5 q14 164 28 309 q-1 50 -28 93 q62 -26 75 -89 q-12 -98 -24 -197 q-4 -29 16 -46 q20 77 75 191 q55 114 144 126 q108 -12 139.5 -134 q31.5 -122 28.5 -210 q2 -171 -66.5 -314 q-68.5 -143 -226.5 -220 l-12 0 Z" /><glyph glyph-name="uni308B" unicode="&#x308b;" d="M574 685 q-82 -4 -134.5 -35.5 q-52.5 -31.5 -72.5 -38.5 q-68 22 -80 90 q0 10 2 20 l8 0 q17 -36 59 -33 q60 4 118.5 30 q58.5 26 103.5 30 q40 -4 55 -43 q20 -28 35 -55 q-7 -33 -43 -39 q-65 -34 -154 -156 q-89 -122 -139 -184 l8 -4 q102 87 236 94 q100 2 178 -41 q78 -43 82 -154 q-4 -141 -98 -205.5 q-94 -64.5 -226 -63.5 q-52 -1 -117 22.5 q-65 23.5 -71 86.5 q2 47 39.5 74 q37.5 27 81.5 27 q143 -6 188 -142 q132 50 140 189 q-2 182 -183 188 q-106 -5 -189.5 -75 q-83.5 -70 -146.5 -148 q-19 -24 -51 -25 q-32 -2 -38 29 q4 36 43 68.5 q39 32.5 65 60.5 q167 204 301 430 l0 3 ZM434 80 q-29 -1 -56.5 -20 q-27.5 -19 -29.5 -50 q5 -41 57.5 -56.5 q52.5 -15.5 86.5 -14.5 q41 0 82 6 q-13 52 -48 92.5 q-35 40.5 -92 42.5 Z" /><glyph glyph-name="uni308C" unicode="&#x308c;" d="M223 463 q-27 -13 -62.5 -43.5 q-35.5 -30.5 -55.5 -34.5 q-53 28 -74 82 l8 4 q19 -21 46 -22 q40 3 79.5 33.5 q39.5 30.5 65.5 58.5 q4 11 2 21 q-2 1 -2 -2 q6 55 8 110 q1 58 -50 86 l0 4 q12 4 26 4 q71 -12 99 -82 q-1 -18 -12 -32 q-12 -23 -22.5 -61 q-10.5 -38 -16.5 -64 q29 -19 39 -51 q-1 -11 -8 -19 q-44 -58 -63 -129 l4 0 q63 82 165 177.5 q102 95.5 210 103.5 q92 -13 90 -109 q-5 -88 -23 -176 q-26 -138 -32 -279 q7 -60 70 -56 q150 -6 274 73 q-43 -67 -114 -94.5 q-71 -27.5 -149 -26.5 q-76 2 -104 49 q-28 47 -27 117 q2 147 31 291 q15 62 20 125 q1 57 -55 59 q-105 -10 -204 -120.5 q-99 -110.5 -152 -195.5 l0 -75 q10 -125 20 -236 q0 -48 -35 -79 l-4 0 l-8 4 q-26 87 -78 163 l0 4 q31 -34 70 -57 l4 0 q2 10 4 18 l0 215 q-56 -88 -98 -184 q-15 -51 -64 -58 q-28 0 -33 27 q14 37 109 204.5 q95 167.5 102 252.5 Z" /><glyph glyph-name="uni308D" unicode="&#x308d;" d="M332 299 q63 30 145 57 q82 27 152 29 q98 1 170 -44.5 q72 -45.5 76 -151.5 q-13 -179 -170.5 -237 q-157.5 -58 -309.5 -55 l0 12 q130 17 268.5 81.5 q138.5 64.5 149.5 214.5 q-8 163 -176 156 q-107 -2 -226.5 -55.5 q-119.5 -53.5 -183.5 -139.5 q-21 -38 -62 -46 q-35 2 -38 37 q5 34 33 56 q57 36 110 86 q49 51 164 183 q115 132 129 196 l0 4 q-7 2 -15 2 q-51 -5 -103.5 -36.5 q-52.5 -31.5 -65.5 -36.5 q-28 2 -56 32 q-28 30 -30 58 l-4 16 l8 0 q24 -42 73 -41 q102 11 189 68 l7 8 q57 -31 79 -94 q-4 -21 -24 -27 l-4 -4 q-39 -27 -140 -147 q-101 -120 -149 -177 l4 -4 Z" /><glyph glyph-name="uni308F" unicode="&#x308f;" d="M305 767 q35 -9 67.5 -30.5 q32.5 -21.5 34.5 -61.5 q0 -21 -9 -40 q-16 -9 -26.5 -50.5 q-10.5 -41.5 -12.5 -59.5 q30 -25 55 -54 q4 -1 4 -6 q-1 -5 -4 -10 q-1 -9 -15.5 -24.5 q-14.5 -15.5 -23.5 -22.5 q-29 -43 -34.5 -67.5 q-5.5 -24.5 -4.5 -76.5 q64 74 147.5 127 q83.5 53 184.5 56 q101 1 177.5 -50.5 q76.5 -51.5 80.5 -160.5 q-3 -51 -23 -100 q-51 -112 -159 -154 q-108 -42 -224 -43 l0 2 q97 23 187 75.5 q90 52.5 130 148.5 q13 30 15 63 q-7 178 -184 188 q-97 -3 -182.5 -55 q-85.5 -52 -149.5 -121 l0 -164 q4 -71 8 -143 q6 -45 -31 -59 q-20 7 -20 31 q-3 4 -4 8 q-36 75 -94 136 q-25 -45 -39 -92 q-20 -16 -46 -18 q-34 6 -36 43 q9 44 47 71 q119 133 195 296 q4 45 8 90 q-60 -21 -105 -66 q-77 19 -94 94 q12 -5 38 -17.5 q26 -12.5 36 -14.5 q36 2 72.5 31 q36.5 29 60.5 55 q12 87 12 176 q-3 41 -39 59 l0 11 ZM281 -12 l12 18 q5 16 9.5 97 q4.5 81 6.5 114 q-25 -26 -63.5 -79 q-38.5 -53 -50.5 -85 l86 -65 ZM238 182 l16 -4 q31 26 55 58 q-1 40 7 78 q-37 -66 -78 -129 l0 -3 Z" /><glyph glyph-name="uni3092" unicode="&#x3092;" d="M707 455 q16 11 34 11 q38 -2 74.5 -36.5 q36.5 -34.5 39.5 -72.5 q0 -7 -3 -15 q-5 -5 -11 -5 q-2 0 -5 1 q-15 5 -31 8 q-36 -5 -136 -45.5 q-100 -40.5 -142 -60.5 q5 -42 4 -86 q1 -14 -2 -52 q-3 -38 -18 -43 q-29 9 -31 75 q-2 66 0 83 q-67 -35 -124.5 -89.5 q-57.5 -54.5 -61.5 -134.5 q7 -47 74 -57 q67 -10 104 -8 q39 0 97.5 2 q58.5 2 94.5 11 q6 3 12 4 q46 1 54 -40 q-8 -32 -77.5 -34.5 q-69.5 -2.5 -98.5 -0.5 q-68 -4 -173.5 15 q-105.5 19 -116.5 103 q4 94 69.5 159 q65.5 65 143.5 109 q-4 37 -22 70 q-18 33 -59 35 q-115 -12 -153 -92 q-38 -80 -71 -91 q-24 21 -23 53 q-4 50 42 68 q105 106 176 238 q-37 -4 -74 -4 q-99 2 -145 90 l8 4 q23 -33 63.5 -42.5 q40.5 -9.5 78.5 -8.5 l89 0 q35 69 39 145 q-11 37 -51 46 l0 16 q34 0 79.5 -14 q45.5 -14 49.5 -56 q-3 -21 -29 -60.5 q-26 -39.5 -37 -68.5 q26 7 89 27.5 q63 20.5 75 23.5 q13 1 38 -3.5 q25 -4.5 28 -20.5 q-13 -34 -118 -51 q-105 -17 -140 -19 q-48 -94 -109 -180 q56 22 117 24 q92 -7 105 -102 q108 52 215 102 q21 9 23 31 q-8 43 -54 31 l0 8 Z" /><glyph glyph-name="uni3093" unicode="&#x3093;" d="M422 721 q17 5 35 5 q34 -2 63 -29 q29 -27 31 -62 q-9 -38 -43 -63 q-58 -60 -119 -160.5 q-61 -100.5 -100 -175.5 l0 -8 q67 50 149 55 q98 -20 105.5 -159 q7.5 -139 85.5 -159 q6 1 23.5 6.5 q17.5 5.5 24.5 8.5 q161 59 261 198 l0 -12 q-45 -93 -122 -172.5 q-77 -79.5 -187 -84.5 q-126 22 -133.5 175.5 q-7.5 153.5 -77.5 175.5 q-27 -4 -52 -16 q-88 -44 -135.5 -129.5 q-47.5 -85.5 -78.5 -173.5 q-4 -24 -27 -32 q-37 10 -59 44 q12 44 43 80 q38 52 80 124 q42 72 77 130 q30 46 115 187 q85 141 96 186 q-8 44 -55 53 l0 8 Z" /><glyph glyph-name="uni30A1" unicode="&#x30a1;" d="M184 592 q30 -36 74 -43 q37 4 226.5 31.5 q189.5 27.5 222.5 34.5 q3 7 11 9 q29 -4 68 -43 q39 -39 43 -65 q0 -8 -5 -14 q-16 0 -33 2 q-33 -5 -115.5 -44 q-82.5 -39 -136.5 -56 q-43 -256 -226 -439 l-12 0 q73 106 123.5 227 q50.5 121 52.5 251 q-13 24 -39 35 l0 4 q12 6 26 6 q56 -10 87 -60 l8 0 q30 16 94 59 q64 43 71 77 q0 7 -5 12 q-96 -4 -219 -19 q-123 -15 -211 -51 l-12 -8 q-4 -10 -15 -12 q-71 31 -86 106 l8 0 Z" /><glyph glyph-name="uni30A2" unicode="&#x30a2;" d="M102 728 q18 -53 74 -58 q57 2 141 16 q84 14 144 23 l305 39 q9 11 23 12 q29 -20 73 -59.5 q44 -39.5 49 -76.5 q-1 -21 -20 -32 q-76 -5 -159.5 -45.5 q-83.5 -40.5 -168.5 -60.5 q-35 -152 -113 -328.5 q-78 -176.5 -216 -260.5 q95 122 167 287.5 q72 165.5 76 321.5 q-1 57 -55 74 q18 7 37 7 q73 -11 107 -81 l-3 -16 q44 25 131.5 88.5 q87.5 63.5 94.5 114.5 l-46 1 q-259 1 -505 -83 q-19 -26 -50 -31 q-46 5 -70 54.5 q-24 49.5 -28 89.5 l12 4 Z" /><glyph glyph-name="uni30A3" unicode="&#x30a3;" d="M613 17 q4 -34 -23 -52 q-41 24 -39 76 q6 38 12 78 l0 215 q-4 33 -12 62 q-119 -129 -281 -199 l-8 0 q109 80 225 196.5 q116 116.5 177 237.5 q1 3 1 5 q-5 23 -20 42 q72 -26 93 -102 l-11 -8 q-15 0 -28 -8 q-20 -24 -43 -46 q-45 -58 -97 -110 q41 -24 46 -70 l0 -184 q4 -66 8 -133 Z" /><glyph glyph-name="uni30A4" unicode="&#x30a4;" d="M176 166 l0 12 q154 105 307 248.5 q153 143.5 236 313.5 q-8 39 -43 59 l12 11 q94 -36 136 -128 q-25 -7 -51 -24 q-25 -31 -48 -65 q-59 -77 -127 -146 q46 -31 50 -86 l0 -179 q4 -124 8 -249 q1 -42 -35 -59 q-50 39 -47 106 q8 64 16 151 l0 238 q3 32 -12 59 q-176 -162 -394 -262 l-8 0 Z" /><glyph glyph-name="uni30A6" unicode="&#x30a6;" d="M770 549 q-184 -4 -368 -20 q-82 -4 -164 -12 q8 -106 16 -210 q-1 -35 -27 -55 q-44 12 -47 62 q-3 5 -4 12 q7 62 14 130 q1 42 -13 83.5 q-14 41.5 -60 52.5 q10 12 25 12 q49 -10 88 -44 q122 6 243 20 l0 62 q-4 70 -63 110 l0 4 q10 15 28 14 q27 -1 67 -21.5 q40 -20.5 50 -47.5 q-3 -7 -8 -12 q-33 -47 -27 -105 q125 6 250 12 q19 9 39 15 q24 -7 48 -31 q24 -24 26 -51 q-2 -8 -19 -19.5 q-17 -11.5 -24 -23.5 q-68 -167 -171.5 -331.5 q-103.5 -164.5 -285.5 -225.5 q145 108 247 271.5 q102 163.5 140 340.5 q0 4 0 8 Z" /><glyph glyph-name="uni30A7" unicode="&#x30a7;" d="M273 478 q38 -20 82 -23 q44 1 155.5 15.5 q111.5 14.5 137.5 27.5 q8 5 17 5 q2 0 3 -1 q15 -5 38 -16.5 q23 -11.5 25 -28.5 q-1 -10 -8 -18 q-43 4 -86 8 q-71 -2 -141 -12 q2 2 4 0 q0 -1 -2 -1 l-18 -2 q56 -18 69 -73 q-2 -17 -22 -99 q-20 -82 -27 -102 q14 1 27 4 q110 10 219 4 q15 9 29 13 q14 -2 37.5 -25 q23.5 -23 25.5 -40 q-1 -15 -14 -22 q-13 1 -27 4 q-121 28 -246 31 q-128 -3 -254 -35 q-27 -9 -55 -12 q-29 2 -52 31 q-23 29 -30 55 q31 -30 74 -31 q118 6 235 23 q13 81 15 164 q0 62 -43 106 q-48 -11 -97 -12 q-52 7 -78 55 l7 7 Z" /><glyph glyph-name="uni30A8" unicode="&#x30a8;" d="M66 197 q37 -53 102 -51 q143 8 285 24 q23 109 24 219 q5 81 -59 125 q-54 -11 -109 -12 q-82 13 -114 90 q48 -32 106 -32 q187 0 367 47 q14 4 27 4 q26 -1 58.5 -20.5 q32.5 -19.5 35.5 -45.5 q-7 -16 -27 -12 q-50 4 -102 8 q-108 -4 -215 -24 q32 -10 71 -33.5 q39 -23.5 43 -60.5 l0 -7 q-16 -28 -32.5 -113 q-16.5 -85 -26.5 -129 q158 14 316 15 l4 4 q8 4 18 5 q23 -2 59.5 -30 q36.5 -28 40.5 -52 q0 -11 -4 -20 q-9 -3 -19 -3 q-34 1 -67 10 q-131 30 -266 32 q-182 -1 -359 -47 q-25 -8 -51 -12 q-12 4 -26 10 q-72 33 -83 111 l3 0 Z" /><glyph glyph-name="uni30A9" unicode="&#x30a9;" d="M199 107 q180 142 293 340 q-111 -12 -215 -51 q-58 22 -78 82 q35 -27 78 -31 q127 8 254 31 l0 63 q-1 57 -51 82 l0 12 q73 3 106 -59 q-17 -34 -20.5 -39.5 q-3.5 -5.5 -2.5 -54.5 q19 0 56 3 q37 3 57 5 q26 8 54 20 q21 -4 47.5 -21 q26.5 -17 29.5 -38 q-5 -16 -23 -14 q-71 10 -164 20 q-28 -1 -57 -2 l0 -227 q6 -102 11 -203 q-7 -21 -31 -19 q-13 0 -27 4 q-12 18 -45.5 43.5 q-33.5 25.5 -52.5 30.5 l0 8 q52 -13 102 -18 q9 1 11 10 l0 328 q-122 -191 -320 -305 l-12 0 Z" /><glyph glyph-name="uni30AA" unicode="&#x30aa;" d="M125 560 q26 -43 74 -50 q55 3 110 11 q129 14 257 24 l0 101 q-4 81 -82 110 q3 9 12 11 q31 -1 79.5 -23.5 q48.5 -22.5 65.5 -50.5 q-4 -32 -20 -58 l0 -82 q32 2 63 4 q34 -1 55.5 1 q21.5 2 49.5 22 l4 0 q23 -3 60.5 -15.5 q37.5 -12.5 41.5 -38.5 q-2 -22 -20 -36 q-51 16 -125.5 18.5 q-74.5 2.5 -128.5 1.5 l0 -518 q1 -18 -4.5 -39.5 q-5.5 -21.5 -26.5 -23.5 q-20 14 -31 40 q-21 19 -65.5 43 q-44.5 24 -71.5 37 q57 -16 117 -24 q36 4 27 44 l0 366 q-85 -131 -201.5 -233.5 q-116.5 -102.5 -266.5 -152.5 q271 172 418 457 q-141 -5 -274 -51 q-15 -6 -31 -8 q-35 3 -62 38.5 q-27 35.5 -36 67.5 l12 7 Z" /><glyph glyph-name="uni30AB" unicode="&#x30ab;" d="M207 525 l12 8 q17 -46 66 -51 q105 -1 207 20 q44 89 59 183 q-12 38 -55 47 l-8 4 q3 14 16 16 q31 -1 80 -22.5 q49 -21.5 54 -53.5 q-2 -21 -21 -34 q-13 -18 -25.5 -62 q-12.5 -44 -28.5 -70 q59 1 117 7 q20 2 58.5 8 q38.5 6 54.5 16 q9 9 23 8 q19 -3 45 -29 q26 -26 28 -43 q-14 -29 -37 -49 q-15 -53 -24 -110 q-17 -58 -35 -117 q-31 -106 -94 -195 q-6 -10 -11 -22 q-25 -61 -86 -75 q-17 -1 -20 16 q1 4 1 8 q-5 24 -45.5 69 q-40.5 45 -57.5 74 q6 -8 16 -8 q22 -19 59.5 -41.5 q37.5 -22.5 65.5 -24.5 q59 23 117.5 207.5 q58.5 184.5 62.5 261.5 q-1 11 -12 11 q-121 -7 -242 -15 q-70 -160 -169 -284.5 q-99 -124.5 -253 -206.5 l-12 0 q221 194 348 459 q7 11 12 24 q-46 -7 -106 -29.5 q-60 -22.5 -70 -25.5 q-27 4 -57.5 44 q-30.5 40 -33.5 68 l1 9 Z" /><glyph glyph-name="uni30AD" unicode="&#x30ad;" d="M719 646 q32 -3 43 -31 q-6 -15 -24 -19 q-37 -16 -119 -39.5 q-82 -23.5 -131 -39.5 q37 -87 59 -183 q44 12 99.5 26.5 q55.5 14.5 95.5 35.5 q26 26 63 32 l27 0 q52 0 64 -48 q0 -8 -5 -15 q-18 -9 -39 -8 q-116 -5 -227 -47 q-27 -13 -55 -15 l-11 -4 q38 -127 89 -250 q20 -34 36 -68 q5 -14 5 -29 q-1 -39 -39 -44 q-42 10 -52 57 q-10 23 -41.5 148 q-31.5 125 -44.5 170 q-39 -13 -130 -41.5 q-91 -28.5 -112 -51.5 q-20 -18 -47 -16 q-12 4 -24 8 q-42 20 -74 54 q-18 11 -24 30 q0 4 1 6 l11 3 q40 -28 88 -27 q94 9 182 47 q57 16 113 35 q-31 91 -51 184 l-4 0 q-32 -17 -104 -39 q-72 -22 -107 -24 q-18 2 -50 23 q-32 21 -47 36 l0 8 q48 -6 97 -12 q105 14 204 51 q-15 40 -31.5 107 q-16.5 67 -43.5 92 q-31 18 -66 35 q9 9 20 8 q23 0 80 -10 q57 -10 64 -33 q-6 -26 -12 -51 q2 -35 16 -67 q14 -32 16 -66 q37 13 118 45.5 q81 32.5 100 36.5 l24 0 Z" /><glyph glyph-name="uni30AE" unicode="&#x30ae;" d="M66 260 l24 -8 q31 -25 70 -28 q39 4 145 37.5 q106 33.5 148 48.5 q-26 94 -55 188 q-86 -24 -171 -55 l-24 -8 q-27 4 -70 22.5 q-43 18.5 -43 52.5 q14 -7 40.5 -15 q26.5 -8 41.5 -9 q38 2 105.5 22 q67.5 20 105.5 33 q-13 41 -24 82 q-9 52 -32 92.5 q-23 40.5 -81 51.5 l24 16 q33 -2 80.5 -14 q47.5 -12 63.5 -45 q-9 -26 -13 -54 q1 -21 12 -57 q11 -36 17 -56 q28 8 83 27 q55 19 77 35 q21 23 51 27 q14 0 40 -5 q26 -5 34 -18 q-3 -28 -31 -39 q-26 -4 -118.5 -34 q-92.5 -30 -124.5 -40 q35 -90 63 -184 q24 8 106.5 37.5 q82.5 29.5 96.5 36.5 q27 23 59 28 q18 1 50 -6.5 q32 -7.5 36 -29.5 q-9 -51 -67 -46 q-8 5 -18 4 q-47 -2 -125.5 -25 q-78.5 -23 -125.5 -38 q16 -53 42.5 -139.5 q26.5 -86.5 50.5 -133.5 q29 -40 35 -88 q-1 -31 -31 -40 q-59 22 -62 90 q-32 149 -86 291 q-52 -18 -137 -50.5 q-85 -32.5 -129 -62.5 q-42 10 -85 34 q-43 24 -55 68 l7 4 ZM789 783 q45 -3 98 -23 q53 -20 58 -71 q1 -21 -15 -35 q-4 -1 -9 -1 q-28 6 -65.5 55 q-37.5 49 -66.5 75 ZM715 728 q41 -1 84.5 -30.5 q43.5 -29.5 46.5 -72.5 q-2 -27 -29 -31 q-30 6 -56 56 q-26 50 -46 78 Z" /><glyph glyph-name="uni30AF" unicode="&#x30af;" d="M590 580 q-28 4 -35 31 q-7 -18 -24 -31 q-14 -22 -35 -39 q-11 -13 -23 -27 q-47 -44 -142.5 -112.5 q-95.5 -68.5 -154.5 -75.5 q154 121 273 277 q43 38 55 90 q-7 28 -31 47 q-1 10 7 12 q29 -2 66 -29 q37 -27 40 -57 q-9 -33 -20 -43 q12 -7 27 -6 q74 -3 141 25 q14 11 29 15 q25 -8 55.5 -34.5 q30.5 -26.5 33.5 -54.5 q-5 -26 -28 -43 q-16 -10 -42.5 -56 q-26.5 -46 -39.5 -69 q-94 -154 -219 -285 q-107 -112 -248 -176 q-36 -15 -72 -30 q-24 -18 -55 -23 q372 233 575 624 q20 40 31 82 q-82 -6 -164 -12 Z" /><glyph glyph-name="uni30B0" unicode="&#x30b0;" d="M457 627 q37 -16 76 -15 q42 -1 80 11 q26 15 47 23 q25 -3 56 -35.5 q31 -32.5 34 -57.5 q-12 -25 -39 -32 q-27 -33 -47 -70 q-90 -158 -210.5 -299 q-120.5 -141 -285.5 -225 q-49 -27 -105 -41 q-6 -1 -12 0 q200 127 355 299 q155 172 239 395 l-165 0 q-14 19 -35 31 q-63 -99 -151 -177.5 q-88 -78.5 -204 -107.5 q196 144 305 359 q-3 33 -32 51 q84 -2 125 -74 q-8 -20 -27 -35 l-4 0 ZM707 717 q45 -2 94.5 -25.5 q49.5 -23.5 53.5 -74.5 q1 -31 -28 -36 q-24 4 -34 26 q-35 62 -86 110 ZM813 767 q48 -4 90.5 -25.5 q42.5 -21.5 45.5 -75.5 q1 -21 -19 -24 q-24 5 -56 50.5 q-32 45.5 -61 74.5 Z" /><glyph glyph-name="uni30B1" unicode="&#x30b1;" d="M406 486 q119 7 235 31 q60 10 117 32 q11 8 23 11 q21 -1 67 -14 q46 -13 52 -32 q-2 -11 -2 -24 q-50 -5 -101 0 q-98 -3 -195 -19 q17 -15 27 -36 q29 -20 33 -54 q0 -5 -2 -8 q-30 -40 -47 -86 q-95 -205 -289 -322 q-22 -12 -51 -20 q189 155 286 377 q25 47 31 98 q0 26 -16 47 q-80 -20 -164 -20 q-38 5 -70 27 l-12 12 q-97 -95 -219 -156 l-11 0 q91 70 151.5 146 q60.5 76 102.5 182 q7 11 7 24 q-7 28 -31 46 l4 0 q8 4 17 4 q25 -3 54.5 -34 q29.5 -31 41.5 -56 q-10 -30 -39 -39 q-12 -14 -28 -45 q-16 -31 -30 -52 l-8 -4 q30 -21 66 -16 Z" /><glyph glyph-name="uni30B2" unicode="&#x30b2;" d="M199 -55 q199 174 294 418 q3 9 10.5 33.5 q7.5 24.5 8.5 31.5 q-2 23 -20 39 q-77 -18 -156 -20 q-57 0 -102 35 q-87 -104 -214 -152 q67 58 153.5 162.5 q86.5 104.5 94.5 192.5 q0 28 -18 47 q7 5 16 5 q21 -3 53.5 -37.5 q32.5 -34.5 35.5 -59.5 q-5 -16 -45 -67.5 q-40 -51.5 -56 -70.5 q28 -20 62 -20 q56 1 173.5 21 q117.5 20 170.5 42 q25 15 55 15 q20 0 55 -13 q35 -13 39 -36 q-1 -11 -8 -21 q-25 8 -51 6 q-122 -3 -242 -29 q57 -37 66 -102 q-14 -17 -23 -39 q-64 -128 -137 -221.5 q-73 -93.5 -207 -159.5 l-8 0 ZM844 736 q39 0 85.5 -14 q46.5 -14 50.5 -60 q2 -19 -16 -24 q-21 4 -54 39.5 q-33 35.5 -66 58.5 ZM762 678 q39 -4 83.5 -24 q44.5 -20 48.5 -65 q1 -24 -22 -25 q-25 5 -57.5 47 q-32.5 42 -52.5 67 Z" /><glyph glyph-name="uni30B3" unicode="&#x30b3;" d="M586 92 q-53 0 -136 -11 q-83 -11 -130 -32 q-12 -8 -27 -8 q-31 3 -69 37.5 q-38 34.5 -41 65.5 l1 6 l7 4 q25 -26 59 -39 l16 -4 l19 0 q92 2 185.5 16 q93.5 14 185.5 15 q26 107 47 215 q19 63 24 129 q-2 22 -24 23.5 q-22 1.5 -39 0.5 q-56 -1 -168 -14.5 q-112 -13.5 -160 -28.5 q-14 -17 -35 -20 q-27 4 -47 24 l-8 3 q-33 29 -43 68 l0 7 q19 -3 31 -16 q5 -14 27.5 -17 q22.5 -3 35.5 -2 q72 6 144 23 q86 13 172 16 q28 3 63.5 14.5 q35.5 11.5 42.5 12.5 q19 -3 49.5 -32 q30.5 -29 44.5 -46 q7 -13 7 -28 q-44 -24 -47 -78 q-34 -127 -66 -254 q32 -1 39 -31 q0 -30 -31 -31 q-53 6 -129 12 Z" /><glyph glyph-name="uni30B4" unicode="&#x30b4;" d="M90 549 q27 -36 74 -35 q83 1 213.5 18 q130.5 17 216.5 36 q13 8 31 12 q26 -3 58.5 -35.5 q32.5 -32.5 35.5 -58.5 q-9 -17 -31 -27 q-53 -160 -79 -328 q31 0 40 -27 q-2 -18 -20 -28 q-49 2 -98 4 q-160 -6 -316 -43 q-13 -3 -27 -4 q-36 2 -67 33 q-31 31 -47 61 q2 14 16 19 q23 -46 74 -50 q78 4 156 15 l239 24 q51 178 58 364 q-9 15 -31 11 q-182 -13 -363 -43 q-11 -10 -47 -20 q-36 3 -60 36 q-24 33 -30 66 l4 0 ZM707 654 q41 -5 85 -27.5 q44 -22.5 48 -69.5 q1 -21 -16 -28 q-28 5 -60.5 52 q-32.5 47 -56.5 73 ZM777 728 q38 1 91 -13.5 q53 -14.5 58 -60.5 q-2 -22 -20 -31 q-22 5 -60.5 46 q-38.5 41 -68.5 59 Z" /><glyph glyph-name="uni30B5" unicode="&#x30b5;" d="M617 486 q-124 1 -246 -19 l0 -114 q2 -68 4 -136 q2 -29 -27 -32 q-28 21 -32 65.5 q-4 44.5 -3 75.5 l0 133 l-16 -4 q-44 -10 -90 -20 q-24 -9 -55 -19 q-47 9 -78 47 q-36 16 -31 54 q10 0 20 -3 l15 -8 q32 -21 70 -16 q58 8 114 16 q26 0 51 4 l0 101 q-7 62 -59 102 q5 4 12 4 q32 0 68.5 -20 q36.5 -20 40.5 -55 l0 -31 q-2 -48 -4 -97 l31 0 q118 10 235 19 l0 82 q4 88 -63 141 l0 4 q10 9 23 9 q30 -3 75.5 -33.5 q45.5 -30.5 50.5 -57.5 q-1 -25 -11.5 -32 q-10.5 -7 -12.5 -23 l0 -90 l74 0 q51 8 98 16 q24 -1 53.5 -17.5 q29.5 -16.5 32.5 -41.5 q3 -27 -19 -35 q-21 2 -40 8 q-98 21 -199 23 q3 -113 -26.5 -236 q-29.5 -123 -94.5 -217 q-47 -58 -109 -100 q-7 -6 -16 -8 q-14 -15 -32 -17 l-7 1 q124 108 175.5 262 q51.5 154 47.5 315 l-20 0 Z" /><glyph glyph-name="uni30B6" unicode="&#x30b6;" d="M12 517 q37 -34 86 -39 q89 8 179 24 l0 105 q-6 57 -58 82 l0 8 q14 3 28 3 q67 -2 93 -65 q-2 -14 -4 -28 l0 -101 q131 16 262 19 l0 106 q-6 74 -55 129 q11 7 23 7 q31 -3 75.5 -39 q44.5 -36 48.5 -67 q-2 -15 -13 -27 q-11 -12 -13 -42 l0 -59 l117 0 q26 4 51 8 q26 -1 60 -18.5 q34 -17.5 37 -45.5 q-8 -21 -34 -18 q-115 6 -231 19 q-3 -165 -61.5 -330 q-58.5 -165 -219.5 -239 q117 112 165.5 261 q48.5 149 49.5 308 l-20 0 q-122 -5 -242 -11 l0 -86 q2 -76 4 -152 q3 -38 -31 -44 q-19 14 -29 44.5 q-10 30.5 -10 53.5 q4 32 7 63 l0 109 q-83 -27 -164 -39 q-32 11 -67 37.5 q-35 26.5 -34 63.5 ZM746 717 q46 -4 92.5 -24 q46.5 -20 59.5 -70 q-7 -25 -30 -30 q-25 5 -62.5 52 q-37.5 47 -59.5 72 ZM852 767 q37 -3 84.5 -20.5 q47.5 -17.5 51.5 -61.5 q2 -29 -27 -31 q-23 5 -53 48 q-30 43 -56 65 Z" /><glyph glyph-name="uni30B7" unicode="&#x30b7;" d="M160 84 q28 -44 76 -52 q49 8 153 76.5 q104 68.5 154 104.5 q195 133 359 304 l0 -11 q-116 -178 -273 -321 q-121 -98 -250 -183 l-4 -4 q-21 -11 -48 -35 q-27 -24 -38 -27 q-39 4 -86 53.5 q-47 49.5 -51 90.5 l8 4 ZM102 455 q65 -26 147.5 -37.5 q82.5 -11.5 90.5 -60.5 q0 -31 -31 -31 q-43 3 -101.5 36 q-58.5 33 -86.5 66 q-17 6 -20 22 l1 5 ZM184 724 q39 -6 114 -36 q75 -30 100 -57 q5 -9 4 -20 q5 -36 -30 -40 q-39 6 -99.5 60.5 q-60.5 54.5 -88.5 85.5 l0 7 Z" /><glyph glyph-name="uni30B8" unicode="&#x30b8;" d="M711 678 q42 2 92.5 -11 q50.5 -13 55.5 -64 q-2 -18 -19 -21 q-22 4 -63.5 41.5 q-41.5 37.5 -65.5 54.5 ZM609 611 q49 0 98.5 -17.5 q49.5 -17.5 58.5 -72.5 q-7 -19 -26 -22 q-24 5 -64.5 47.5 q-40.5 42.5 -66.5 64.5 ZM160 92 q26 -46 78 -51 q191 77 357 202.5 q166 125.5 307 273.5 l0 -11 q-215 -350 -586 -530 q-7 -31 -35 -37 q-13 3 -25 13 q-91 44 -104 140 l8 0 ZM98 455 q50 -17 136 -30.5 q86 -13.5 95 -67.5 q-6 -32 -40 -31 q-16 5 -33 13 q-95 36 -158 116 ZM191 728 q89 -37 180 -70 q31 -12 35 -43 q0 -33 -31 -39 q-38 7 -101.5 65 q-63.5 58 -89.5 87 l7 0 Z" /><glyph glyph-name="uni30B9" unicode="&#x30b9;" d="M641 615 q-53 -3 -140 -20.5 q-87 -17.5 -126 -49.5 q-6 -10 -16 -12 q-39 2 -76.5 33.5 q-37.5 31.5 -40.5 71.5 l0 8 q23 -10 39 -31 l8 0 q19 -8 39 -8 q41 2 150 19.5 q109 17.5 147 27.5 q22 6 35 24 l8 4 q12 3 23 3 q17 -3 46.5 -31 q29.5 -28 32.5 -47 q-10 -39 -47 -58 q-29 -9 -43 -39 q-69 -115 -157 -215 q75 -18 188 -86.5 q113 -68.5 168 -124.5 q23 -23 21 -56 q2 -21 -13 -34 l-18 -1 l-21 1 q-38 23 -98 86.5 q-60 63.5 -98 104.5 q-61 59 -136 102 q-62 -82 -155.5 -147 q-93.5 -65 -188.5 -103 q-35 -18 -74 -27 q325 196 519 523 q24 36 35 78 l-11 4 Z" /><glyph glyph-name="uni30BA" unicode="&#x30ba;" d="M730 717 q37 -13 79 -41.5 q42 -28.5 46 -72.5 q1 -25 -23 -31 q-31 10 -55 61 q-24 51 -47 84 ZM43 6 q361 212 551 586 q-136 -13 -266 -51 q-24 -14 -47 -31 q-85 23 -105 109 l8 4 q32 -35 78 -39 q42 2 155 22 q113 20 142 29 q26 11 50 27 q-1 0 -1 -1 q5 1 9 5 q64 -14 90 -74 q-6 -35 -39 -51 q-35 -9 -47 -47 q-65 -116 -156 -215 q78 -27 219 -105 q141 -78 157 -163 q-3 -38 -42 -38 q-43 12 -69 52 q-114 150 -277 242 q-74 -84 -182.5 -161 q-108.5 -77 -219.5 -100 q-4 0 -8 0 ZM813 767 q42 -3 91.5 -21.5 q49.5 -18.5 53.5 -68.5 q1 -25 -20 -33 q-15 6 -55.5 54 q-40.5 48 -69.5 69 Z" /><glyph glyph-name="uni30BB" unicode="&#x30bb;" d="M172 342 q35 3 120.5 28.5 q85.5 25.5 117.5 41.5 l0 172 q0 56 -17.5 75 q-17.5 19 -52.5 54 q11 4 22 6 q36 -3 64 -26 q21 -4 42.5 -24.5 q21.5 -20.5 23.5 -42.5 q-4 -43 -23 -81 q-12 -58 -8 -117 q48 13 160.5 43.5 q112.5 30.5 151.5 34.5 q11 6 26 14 q29 -12 68 -39 q39 -27 43 -61 q-9 -32 -47 -24 q-33 -15 -109.5 -61.5 q-76.5 -46.5 -101.5 -67.5 l-15 0 q38 39 93.5 94 q55.5 55 66.5 106 l-20 0 q-18 0 -54 -6.5 q-36 -6.5 -51 -13.5 l-12 -4 q-100 -24 -199 -54 l0 -219 q2 -94 58 -124.5 q56 -30.5 141 -28.5 q98 12 199 24 q38 5 51 -24 q-4 -22 -43.5 -31.5 q-39.5 -9.5 -61.5 -9.5 l-157 0 q-46 0 -101.5 16.5 q-55.5 16.5 -89.5 48.5 q-35 47 -42 157 q-7 110 -5 171 q-38 -6 -96 -28.5 q-58 -22.5 -87 -49.5 q-14 -19 -36 -24 q-26 3 -62 33.5 q-36 30.5 -40 54.5 q0 3 1 6 q20 -1 35 -15 l16 0 q16 -6 31 -4 Z" /><glyph glyph-name="uni30BC" unicode="&#x30bc;" d="M16 361 q23 -23 54 -27 q35 4 140.5 35.5 q105.5 31.5 125.5 38.5 q3 103 -4 205 q-8 59 -62 84 q14 3 28 3 q76 -8 112 -77 q-13 -48 -27 -82 q-2 -60 -4 -121 q51 16 178.5 51 q127.5 35 165.5 39 q35 -8 58 -36 q41 -18 51 -58 q-3 -24 -28.5 -25 q-25.5 -1 -41.5 -10 q-53 -22 -103.5 -58 q-50.5 -36 -103.5 -63 l-4 0 q48 39 95.5 93 q47.5 54 64.5 114 l-4 0 q-4 3 -9 2 q-1 0 -3 -2 q-159 -38 -316 -82 l0 -206 q3 -164 169 -162 q90 1 179 16 q22 6 46 8 q43 4 57 -32 q0 -6 -2 -11 q-21 -16 -66.5 -19.5 q-45.5 -3.5 -70.5 -2.5 l-148 0 q-109 3 -156 71 q-47 68 -47 170 q0 20 0 76 q0 56 -4 76 q-82 -24 -156 -64 q-24 -16 -47 -30 q-9 -5 -20 -8 q-81 16 -105 94 l8 0 ZM742 635 q49 -7 104.5 -32.5 q55.5 -25.5 63.5 -81.5 q-6 -18 -24 -22 q-23 6 -38 26 q-48 60 -106 110 ZM832 705 q39 -3 96.5 -23 q57.5 -20 63.5 -67 q1 -28 -25 -33 q-15 1 -22 14 q-47 64 -113 109 Z" /><glyph glyph-name="uni30BD" unicode="&#x30bd;" d="M703 697 q31 -5 81.5 -52 q50.5 -47 55.5 -77 q-2 -13 -24 -24 q-22 -11 -35 -23 q-24 -31 -39 -66 q-63 -129 -163.5 -256.5 q-100.5 -127.5 -230.5 -192.5 q-36 -41 -94 -49 q159 100 262 256 q47 66 126 197 q79 131 88 206 q-6 46 -46 73 q5 7 13 9 q4 0 6 -1 ZM160 646 q68 -27 131.5 -86 q63.5 -59 67.5 -135 q-1 -29 -31 -29 q-23 1 -39 16 q-1 6 -4 12 q-9 21 -15 43 q-37 101 -110 179 Z" /><glyph glyph-name="uni30BE" unicode="&#x30be;" d="M590 697 q8 7 17 7 q32 -5 77.5 -50.5 q45.5 -45.5 49.5 -77.5 q-8 -27 -35 -39 q-30 -23 -43 -59 q-73 -163 -201 -319 q-128 -156 -303 -214 q156 120 282 293 q126 173 195 358 q3 11 2 23 q-2 49 -41 78 ZM47 646 q65 -27 133 -84.5 q68 -57.5 74 -133.5 q-2 -37 -39 -39 q-5 -1 -8 0 q-37 14 -39 54 q-14 44 -52.5 104.5 q-38.5 60.5 -68.5 98.5 ZM723 728 q43 -6 87.5 -30.5 q44.5 -24.5 48.5 -74.5 q-1 -24 -23 -31 q-29 6 -55.5 57 q-26.5 51 -57.5 79 ZM797 783 q45 -3 98 -25.5 q53 -22.5 58 -75.5 q0 -23 -23 -24 q-23 3 -35 24 q-39 60 -98 101 Z" /><glyph glyph-name="uni30BF" unicode="&#x30bf;" d="M152 -114 q178 103 309 260 q46 63 94 125 q-78 93 -180 164 q-27 -21 -88 -63 q-61 -42 -89 -47 l-7 1 q79 59 178.5 169 q99.5 110 134.5 198 q1 3 1 4 q-2 10 -17.5 31.5 q-15.5 21.5 -22.5 31.5 q5 5 12 7 q33 -7 62 -19 q37 -16 51 -51 q-4 -25 -24 -43 q39 -12 79 -8 q36 3 68.5 21 q32.5 18 41.5 21 l7 -3 q25 -9 54 -35 q29 -26 32 -54 q-9 -30 -39 -47 q-23 -22 -36 -51 q-103 -197 -252.5 -361 q-149.5 -164 -356.5 -251 l-12 0 ZM707 623 q-57 -6 -113 -12 q-23 5 -39 24 l0 4 q-25 -26 -43 -59 q-53 -74 -125 -133 q36 -8 70 -19 q8 -5 16 -8 q72 -34 125 -94 q29 45 89 148 q60 103 67 149 l-47 0 Z" /><glyph glyph-name="uni30C0" unicode="&#x30c0;" d="M477 330 q45 63 88.5 140.5 q43.5 77.5 63.5 152.5 q-74 -6 -149 -12 q-31 3 -54 24 q-11 -15 -20 -32 q-59 -87 -136 -160 q43 -12 112.5 -45 q69.5 -33 94.5 -68 ZM47 -114 q109 72 206.5 173.5 q97.5 101.5 176.5 204.5 q-74 97 -172 171 q-82 -77 -192 -109 q88 62 168.5 142 q80.5 80 126.5 178 q3 6 10 23.5 q7 17.5 8 23.5 q-4 29 -24 51 l-7 16 q8 7 19 7 q25 -2 63.5 -27 q38.5 -25 42.5 -47 q-8 -30 -35 -47 l20 -1 q74 0 144 17 q20 10 39 23 q2 5 5 3 q3 -1 2 -3 q28 -12 56 -40.5 q28 -28.5 30 -60.5 q-2 -9 -23.5 -20.5 q-21.5 -11.5 -38.5 -38.5 q-101 -200 -254 -374.5 q-153 -174.5 -363 -264.5 l-8 0 ZM797 767 q52 1 102 -20 q50 -21 54 -81 q-2 -19 -21 -21 l-6 1 q-25 11 -35 36 q-38 52 -94 85 ZM703 717 q44 -5 92.5 -30 q48.5 -25 52.5 -76 q1 -30 -28 -31 q-21 6 -57.5 59 q-36.5 53 -59.5 78 Z" /><glyph glyph-name="uni30C1" unicode="&#x30c1;" d="M574 451 q75 5 149 4 q44 6 90 12 q29 1 64 -10 q35 -11 38 -46 q-5 -28 -35 -24 q-16 1 -32 5 q-80 13 -160 12 l-122 0 q-4 -42 -11 -82 q-6 -64 -28 -125 q-33 -113 -90 -184.5 q-57 -71.5 -160 -126.5 l-7 0 q108 88 160 214 q52 126 66 261 q6 16 8 35 q-36 -2 -70 -11 q-105 -8 -200 -55 q-19 -13 -39 -20 q-30 2 -50 24 q-48 25 -60 74 l1 8 q1 1 4 1 q4 -2 19.5 -15 q15.5 -13 56.5 -15 q27 0 53 5 q16 7 45.5 10 q29.5 3 48.5 6 q26 5 50 12 q73 10 145 23 q4 32 4 63 q-2 64 -59 97 q-140 -50 -289 -62 q73 22 229 89.5 q156 67.5 193 125.5 q-12 18 -31 35 q0 8 8 8 q33 -1 80 -25 q47 -24 52 -57 q-2 -28 -24.5 -31 q-22.5 -3 -45.5 -4 q-69 -47 -148 -71 q19 -1 61 -32 q42 -31 47 -50 q-1 -15 -11 -27 l0 -51 Z" /><glyph glyph-name="uni30C3" unicode="&#x30c3;" d="M798 456 q-2 -20 -20 -20.5 q-18 -0.5 -32 -3.5 q-57 -129 -149.5 -251 q-92.5 -122 -225.5 -179 q211 176 314 430 q4 10 14.5 38.5 q10.5 28.5 11.5 35.5 q-6 23 -27 35 q2 7 9 9 q30 -2 66 -33 q36 -31 39 -61 ZM402 549 q41 -13 77 -47 q36 -34 38 -79 q0 -30 -29 -37 q-26 7 -35 34 q-21 65 -51 129 ZM203 502 q96 -33 106 -133 q3 -29 -24 -35 q-25 10 -27 39 q-15 70 -55 129 Z" /><glyph glyph-name="uni30C4" unicode="&#x30c4;" d="M316 -126 q137 120 262 277.5 q125 157.5 188 330.5 q3 12 3 23 q-4 45 -42 71 l0 4 q40 -11 93 -40.5 q53 -29.5 55 -76.5 q-27 -19 -47 -31 q-31 -62 -63 -124 q-152 -284 -437 -434 l-12 0 ZM375 580 q56 -27 97.5 -70.5 q41.5 -43.5 43.5 -109.5 q-1 -31 -32 -35 q-30 -1 -39 27 q-25 99 -74 188 l4 0 ZM121 510 q43 -24 88 -70 q45 -46 49 -98 q1 -18 -6.5 -39.5 q-7.5 -21.5 -28.5 -23.5 q-22 2 -29.5 23.5 q-7.5 21.5 -9.5 39.5 q-17 89 -63 168 Z" /><glyph glyph-name="uni30C6" unicode="&#x30c6;" d="M266 -103 q51 39 90.5 102 q39.5 63 65.5 120 q22 46 56 136.5 q34 90.5 38 138.5 q-4 35 -36 53 l-7 0 q-129 -2 -250 -51 q-13 -8 -24 -11 q-27 4 -63 42 q-36 38 -39 66 l1 9 q25 -13 43 -31 q18 -18 50 -20 q61 5 122 16 q126 16 253 31 q44 3 107 5.5 q63 2.5 100 13.5 q15 11 32 16 q21 -1 57 -17 q36 -16 40 -34 q1 -33 -31 -35 q-23 3 -47 8 q-67 11 -136 12 q-91 0 -180 -16 q16 -14 35 -23 q11 -11 28.5 -32 q17.5 -21 19.5 -35 q-9 -17 -25 -35 q-11 -24 -15 -51 q-28 -100 -94 -204.5 q-66 -104.5 -156 -157.5 q-16 -13 -35 -16 ZM375 697 q42 1 132 16.5 q90 15.5 134 26.5 q11 8 23 12 l24 0 q15 -1 42.5 -11.5 q27.5 -10.5 35.5 -23.5 q-12 -37 -55 -32 q-136 -4 -270 -31 q-35 -8 -70 -11 q-28 3 -70.5 34 q-42.5 31 -46.5 59 q3 1 6 1 q11 -2 17 -13 q30 -13 46 -20 q16 -7 52 -7 Z" /><glyph glyph-name="uni30C7" unicode="&#x30c7;" d="M488 322 q-3 -6 -4 -12 q-36 -129 -110 -240.5 q-74 -111.5 -198 -172.5 q203 193 250 472 q1 5 1 9 q-5 40 -29 73 q-59 -4 -139 -21 q-80 -17 -126 -57 q-86 29 -113 113 q44 -32 97 -39 q20 1 39 4 q169 22 339 42 q91 4 177 13 q28 8 58 11 q27 0 53.5 -14.5 q26.5 -14.5 28.5 -44.5 q-5 -23 -31 -23 q-19 1 -39 4 q-101 16 -203 16 q-58 0 -117 -4 q20 -11 47.5 -34.5 q27.5 -23.5 30.5 -48.5 q-4 -23 -12 -46 ZM176 736 q45 -35 101 -39 q68 0 161 14 q93 14 156 41 q48 -2 82 -35 q-12 -37 -55 -32 q-124 -4 -246 -27 q-42 -9 -86 -12 q-37 2 -69 29.5 q-32 27.5 -44 60.5 ZM844 717 q45 0 89.5 -22.5 q44.5 -22.5 47.5 -73.5 q1 -23 -20 -27 q-23 4 -35 25 q-33 54 -82 98 ZM770 654 q39 -10 76.5 -35 q37.5 -25 40.5 -70 q3 -23 -17 -29 q-22 5 -46.5 52.5 q-24.5 47.5 -53.5 81.5 Z" /><glyph glyph-name="uni30C8" unicode="&#x30c8;" d="M398 291 q8 -157 16 -315 q1 -23 -6 -58 q-7 -35 -29 -44 q-19 11 -31.5 51.5 q-12.5 40.5 -13.5 61.5 q2 14 6 27 q13 73 12 148 l0 520 q2 27 -12 50 q-17 32 -47 51 q14 9 31 8 q36 -2 74.5 -31.5 q38.5 -29.5 41.5 -66.5 q0 -6 -2 -11 q-18 -9 -28 -28 q-9 -31 -10.5 -109.5 q-1.5 -78.5 -1.5 -116.5 q67 -10 182 -50.5 q115 -40.5 127 -113.5 q0 -35 -35 -36 q-28 8 -47 32 q-52 58 -101.5 92.5 q-49.5 34.5 -125.5 55.5 l0 -117 Z" /><glyph glyph-name="uni30C9" unicode="&#x30c9;" d="M340 146 q8 -79 15 -158 q1 -28 -7.5 -62.5 q-8.5 -34.5 -31.5 -51.5 q-27 26 -36 78.5 q-9 52.5 -10 88.5 q26 105 25.5 336 q-0.5 231 -2.5 297 q-3 77 -74 109 q18 5 36 6 q80 -10 120 -84 q-3 -7 -8 -12 q-30 -52 -27 -113 l0 -145 q71 -13 155 -44.5 q84 -31.5 127 -93.5 q11 -17 15 -37 q3 -26 -20 -32 q-25 3 -60 32 q-35 29 -53 47 q-71 73 -164 113 l0 -274 ZM625 678 q46 0 91.5 -16.5 q45.5 -16.5 64.5 -62.5 q-7 -23 -29 -27 q-21 3 -37 20 q-40 46 -90 86 ZM531 607 q45 -4 95 -24 q50 -20 62 -69 q-4 -23 -27 -29 q-20 6 -65.5 54 q-45.5 48 -64.5 68 Z" /><glyph glyph-name="uni30CA" unicode="&#x30ca;" d="M500 635 q-3 97 -32 108 q-29 11 -42 24 q17 6 35 6 q78 -10 125 -76 q-5 -28 -23 -51 q-3 -82 -4 -164 q82 10 164 8 q39 10 78 20 q30 0 81 -16 q51 -16 57 -50 q-6 -16 -25 -16 q-12 1 -23 4 q-107 13 -215 11 q-60 0 -121 -4 q-7 -164 -66 -329.5 q-59 -165.5 -219 -239.5 q117 101 166 258.5 q49 157.5 60 306.5 q-48 -2 -158 -16 q-110 -14 -143 -46 q-14 -11 -31 -12 q-33 15 -65.5 42.5 q-32.5 27.5 -35.5 66.5 l0 8 q32 -31 74 -39 q29 2 58 8 q152 21 305 31 l0 157 Z" /><glyph glyph-name="uni30CB" unicode="&#x30cb;" d="M55 205 q51 -37 113 -39 q61 3 121 12 q175 23 352 27 q82 -2 164 -4 q17 3 35 6 q25 -1 62.5 -22 q37.5 -21 41.5 -48 q-5 -30 -38 -26 q-14 3 -27 8 q-146 37 -297 35 q-195 2 -383 -55 q-13 -5 -27 -7 q-28 13 -71.5 41.5 q-43.5 28.5 -47.5 61.5 q0 5 2 10 ZM219 549 q13 -2 54.5 -17.5 q41.5 -15.5 81.5 -17.5 q130 5 258 27 q30 6 59 8 q17 0 46 -11.5 q29 -11.5 32 -31.5 q-1 -14 -12 -24 q-21 5 -44 4 q-174 -15 -350 -31 q-90 12 -133 94 l8 0 Z" /><glyph glyph-name="uni30CE" unicode="&#x30ce;" d="M672 721 q11 3 21 3 q43 -3 78.5 -40.5 q35.5 -37.5 56.5 -72.5 q-3 -18 -26 -35 q-23 -17 -36 -35 q-104 -188 -243.5 -362.5 q-139.5 -174.5 -350.5 -249.5 q181 130 326 308 q145 178 229 386 q1 6 1 12 q-5 57 -56 86 Z" /><glyph glyph-name="uni30CF" unicode="&#x30cf;" d="M617 510 q91 -35 220.5 -131 q129.5 -96 142.5 -197 q-7 -48 -58 -36 q-32 28 -47 67 q-43 81 -114.5 158 q-71.5 77 -143.5 135 l0 4 ZM20 111 q96 68 175 156 q28 30 64 82 q36 52 54 90 q3 7 7 12 q4 8 4 16 q0 11 -8 19 q-11 22 -23 39 q9 5 18 9 q22 -3 60.5 -37 q38.5 -34 42.5 -58 q-14 -24 -43 -43 q-77 -97 -150.5 -164.5 q-73.5 -67.5 -189.5 -120.5 l-11 0 Z" /><glyph glyph-name="uni30D0" unicode="&#x30d0;" d="M832 654 q47 0 101 -17.5 q54 -17.5 59 -72.5 q-3 -19 -22 -23 q-23 5 -64 48.5 q-41 43.5 -74 64.5 ZM758 580 q47 -1 92.5 -19 q45.5 -18 51.5 -71 q-4 -20 -23 -23 q-25 6 -66 51 q-41 45 -55 62 ZM590 478 q82 -37 201 -121.5 q119 -84.5 131 -182.5 q3 -35 -28 -47 q-8 1 -15 4 q-51 37 -74 97 q-38 69 -99 135.5 q-61 66.5 -124 114.5 l8 0 ZM273 510 q30 -6 67.5 -39.5 q37.5 -33.5 41.5 -62.5 q-2 -5 -22 -26.5 q-20 -21.5 -28 -32.5 q-43 -66 -141.5 -136 q-98.5 -70 -170.5 -106 l-12 0 q72 60 150.5 139.5 q78.5 79.5 123.5 161.5 q9 18 15 35 q-7 32 -27 59 l3 8 Z" /><glyph glyph-name="uni30D1" unicode="&#x30d1;" d="M12 92 l0 11 q66 48 172 151.5 q106 103.5 117 184.5 q-8 27 -31 47 q2 14 15 16 q27 -4 66.5 -41 q39.5 -37 43.5 -65 l-8 -11 q-31 -18 -59.5 -59 q-28.5 -41 -57.5 -70 q-111 -104 -250 -164 l-8 0 ZM891 654 q88 -9 97 -97 q-6 -90 -97 -94 q-86 9 -98 94 q5 93 98 97 ZM570 478 q92 -38 208.5 -124 q116.5 -86 127.5 -188 q3 -37 -31 -43 q-23 5 -35 27 q-28 54 -59 106 q-86 133 -218 222 l7 0 ZM891 478 q74 5 78 79 q-5 73 -78 78 q-78 0 -78 -78 q4 -75 78 -79 Z" /><glyph glyph-name="uni30D2" unicode="&#x30d2;" d="M371 408 q139 2 262 66 q12 10 27 12 q24 1 52 -9.5 q28 -10.5 30 -37.5 q2 -21 -15 -31 q-48 -10 -98 -12 q-59 -3 -121.5 -18 q-62.5 -15 -132.5 -17 q-45 4 -86 24 l0 -231 q0 -31 10 -70 q10 -39 37 -59 q33 -16 108.5 -18 q75.5 -2 110.5 -1 q85 0 168 8 q31 12 66 19 q14 0 35.5 -7.5 q21.5 -7.5 23.5 -23.5 q0 -9 -4 -18 q-51 -35 -174 -38 q-123 -3 -167 -1 q-127 -3 -197.5 47.5 q-70.5 50.5 -71.5 185.5 l0 410 q0 22 -4 43 q-7 34 -31 50 q-24 16 -47 36 q5 11 16 11 q35 -1 89.5 -27.5 q54.5 -26.5 60.5 -60.5 q-2 -19 -17 -33 q-4 -95 -12 -191 q41 -9 82 -8 Z" /><glyph glyph-name="uni30D3" unicode="&#x30d3;" d="M230 166 q-1 -180 179 -178 q126 3 251 22 q35 6 70 7 q14 1 35.5 -4.5 q21.5 -5.5 23.5 -22.5 q-11 -41 -99 -47 q-88 -6 -124 -4 l-120 0 q-116 -2 -184.5 45.5 q-68.5 47.5 -70.5 169.5 l0 434 q-7 86 -89 117 q16 7 33 7 q80 -14 135 -77 q-2 -18 -16 -45 q-14 -27 -16 -69 l0 -109 q32 -11 67 -12 q136 8 261 63 q25 10 51 15 q21 0 47.5 -9.5 q26.5 -9.5 29.5 -33.5 q-2 -20 -14 -35 q-168 -34 -340 -39 q-53 0 -102 24 q-9 -109 -8 -219 ZM648 623 q42 -5 100.5 -28.5 q58.5 -23.5 64.5 -73.5 q1 -30 -28 -31 q-34 6 -55 35 q-34 54 -82 98 ZM730 685 q47 0 101.5 -16.5 q54.5 -16.5 66.5 -69.5 q-7 -21 -29 -25 q-23 5 -65.5 47 q-42.5 42 -73.5 64 Z" /><glyph glyph-name="uni30D4" unicode="&#x30d4;" d="M316 408 q62 0 137.5 17 q75.5 17 128.5 49 q11 11 27 12 q24 0 52 -10 q28 -10 30 -37 q2 -23 -19 -31 q-92 -19 -188 -27 q-81 -15 -164 -20 q-46 4 -86 28 l0 -235 q-4 -76 47 -129 q108 -26 219 -19 q27 0 86.5 2 q59.5 2 81.5 6 q32 14 66 19 q50 4 64 -38 q-19 -46 -154.5 -49.5 q-135.5 -3.5 -166.5 -0.5 l-24 0 q-128 -3 -198 47 q-70 50 -71 186 l0 410 q0 92 -86 129 q7 10 19 11 q35 -1 89 -28 q54 -27 60 -61 q-8 -29 -20 -59 l-12 -164 q38 -2 82 -8 ZM801 760 q93 -12 101 -106 q-6 -95 -101 -105 q-44 1 -76 30.5 q-32 29.5 -34 74.5 q6 103 110 106 ZM801 736 q-80 -3 -86 -82 q12 -73 86 -78 q73 5 78 78 q-9 70 -78 82 Z" /><glyph glyph-name="uni30D5" unicode="&#x30d5;" d="M254 615 q135 5 269 24 q105 7 210 13 l-15 -2 q18 1 36 4 q13 14 47 24 q19 -18 51 -42.5 q32 -24.5 35 -51.5 q-7 -32 -39 -43 q-11 -16 -20 -35 q-42 -106 -101 -203 q-139 -215 -360 -346 q-22 -16 -49 -19 l-5 1 q81 63 152 137 q84 88 189.5 244 q105.5 156 115.5 283 q-11 12 -32 8 q-178 -11 -355 -35 q-63 1 -121 -23 q-12 -5 -24 -12 q-37 4 -79 45 q-42 41 -46 75 l0 5 q3 1 5 1 q12 -3 40.5 -26 q28.5 -23 95.5 -26 ZM738 653 q-2 -1 -4 -1 q2 1 4 1 Z" /><glyph glyph-name="uni30D6" unicode="&#x30d6;" d="M855 791 q39 -5 80.5 -25 q41.5 -20 44.5 -65 q1 -25 -23 -27 q-14 9 -44.5 51 q-30.5 42 -57.5 66 ZM750 752 q35 -6 83.5 -27 q48.5 -21 53.5 -63 q-4 -21 -24 -27 q-23 3 -35 23 q-31 53 -78 94 ZM27 666 q42 -52 110 -55 q107 4 215 17 q154 9 308 26 q10 6 28 12 q59 -27 93 -82 q-3 -20 -21 -27 q-18 -7 -30 -16 q-79 -182 -201.5 -340 q-122.5 -158 -298.5 -256 l-11 0 q270 238 419 563 q5 11 17 43.5 q12 32.5 13 40.5 q1 10 -4 19 q-91 -6 -258 -21 q-167 -15 -250 -41 q-13 -13 -31 -16 q-34 21 -69.5 55.5 q-35.5 34.5 -35.5 77.5 l7 0 Z" /><glyph glyph-name="uni30D7" unicode="&#x30d7;" d="M16 646 q50 -70 136 -66 q109 5 215 27 q101 15 203 20 q59 16 114 27 q54 -38 89 -94 l0 -3 q-2 -15 -16.5 -17.5 q-14.5 -2.5 -22.5 -6.5 q-17 -40 -39 -78 q-119 -270 -351 -449 q-65 -52 -141 -89 l-8 0 q147 99 288 295 q141 196 177 376 q-11 7 -27 4 q-38 -3 -225.5 -26 q-187.5 -23 -235.5 -33 q-32 -19 -59 -31 q-31 5 -66.5 53.5 q-35.5 48.5 -38.5 81.5 l0 9 l8 0 ZM891 810 q94 -10 101 -105 q-5 -95 -101 -98 q-92 7 -102 98 q8 95 102 105 ZM973 705 q-3 80 -82 86 q-78 -6 -82 -86 q10 -71 82 -78 q76 4 82 78 Z" /><glyph glyph-name="uni30D9" unicode="&#x30d9;" d="M789 635 q39 -2 89.5 -21 q50.5 -19 55.5 -65 q2 -18 -11 -28 q-22 5 -62.5 48.5 q-40.5 43.5 -71.5 65.5 ZM672 576 q48 -4 105.5 -26.5 q57.5 -22.5 62.5 -78.5 q-2 -18 -20 -22 q-22 6 -71.5 55.5 q-49.5 49.5 -76.5 71.5 ZM379 467 q-47 -8 -117.5 -79 q-70.5 -71 -97.5 -109 q-9 -16 -27 -19 q-33 0 -68.5 16.5 q-35.5 16.5 -41.5 53.5 q26 -4 51 -8 q66 11 148.5 90 q82.5 79 144.5 90 q36 -3 82.5 -35 q46.5 -32 73.5 -55 q76 -64 170 -129.5 q94 -65.5 186 -100.5 q29 -9 60.5 -29 q31.5 -20 34.5 -54 q4 -33 -27 -37 q-113 25 -312 202.5 q-199 177.5 -260 202.5 Z" /><glyph glyph-name="uni30DA" unicode="&#x30da;" d="M27 342 q3 1 6 1 q15 -9 44 -19 q65 12 152.5 93 q87.5 81 149.5 93 q31 -2 66.5 -28 q35.5 -26 58.5 -47 q93 -80 195 -148 q56 -39 101 -64 q45 -25 106 -53 q9 -3 16 -8 q44 -28 55 -78 l0 -9 q2 -28 -25 -30 q-87 17 -259.5 164.5 q-172.5 147.5 -243.5 218.5 q-31 32 -74 39 q-30 -12 -51 -28 q-83 -59 -140 -140 q-19 -32 -55 -39 q-10 1 -20 4 q1 -2 3 -2 q0 2 -10 5 q-4 1 -8 4 q-54 17 -67 67 l0 4 ZM813 627 q92 -9 97 -102 q-5 -92 -97 -97 q-92 7 -102 97 q8 94 102 102 ZM813 447 q73 5 78 78 q-4 76 -78 82 q-75 -6 -79 -82 q5 -73 79 -78 Z" /><glyph glyph-name="uni30DB" unicode="&#x30db;" d="M512 146 q4 -73 8 -148 q1 -22 -4.5 -54 q-5.5 -32 -31.5 -35 q-22 -1 -27 20 q-13 28 -50 62 q-37 34 -63 50 q26 -2 52.5 -15.5 q26.5 -13.5 56.5 -15.5 q16 8 16 27 l0 402 q-41 0 -120.5 -6 q-79.5 -6 -114.5 -17 l-11 0 q-14 1 -20 12 q-19 8 -53 34 q-34 26 -38 43 l1 5 q31 -9 59 -28 q42 -13 86 -11 q29 0 113 6.5 q84 6.5 98 12.5 l0 129 q5 73 -51 117 l8 16 q28 -5 70.5 -26.5 q42.5 -21.5 46.5 -48.5 q-8 -42 -20 -85 q-6 -51 -7 -98 q33 5 122 10.5 q89 5.5 104 9.5 q11 4 24 3 q16 0 45.5 -9 q29.5 -9 32.5 -26 q-1 -30 -19.5 -33.5 q-18.5 -3.5 -43.5 -1.5 q-17 1 -35 4 q-45 5 -90 4 q-70 -5 -140 -8 q-2 -50 -4 -101 l0 -200 ZM660 330 q71 -43 146 -119.5 q75 -76.5 81 -161.5 q-4 -28 -32 -32 q-33 7 -42 43 q-58 146 -157 270 l4 0 ZM215 310 q15 -47 15 -97 q-2 -26 -17.5 -93 q-15.5 -67 -24.5 -91 q-10 -25 -36 -27 q-40 6 -39 48 q6 59 47 116 q41 57 47 144 l8 0 Z" /><glyph glyph-name="uni30DC" unicode="&#x30dc;" d="M457 330 q10 -161 20 -320 q1 -20 -5 -54.5 q-6 -34.5 -31 -38.5 q-25 1 -35 24 q-20 39 -49.5 56 q-29.5 17 -59.5 44 q56 -18 114 -23 q10 0 7 7 q4 34 4 67 l0 351 q-58 -6 -129 -18 q-71 -12 -121 -13 q-36 2 -70 33 q-34 31 -43 65 q43 -34 97 -36 q134 5 266 20 q3 37 -5.5 139.5 q-8.5 102.5 -57.5 102.5 q15 10 33 10 q32 -2 55 -28 q23 -26 37 -52 q-1 -9 -4 -16 q-20 -74 -23 -152 q112 13 223 16 q13 6 27 7 q21 0 48.5 -9.5 q27.5 -9.5 30.5 -33.5 q-1 -15 -9 -27 q-9 -3 -19 -2 q-72 3 -145 6 q-78 0 -156 -8 l0 -117 ZM797 705 q36 -1 89.5 -17 q53.5 -16 58.5 -59 q-3 -22 -25 -24 q-21 4 -58 42.5 q-37 38.5 -65 57.5 ZM715 646 q39 -4 86 -25.5 q47 -21.5 51 -67.5 q3 -24 -18 -32 q-34 12 -49 51 q-29 43 -70 74 ZM605 330 q60 -40 139 -117.5 q79 -77.5 86 -152.5 q1 -34 -31 -38 q-22 3 -33 23 q-18 37 -35 75 q-53 112 -129 210 l3 0 ZM172 310 q9 -40 12 -78 q-7 -117 -55 -226 q-11 -5 -24 -5 q-42 10 -46 56 q3 57 39 101 q51 68 66 152 l8 0 Z" /><glyph glyph-name="uni30DD" unicode="&#x30dd;" d="M484 240 q4 -117 8 -234 q2 -32 -6 -69 q-8 -37 -45 -40 q-16 10 -15 32 q-45 66 -113 112 q54 -12 105 -31 l8 0 q16 4 18 33 q2 29 1 41 q-3 177 -7 355 q-57 -7 -114 -7 q-43 -4 -86 -12 q-26 -9 -49 -17 q-9 1 -17 5 q-19 17 -51 36 q-32 19 -36 54 q1 3 1 8 l8 4 q36 -36 86 -43 q129 6 258 23 l0 129 q2 78 -63 113 l0 8 q11 9 24 9 q33 -2 71.5 -33.5 q38.5 -31.5 41.5 -65.5 q-1 -23 -12 -43 q-8 -20 -12 -53.5 q-4 -33.5 -4 -55.5 q3 -2 6 -2 q5 0 10 2 q40 -1 109 4.5 q69 5.5 106 18.5 q9 7 19 12 q24 0 55 -16 q31 -16 34 -41 q-4 -29 -34 -29 q-64 4 -129 8 q-88 -6 -176 -12 l0 -203 ZM813 607 q-95 10 -102 106 q8 94 102 97 q94 -5 105 -97 q-4 -101 -105 -106 ZM898 713 q-9 74 -85 78 q-73 -7 -83 -78 q3 -82 83 -90 q87 2 85 90 ZM629 326 q60 -41 139 -118.5 q79 -77.5 87 -148.5 q5 -38 -31 -42 q-29 8 -47 36 q-11 21 -19 43 q-23 57 -57 120.5 q-34 63.5 -76 109.5 l4 0 ZM188 299 q12 -50 11 -102 q1 -44 -17.5 -122 q-18.5 -78 -66.5 -87 q-6 0 -13 4 q-18 28 -16 61 q1 33 23 58 q60 85 71 188 l8 0 Z" /><glyph glyph-name="uni30DE" unicode="&#x30de;" d="M836 506 q-79 -2 -335.5 -26 q-256.5 -24 -316.5 -52 q-23 -8 -47 -12 q-90 28 -94 125 l8 0 q21 -41 66 -43 q202 5 403 27 q146 18 293 24 q17 5 35 11 q87 -37 109 -128 q-5 -23 -29.5 -26 q-24.5 -3 -56.5 -29 q-58 -53 -154.5 -110 q-96.5 -57 -169.5 -93 q53 -54 55 -129 q0 -28 -28 -31 q-30 2 -47 27 q-16 29 -30 59 q-60 113 -161 191 l4 0 q41 -3 101 -38 q60 -35 90 -64 q71 49 178 141 q107 92 131 176 l-4 0 Z" /><glyph glyph-name="uni30DF" unicode="&#x30df;" d="M254 146 q31 -13 70 -35 q85 -44 244.5 -68 q159.5 -24 177.5 -102 q-1 -29 -27 -35 q-18 1 -31 11 q-86 53 -180 89 q-94 20 -180 63 q-42 33 -74 77 ZM322 448 q25 -6 41 -28 q57 -38 176 -55 q119 -17 133 -74 q-1 -27 -28 -29 q-22 2 -64 20 q-42 18 -68 28 q-126 30 -196 137 l6 1 ZM340 728 q81 -49 208 -76 q127 -27 140 -95 q1 -22 -19 -25 q-12 3 -56 23.5 q-44 20.5 -62 28.5 q-126 40 -211 140 l0 4 Z" /><glyph glyph-name="uni30E0" unicode="&#x30e0;" d="M94 146 l8 0 q49 -58 128 -50 q54 89 152 266.5 q98 177.5 109 276.5 q2 28 -18 46 q-9 1 -16 9 l0 7 l23 4 q73 -44 114 -117 q-2 -16 -22.5 -27.5 q-20.5 -11.5 -32.5 -35.5 q-24 -33 -43 -70 q-101 -183 -223 -352 q254 19 504 55 q-55 114 -144 203 q77 -42 152.5 -104 q75.5 -62 112.5 -143 q8 -19 12 -38 q4 -49 -41 -55 q-26 5 -45.5 50 q-19.5 45 -30.5 71 q-167 -49 -340 -74 q-33 -5 -98 -17 q-65 -12 -93 -26 q-15 -17 -39 -23 q-34 20 -79.5 57.5 q-45.5 37.5 -49.5 79.5 l0 7 Z" /><glyph glyph-name="uni30E1" unicode="&#x30e1;" d="M156 -43 q116 66 217 167 q101 101 182 206 q-63 70 -141 125 l8 0 q28 -3 84.5 -32 q56.5 -29 83.5 -46 q33 43 91.5 131.5 q58.5 88.5 64.5 141.5 q-2 31 -14 42 q-12 11 -14 19 q0 4 1 6 q38 -7 80.5 -45.5 q42.5 -38.5 46.5 -75.5 q0 -9 -6 -16 q-7 -13 -25 -12.5 q-18 0.5 -42 -34.5 q-63 -97 -125 -195 q85 -59 99 -159 q2 -18 -16 -22 q-29 5 -68.5 52.5 q-39.5 47.5 -60.5 73.5 q-77 -93 -198 -194 q-121 -101 -240 -132 q-4 -1 -8 0 Z" /><glyph glyph-name="uni30E2" unicode="&#x30e2;" d="M438 506 q-11 32 -36 54 q12 8 26 8 q30 -2 55 -26.5 q25 -24.5 40 -47.5 q-2 -12 -19.5 -36.5 q-17.5 -24.5 -19.5 -84.5 q54 6 153.5 18.5 q99.5 12.5 143.5 36.5 q27 1 70 -6.5 q43 -7.5 48 -40.5 q-3 -22 -30.5 -23.5 q-27.5 -1.5 -44.5 -0.5 q-27 2 -54 4 q-144 -4 -286 -31 l0 -176 q4 -76 60 -96 q56 -20 120 -17 q39 1 80.5 9.5 q41.5 8.5 64.5 9.5 q17 0 46 -6.5 q29 -6.5 32 -26.5 q-11 -39 -97 -41 q-86 -2 -116 1 q-115 -2 -177 42.5 q-62 44.5 -63 163.5 l0 129 q-92 -11 -180 -39 q-21 -12 -47 -16 q-33 2 -69 34 q-36 32 -39 64 q1 12 10 20 q35 -44 90 -51 q121 6 239 31 l0 141 ZM211 654 q46 -20 94 -23 q164 2 320 51 q23 11 47 15 q24 1 58 -10 q34 -11 37 -39 q-3 -18 -30.5 -22 q-27.5 -4 -41.5 -3 q-97 -3 -194.5 -23.5 q-97.5 -20.5 -195.5 -23.5 q-29 2 -57.5 26 q-28.5 24 -36.5 52 Z" /><glyph glyph-name="uni30E3" unicode="&#x30e3;" d="M309 576 q23 5 45 5 q58 1 91 -44 q-6 -21 -12 -43 q6 -45 20 -90 q142 38 285 70 q12 9 25 14 q3 0 3 -2 q26 -14 55 -39 q29 -25 31 -58 q0 -11 -4 -20 q-16 -10 -35 -8 q-22 -5 -80 -35 q-58 -30 -88 -43 l-12 0 q83 63 144 145 l-7 7 q-156 -24 -309 -62 q52 -184 117 -363 q4 -9 4 -18 q-3 -25 -28 -25 q-21 2 -31 21 q-14 33 -52 182.5 q-38 149.5 -49 194.5 q-32 -10 -108.5 -39.5 q-76.5 -29.5 -93.5 -33.5 q-20 2 -46 26 q-26 24 -29 43 q31 -8 62 -15 q106 18 207 50 q-6 56 -25 106 q-19 50 -80 66 l0 8 Z" /><glyph glyph-name="uni30E4" unicode="&#x30e4;" d="M660 310 q46 35 114.5 97.5 q68.5 62.5 88.5 117.5 l-11 8 q-203 -42 -403 -98 q26 -81 91 -264.5 q65 -183.5 73 -229.5 q-1 -33 -31 -32 q-5 -1 -11 -1 q-12 -1 -20 9 q-23 23 -31 56 q-12 50 -21 99 q-27 120 -58 238 q-17 58 -31 118 q-102 -26 -199 -71 q-19 -30 -55 -31 q-38 2 -73 34 q-35 32 -44 68 q31 -25 73 -33 q33 3 137.5 31.5 q104.5 28.5 148.5 40.5 q-16 77 -36 135.5 q-20 58.5 -104 82.5 q11 23 38 21 q28 0 79 -16 q51 -16 63 -44 q-3 -20 -16 -35 q9 -67 23 -133 q181 48 364 90 q14 8 31 12 q39 -3 80.5 -43 q41.5 -40 44.5 -79 q0 -19 -16 -30 q-16 1 -31 7 q-22 -7 -113 -56 q-91 -49 -133 -69 l-12 0 ZM363 459 q-1 -1 -3 -1 q2 0 3 1 Z" /><glyph glyph-name="uni30E5" unicode="&#x30e5;" d="M590 435 q-12 1 -23 1 q-109 -10 -215 -20 q-44 12 -59 50 q1 11 8 20 q16 -21 43 -23 q123 3 246 11 q13 9 27 12 q41 -16 55 -54 q-4 -22 -24 -36 q-42 -108 -82 -218 q104 -4 207 -8 q10 8 22 9 q54 0 65 -52 q-3 -19 -24 -20 q-11 1 -23 4 q-131 33 -266 35 q-173 4 -336 -54 q-56 32 -70 93 q14 -2 29 -15.5 q15 -13.5 37 -15.5 q163 7 324 24 q35 128 59 257 Z" /><glyph glyph-name="uni30E7" unicode="&#x30e7;" d="M371 57 q-9 -9 -23 -8 q-17 3 -45.5 31.5 q-28.5 28.5 -40.5 42.5 l0 12 q37 -30 86 -28 q131 8 261 16 q21 93 36 187 q-34 -3 -130.5 -13 q-96.5 -10 -116.5 -18 q-22 -8 -46 -12 q-50 15 -71 63 q29 -12 59 -20 q153 8 305 32 l3 4 q16 77 20 156 l-39 0 q-118 -8 -234 -35 q-25 -7 -47 -12 q-28 2 -49 27.5 q-21 25.5 -29 50.5 q31 -22 70 -27 q65 0 151 8.5 q86 8.5 150 22.5 q10 8 22 13 q21 -2 47 -25.5 q26 -23.5 28 -46.5 q-5 -14 -15 -31 q-10 -36 -16 -74 q-23 -121 -47 -242 q20 -9 28 -28 q-3 -24 -28 -23 q-61 2 -144 1.5 q-83 -0.5 -145 -24.5 Z" /><glyph glyph-name="uni30E8" unicode="&#x30e8;" d="M188 135 q44 -51 109 -59 q178 10 355 20 q8 1 12 7 q20 116 31 231 q-52 5 -105 4 q-148 -6 -293 -39 q-62 28 -78 93 l8 4 q20 -30 54 -35 q208 12 418 24 q15 105 20 211 q1 3 1 4 q-4 7 -9 7 q-94 -11 -188 -13 q-94 -2 -187 -18 q-29 -11 -59 -16 q-67 32 -82 102 l8 4 q42 -42 102 -43 q89 -1 196 2.5 q107 3.5 194 20.5 q17 6 33 9 q33 -2 59 -30.5 q26 -28.5 37 -56.5 q-12 -26 -31 -62 q-39 -204 -74 -410 q18 -13 22 -33 q-4 -18 -22 -22 q-60 6 -121 8 q-127 -3 -250 -28 q-29 -8 -59 -11 q-88 33 -113 121 l12 4 Z" /><glyph glyph-name="uni30E9" unicode="&#x30e9;" d="M152 502 q32 -30 75 -31 q106 1 247.5 18 q141.5 17 248.5 36 q8 15 27 16 q19 -3 58.5 -34 q39.5 -31 46.5 -48 q0 -4 0 -8 q-3 -13 -25 -18.5 q-22 -5.5 -29 -12.5 q-35 -64 -72 -128 q-81 -133 -195 -239 q-114 -106 -264 -156 q323 210 468 566 l0 8 l-4 3 q-218 -13 -433 -54 q-28 -17 -59 -28 q-26 16 -60 45 q-34 29 -37 61 l7 4 ZM238 736 q31 -3 67 -18 q36 -15 82 -17 q110 4 215 35 q40 13 82 16 q66 6 78 -55 q-4 -14 -38.5 -17 q-34.5 -3 -47.5 -2 q-75 -2 -153 -16 q-78 -14 -144 -16 q-38 2 -79 30.5 q-41 28.5 -62 59.5 Z" /><glyph glyph-name="uni30EA" unicode="&#x30ea;" d="M457 -103 q149 151 179.5 338.5 q30.5 187.5 23.5 388.5 q8 93 -74 128 q9 17 29 18 q30 -2 63 -29 q33 -27 52 -48 l1 -6 q-1 -12 -11.5 -17 q-10.5 -5 -12.5 -24 q11 -198 -20 -421 q-31 -223 -230 -328 ZM340 197 q-21 14 -28 48 q-7 34 -7 58 q2 14 4 27 l0 301 q-8 57 -39 105 q41 -12 72 -51 q31 -39 33 -82 q-4 -78 -8 -156 l0 -180 q0 -14 -6 -39 q-6 -25 -21 -31 Z" /><glyph glyph-name="uni30EB" unicode="&#x30eb;" d="M16 -35 q91 91 162 248 q71 157 75 284 q5 61 -42 95 l8 15 q70 -13 117 -66 q-2 -20 -20 -31 q-20 -163 -88.5 -305.5 q-68.5 -142.5 -204.5 -239.5 l-7 0 ZM547 111 q116 38 232.5 124.5 q116.5 86.5 204.5 168.5 l0 -8 q-81 -130 -182 -211 q-101 -81 -224 -164 q-11 -12 -27 -15 q-28 3 -52 36 q-24 33 -26 59 q7 19 19 34 q5 81 4 164 l0 254 q-2 39 -21 54 q-19 15 -34 39 q10 1 19 1 q77 -7 118 -75 q-2 -15 -15.5 -27.5 q-13.5 -12.5 -15.5 -38.5 l0 -395 Z" /><glyph glyph-name="uni30EC" unicode="&#x30ec;" d="M141 635 q17 5 33 5 q92 -13 135 -99 q-17 -27 -32 -67 l0 -378 l8 0 q319 135 574 371 l0 -4 q-226 -270 -535 -438 q-20 -23 -47 -37 q-56 29 -82 88 q2 15 16 27.5 q14 12.5 16 27.5 l0 332 q1 49 -18 96 q-19 47 -68 64 l0 12 Z" /><glyph glyph-name="uni30ED" unicode="&#x30ed;" d="M289 541 q55 3 109 12 q170 19 340 27 q12 10 26 13 q34 -3 61.5 -40.5 q27.5 -37.5 29.5 -70.5 q-9 -20 -27 -35 q-13 -31 -41.5 -133 q-28.5 -102 -44.5 -156 q29 -13 39 -42 q-3 -16 -19 -24 q-17 1 -32 4 q-83 15 -167 15 q-120 -1 -239 -12 q1 -13 -0.5 -38.5 q-1.5 -25.5 -16.5 -28.5 q-24 4 -40 42.5 q-16 38.5 -17 60.5 q4 40 8 82 q-2 30 -16.5 134.5 q-14.5 104.5 -22.5 138.5 q-17 62 -74 86 q15 5 30 5 q54 -4 95 -40 l19 0 ZM703 166 q17 78 37 175.5 q20 97.5 22 175.5 q1 14 -12 16 l-117 0 q-146 -15 -293 -31 q-23 -2 -47 4 l-4 0 q-4 -4 -8 0 q10 -88 20 -176 q7 -96 19 -191 l164 11 q110 13 219 16 Z" /><glyph glyph-name="uni30EF" unicode="&#x30ef;" d="M336 -43 q327 256 422 662 q-70 4 -140 4 q-192 -1 -384 -16 q-3 -8 -4 -15 q12 -121 24 -243 q1 -36 -27 -58 q-27 6 -42 36 q-15 30 -21 54 q14 65 20 135 q3 104 -67 177 q10 4 19 4 q48 -8 79 -47 q170 11 340 16 q88 -3 175 8 q27 15 55 23 q66 -35 98 -101 q-27 -19 -55 -36 q-65 -187 -181.5 -353 q-116.5 -166 -302.5 -250 l-8 0 Z" /><glyph glyph-name="uni30F1" unicode="&#x30f1;" d="M51 197 q39 -48 101 -47 q60 2 148 15 q88 13 157 20 q6 106 12 211 q-1 64 -63 82 l4 8 q65 3 113 -39 q98 58 153 156 q-189 -10 -367 -74 q-17 -8 -36 -12 q-64 32 -85 102 l7 4 q37 -25 82 -27 q49 3 200 24.5 q151 21.5 183 29.5 q5 3 8 8 q9 7 20 8 q22 -3 61.5 -35 q39.5 -32 43.5 -62 q-2 -21 -24 -25.5 q-22 -4.5 -39 -2.5 q-101 -54 -203 -106 q1 -34 -7.5 -118 q-8.5 -84 -11.5 -132 q149 9 297 4 q17 7 35 8 q35 0 75.5 -20 q40.5 -20 44.5 -59 q-7 -27 -38 -26 q-14 3 -27 7 q-143 41 -293 43 q-213 -2 -418 -58 q-18 -5 -36 -8 q-87 31 -105 117 l8 4 Z" /><glyph glyph-name="uni30F2" unicode="&#x30f2;" d="M246 -71 q126 88 227.5 215.5 q101.5 127.5 178.5 259.5 l-31 0 q-158 -5 -308 -55 q-15 -4 -32 -7 q-84 30 -121 109 l8 4 q52 -39 117 -43 q79 4 156 16 q118 15 235 27 q13 23 43.5 84.5 q30.5 61.5 34.5 83.5 q-3 48 -43 74 q10 6 19 11 q4 0 4 -3 q33 -19 66 -48.5 q33 -29.5 40 -68.5 q-11 -15 -27 -24 q-89 -185 -227 -365 q-138 -180 -328 -270 l-12 0 ZM211 678 q39 -36 90 -43 q177 8 351 43 q12 3 24 4 q39 3 48 -31 q-2 -25 -29 -28 q-43 -4 -87 -5 q-105 -11 -210 -26 q-41 -9 -82 -12 q-31 2 -65.5 31.5 q-34.5 29.5 -47.5 58.5 l8 8 Z" /><glyph glyph-name="uni30F3" unicode="&#x30f3;" d="M863 517 q-213 -252 -484 -441 q-12 -10 -58.5 -46.5 q-46.5 -36.5 -58.5 -41.5 q-33 4 -75 47 q-42 43 -46 76 q1 8 7 12 q32 -41 82 -47 q352 178 633 457 l0 -16 ZM156 646 q47 -25 128.5 -54.5 q81.5 -29.5 90.5 -77.5 q-1 -28 -28 -33 q-37 6 -107 65.5 q-70 59.5 -84 99.5 Z" /><glyph glyph-name="uni30F4" unicode="&#x30f4;" d="M738 611 q25 -2 56 -25.5 q31 -23.5 34 -48.5 q-1 -17 -15 -27 q-44 -16 -47 -67 q-2 -5 -4 -11 q-45 -109 -116 -225 q-71 -116 -162 -193 q-68 -49 -144 -85 l-12 0 q150 114 250 272 q40 67 81.5 165 q41.5 98 51.5 175 l0 8 l-86 0 q-221 -8 -441 -32 l0 -89 q4 -62 7 -125 q4 -37 -27 -51 q-28 3 -36 35 q-8 32 -7 55 q2 42 4 86 q8 101 -70 160 l0 8 q12 7 25 7 q47 -5 84 -35 q128 4 254 16 l0 62 q1 74 -70 106 l0 8 q18 10 39 7 q52 -4 93 -39 q19 -7 21 -27 q0 -10 -5 -19 q-11 -45 -16 -94 q110 7 219 4 q20 7 39 19 ZM699 752 q37 -8 88.5 -35 q51.5 -27 56.5 -71 q2 -25 -20 -31 q-29 6 -62.5 57 q-33.5 51 -62.5 80 ZM805 799 q38 -7 86.5 -32 q48.5 -25 53.5 -70 q1 -25 -23 -31 q-27 5 -54.5 53.5 q-27.5 48.5 -62.5 79.5 Z" /><glyph glyph-name="uni30FC" unicode="&#x30fc;" d="M429 308 l29 0 q182 1 362 21 q22 3 43 4 q45 -1 55 -41 q-3 -36 -40 -34 q-73 7 -147 13 l-429 0 q-77 -12 -145 -24 l-9 0 q-73 31 -87 105 q0 6 1 12 q58 -53 136 -56 l231 0 Z" /><glyph glyph-name="afii10017" unicode="&#x410;" d="M187 0 l257 695 l106 0 l262 -695 l-94 0 l-71 180 l-300 0 l-67 -180 l-93 0 ZM495 598 l-125 -340 l250 0 l-125 340 Z" /><glyph glyph-name="afii10018" unicode="&#x411;" d="M234 0 l0 688 l485 0 l0 -79 l-403 0 l0 -203 q127 11 281.5 -8 q154.5 -19 168.5 -187 q-5 -207 -211 -211 l-321 0 ZM316 332 l0 -258 l235 0 q126 5 129 133 q-2 58 -43 91 q-41 33 -98 34 l-223 0 Z" /><glyph glyph-name="afii10019" unicode="&#x412;" d="M230 0 l0 695 l336 0 q68 -2 117 -48.5 q49 -46.5 51 -115.5 q-4 -114 -105 -164 q127 -38 141 -168 q-2 -94 -61 -146 q-59 -52 -150 -53 l-329 0 ZM313 617 l0 -219 l191 0 q55 1 95 34.5 q40 33.5 42 90.5 q-13 89 -106 94 l-222 0 ZM313 320 l0 -242 l222 0 q55 0 99 29.5 q44 29.5 46 87.5 q-3 56 -47.5 90 q-44.5 34 -97.5 35 l-222 0 Z" /><glyph glyph-name="afii10020" unicode="&#x413;" d="M367 0 l-86 0 l0 691 l438 0 l0 -78 l-352 0 l0 -613 Z" /><glyph glyph-name="afii10021" unicode="&#x414;" d="M749 695 l0 -617 l105 0 l-3 -230 l-82 0 l0 152 l-543 0 l0 -152 l-79 0 l-7 230 l70 0 q100 129 115 295 q15 166 10 322 l414 0 ZM667 78 l0 543 l-246 0 q4 -133 -15 -281 q-19 -148 -94 -262 l355 0 Z" /><glyph glyph-name="afii10026" unicode="&#x418;" d="M226 0 l0 695 l86 0 l0 -550 l371 550 l89 0 l0 -691 l-85 0 l0 562 l-375 -566 l-86 0 Z" /><glyph glyph-name="afii10028" unicode="&#x41a;" d="M230 0 l0 699 l86 0 l0 -308 l313 304 l117 0 l-328 -320 l348 -375 l-114 0 l-336 359 l0 -359 l-86 0 Z" /><glyph glyph-name="afii10030" unicode="&#x41c;" d="M152 0 l0 695 l125 0 l227 -566 l215 566 l129 0 l0 -695 l-82 0 l0 586 l-231 -586 l-66 0 l-235 578 l0 -578 l-82 0 Z" /><glyph glyph-name="afii10031" unicode="&#x41d;" d="M324 328 l0 -328 l-86 0 l0 695 l86 0 l0 -289 l352 0 l0 289 l86 0 l0 -695 l-86 0 l0 328 l-352 0 Z" /><glyph glyph-name="afii10032" unicode="&#x41e;" d="M495 645 q-118 -4 -176 -85 q-58 -81 -58 -193 q-2 -120 51 -206.5 q53 -86.5 183 -90.5 q127 3 185 83.5 q58 80.5 57 201.5 q0 114 -60.5 200 q-60.5 86 -181.5 90 ZM499 727 q157 -4 242 -108 q85 -104 86 -256 q0 -163 -82 -263.5 q-82 -100.5 -250 -103.5 q-161 4 -242.5 108.5 q-81.5 104.5 -81.5 258.5 q1 153 85 256.5 q84 103.5 243 107.5 Z" /><glyph glyph-name="afii10033" unicode="&#x41f;" d="M234 0 l0 695 l532 0 l0 -695 l-86 0 l0 617 l-360 0 l0 -617 l-86 0 Z" /><glyph glyph-name="afii10035" unicode="&#x421;" d="M812 234 q-55 -248 -313 -242 q-162 5 -237.5 112 q-75.5 107 -74.5 259 q1 161 88 261 q87 100 251 103 q235 -11 278 -243 l-90 0 q-34 152 -188 161 q-261 -13 -254 -282 q-1 -111 52 -202.5 q53 -91.5 175 -97.5 q186 -6 223 171 l90 0 Z" /><glyph glyph-name="afii10036" unicode="&#x422;" d="M457 0 l0 613 l-227 0 l0 78 l540 0 l0 -78 l-231 0 l0 -613 l-82 0 Z" /><glyph glyph-name="afii10039" unicode="&#x425;" d="M441 352 l-230 347 l102 0 l183 -277 l184 277 l101 0 l-230 -344 l246 -355 l-106 0 l-195 289 l-191 -285 l-102 0 l238 348 Z" /><glyph glyph-name="afii10041" unicode="&#x427;" d="M269 695 l82 0 l0 -194 q4 -93 67 -106.5 q63 -13.5 139 -8.5 q53 0 106 5 l0 304 l82 0 l0 -695 l-82 0 l0 313 q-91 -10 -183 -11 q-101 -2 -156 39.5 q-55 41.5 -56 149.5 l1 204 Z" /><glyph glyph-name="afii10047" unicode="&#x42d;" d="M194 500 q70 222 305 223 q148 -6 230 -114 q82 -108 83 -250 q0 -147 -79 -256.5 q-79 -109.5 -234 -114.5 q-126 -1 -209.5 56 q-83.5 57 -102.5 186 l97 0 q8 -92 66 -128.5 q58 -36.5 145 -35.5 q113 4 166 81 q53 77 61 181 l-340 0 l0 74 l340 0 q-14 93 -65.5 164 q-51.5 71 -153.5 75 q-74 1 -133 -33 q-59 -34 -78 -108 l-98 0 Z" /><glyph glyph-name="afii10065" unicode="&#x430;" d="M741 4 l-70 0 q-61 3 -59 66 q-73 -72 -175 -78 q-62 0 -119 32 q-57 32 -61 101 q22 164 173.5 166.5 q151.5 2.5 173.5 52.5 q-2 119 -121 117 q-108 5 -121 -98 l-86 0 q26 170 198 168 q84 0 148.5 -42.5 q64.5 -42.5 67.5 -133.5 l0 -246 q7 -44 51 -35 l0 -70 ZM608 262 q-63 -25 -155.5 -35 q-92.5 -10 -101.5 -88 q8 -81 91 -78 q61 0 112 36 q51 36 54 102 l0 63 Z" /><glyph glyph-name="afii10066" unicode="&#x431;" d="M707 730 q-32 -138 -200 -119 q-168 19 -191 -201 q70 95 188 98 q235 -10 246 -246 q0 -117 -63 -192 q-63 -75 -183 -78 q-125 3 -189.5 86 q-64.5 83 -64.5 203 l0 86 q-2 85 24 165.5 q26 80.5 105 123.5 q46 15 146 28 q100 13 112 46 l70 0 ZM340 246 q1 -72 44 -131.5 q43 -59.5 120 -63.5 q88 3 122.5 62.5 q34.5 59.5 33.5 140.5 q0 75 -41 129.5 q-41 54.5 -119 57.5 q-82 -3 -121 -60.5 q-39 -57.5 -39 -134.5 Z" /><glyph glyph-name="afii10067" unicode="&#x432;" d="M292 0 l0 512 l266 0 q53 -1 91.5 -36 q38.5 -35 40.5 -89 q4 -87 -74 -121 q87 -32 90 -125 q-11 -138 -152 -141 l-262 0 ZM370 449 l0 -148 l160 0 q71 10 78 82 q-3 34 -35 50 q-32 16 -62 16 l-141 0 ZM370 234 l0 -171 l152 0 q35 0 67.5 20 q32.5 20 34.5 58 q-8 89 -98 93 l-156 0 Z" /><glyph glyph-name="afii10068" unicode="&#x433;" d="M410 445 l0 -445 l-82 0 l0 508 l344 0 l0 -63 l-262 0 Z" /><glyph glyph-name="afii10069" unicode="&#x434;" d="M707 508 l0 -445 l90 0 l-8 -184 l-74 0 l0 121 l-434 0 l0 -121 l-70 0 l-8 184 l67 0 q63 101 72 215 q9 114 6 230 l359 0 ZM629 63 l0 382 l-203 0 q3 -94 -8 -196.5 q-11 -102.5 -59 -185.5 l270 0 Z" /><glyph glyph-name="afii10070" unicode="&#x435;" d="M347 234 q3 -66 39 -122.5 q36 -56.5 109 -60.5 q112 -1 149 101 l85 0 q-21 -84 -85.5 -122.5 q-64.5 -38.5 -148.5 -37.5 q-121 4 -178 86 q-57 82 -56 195 q1 106 63 180.5 q62 74.5 171 77.5 q135 -3 189.5 -87.5 q54.5 -84.5 52.5 -209.5 l-390 0 ZM647 301 q-8 67 -44.5 114.5 q-36.5 47.5 -107.5 49.5 q-72 -2 -108.5 -49.5 q-36.5 -47.5 -39.5 -114.5 l300 0 Z" /><glyph glyph-name="afii10072" unicode="&#x436;" d="M370 273 l-219 239 l110 0 l199 -223 l0 223 l78 0 l0 -223 l195 223 l106 0 l-219 -239 l231 -273 l-102 0 l-215 258 l0 -258 l-74 0 l0 258 l-211 -258 l-105 0 l226 270 l0 3 Z" /><glyph glyph-name="afii10073" unicode="&#x437;" d="M293 371 q38 159 207 156 q70 1 132.5 -31.5 q62.5 -32.5 66.5 -109.5 q1 -92 -86 -120 q98 -18 106 -118 q-4 -84 -65.5 -118.5 q-61.5 -34.5 -137.5 -33.5 q-88 -2 -157.5 35 q-69.5 37 -77.5 133 l82 0 q4 -64 47.5 -87 q43.5 -23 101.5 -22 q44 -1 81.5 20 q37.5 21 39.5 70 q-6 73 -70.5 83.5 q-64.5 10.5 -121.5 5.5 l0 67 q49 -4 108 4 q59 8 64 74 q-2 47 -36 65 q-34 18 -77 17 q-97 0 -125 -90 l-82 0 Z" /><glyph glyph-name="afii10074" unicode="&#x438;" d="M371 0 l-90 0 l0 512 l82 0 l0 -399 l266 399 l90 0 l0 -512 l-82 0 l0 402 l-266 -402 Z" /><glyph glyph-name="afii10075" unicode="&#x439;" d="M395 703 q14 -82 101 -78 q83 0 102 78 l74 0 q-35 -135 -176 -137 q-147 -6 -172 137 l71 0 ZM371 0 l-90 0 l0 512 l82 0 l0 -399 l266 399 l90 0 l0 -512 l-82 0 l0 402 l-266 -402 Z" /><glyph glyph-name="afii10076" unicode="&#x43a;" d="M289 0 l0 512 l82 0 l0 -235 l215 235 l105 0 l-230 -246 l250 -266 l-113 0 l-227 250 l0 -250 l-82 0 Z" /><glyph glyph-name="afii10077" unicode="&#x43b;" d="M737 512 l0 -508 l-82 0 l0 441 l-183 0 l0 -90 q1 -59 -6 -148 q-7 -89 -37 -141 q-56 -72 -152 -62 l-16 0 l0 70 q75 -3 109 59 q18 57 19.5 188 q1.5 131 0.5 191 l347 0 Z" /><glyph glyph-name="afii10078" unicode="&#x43c;" d="M296 0 l-82 0 l0 512 l117 0 l172 -403 l172 403 l109 0 l0 -512 l-82 0 l0 398 l-168 -398 l-66 0 l-172 402 l0 -402 Z" /><glyph glyph-name="afii10079" unicode="&#x43d;" d="M289 0 l0 512 l82 0 l0 -211 l258 0 l0 211 l82 0 l0 -512 l-82 0 l0 238 l-258 0 l0 -238 l-82 0 Z" /><glyph glyph-name="afii10080" unicode="&#x43e;" d="M495 469 q-81 -4 -117 -69 q-36 -65 -35 -138 q-1 -81 36 -140.5 q37 -59.5 124 -62.5 q80 4 116.5 67 q36.5 63 35.5 136 q1 76 -37.5 139.5 q-38.5 63.5 -122.5 67.5 ZM503 535 q116 -4 177 -83 q61 -79 61 -190 q0 -118 -62.5 -191 q-62.5 -73 -183.5 -75 q-121 2 -179.5 75.5 q-58.5 73.5 -58.5 190.5 q1 114 64.5 192 q63.5 78 181.5 81 Z" /><glyph glyph-name="afii10081" unicode="&#x43f;" d="M289 0 l0 508 l422 0 l0 -508 l-78 0 l0 441 l-266 0 l0 -441 l-78 0 Z" /><glyph glyph-name="afii10082" unicode="&#x440;" d="M343 520 l0 -67 q72 81 179 86 q103 -5 158.5 -85 q55.5 -80 56.5 -177 q1 -112 -51.5 -196.5 q-52.5 -84.5 -174.5 -88.5 q-108 2 -172 86 l0 -250 l-78 0 l0 692 l82 0 ZM651 273 q0 64 -35 129.5 q-35 65.5 -105 70.5 q-90 -3 -129.5 -65.5 q-39.5 -62.5 -38.5 -145.5 q0 -81 40.5 -146 q40.5 -65 127.5 -69 q24 4 46 16 q52 32 73.5 91.5 q21.5 59.5 20.5 118.5 Z" /><glyph glyph-name="afii10083" unicode="&#x441;" d="M733 188 q-34 -193 -230 -196 q-121 3 -179.5 78.5 q-58.5 75.5 -58.5 191.5 q0 259 254 273 q173 -11 207 -180 l-86 0 q-21 99 -121 110 q-91 -3 -130 -63 q-39 -60 -38 -144 q-1 -80 36 -140 q37 -60 124 -63 q123 7 133 133 l89 0 Z" /><glyph glyph-name="afii10084" unicode="&#x442;" d="M281 449 l0 63 l438 0 l0 -63 l-184 0 l0 -449 l-78 0 l0 449 l-176 0 Z" /><glyph glyph-name="afii10085" unicode="&#x443;" d="M253 512 l98 0 l168 -407 l136 407 l90 0 l-211 -586 q-6 -20 -27.5 -60.5 q-21.5 -40.5 -42.5 -45.5 q-21 -2 -42 -2 q-45 0 -87 10 l0 74 q24 -5 48 -5 q26 -1 50 9 q12 16 24.5 47 q12.5 31 18.5 51 l-223 508 Z" /><glyph glyph-name="afii10087" unicode="&#x445;" d="M354 0 l-97 0 l191 270 l-179 246 l97 0 l129 -180 l129 180 l98 0 l-176 -246 l195 -270 l-101 0 l-145 199 l-141 -199 Z" /><glyph glyph-name="afii10088" unicode="&#x446;" d="M242 0 l0 512 l78 0 l0 -446 l266 0 l0 446 l78 0 l0 -446 l94 0 l-8 -183 l-70 0 l0 117 l-438 0 Z" /><glyph glyph-name="afii10089" unicode="&#x447;" d="M308 512 l82 0 l0 -183 q2 -30 26.5 -39.5 q24.5 -9.5 50.5 -8.5 l141 0 l0 231 l82 0 l0 -512 l-82 0 l0 207 l-154 0 q-62 -1 -103 25 q-41 26 -43 92 l0 188 Z" /><glyph glyph-name="afii10091" unicode="&#x449;" d="M801 0 l-680 0 l0 512 l78 0 l0 -446 l219 0 l0 446 l78 0 l0 -446 l215 0 l0 446 l82 0 l0 -446 l86 0 l-8 -175 l-70 0 l0 109 Z" /><glyph glyph-name="afii10093" unicode="&#x44b;" d="M780 0 l-82 0 l0 504 l82 0 l0 -504 ZM218 0 l0 504 l82 0 l0 -199 q98 8 210 -6.5 q112 -14.5 122 -142.5 q-11 -148 -160 -156 l-254 0 ZM300 242 l0 -179 l160 0 q82 8 86 93 q-8 78 -86 86 l-160 0 Z" /><glyph glyph-name="afii10094" unicode="&#x44c;" d="M292 0 l0 504 l82 0 l0 -199 q98 8 210 -6.5 q112 -14.5 122 -142.5 q-2 -69 -47 -112 q-45 -43 -113 -44 l-254 0 ZM374 242 l0 -179 l160 0 q81 7 86 89 q-7 80 -86 90 l-160 0 Z" /><glyph glyph-name="afii10096" unicode="&#x44e;" d="M585 465 q-86 -4 -121.5 -70.5 q-35.5 -66.5 -34.5 -143.5 q-1 -79 34 -136 q35 -57 122 -60 q83 4 118 65.5 q35 61.5 34 137.5 q1 76 -33.5 139.5 q-34.5 63.5 -118.5 67.5 ZM253 242 l0 -234 l-78 0 l0 504 l78 0 l0 -207 l90 0 q30 216 242 230 q117 -4 177.5 -84.5 q60.5 -80.5 60.5 -192.5 q0 -115 -59 -189 q-59 -74 -179 -77 q-231 15 -242 250 l-90 0 Z" /><glyph glyph-name="afii10097" unicode="&#x44f;" d="M706 512 l0 -512 l-78 0 l0 207 l-117 0 l-125 -207 l-94 0 l133 211 q-124 23 -129 148 q2 149 152 153 l258 0 ZM628 445 l-164 0 q-76 -10 -86 -86 q9 -81 90 -89 l160 0 l0 175 Z" /><glyph glyph-name="uni4E00" unicode="&#x4e00;" d="M922 334 q-37 -11 -75 -9 q-90 4 -180 8 q-176 -1 -351 -27 q-32 -6 -86.5 -18.5 q-54.5 -12.5 -79.5 -13.5 q-75 4 -102 73 q330 14 655 71 q40 9 80 11 q46 0 91 -22.5 q45 -22.5 48 -72.5 Z" /><glyph glyph-name="uni4E01" unicode="&#x4e01;" d="M916 632 q-34 -11 -69 -9 q-88 4 -177 8 q-77 0 -155 -7 q34 -25 37 -56 q3 -31 1 -69 q-1 -99 10 -199 l0 1 q12 -82 12 -165 q2 -62 -13 -117.5 q-15 -55.5 -72 -90.5 q-21 10 -70 54 q-49 44 -65 59 q-22 11 -27 34 q72 -5 144 -14 q14 46 16 110 q2 64 1 113 q1 56 -8.5 168 q-9.5 112 -41.5 155 l2 10 q-92 -10 -184 -28 q-44 -12 -87 -19 q-73 7 -98 76 q318 12 632 71 q38 10 78 12 q46 0 88.5 -24 q42.5 -24 45.5 -73 Z" /><glyph glyph-name="uni4E03" unicode="&#x4e03;" d="M871 426 q-35 -19 -121.5 -28.5 q-86.5 -9.5 -117.5 -11.5 q-105 -16 -208 -45 q0 -40 -1 -80 q-3 -58 10.5 -111 q13.5 -53 79.5 -67 l-1 0 q34 -9 70 -9 q125 4 159 127 l0 -1 q3 36 26 62 q15 -14 28.5 -82 q13.5 -68 14.5 -97 q-10 -51 -97.5 -68 q-87.5 -17 -134.5 -16 q-113 -1 -194 77 q-20 52 -23.5 121 q-3.5 69 -0.5 125 q-102 -32 -202 -73 l-10 0 q-65 -1 -97 55 q158 32 312 76 q11 127 15 253 q-2 34 -14 61 q-12 27 -14 36 q0 6 2 11 l0 -1 q10 8 23 8 q12 0 21 -6 q70 -11 88 -77 q-55 -127 -57 -267 q46 15 161.5 54 q115.5 39 144.5 44 q40 2 85.5 -11 q45.5 -13 52.5 -59 Z" /><glyph glyph-name="uni4E07" unicode="&#x4e07;" d="M947 622 q-54 -7 -108 -7 q-51 3 -102 5 q-100 0 -201 -12 q18 -29 18 -64 q-5 -63 -47 -112 q13 -1 26 -1 q68 0 130 25 q91 -15 121 -101 q-40 -27 -65 -88.5 q-25 -61.5 -36 -106.5 q-24 -122 -130 -181 q-17 -7 -35 -11 q-25 4 -33 30 q-8 16 -33 58.5 q-25 42.5 -28 51.5 q2 8 11 7 q23 -2 45 -12 l-1 1 q34 -10 69 -13 q117 123 112 293 q-71 -2 -143 4 l1 0 l-30 14 q-53 -115 -165 -240 q-112 -125 -238 -153 q17 45 59 66 l0 -1 q269 198 314 528 q-39 -6 -153.5 -24.5 q-114.5 -18.5 -138.5 -27.5 q-18 5 -48.5 22.5 q-30.5 17.5 -33.5 33.5 q10 15 28 14 q86 8 171 14 q246 20 488 63 q28 7 55 7 q87 -1 121 -82 Z" /><glyph glyph-name="uni4E08" unicode="&#x4e08;" d="M457 766 q8 1 15 1 q102 2 100 -99 l1 0 q-13 -49 -18 -100 q63 15 126 20 q36 0 70 -19.5 q34 -19.5 36 -57.5 q-25 -9 -53 -7 q-70 3 -141 6 q-20 0 -41 -1 q-7 -167 -60 -326 q164 -137 375 -164 q33 -1 59 -19 q-15 -25 -82.5 -35 q-67.5 -10 -100.5 -10 q-36 -1 -70 5 q-42 14 -108.5 69.5 q-66.5 55.5 -100.5 89.5 q-49 -79 -135.5 -112 q-86.5 -33 -174.5 -40 q-5 -3 -11 -2 q-15 -1 -29 6 q12 19 34 21 q168 36 269 177 q-55 60 -117 113 q-66 19 -129 47 q20 25 51 25 q57 -4 115.5 -46 q58.5 -42 101.5 -79 q43 135 44 277 q-96 -7 -192 -25 q-46 -14 -90 -20 q-58 5 -78 61 q180 7 359 34 l0 23 q1 76 -28 146 q-5 9 -6 20 q0 10 4 18 l5 3 Z" /><glyph glyph-name="uni4E09" unicode="&#x4e09;" d="M947 97 q-37 -10 -76 -8 q-91 4 -183 7 q-179 -1 -356 -27 q-33 -5 -88.5 -17 q-55.5 -12 -80.5 -13 q-73 4 -102 71 q334 13 663 68 q41 9 82 10 q44 0 90.5 -21.5 q46.5 -21.5 50.5 -69.5 ZM742 611 q-76 -18 -183 -28 q-107 -10 -177 -16 q-18 -1 -61.5 11 q-43.5 12 -48.5 24 q12 12 31 13 q136 17 271 44 q30 10 62 13 q75 5 106 -61 ZM712 366 q-76 -19 -164.5 -27.5 q-88.5 -8.5 -163.5 -16.5 q-17 -1 -56 11 q-39 12 -44 24 q10 11 28 12 q125 15 246 44 q28 10 58 12 q70 3 96 -59 Z" /><glyph glyph-name="uni4E0A" unicode="&#x4e0a;" d="M411 752 q15 3 29 3 q46 -2 82 -32 q4 -15 4 -30 q-1 -43 -7.5 -103 q-6.5 -60 -9.5 -110 q37 7 111 27 q74 20 89 23 q57 -1 70 -57 q-54 -18 -120 -26 q-66 -8 -121 -15 q-16 0 -30 6 l0 -36 q5 -111 10 -221 q-1 -29 -5 -58 q57 8 139 23.5 q82 15.5 129 17.5 q44 0 88 -22 q44 -22 47 -69 q-35 -10 -72 -8 q-86 4 -173 7 q-170 -1 -338 -27 q-31 -5 -83.5 -17 q-52.5 -12 -76.5 -13 q-71 4 -98 70 q186 8 372 30 q7 134 6 267 q0 60 -1 120 q0 119 -40 231 q-3 8 -3 15 l2 4 Z" /><glyph glyph-name="uni4E0B" unicode="&#x4e0b;" d="M906 631 q-35 -11 -72 -9 q-82 4 -165 8 q-105 0 -210 -11 q35 -7 60 -31 q5 -20 4 -42 q-4 -59 -11 -119 q17 4 36 4 q54 0 127 -32.5 q73 -32.5 80 -93.5 l0 -7 q-6 -19 -27 -20 q-42 5 -116.5 50 q-74.5 45 -102.5 64 q-3 -69 -3 -139 q5 -114 9 -228 q2 -29 -4.5 -67.5 q-6.5 -38.5 -39.5 -42.5 q-34 31 -45 75 q25 129 25 261 l0 111 q1 122 -38 237 q-3 8 -3 15 q-73 -9 -145 -22 q-41 -12 -81 -17 q-69 4 -94 67 q308 12 611 65 q36 9 74 11 q41 0 84.5 -21 q43.5 -21 46.5 -66 Z" /><glyph glyph-name="uni4E0D" unicode="&#x4e0d;" d="M800 639 q-122 -16 -245 -14 q32 -15 36 -49 q-3 -29 -37 -69 q-34 -40 -57 -62 q17 -64 23.5 -208 q6.5 -144 6.5 -222 q-1 -65 -57 -96 q-43 25 -47 75 q1 15 4 29 q29 150 22 302 q1 23 -2 45 q-49 -60 -159.5 -142 q-110.5 -82 -183.5 -90 q-5 7 -6 16 q8 24 34 32 l-1 1 q172 105 294 266 q-17 21 -30 45 q15 10 32 11 q15 -1 29 -6 q43 53 46 120 q-106 -31 -216 -42 q-51 -2 -95 25 q-2 5 -2 10 q9 24 39 19 q208 14 410 66 q40 13 82 16 q70 8 83 -55 q0 -11 -3 -23 ZM602 376 q67 -9 177 -58 q110 -49 122 -113 q-3 -38 -32 -64 q-153 93 -273 225 l6 10 Z" /><glyph glyph-name="uni4E0E" unicode="&#x4e0e;" d="M304 787 q9 1 17 1 q74 -3 106 -70 q-1 -15 -9 -28 l2 0 q-42 -150 -60 -304 q171 20 338 51 q16 3 31 3 q84 -9 101 -90 q-60 -107 -59 -219.5 q1 -112.5 -142 -199.5 q-22 18 -60 64 q-38 46 -57 72 q11 8 23 8 q17 -1 30 -10 l-1 1 q33 -13 68 -20 q46 32 65.5 137 q19.5 105 18.5 164 q1 10 -2 20 q-28 9 -58 7 q-40 -1 -131.5 -10.5 q-91.5 -9.5 -128.5 -19.5 q-56 -21 -112 -44 q-25 19 -30 48 q1 14 11 24 q43 55 48 127 q13 71 15 144 q-1 25 -11.5 66.5 q-10.5 41.5 -12.5 77.5 ZM153 135 q-47 11 -84 42 l0 5 q5 26 33 24 q17 -2 34 -4 q168 2 331 44 q37 11 75 13 q16 0 52.5 -12 q36.5 -12 40.5 -30 q-13 -25 -45 -34 q-35 2 -70 3 q-186 -4 -367 -51 ZM394 558 q13 29 45 26 q58 9 121.5 35 q63.5 26 119.5 29 q46 -1 76 -36 q2 -7 2 -15 q-6 -28 -38 -25 q-22 -5 -44 -13 q-71 -18 -144 -19 q-70 0 -138 18 Z" /><glyph glyph-name="uni4E11" unicode="&#x4e11;" d="M941 59 q-33 -9 -70 -7 q-93 4 -187 7 q-179 0 -356 -25 q-35 -5 -86.5 -15.5 q-51.5 -10.5 -80.5 -11.5 q-71 1 -102 64 q150 5 299 17 q19 119 37 237 q-35 -3 -70 -3 q-9 -1 -36 1 q-27 2 -30 13 q6 25 58.5 31.5 q52.5 6.5 78.5 11.5 q3 67 10 140 q2 24 -6 47 q-16 -1 -63 0.5 q-47 1.5 -53 16.5 q10 18 29 29 q72 7 166 25 q94 18 160 49 q13 8 27 10 q36 -1 76 -25 q40 -24 55 -57 q-2 -13 -15 -17 q-32 -34 -42.5 -85 q-10.5 -51 -16.5 -96 l-50 -292 q63 15 127 17 q41 1 89 -17.5 q48 -18.5 52 -64.5 ZM426 95 q86 7 171 19 l-3 4 q46 235 55 473 q0 13 -1 26 q0 -1 -1 -1 q-72 -8 -143 -28 l-36 -6 q30 -15 35 -47 l-1 -8 q-10 -19 -16.5 -61 q-6.5 -42 -10.5 -69 q41 9 84 11 q40 0 62 -31 q-14 -26 -71 -33.5 q-57 -7.5 -90 -14.5 q-18 -114 -30 -228 l-4 -6 Z" /><glyph glyph-name="uni4E13" unicode="&#x4e13;" d="M553 767 q-13 -76 -39 -150 q55 19 113 22 q16 -1 50.5 -14 q34.5 -13 38.5 -26 q-11 -22 -97 -35.5 q-86 -13.5 -118 -15.5 l-21 -110 q129 27 263 35 q24 -2 58 -24 q34 -22 37 -46 q-2 -13 -24.5 -15 q-22.5 -2 -34.5 -1 q-71 4 -142 8 q-84 0 -168 -11 q-19 -55 -33 -114 q105 26 211 45 q62 -28 94 -88 q-4 -18 -21 -27 q-90 -62 -170 -137 l1 0 l-10 -10 q22 -17 46.5 -49 q24.5 -32 26.5 -59 q-4 -33 -35 -49 q-39 14 -63 48 q-76 88 -163 166 q-11 8 -14 22 q2 7 5 13 q35 -7 67 -24 l0 1 q51 -19 98 -49 q75 69 102 168 q-14 1 -29 1 q-72 0 -142 -19 l2 0 q-22 -28 -57 -33 q-37 8 -51 45 q23 18 42 66.5 q19 48.5 28 76.5 q-66 -33 -139 -34 q-69 1 -129 34 q-3 7 -4 14 q9 23 38 15 q124 1 246 22 q13 57 19 115 q-33 -10 -67 -10 q-21 0 -64.5 10.5 q-43.5 10.5 -48.5 32.5 q13 12 36 9 q76 2 151 16 q7 35 7 71 q-2 39 -13 78.5 q-11 39.5 -13 49.5 q1 6 3 11 q10 1 20 1 q63 -2 107 -46 Z" /><glyph glyph-name="uni4E14" unicode="&#x4e14;" d="M609 720 q97 -1 137 -88 q-48 -98 -56.5 -272 q-8.5 -174 -8.5 -260 l87 6 l12 8 l53 3 q17 -8 56 -31 q39 -23 44 -42 q-3 -12 -26 -14.5 q-23 -2.5 -33 -1.5 q-36 3 -73 8 q-81 7 -163 7 q-176 1 -349 -33 q-61 -17 -122 -24 q-21 1 -53.5 16.5 q-32.5 15.5 -35.5 35.5 q10 14 28 13 q109 8 218 15 q1 87 1 173 l0 118 q4 148 -32 290 q-3 10 -3 19 q0 18 18 18 q40 -4 78 -22 q109 19 213 55 q5 2 10 3 ZM392 460 q80 22 159 30 q26 2 30 -23 q0 -14 -7 -27 q-63 -28 -133 -28 q-24 0 -49 4 l0 -127 q26 4 63.5 15 q37.5 11 56.5 12 q13 1 38.5 -2.5 q25.5 -3.5 28.5 -20.5 q-5 -20 -22 -34 q-49 -16 -102 -16 q-31 0 -63 6 l0 -177 q107 14 215 19 q18 232 17 463 q0 45 -11 89 q-15 5 -32 4 q-95 -3 -189 -28 l0 -159 Z" /><glyph glyph-name="uni4E16" unicode="&#x4e16;" d="M702 450 q90 27 183 31 q64 -8 78 -71 q-40 -13 -129 -13 q-89 0 -142 0 q-9 -63 -19 -126 l18 -13 l-1 0 q20 -10 21 -31 l-1 -7 q-119 1 -230 -44 q-51 5 -46 58 q20 42 20 89 q0 23 -4 45 q-65 -10 -130 -18 q11 -144 3 -289 q189 21 376 50 q12 2 23 2 q34 1 73.5 -11 q39.5 -12 42.5 -50 l-1 -11 q-8 -4 -18 -4 q-41 3 -84 6 q-96 0 -226 -15 q-130 -15 -216 -46 q-7 -7 -18 -7 q-39 12 -46 55 q2 9 17.5 36 q15.5 27 17.5 85 q-2 95 -10 190 q-28 -8 -74 -20 q-46 -12 -73 -13 q-57 5 -75 58 q45 16 112 22.5 q67 6.5 110 9.5 q-2 76 -37 142 q-10 11 -12 27 q0 7 2 13 q9 7 21 7 q28 -1 61.5 -19.5 q33.5 -18.5 36.5 -49.5 q-2 -58 -8 -117 q65 8 128 21 l0 11 q0 104 -25 204 l0 -1 q-8 16 -11 34 q1 17 18 16 q27 -1 58 -19.5 q31 -18.5 34 -48.5 q-3 -30 -9 -62 q-7 -64 -7 -129 q71 5 142 13 q16 78 16 157 q-2 52 -17 82.5 q-15 30.5 -17 51.5 l-1 -1 q5 17 21 18 q7 -1 13 -3 q29 3 54 -18 q25 -21 27 -50 q-1 -22 -11 -57.5 q-10 -35.5 -15 -61.5 q-10 -53 -14 -108 ZM638 392 q-65 -9 -130 -13 q3 -28 3 -56 q0 -37 -5 -74 q58 0 112 18 l20 125 Z" /><glyph glyph-name="uni4E18" unicode="&#x4e18;" d="M480 768 q10 1 19 1 q82 0 142 -57 q-51 -51 -117 -83 l0 1 q-88 -69 -183 -127 q22 -46 17 -97 q63 18 183.5 48.5 q120.5 30.5 177.5 33.5 q14 0 40 -7 q26 -7 29 -22 q-9 -32 -87.5 -48.5 q-78.5 -16.5 -114.5 -20.5 q32 -18 51 -50 q-22 -105 -33 -212 q74 10 148 23 l-1 0 q42 15 87 13 q10 1 19 -2 l-2 0 q24 -6 61.5 -27.5 q37.5 -21.5 41.5 -46.5 q-3 -16 -28 -20.5 q-25 -4.5 -38 -4.5 q-94 7 -189 13 q-284 -11 -563 -71 l-4 0 q-20 1 -55 15 q-35 14 -39 34 q9 16 29 19 q47 9 115 12.5 q68 3.5 119 6.5 q2 33 2 65 q0 78 -14.5 172 q-14.5 94 -45.5 165 q-5 7 -6 17 q1 6 3 12 q16 10 34 11 q17 -1 32 -9 q48 36 103.5 97 q55.5 61 60.5 121 q-2 5 -3 10 q2 9 9 15 ZM528 380 q-82 -13 -166 -18 l0 -261 q91 8 181 18 q6 74 4 148 q4 60 -19 113 Z" /><glyph glyph-name="uni4E1A" unicode="&#x4e1a;" d="M510 762 q15 5 31 5 q60 -7 95 -60 l1 -6 q-1 -9 -3 -18 q-21 -104 -25 -212 q-9 -98 -12 -196 q38 36 69 79 l-1 0 q51 57 61 130 q-3 24 13 41 q68 1 99 -57 q6 -10 9 -20 q-13 -16 -114 -105 q-101 -89 -136 -114 l-5 -127 q122 26 247 30 q29 -1 65 -18.5 q36 -17.5 54 -42.5 q2 -8 2 -16 q-2 -30 -33 -28 q-13 1 -27 4 q-117 22 -235 20 q-244 -3 -483 -51 l1 0 q-24 -8 -48 -10 q-24 1 -52.5 16.5 q-28.5 15.5 -38.5 37.5 q3 14 27 14.5 q24 0.5 36 -0.5 q130 4 259 22 q2 47 2 93 q4 173 -14 344 q-10 63 -45 115 q-11 10 -14 25 q1 11 9 18 q15 5 29 5 q60 -5 101 -50 l0 -18 q-2 -24 -8 -49 q-4 -58 -4 -115 q4 -183 8 -366 l99 13 q7 233 14 465 q3 86 -35 163 q-5 11 -6 21 q0 11 8 18 ZM172 426 q51 -3 94 -47 q43 -44 46 -94 q-2 -40 -35 -63 q-42 22 -71.5 86.5 q-29.5 64.5 -41.5 108.5 l8 9 Z" /><glyph glyph-name="uni4E1B" unicode="&#x4e1b;" d="M646 503 q90 -220 300 -331 q16 -7 30 -18 q-2 -17 -20 -17 q-91 0 -180 17 q-34 34 -78.5 132 q-44.5 98 -67.5 153 q-56 -232 -276 -327 q-9 -4 -18 -4 q-10 0 -19 5 q70 53 130 117 q70 72 109.5 190.5 q39.5 118.5 40.5 216.5 q-11 80 -22 120 q1 8 3 14 q12 11 29 10 q76 0 90 -68 q-2 -24 -22.5 -101 q-20.5 -77 -28.5 -109 ZM312 725 q71 -11 76 -82 q-17 -28 -35 -93.5 q-18 -65.5 -36 -107.5 q146 -31 147 -177 q-8 -7 -19 -7 q-31 6 -70.5 62 q-39.5 56 -64.5 87 l-2 5 q-53 -148 -190 -222 q-15 -10 -34 -12 q-6 0 -13 2 q11 24 34 38 l-1 0 q71 69 127.5 172 q56.5 103 59.5 203 q-9 68 -19 109 q7 29 40 23 ZM882 43 q-30 -7 -62 -6 q-83 3 -167 6 q-159 0 -316 -22 q-32 -5 -76.5 -14.5 q-44.5 -9.5 -72.5 -10.5 q-64 1 -91 58 q296 8 587 55 q36 8 72 9 q37 0 79.5 -17 q42.5 -17 46.5 -58 Z" /><glyph glyph-name="uni4E1C" unicode="&#x4e1c;" d="M477 609 q116 39 234 49 q63 1 107 -41 l0 -6 q-6 -35 -45 -32 q-165 -4 -328 -34 l-134 -223 l179 24 l0 8 q0 62 -21 121 l-7 13 l3 8 q17 6 33 6 q44 -2 72 -36 q-5 -55 -13 -110 q50 24 106 26 q66 0 120 -40 q-6 -28 -22.5 -30 q-16.5 -2 -37.5 -2 l-165 -12 q10 -114 9 -228 q8 -105 -70 -170 q-60 43 -107 99 q-17 10 -26 28 q4 5 10 5 q27 -1 54 -9 l-1 0 q27 -5 53 -5 q12 23 14 62.5 q2 39.5 1 65.5 q1 74 -3 147 q-124 -12 -240 -61 q-13 -6 -27 -7 q-29 33 -28 77 q38 27 70 60 q61 79 103 170 q-57 -10 -116 -12 q-41 5 -78 25 q-2 5 -2 9 q9 18 32 15 q97 10 194 25 q39 77 43 162 q-2 18 -5 36 q0 15 4 29 q10 1 20 1 q66 -2 103 -58 l0 -2 q-4 -25 -36.5 -74.5 q-32.5 -49.5 -51.5 -78.5 ZM664 189 q-1 22 20 24 q30 -3 81 -33.5 q51 -30.5 82 -50.5 q21 -32 27 -69 q0 -13 -4.5 -34.5 q-4.5 -21.5 -19.5 -23.5 q-34 8 -97.5 79 q-63.5 71 -88.5 104 l0 4 ZM316 203 q14 -3 12 -18 q-2 -48 -42 -117.5 q-40 -69.5 -88 -76.5 q-18 1 -31 15 q-2 10 -2 20 q2 44 36 71 q51 41 89 94 l3 3 q10 8 23 9 Z" /><glyph glyph-name="uni4E1D" unicode="&#x4e1d;" d="M641 766 q65 -11 93 -71 q-16 -36 -46 -62 l0 1 q-58 -86 -118 -170 l117 0 q31 58 57 118 q57 -18 73 -75 q-102 -124 -231 -223 q87 10 173 12 q25 1 43 -16 q-51 -27 -109 -34 l1 0 q-88 -25 -175 -52 q-20 34 -20 73 q0 10 1 19 q100 47 158 141 l-154 -32 q-19 18 -21 43 q3 24 22 38 q85 82 118 196 q-1 10 -1 20 q-2 40 19 74 ZM297 759 q63 -11 87 -71 q-15 -36 -43 -62 l0 1 q-54 -87 -111 -171 l110 0 q29 59 54 119 q54 -19 68 -76 q-95 -123 -217 -223 q81 10 162 12 q24 1 41 -16 q-47 -27 -102 -34 l1 0 q-82 -26 -165 -53 q-18 35 -18 73 q0 10 1 20 q95 48 149 141 l-146 -32 q-18 18 -20 43 q2 23 20 38 l0 -1 q81 85 112 198 q-1 11 -1 22 q-2 39 18 72 ZM916 70 q-36 -10 -74 -8 q-89 4 -179 7 q-176 -1 -349 -24 q-34 -5 -85.5 -15.5 q-51.5 -10.5 -79.5 -11.5 q-69 0 -100 62 q327 10 649 61 q39 8 80 10 q39 0 86.5 -18.5 q47.5 -18.5 51.5 -62.5 ZM449 273 l0 -1 l-1 0 l1 1 ZM803 281 l0 -1 l-1 0 l1 1 Z" /><glyph glyph-name="uni4E1E" unicode="&#x4e1e;" d="M707 702 q-9 -22 -31 -31 q-105 -59 -190 -147 q25 -40 25 -88 q20 -20 44 -35 l101 94 q17 38 30 77 q25 -3 65.5 -22 q40.5 -19 44.5 -45 q-8 -23 -34 -28 l1 1 q-93 -47 -184 -98 q74 -66 169 -117.5 q95 -51.5 193 -72.5 q22 -1 37 -17 l0 -1 q-8 -25 -73 -34 q-65 -9 -95 -8 q-55 11 -154 109.5 q-99 98.5 -143 149.5 q10 -46 10 -94 q-1 -122 -72 -221 q-61 36 -93 101 l1 0 q-14 9 -20 24 q4 5 11 5 q43 -4 86 -8 q19 70 19 142 q8 115 -61 204 q16 16 37 16 q19 -1 34 -11 q68 75 118 164 q-50 -12 -137.5 -42 q-87.5 -30 -111.5 -34 q-23 1 -59 18.5 q-36 17.5 -40 40.5 q10 17 33 16 q119 0 234 31 q45 22 90 31 q74 -8 115 -70 ZM417 421 q-91 -100 -155.5 -185.5 q-64.5 -85.5 -196.5 -140.5 q-7 -3 -16 -4 q-9 0 -16 8 q9 18 26 26 q160 108 240 284 q-76 -34 -154 -64 q-17 1 -46.5 12.5 q-29.5 11.5 -32.5 28.5 q11 18 34 21 q90 11 173 38 q27 18 56 35 q55 -13 88 -59 ZM794 -12 q-24 -8 -50 -6 q-69 3 -139 6 q-132 0 -263 -22 q-25 -5 -63.5 -15.5 q-38.5 -10.5 -59.5 -11.5 q-57 4 -76 60 q246 10 487 58 q29 8 60 9 q37 0 69.5 -20 q32.5 -20 34.5 -58 Z" /><glyph glyph-name="uni4E24" unicode="&#x4e24;" d="M808 683 q-30 -17 -98 -28 q-68 -11 -108 -16 q36 -15 43 -51 l0 1 q-23 -48 -25 -101 q74 23 147 33 q34 -1 81.5 -23 q47.5 -22 52.5 -57 l-1 -8 q-64 -88 -64 -197 q4 -48 7 -94 q0 -136 -110 -216 q-25 3 -37 27 q-12 15 -40 47.5 q-28 32.5 -31 44.5 q5 13 20 10 q18 0 36 -4 l-2 0 q10 -3 19 -3 q61 15 72.5 143 q11.5 128 8.5 190 q2 40 -6 55 q-8 15 -52 14 q-55 0 -111 -7 q-5 -64 -25 -125 q46 -11 87 -37.5 q41 -26.5 44 -78.5 q3 -26 -20 -32 q-27 4 -66 45.5 q-39 41.5 -58 66.5 q-20 -48 -69 -109 q-49 -61 -101 -67 q6 40 35 68 q96 115 113 262 q-72 -13 -145 -21 q-9 -53 -25 -104 q43 -5 79 -27 q9 -18 9 -37 q3 -28 -18 -39 q-23 8 -39 29 l0 -1 q-19 23 -42 41 q-24 -66 -76 -115 l2 0 q-25 -27 -61 -38 q4 35 27 61 q30 44 50.5 106.5 q20.5 62.5 28.5 115.5 q-65 -15 -131 -13 q8 -134 9 -269 q1 -29 -5 -78.5 q-6 -49.5 -33 -65.5 q-40 47 -42 108 q0 12 2 24 q14 74 13 149 q1 75 -26 144 q-14 9 -17 26 q1 12 13 16 q44 0 85 -15 l11 0 q64 0 127 15 q2 20 2 39 q0 58 -15 112 q-12 -2 -25 -2 q-27 -1 -76 6 q-49 7 -64 29 q13 12 33 14 q203 30 405 70 q63 16 128 19 q57 1 74 -52 ZM542 630 q-77 -1 -152 -18 q35 -14 38 -50 q-19 -51 -18 -106 q71 10 142 22 q4 28 4 56 q1 49 -14 96 Z" /><glyph glyph-name="uni4E25" unicode="&#x4e25;" d="M593 692 q30 -16 39 -48 q-18 -111 -17 -224 q90 22 179 30 q68 2 84 -62 q-55 -19 -113 -15 q-225 0 -448 -33 q9 -266 -206 -421 q-28 -19 -62 -20 q7 33 36 50 q64 53 108.5 156.5 q44.5 103.5 46.5 185.5 q0 40 -12 78 l0 -1 q-7 11 -8 24 q2 13 16 12 q36 -2 70 -17 l120 12 q3 32 3 63 q1 45 -4 103.5 q-5 58.5 -24 98.5 q-44 -11 -89 -16 q-15 5 -37.5 17.5 q-22.5 12.5 -31.5 24.5 q12 13 31 12 q193 10 379 58 q37 14 75 18 q21 -1 49 -15.5 q28 -14.5 38 -33.5 q-11 -20 -98 -27 q-87 -7 -124 -10 ZM542 683 q-42 -7 -85 -9 q31 -14 29 -48 q-5 -77 -10 -156 q0 -34 2 -68 q41 1 80 11 q4 76 3 151 q3 63 -19 119 ZM635 473 q4 25 39.5 53 q35.5 28 53.5 88 l-1 11 q0 11 6 21 q7 2 13 2 q23 0 49 -14.5 q26 -14.5 28 -38.5 q-1 -10 -5 -21 q-14 -10 -82.5 -55 q-68.5 -45 -99.5 -55 l-1 9 ZM388 486 q2 -33 -26 -42 q-28 4 -61.5 45.5 q-33.5 41.5 -36.5 66.5 q3 15 19 13 q30 -1 66 -25.5 q36 -24.5 39 -57.5 Z" /><glyph glyph-name="uni4E27" unicode="&#x4e27;" d="M420 823 q9 2 17 2 q51 -7 89 -45 q-10 -59 -20 -122 q14 3 51.5 16 q37.5 13 81.5 15 q35 3 56 -22 q-8 -33 -80.5 -48 q-72.5 -15 -108.5 -18 l-14 -230 q82 13 163 26 q51 12 104 16 q19 0 52.5 -11.5 q33.5 -11.5 37.5 -32.5 q-4 -16 -36 -18.5 q-32 -2.5 -46 -1.5 q-170 -9 -339 -34 q32 -26 63 -53 q31 -35 67 -65 q30 21 69 57 q39 36 50 72 q0 12 12 12 q21 -1 46 -17.5 q25 -16.5 27 -39.5 q-9 -15 -82.5 -54 q-73.5 -39 -100.5 -53 q77 -72 146 -99 q69 -27 171 -43 q31 -6 58 -25 q-3 -12 -25.5 -14.5 q-22.5 -2.5 -32.5 -1.5 q-78 -3 -157 -6 q-71 14 -181 136 q-110 122 -176 187 l-54 -8 q34 -25 24 -69 q-2 -31 -8 -64 q-5 -66 -8 -132 q20 16 86.5 58.5 q66.5 42.5 88.5 47.5 q3 0 6 -2 l1 -3 q-2 -12 -17.5 -28.5 q-15.5 -16.5 -24.5 -24.5 q-81 -70 -148 -152 q-13 -20 -35 -27 q-18 2 -38.5 26 q-20.5 24 -22.5 42 q1 12 13 16 l-2 -3 q30 31 34 101 q4 70 2 115 q3 47 -5 93 q-65 -16 -128 -24 q-52 0 -81 38 q13 15 36 14 q169 10 335 40 q2 116 5 231 q-51 -17 -105 -20 q-15 0 -42.5 7 q-27.5 7 -34.5 21 q10 14 81.5 26.5 q71.5 12.5 100.5 16.5 l0 19 q-2 48 -16 91.5 q-14 43.5 -16 51.5 q2 11 11 17 ZM600 590 q57 1 84 -50 q-17 -24 -73.5 -71 q-56.5 -47 -84.5 -57 q-2 5 -2 10 q3 14 26 49.5 q23 35.5 34 54.5 q3 32 11 63 l5 1 ZM322 406 q-20 6 -43.5 55 q-23.5 49 -25.5 74 q-1 11 9 12 q21 -3 54 -32 q33 -29 36 -53 q4 -41 -30 -56 Z" /><glyph glyph-name="uni4E2A" unicode="&#x4e2a;" d="M434 781 q69 -5 98 -70 q-18 -19 -31 -42 q141 -141 325 -210 q44 -14 88 -27 q25 -6 37 -26 q-9 -18 -29 -22 l1 0 q-60 -17 -122 -17 q-34 0 -69 5 l1 -1 q-47 31 -130 120 q-83 89 -127 140 q-109 -225 -325 -352 l0 2 q-24 -17 -55 -19 l0 3 q1 29 26 41 q110 85 194 196 q101 114 108 262 q0 10 7 17 l3 0 ZM440 463 q14 3 28 3 q43 -1 76 -27 q5 -12 5 -26 q-1 -10 -3 -21 q-17 -111 -14 -224 q5 -95 9 -188 q1 -27 -6 -57 q-7 -30 -38 -32 q-32 24 -44 61 q25 105 25 212 l0 86 q0 103 -37 199 q-1 6 -3 11 l2 3 Z" /><glyph glyph-name="uni4E2D" unicode="&#x4e2d;" d="M533 552 q103 6 199 38 q87 -9 127 -86 q-67 -60 -111 -139 q21 -8 23 -30 q-1 -6 -3 -13 q-26 -8 -110 -10 q-84 -2 -125 -4 q4 -66 4 -132 q1 -44 -8.5 -163 q-9.5 -119 -47.5 -134 l-5 1 q-12 37 -14 93.5 q-2 56.5 -1 95.5 q0 116 5 231 l-165 -10 l1 -11 q-1 -28 -29 -30 q-30 20 -31 56 q-7 103 -49 198 q-15 17 -13 39 q15 12 35 12 q24 -1 44 -15 l202 4 q1 17 1 34 q-1 91 -33 177 q-12 13 -13 30 l1 9 q13 13 32 12 q32 0 67.5 -18.5 q35.5 -18.5 38.5 -53.5 q-4 -24 -13 -50 q-9 -49 -10 -100 q0 -15 1 -31 ZM533 352 q79 1 157 21 l0 -1 q31 51 31 110 q0 21 -4 42 q-92 -5 -184 -13 l0 -159 ZM461 499 l-188 -5 q14 -81 24 -163 l164 13 l0 155 Z" /><glyph glyph-name="uni4E30" unicode="&#x4e30;" d="M433 783 q14 4 28 4 q48 -3 78 -43 q5 -21 5 -42 q-4 -59 -9 -118 q49 14 97 18 q80 7 124 -56 q-112 -17 -225 -26 l-2 -78 q32 12 65 15 q67 4 95 -56 q-80 -17 -162 -24 l0 -21 l0 -81 q63 8 134 20 q71 12 132 13 q38 1 86.5 -16.5 q48.5 -17.5 52.5 -60.5 q-37 -9 -76 -7 q-89 4 -179 7 q-75 0 -150 -5 q6 -104 9 -209 q2 -32 -4.5 -87 q-6.5 -55 -40.5 -61 q-14 17 -28.5 46.5 q-14.5 29.5 -15.5 51.5 q3 40 11 82 q10 86 13 173 q-106 -8 -212 -23 q-51 -11 -100 -16 q-70 0 -102 59 q209 6 416 27 l0 101 q-49 -9 -100 -11 q-20 0 -52 9.5 q-32 9.5 -45 23.5 q11 12 27 13 q85 12 170 24 l0 12 q0 37 -2 74 q-62 -9 -126 -11 q-24 0 -65.5 9 q-41.5 9 -59.5 24 q15 12 36 13 q104 11 210 23 q-5 40 -19 111 q-14 71 -16 94 l2 5 Z" /><glyph glyph-name="uni4E32" unicode="&#x4e32;" d="M431 797 q67 1 112 -48 q-6 -56 -15 -113 q78 27 159 34 q23 -2 60 -27.5 q37 -25.5 41 -47.5 q-1 -10 -9 -16 q-39 -26 -71 -63 q20 -10 26 -30 q-5 -20 -29 -18 q-89 -2 -177 -17 l0 -75 q93 7 185 28 l-1 0 q7 3 14 3 q27 -2 67.5 -28 q40.5 -26 44.5 -51 q0 -10 -10 -16 q-48 -34 -79 -83 q16 -14 19 -34 q-12 -17 -34 -19 q-82 -8 -165 -15 q-19 -3 -38 -3 q2 -39 -5 -164.5 q-7 -125.5 -42 -141.5 q-13 5 -16.5 47 q-3.5 42 -3.5 56 l0 198 l-126 -16 q2 -9 2 -18 q2 -25 -21 -33 q-24 10 -31 37 l0 -1 q-18 26 -29 58 l1 0 q-25 70 -63 133 q-6 9 -7 19 q5 16 23 14 q35 -6 65 -13 q27 1 90.5 10.5 q63.5 9.5 95.5 15.5 l0 81 l-109 -19 q0 -24 -21 -31 q-30 6 -41 35 q-20 82 -68 152 q-5 5 -8 12 q2 11 21 13 q19 2 28 2 q100 3 198 23 q-5 42 -24 90.5 q-19 48.5 -21 64.5 q0 13 12 15 ZM716 337 q-8 16 -29 13 q-80 -2 -159 -19 l0 -128 q76 14 154 27 q28 51 34 107 ZM464 321 q-90 -15 -178 -34 l35 -103 l143 18 l0 119 ZM464 585 q-73 -13 -148 -21 q14 -50 27 -101 q61 10 121 19 l0 103 ZM643 610 q-59 -4 -115 -20 l0 -96 q54 11 108 19 q21 35 26 76 q0 20 -19 21 Z" /><glyph glyph-name="uni4E34" unicode="&#x4e34;" d="M843 97 q30 -10 32 -42 q-5 -29 -35 -25 q-165 -2 -331 -11 q3 -32 -21 -51 q-27 19 -51.5 119 q-24.5 100 -35.5 146 l1 -1 q-13 20 -14 44 q20 8 41 8 q27 -4 50 -9 q155 2 303 46 q20 6 39 6 q75 -6 117 -70 l-95 -160 ZM235 760 q15 5 30 5 q49 -3 79 -41 q6 -18 6 -38 q0 -17 -4 -33 q-20 -173 -14 -348 q4 -140 8 -280 q1 -28 -5 -79.5 q-6 -51.5 -35 -57.5 l-6 1 q-35 40 -46 93 q27 163 27 328 l0 130 q0 151 -39 298 q-3 9 -3 17 l2 5 ZM563 739 q-3 8 -3 17 q1 22 23 21 q25 0 60 -16 q35 -16 38 -44 l-1 -8 q-56 -66 -93 -145 q49 16 122 40.5 q73 24.5 127 26.5 q51 3 63 -46 q-160 -66 -333 -58 q-30 -40 -87 -106.5 q-57 -66.5 -100 -75.5 l-1 9 q1 30 25 50 q128 145 160 335 ZM79 583 q14 3 28 3 q41 -1 74 -23 q5 -13 4 -26 q1 -6 -2 -11 q-14 -90 -14 -180 q5 -76 9 -153 q1 -21 -5.5 -46 q-6.5 -25 -30.5 -27 l-7 1 q-30 17 -44 49 q27 88 26 178 l0 63 q-1 58 -12.5 89.5 q-11.5 31.5 -27.5 79.5 l2 3 ZM507 70 q50 2 99 7 l-1 4 q2 54 12 108 l-12 52 l-63 -7 l2 0 q-30 -6 -61 -10 q14 -77 24 -154 ZM791 254 q-9 1 -18 1 q-48 -1 -96 -6 q5 -9 9 -20 q-12 -72 -17 -146 q53 7 104 16 q19 57 20 117 q0 19 -2 38 ZM604 468 q39 1 88 -17 q49 -18 53 -62 q-2 -44 -41 -57 q-23 5 -69 51.5 q-46 46.5 -51 74.5 q4 13 20 10 Z" /><glyph glyph-name="uni4E38" unicode="&#x4e38;" d="M448 503 q75 23 140 66 l10 0 q78 2 98 -72 q-55 -49 -89 -140.5 q-34 -91.5 -35 -164.5 q0 -125 124 -122 q152 8 167.5 76 q15.5 68 45.5 101 q26 -30 18 -70 q10 -37 10 -75 q0 -32 -8 -62 q-41 -33 -99.5 -43 q-58.5 -10 -110.5 -9 q-84 -2 -142.5 31 q-58.5 33 -60.5 126 q1 143 35 282 q9 27 12 54 l-3 6 q-62 -28 -128 -43 q-12 -75 -42 -145 q72 -21 80 -92 q-4 -16 -22 -17 q-49 12 -91 45 q-39 -66 -122 -143 q-83 -77 -160 -84 q-6 0 -12 2 q12 28 38 43 q127 86 199 220 l-23 16 l1 -1 q-15 5 -22 18 q3 11 28 12.5 q25 1.5 37 -1.5 q22 51 35 105 q-28 -11 -89 -34.5 q-61 -23.5 -83 -26.5 q-72 -4 -90 62 q17 7 35 6 q125 6 241 53 q19 65 19 132 q1 59 -15 113 q-5 8 -6 19 q1 12 8 23 l8 0 q87 2 116 -74 q-39 -92 -52 -192 Z" /><glyph glyph-name="uni4E39" unicode="&#x4e39;" d="M947 359 q-37 -11 -77 -9 q-101 6 -201 8 q-1 -116 8 -232 l0 1 q5 -30 5 -60 q0 -14 -1 -29 l0 1 q-12 -72 -70 -117 q-54 58 -106 120 q-19 9 -28 29 q17 5 33 5 q39 -1 77 -16 q17 45 18 143 q1 98 0 153 q-108 -4 -216 -18 q-14 -130 -61 -214 q-47 -84 -154 -160 q-20 -18 -47 -17 l-1 8 q2 22 21 34 q152 137 174 339 q-30 -5 -82.5 -17 q-52.5 -12 -75.5 -13 q-75 4 -103 73 q134 5 267 17 q1 24 1 47 q0 124 -36 242 l0 -1 q-6 7 -6 16 l1 8 q20 3 40 3 q37 -3 72 -6 q52 4 124 28.5 q72 24.5 84 28.5 q28 -2 57.5 -23.5 q29.5 -21.5 44.5 -44.5 q-33 -45 -37.5 -121 q-4.5 -76 -2.5 -133 q68 17 137 21 q46 0 91.5 -22.5 q45.5 -22.5 49.5 -71.5 ZM389 657 q12 -131 5 -262 q106 11 211 27 q1 58 2 115 q3 49 -4 95 q-7 46 -62 49 q-77 -3 -152 -24 ZM442 586 q91 3 103 -82 q0 -9 -2 -19 q-9 -9 -21 -9 q-27 3 -67 34.5 q-40 31.5 -44 56.5 q7 21 31 19 Z" /><glyph glyph-name="uni4E3A" unicode="&#x4e3a;" d="M567 780 q75 -11 80 -84 q-51 -109 -91 -221 l-2 -3 q40 9 113 30 q73 21 96 24 q85 -7 113 -86 q-77 -118 -74 -269 q3 -151 -130 -237 q-13 -7 -27 -8 q-34 6 -47 40 l1 -1 q-39 55 -74 112 q65 -20 131 -30 l-1 0 q43 53 69 145.5 q26 92.5 27 159.5 q0 23 -10.5 56 q-10.5 33 -37.5 36 q-84 -3 -166 -22 q-119 -297 -407 -441 q-24 -12 -52 -11 q-6 0 -12 2 q15 32 49 40 l-1 0 q231 147 341 397 q-109 -16 -214 -51 q-20 4 -55 22 q-35 18 -39 36 q2 10 23.5 11 q21.5 1 32.5 0 q137 0 271 31 q24 49 44 113 q20 64 21 118 q-4 44 -9 89 q9 7 20 7 q9 0 17 -4 l0 -1 ZM397 561 q1 -18 -5.5 -40 q-6.5 -22 -28.5 -24 q-24 7 -63 66 q-39 59 -43 83 q3 15 20 14 q44 0 81 -26.5 q37 -26.5 39 -72.5 ZM513 324 q40 -1 72 -26.5 q32 -25.5 34 -66.5 q-1 -25 -9 -49 q-7 -6 -18 -7 q-30 5 -61.5 54 q-31.5 49 -34.5 78 q0 17 17 17 Z" /><glyph glyph-name="uni4E3B" unicode="&#x4e3b;" d="M737 518 q-107 -34 -219 -45 l30 -31 q-9 -22 -12 -59 q-3 -37 -4 -62 q49 15 100 16 q19 1 42.5 -6.5 q23.5 -7.5 25.5 -29.5 q0 -15 -10 -29 l-161 -28 l-8 -173 q135 25 272 31 q35 1 93.5 -14 q58.5 -15 64.5 -57 q-2 -16 -24 -21 q-22 -5 -36 -5 q-119 9 -240 18 q-256 -1 -507 -57 q-17 4 -52 21.5 q-35 17.5 -39 32.5 q14 14 37 11 q182 4 361 34 l4 168 q-44 -13 -89 -14 q-59 0 -113 25 l-1 4 q10 19 91 34 q81 15 118 17 q1 14 1 28 q0 68 -19 134 q-37 -11 -75 -11 q-23 0 -79.5 9.5 q-56.5 9.5 -63.5 26.5 q3 8 24 12 q21 4 28 5 q162 17 318 63 q34 13 69 16 q19 1 52 -4.5 q33 -5.5 37 -25.5 q-2 -20 -16 -34 ZM429 768 q48 2 102 -16 q54 -18 59 -74 q0 -11 -3 -22 q-15 -11 -34 -10 q-36 3 -99 37 q-63 34 -70 65 q13 24 45 20 Z" /><glyph glyph-name="uni4E3D" unicode="&#x4e3d;" d="M554 -12 q-50 23 -45 78 q14 139 28 277 q-2 50 -16 90.5 q-14 40.5 -16 55.5 q0 16 17 16 q13 0 25 -5 l-1 2 q17 -3 34 -3 q68 1 122 42 q10 1 20 1 q67 -3 104 -60 q-37 -67 -32 -145 q10 -148 19 -296 q-4 -79 -80 -99 q-19 11 -48.5 55 q-29.5 44 -36.5 67 q16 9 33 8 q21 -1 42 -8 q15 111 11 223 q1 34 -3.5 98.5 q-4.5 64.5 -25.5 91.5 l-8 0 q-59 0 -114 -21 l0 -125 q9 5 19 5 q36 0 72.5 -19.5 q36.5 -19.5 39.5 -58.5 q0 -29 -27 -35 q-27 2 -57.5 29 q-30.5 27 -47.5 50 q2 -59 -0.5 -164.5 q-2.5 -105.5 -27.5 -149.5 ZM226 282 q1 -43 -7.5 -156 q-8.5 -113 -43.5 -127 q-16 4 -27 36 q-11 32 -12 46 q2 20 9 39 q11 38 19.5 107.5 q8.5 69.5 8.5 109.5 q-2 45 -15 79 q-13 34 -15 42 q0 20 17 25 q28 -4 58 -8 q60 1 107 36 q11 2 22 2 q66 -2 89 -65 q-26 -56 -23 -120 q4 -84 8 -168 q1 -34 -10.5 -109.5 q-11.5 -75.5 -48.5 -84.5 q-14 4 -38.5 36.5 q-24.5 32.5 -39.5 48.5 q-16 15 -16 36 q39 3 77 0 q9 29 12 123.5 q3 94.5 3 137.5 q2 31 -3 65.5 q-5 34.5 -42 37.5 q-46 -3 -89 -21 q2 -56 1 -113 q39 2 70.5 -9 q31.5 -11 33.5 -56 q1 -23 -20 -28 q-20 2 -45.5 23 q-25.5 21 -39.5 35 ZM912 647 q-69 -15 -140 -10 q-301 -13 -597 -71 l-6 0 q-23 0 -69 13.5 q-46 13.5 -51 37.5 q14 17 36 15 q330 19 652 88 q31 9 64 10 q84 -2 111 -83 Z" /><glyph glyph-name="uni4E3E" unicode="&#x4e3e;" d="M603 814 q78 -1 109 -71 q-71 -85 -139 -175 q111 26 225 28 q43 -7 77 -36 q1 -5 1 -10 q-5 -26 -47 -26.5 q-42 -0.5 -64 1.5 q-102 0 -205 -10 q163 -166 383 -246 q23 -5 37 -26 q-9 -17 -58 -19.5 q-49 -2.5 -71 -1.5 q-37 0 -74 3 q-50 38 -143.5 145.5 q-93.5 107.5 -121.5 141.5 q-79 -7 -159 -17 q27 -8 29 -35 q-54 -90 -134.5 -171 q-80.5 -81 -173.5 -131 q-17 -9 -36 -9 q-6 0 -13 1 q3 25 26 35 q68 43 147 131 q79 88 94 167 q-66 -16 -132 -22 q-17 1 -51 14 q-34 13 -45 24 q16 14 41 15 q210 22 419 43 q70 105 71 231 q-2 5 -3 11 q1 11 11 15 ZM459 422 q19 -1 44 -15 q25 -14 27 -35 q-4 -26 -9 -55 q29 9 60 7 q35 0 52 -30 q-10 -16 -50.5 -24 q-40.5 -8 -58.5 -9 l-9 -4 l0 -68 q78 18 155 24 q31 1 59.5 -13 q28.5 -14 30.5 -48 q-29 -13 -116 -14.5 q-87 -1.5 -129 -1.5 q2 -39 -5 -137 q-7 -98 -42 -110 q-26 20 -26 79 q0 59 2 92 l0 67 q-73 -14 -147 -31 q-16 3 -48.5 13 q-32.5 10 -36.5 29 q2 11 12 17 q110 10 220 25 l0 71 q-18 -2 -36 -1 q-23 -1 -46 5.5 q-23 6.5 -25 33.5 q54 5 107 12 q3 45 -14 85 q-6 7 -7 17 q10 22 36 19 ZM386 782 q39 -8 76 -38.5 q37 -30.5 40 -71.5 q-4 -39 -36 -63 q-70 69 -86 164 l6 9 ZM227 716 l3 0 q43 -1 78.5 -31 q35.5 -30 37.5 -75 q-2 -34 -32 -51 q-74 57 -95 149 l8 8 Z" /><glyph glyph-name="uni4E43" unicode="&#x4e43;" d="M712 744 q81 4 114 -69 q-104 -97 -157 -228 q62 10 114 17 q85 0 97 -79 l-1 -12 q-51 -84 -72.5 -224 q-21.5 -140 -153.5 -210 q-25 3 -33 29 q-12 26 -42.5 72.5 q-30.5 46.5 -34.5 59.5 q0 7 7 7 q15 -1 26 -10 l-1 0 q41 -24 88 -30 q107 151 111 334 q-25 7 -51 7 q-54 0 -99 -31 q-35 13 -38 49 q0 12 4 22 q88 93 104 221 l-4 0 q-94 -9 -186 -41 q39 -13 43 -53 q0 -7 -2 -14 q-29 -38 -47 -83 q-109 -275 -372 -412 q-22 -14 -47 -15 q-9 0 -19 2 q22 27 51 44 q272 191 342 517 q-28 -10 -104 -38 q-76 -28 -91 -32 q-19 1 -42.5 16.5 q-23.5 15.5 -25.5 33.5 q5 17 23 21 q46 13 118.5 23 q72.5 10 125.5 20 q53 13 143 47.5 q90 34.5 112 38.5 Z" /><glyph glyph-name="uni4E45" unicode="&#x4e45;" d="M410 555 q80 2 143 51 q9 2 17 2 q23 -1 65 -18 q42 -17 47 -39 q0 -10 -10 -15 q-46 -32 -83.5 -89.5 q-37.5 -57.5 -59.5 -109.5 q146 -222 395 -316 q30 -8 53 -30 q-9 -28 -39 -27 q-56 -1 -113 -2 q-17 0 -50.5 1 q-33.5 1 -47.5 6 q-47 30 -119 147 q-72 117 -104 178 q-125 -226 -368 -312 q-22 -8 -45 -9 q-12 0 -25 3 q11 30 43 36 l-1 -1 q311 175 415 517 q-69 -23 -141 -13 q-33 -50 -102 -123 q-69 -73 -125 -80 q24 57 122.5 167.5 q98.5 110.5 111.5 282.5 q2 23 25 25 q24 -1 57.5 -22.5 q33.5 -21.5 36.5 -46.5 l-1 -7 l-97 -156 Z" /><glyph glyph-name="uni4E48" unicode="&#x4e48;" d="M688 596 q42 -12 50 -52 q0 -14 -8 -27 q-10 -13 -38.5 -41.5 q-28.5 -28.5 -46.5 -48.5 q-148 -170 -317 -320 q172 23 343 54 q-11 20 -26 35 l1 0 q-12 14 -31 40 q-19 26 -23 41 l6 6 q38 -6 103.5 -52.5 q65.5 -46.5 92.5 -78.5 q34 -43 38 -99 q3 -35 -24 -50 q-28 5 -61.5 48.5 q-33.5 43.5 -47.5 66.5 q-225 -37 -440 -115 q-8 -3 -16 -3 q-50 14 -53 70 q0 19 14 31 q62 40 123 83 q93 73 177 177 q84 104 128 215 q2 25 26 28 q15 -1 29 -8 l1 0 ZM472 726 q54 -28 59 -87 q-43 -33 -76 -77 l1 0 q-43 -59 -142.5 -157 q-99.5 -98 -166.5 -111 l-5 4 q13 24 34 42 l-1 0 q166 148 250 353 q-2 6 -2 12 q1 25 26 28 q11 0 21 -7 l2 0 Z" /><glyph glyph-name="uni4E49" unicode="&#x4e49;" d="M557 724 q87 1 126 -77 q-2 -7 -7 -12 q-44 -75 -64 -160 q-32 -126 -93 -240 q152 -179 385 -208 q28 0 49 -21 q-19 -21 -89 -27.5 q-70 -6.5 -103 -5.5 q-32 0 -65 3 q-46 26 -112 93 q-66 67 -107 111 q-61 -66 -159.5 -123.5 q-98.5 -57.5 -189.5 -61.5 q-19 0 -39 6 q22 31 61 35 q81 24 156 78.5 q75 54.5 127 119.5 l-18 24 l0 -1 l-83 100 l0 -1 q-62 76 -149 118 q-22 2 -27 24 q25 10 52 11 q70 -7 143.5 -83.5 q73.5 -76.5 118.5 -134.5 q35 66 62.5 163 q27.5 97 29.5 170 q1 46 -14 88 l4 10 l5 2 ZM324 651 l5 0 q41 0 87.5 -23.5 q46.5 -23.5 50.5 -70.5 q-4 -33 -36 -46 q-78 46 -112 131 l5 9 Z" /><glyph glyph-name="uni4E4B" unicode="&#x4e4b;" d="M268 191 q134 -39 265 -79.5 q131 -40.5 272 -43.5 q63 3 125 6 q22 2 43 -6 q-13 -41 -113.5 -67.5 q-100.5 -26.5 -147.5 -30.5 q-101 36 -261.5 104.5 q-160.5 68.5 -246.5 76.5 q-48 -4 -97 -20 q-46 16 -66 60 q20 15 77.5 16.5 q57.5 1.5 88.5 0.5 q223 123 385 316 q-26 -10 -172 -63.5 q-146 -53.5 -193 -61.5 q-48 4 -88 32 q-4 8 -4 15 q8 24 35 22 q225 24 433 113 l-1 0 q30 10 61 10 q72 0 93 -69 q-59 -37 -118 -75 q-58 -43 -114 -90 q-123 -92 -256 -166 ZM378 748 q50 1 88.5 -22 q38.5 -23 40.5 -78 q0 -12 -3 -24 q-12 -11 -28 -11 q-34 4 -84 42.5 q-50 38.5 -55 70.5 q9 26 41 22 Z" /><glyph glyph-name="uni4E4C" unicode="&#x4e4c;" d="M521 767 q-21 -31 -70 -76.5 q-49 -45.5 -73 -67.5 q87 11 164 52 q14 8 30 8 q62 -10 96 -64 q-47 -57 -60.5 -154 q-13.5 -97 -79.5 -123 q-17 13 -58 53.5 q-41 40.5 -47 52.5 q8 6 18 4 q31 -4 64 -9 q11 0 21 1 q34 80 34 167 q-10 2 -21 2 q-93 -10 -186 -23 q6 -59 6 -118 q0 -85 -13 -171 q216 8 424 64 q63 -18 102 -71 q-1 -18 -15 -28 q-39 -105 -43 -209.5 q-4 -104.5 -126 -161.5 l1 1 q-25 9 -60.5 62 q-35.5 53 -50.5 82 q61 -5 120 -20 q39 39 46 94 l0 -1 q12 47 12 96 q0 35 -6 69 q-35 11 -71 9 q-71 0 -190 -17.5 q-119 -17.5 -179 -46.5 l0 1 q-11 -9 -25 -11 q-36 14 -41 54 q2 8 20.5 30 q18.5 22 25.5 71 q6 51 6 102 q-3 52 -21.5 99 q-18.5 47 -21.5 54 q1 9 7 15 q9 1 17 1 q29 0 56 -10 q69 72 75 170 q2 9 6 17 l10 0 q60 -2 97 -49 ZM145 59 q-45 11 -82 40 q-6 9 -8 20 q9 18 32 13 q197 2 387 48 q41 14 85 15 q61 -1 112 -33 q2 -6 3 -14 q-13 -32 -54 -27 q-51 2 -101 4 q-191 -5 -374 -66 Z" /><glyph glyph-name="uni4E4E" unicode="&#x4e4e;" d="M662 727 q-19 -20 -71.5 -38.5 q-52.5 -18.5 -83.5 -29.5 l1 1 l-32 -16 q40 -30 43.5 -72 q3.5 -42 1.5 -87 q0 -86 7 -172 q61 8 130.5 20 q69.5 12 128.5 13 q39 1 86.5 -16.5 q47.5 -17.5 51.5 -61.5 q-36 -10 -74 -8 q-89 4 -178 7 q-69 0 -139 -4 q7 -69 7 -139 q2 -61 -10 -124.5 q-12 -63.5 -65 -103.5 q-29 18 -82.5 76 q-53.5 58 -60.5 80 q63 -6 126 -15 q12 46 14.5 109.5 q2.5 63.5 1.5 111.5 q-105 -8 -208 -24 q-50 -12 -98 -17 q-69 1 -100 61 q203 6 405 28 q-2 56 -8 161 q-6 105 -35 150 l0 3 q-26 -14 -66 -27.5 q-40 -13.5 -70 -14.5 q-9 0 -19 2 q12 31 45 41 q64 30 123 69 q24 14 58 39.5 q34 25.5 44 51.5 q2 10 7 19 l13 1 q74 -5 106 -74 ZM661 607 q69 -1 102 -61 q-19 -29 -89.5 -85 q-70.5 -56 -104.5 -66 q-1 5 -1 10 q3 20 31 60.5 q28 40.5 42 63.5 l-1 -1 q4 39 15 76 l6 3 ZM237 541 q-1 12 10 13 q16 -3 52.5 -28 q36.5 -25 48.5 -40 q11 -17 10 -38 q1 -46 -37 -61 q-25 7 -53.5 65 q-28.5 58 -30.5 89 ZM266 577 l-2 5 l2 -2 l0 -3 Z" /><glyph glyph-name="uni4E50" unicode="&#x4e50;" d="M330 612 q-12 -104 -40 -205 q86 5 167 30 l0 8 q0 52 -18 100 q-12 16 -15 37 q8 10 20 10 q5 0 10 -2 l-1 0 q17 -2 51 -11.5 q34 -9.5 38 -28.5 q0 -4 -2 -8 q-15 -47 -14 -97 q110 37 222 43 q57 3 62 -52 q-41 -23 -137.5 -29 q-96.5 -6 -151.5 -9 q14 -141 16 -282 q1 -50 -13.5 -103.5 q-14.5 -53.5 -63.5 -77.5 l-1 0 q-21 5 -53.5 47 q-32.5 42 -51.5 63 q-16 16 -15 37 q24 -3 48 -4 q17 -11 36 -12 q34 4 38.5 43.5 q4.5 39.5 2.5 68.5 q-2 107 -7 214 q-125 -14 -231 -82 q-9 -7 -21 -9 q-31 13 -30 51 q5 35 41.5 71.5 q36.5 36.5 41.5 102.5 q0 53 -21 101 q-9 8 -9 19 l1 8 q12 14 30 12 q30 -1 53 -20 q54 11 126 37 q72 26 106 67 l0 -2 q11 27 39 30 q8 0 15 -2 l3 -5 q16 -1 58 -25.5 q42 -24.5 47 -36.5 q-6 -15 -25 -18 q-175 -42 -351 -79 ZM824 60 q-47 25 -136 110 q-89 85 -99 104 q2 8 11 7 q38 -3 115 -34.5 q77 -31.5 108 -57.5 q32 -36 33 -86 q2 -36 -32 -43 ZM229 241 q11 27 34 39 q13 -3 17 -28.5 q4 -25.5 4 -37.5 q-1 -49 -34 -109 q-33 -60 -85 -66 q-28 8 -24 39 q0 19 4 37 l82 125 l2 1 Z" /><glyph glyph-name="uni4E52" unicode="&#x4e52;" d="M491 781 q9 1 18 1 q75 0 134 -45 q-50 -42 -111 -68 l0 1 q-83 -56 -172 -102 q19 -36 16 -77 q63 16 171.5 40 q108.5 24 168.5 26 q11 0 37 -5 q26 -5 29 -18 q-9 -26 -84.5 -40 q-75.5 -14 -106.5 -16 q29 -14 48 -41 q-21 -83 -31 -169 q70 6 139 17 l-1 0 q41 12 81 11 q10 1 19 -2 l-1 0 q20 -5 56.5 -22.5 q36.5 -17.5 40.5 -37.5 q-3 -12 -27.5 -15.5 q-24.5 -3.5 -35.5 -3.5 q-89 6 -178 11 q-268 -10 -531 -57 l-5 0 q-17 0 -50.5 11 q-33.5 11 -37.5 28 q9 14 27 15 q110 14 222 15 q2 26 2 52 q-1 142 -57 272 q-5 5 -5 13 q0 5 2 10 q14 9 31 9 q17 -1 32 -8 q39 26 94 74.5 q55 48.5 60 93.5 q-1 8 -2 14 q0 8 8 13 ZM536 470 q-78 -10 -156 -15 l0 -209 q85 6 170 14 q6 60 4 120 q4 48 -18 90 ZM503 89 q-15 -22 -58 -46 q-43 -24 -64 -35 l1 1 q-30 -24 -87 -59 q-57 -35 -91 -39 q-7 0 -15 4 q6 33 36 47 q41 26 102.5 87 q61.5 61 75.5 106 q1 11 6 21 l11 1 q69 -15 83 -88 ZM189 -90 l-2 7 l2 -2 l0 -5 Z" /><glyph glyph-name="uni4E53" unicode="&#x4e53;" d="M477 751 q10 1 19 1 q76 0 136 -46 q-52 -41 -113 -66 q-87 -51 -175 -103 q21 -37 16 -79 q65 17 175 41 q110 24 172 26 q11 0 37 -5 q26 -5 29 -18 q-9 -26 -86 -40 q-77 -14 -108 -16 q30 -14 49 -41 q-22 -84 -32 -171 q113 21 224 29 q10 1 19 -2 l-2 0 q20 -4 58 -21.5 q38 -17.5 42 -38.5 q-3 -12 -28 -16 q-25 -4 -36 -4 q-92 6 -182 11 q-272 -10 -540 -58 l-5 0 q-17 0 -52 11 q-35 11 -39 28 q9 16 28 17 q112 14 226 15 q2 27 2 54 q0 142 -58 271 q-5 6 -5 14 q0 5 2 10 q14 8 31 8 q17 0 33 -7 q40 26 96 75.5 q56 49.5 61 94.5 q-1 8 -2 14 q1 8 8 12 ZM523 438 q-79 -11 -159 -16 l0 -210 q87 6 174 14 q6 60 4 120 q3 50 -19 92 ZM571 86 q-17 9 -24 26 q3 12 25 16.5 q22 4.5 33 4.5 q20 -4 43 -11 q121 -30 134 -149 l0 -6 q-2 -21 -23 -24 q-36 8 -103.5 67 q-67.5 59 -85.5 77 l1 -1 Z" /><glyph glyph-name="uni4E54" unicode="&#x4e54;" d="M649 743 q-20 -20 -77 -39 q-57 -19 -80 -25 l1 1 q-29 -14 -59 -26 q27 -4 43 -27 q-3 -41 -25 -76 q52 15 115.5 30 q63.5 15 117.5 16 q12 0 40.5 -8.5 q28.5 -8.5 32.5 -21.5 q-11 -23 -38 -31 q-28 -7 -92 -13 q-64 -6 -101 -10 q180 -151 407 -211 q19 -3 34 -13 l0 -4 q-9 -20 -80 -26 q-71 -6 -99 -5 q-61 11 -164 106.5 q-103 95.5 -150 148.5 q-19 -4 -38 -10 q-102 -237 -339 -341 q-12 -7 -25 -7 l-11 1 q3 20 23 27 q190 107 282 306 q-51 -10 -103 -9 q-15 0 -45.5 4.5 q-30.5 4.5 -38.5 16.5 q14 16 36 18 q82 13 165 22 q12 50 12 101 q-60 -26 -124 -34 q-11 -1 -20 4 q15 28 46 36 q45 18 126.5 64.5 q81.5 46.5 100.5 84.5 q1 9 8 16 l14 1 q71 -3 105 -67 ZM622 328 q-11 -41 -14 -83 q5 -151 9 -300 q-1 -45 -34 -74 q-40 34 -47 86 q10 26 14 94.5 q4 68.5 4 101.5 q-1 108 -30 215 q9 2 18 2 q49 -3 80 -42 ZM346 322 q46 -3 76 -37 l0 -6 q-3 -41 -18 -78 q-35 -163 -185 -234 q-21 -7 -43 -9 q-4 0 -7 3 q12 11 89 80 q77 69 88 184 q-3 28 -6 57 q-1 20 6 40 ZM248 604 l-1 5 l2 -1 l-1 -4 Z" /><glyph glyph-name="uni4E58" unicode="&#x4e58;" d="M631 720 q-21 -16 -78.5 -30.5 q-57.5 -14.5 -89.5 -22.5 q38 -8 45 -44 q-2 -23 -16 -43 q116 30 233 38 q54 3 96 -31 q-6 -49 -56 -39 q-139 0 -279 -11 l-4 -214 l9 2 q161 -219 423 -288 q18 -2 32 -15 q-24 -20 -73 -26.5 q-49 -6.5 -80 -6.5 q-31 0 -62 4 q-47 34 -126 126 q-79 92 -123 147 q8 -144 8 -289 q0 -54 -36 -93 q-45 35 -46 92 q0 17 4 35 q21 95 21 192 q0 20 -1 39 q-50 -88 -123.5 -160 q-73.5 -72 -170.5 -105 q-7 -3 -15 -3 q-14 0 -23 9 q7 23 30 29 l-1 0 q185 105 276 297 l27 4 l0 215 q-60 -8 -133 -23.5 q-73 -15.5 -127 -17.5 q-14 1 -42.5 14 q-28.5 13 -35.5 23 q12 13 32 16 l302 28 q-4 45 -14 89 q-51 -12 -103 -16 q-18 0 -33 10 q60 35 130.5 54 q70.5 19 115.5 73 l12 7 q60 -13 95 -65 ZM552 532 q48 -8 78 -47 q-8 -33 -23 -64 q47 30 85 70 q1 13 14 14 q14 -6 38 -20 q24 -14 27 -30 q-8 -20 -73.5 -41 q-65.5 -21 -93.5 -28 l0 -4 q-5 -70 60 -77 q54 4 71 39 q17 35 30 49 q26 -44 39 -94 q-52 -44 -121 -44 q-56 -1 -95.5 23 q-39.5 24 -41.5 85 q1 33 10 65 q-9 49 -10 100 l6 4 ZM284 492 q53 -1 88 -42 q-22 -70 -18 -143 q0 -44 -35 -71 q-26 15 -23 44 q-57 -41 -120 -71 q-36 14 -49 46 q2 14 15 21 q80 8 154 37 l0 57 q-42 -10 -84 -17 q-9 2 -27 8.5 q-18 6.5 -20 17.5 q6 20 57 26.5 q51 6.5 74 8.5 q-14 36 -17 75 l5 3 Z" /><glyph glyph-name="uni4E59" unicode="&#x4e59;" d="M535 746 q26 -1 70 -24 q44 -23 49 -50 q-172 -88 -291 -239 q-36 -46 -79 -128 q-43 -82 -47 -139 q5 -64 61.5 -86 q56.5 -22 110.5 -21 q89 -3 189 23 q100 26 135 118 q11 47 34 90 q20 -27 21 -60 q31 -64 33 -135 q0 -10 -1 -21 q-78 -61 -175.5 -75 q-97.5 -14 -194.5 -11 q-84 -4 -177.5 23.5 q-93.5 27.5 -101.5 127.5 q11 122 113.5 260 q102.5 138 170.5 245 q-47 -11 -122 -32 q-75 -21 -111 -23 q-13 0 -35.5 5 q-22.5 5 -25.5 21 q1 8 5 14 q142 10 270 73 q35 19 69 38 q14 6 30 6 Z" /><glyph glyph-name="uni4E5D" unicode="&#x4e5d;" d="M463 516 q76 24 139 70 l9 0 q79 0 98 -77 q-55 -53 -88 -149.5 q-33 -96.5 -34 -171.5 q-2 -128 123 -128 q151 8 165.5 79.5 q14.5 71.5 45.5 106.5 q25 -32 18 -74 q10 -39 10 -80 q0 -33 -8 -64 q-40 -35 -96.5 -46 q-56.5 -11 -107.5 -10 q-89 -2 -146.5 34 q-57.5 36 -59.5 132 q1 151 35 298 q8 29 12 57 l-3 6 q-61 -29 -127 -45 q-48 -295 -303 -448 q-24 -12 -52 -11 q-5 0 -11 2 q10 30 37 44 q198 149 253 390 q-81 -34 -163 -65 l-7 0 q-73 -4 -90 66 q17 6 35 6 q123 9 239 56 q19 68 19 139 q1 61 -15 118 q-5 10 -6 22 q1 13 8 24 l8 0 q88 2 115 -78 q-38 -98 -52 -203 Z" /><glyph glyph-name="uni4E5E" unicode="&#x4e5e;" d="M688 451 q38 -5 51 -37 l-1 -6 q-115 -44 -221 -134 q-106 -90 -140 -211 q12 -46 58.5 -58 q46.5 -12 88.5 -10 q64 -2 153.5 13.5 q89.5 15.5 117.5 79.5 q10 40 36 70 q25 -18 27 -49 q26 -44 28 -96 l-1 -16 q-70 -44 -160.5 -54.5 q-90.5 -10.5 -172.5 -8.5 q-63 -3 -150.5 15.5 q-87.5 18.5 -96.5 95.5 q2 48 32.5 96.5 q30.5 48.5 62.5 83.5 l0 -2 q72 81 145 160 q-94 -23 -189 -34 q-12 -1 -36 3 q-24 4 -27 18 q1 10 8 16 q122 7 237 50 q31 15 61 28 q15 5 31 5 q32 -1 59 -18 l-1 0 ZM364 779 q-3 7 -4 15 q5 22 30 19 q26 0 73.5 -13 q47.5 -13 52.5 -41 l-1 -7 q-69 -58 -120 -133 q63 15 155 37 q92 22 161 24 q58 6 82 -43 q-209 -57 -425 -53 q-43 -41 -113.5 -100.5 q-70.5 -59.5 -125.5 -66.5 l-1 9 q4 30 32 45 q157 119 204 308 Z" /><glyph glyph-name="uni4E5F" unicode="&#x4e5f;" d="M647 568 q19 4 37 4 q57 0 86 -50 q-55 -96 -84 -202 q-6 -34 -14 -66 q-6 -17 -29.5 -46.5 q-23.5 -29.5 -39.5 -32.5 q-23 10 -29 37 l0 -1 l-38 85 q8 6 17 6 q5 0 10 -1 q14 -11 32 -14 q49 100 49 211 q-73 -32 -138 -80 q0 -46 -6.5 -162 q-6.5 -116 -39.5 -130 q-15 5 -25.5 42.5 q-10.5 37.5 -10.5 51.5 q1 75 6 149 l-114 -75 q-2 -21 -2 -43 q-2 -119 49 -170 q51 -51 172 -50 q127 -2 251 29 l-1 -1 q76 46 79.5 108.5 q3.5 62.5 20.5 80.5 q13 -7 28 -60 q15 -53 21 -75 l0 1 q11 -20 12 -41 q-4 -41 -51.5 -65 q-47.5 -24 -85.5 -30 l1 0 q-109 -25 -222 -21 q-92 -3 -184 24.5 q-92 27.5 -130 121.5 q-20 75 -16 154 q-62 -74 -158 -72 q-27 -1 -38 19 q6 14 20 18 q92 47 181 100 q3 18 3 36 q-2 45 -17 75.5 q-15 30.5 -23 68.5 q8 14 24 14 q34 -2 59.5 -33 q25.5 -31 26.5 -64 q-6 -39 -19 -74 l115 72 q5 50 6 99 q-6 126 -23 251 q11 4 23 4 q41 -5 61.5 -55.5 q20.5 -50.5 20.5 -87.5 q-3 -80 -11 -161 l130 86 l8 15 Z" /><glyph glyph-name="uni4E60" unicode="&#x4e60;" d="M559 -80 q-25 31 -75.5 87 q-50.5 56 -64.5 78 q6 3 14 3 q80 -15 164 -34 q48 67 75 246.5 q27 179.5 27 271.5 q2 53 -14 103 q-21 9 -44 8 q-91 -3 -182 -28.5 q-91 -25.5 -181 -40.5 q-21 5 -54 24.5 q-33 19.5 -36 40.5 q9 13 28 10 q242 10 473 79 q97 -9 148 -92 q-51 -41 -61 -106 q-8 -159 -35 -366 q-27 -207 -182 -284 ZM619 436 q-38 -54 -98 -84 q-147 -80 -272 -193 q-15 -4 -31 -4 q-71 9 -93 80 q13 22 34 13 q82 11 233 92 q151 81 227 96 ZM302 519 q-13 7 -18 20 q14 16 41 15 q112 -15 125 -121 q-1 -16 -16 -18 q-26 6 -73.5 49.5 q-47.5 43.5 -59.5 55.5 l1 -1 Z" /><glyph glyph-name="uni4E61" unicode="&#x4e61;" d="M576 739 q-28 -40 -112.5 -121 q-84.5 -81 -112.5 -107 l205 4 q29 37 57.5 91.5 q28.5 54.5 37.5 66.5 q57 -22 78 -80 q-4 -14 -16 -23 q-152 -130 -302 -265 q117 16 236 28 q3 58 21 112 q55 -6 94 -43 q-14 -48 -38 -91 q-61 -127 -139.5 -206.5 q-78.5 -79.5 -203.5 -144.5 q-89 -55 -190 -66 q-14 1 -23 12 q13 15 33 22 q277 108 432 362 q-155 -24 -305 -76 q-19 -7 -40 -9 q-27 30 -34 67 q1 18 19 23 q53 20 105 42 l-1 0 q75 63 141 134 q-123 -20 -246 -44 q-32 35 -32 81 q9 10 44 25 q35 15 60 38 q62 67 107 145 l-1 -1 q0 46 13 90 q73 -5 113 -66 Z" /><glyph glyph-name="uni4E66" unicode="&#x4e66;" d="M515 725 q0 -6 -2 -11 q-15 -23 -19 -81 q-4 -58 -4 -86 q72 5 139 30 q26 -6 62 -22.5 q36 -16.5 40 -46.5 l-1 -7 q-48 -75 -79 -158 q23 0 62 1.5 q39 1.5 60 9.5 q10 4 20 4 q24 0 60 -15 q36 -15 40 -40 q-2 -11 -11 -17 q-35 -41 -53 -140 q-18 -99 -89 -130 l-1 0 q-28 7 -43 34 q-31 32 -69 54 q-9 8 -35.5 30.5 q-26.5 22.5 -29.5 27.5 l1 5 q7 5 16 4 q18 0 34 -5 l-1 0 q17 -5 55 -14.5 q38 -9.5 52 -10.5 q10 0 19 4 q15 23 24.5 65 q9.5 42 9.5 69 q0 9 -3 17 q-9 3 -19 2 q-131 -4 -260 -24 l-1 -198 q0 -27 -10.5 -105.5 q-10.5 -78.5 -31.5 -88.5 q-22 10 -26 88.5 q-4 78.5 -3 102.5 l0 190 q-31 -8 -117 -28 q-86 -20 -106 -22 q-23 1 -54.5 21 q-31.5 20 -34.5 42 q6 13 22 11 q146 5 290 26 l0 175 q-63 -16 -127 -35 q-46 12 -59 54 q0 8 3 16 q92 2 183 15 q2 26 1 52 q1 33 -3 81 q-4 48 -25 75 q-13 13 -18 28 l1 5 q11 9 25 8 q26 0 68.5 -16 q42.5 -16 47.5 -46 ZM597 512 q-55 1 -108 -11 l0 -179 l103 13 q4 20 18.5 82.5 q14.5 62.5 16.5 77.5 q-6 21 -30 17 ZM682 716 q49 1 97 -19 q48 -20 52 -76 q-3 -34 -34 -42 q-23 5 -76.5 50.5 q-53.5 45.5 -60.5 72.5 q4 15 22 14 Z" /><glyph glyph-name="uni4E70" unicode="&#x4e70;" d="M554 626 q17 -6 46 -23.5 q29 -17.5 32 -34.5 q-1 -5 -3 -10 l1 0 q-22 -44 -38.5 -126 q-16.5 -82 -25.5 -135 q86 27 176 26 q26 1 77 -5 q51 -6 57 -33 q-2 -9 -5 -16 q-23 -9 -48 -9 q-59 3 -119 5 q-75 0 -150 -8 q-73 -248 -326 -305 q-8 -1 -16 -1 q-15 -2 -25 8 q11 16 30 24 l-1 0 q199 72 275 268 q-132 -27 -263 -58 q-14 3 -43 14 q-29 11 -32 22 q6 16 22 22 q162 10 323 34 q33 110 32 225 q-4 50 -9 98 q0 9 2 17 q8 6 17 6 q8 -1 14 -3 l0 -2 ZM878 655 q-17 -9 -35 -12 q-74 -29 -149 -65 q-6 5 -6 12 q2 19 17 43 q15 24 17 50 q-215 -12 -423 -73 q-17 6 -51 25.5 q-34 19.5 -38 34.5 q9 13 25 14 q81 6 163 11 q169 17 334 60 q94 -10 146 -90 l0 -10 ZM607 135 q83 -19 147 -76 l-1 0 q40 -44 40 -101 q0 -17 -16 -19 q-39 9 -121.5 85 q-82.5 76 -101.5 110 q8 11 21 12 q17 -2 33 -12 l-1 1 ZM350 537 q103 5 116 -94 q-9 -12 -25 -14 q-22 5 -72 43 q-50 38 -56 54 q13 14 37 11 ZM417 342 q2 -29 -24 -36 q-23 4 -65 39.5 q-42 35.5 -47 54.5 q5 13 21 10 q33 1 72.5 -14.5 q39.5 -15.5 42.5 -53.5 Z" /><glyph glyph-name="uni4E71" unicode="&#x4e71;" d="M406 714 q27 -1 66 -21.5 q39 -20.5 50 -47.5 q-10 -17 -28 -23 q-69 -28 -137 -63 q41 -8 55 -43 q-9 -36 -23 -84 q23 4 44 10 l-1 -1 q38 13 78 15 q31 3 45 -22 q-9 -19 -78 -36 q-69 -17 -94 -23 q-7 -63 -16 -127 q21 3 42 11 l-2 -1 q17 6 33 11 q26 -2 61 -13.5 q35 -11.5 43 -40.5 q-36 -52 -63 -111 q26 -13 33 -40 q-10 -21 -95 -29.5 q-85 -8.5 -121 -10.5 q6 -39 -19 -66 l-4 0 q-31 8 -47 77 q-16 69 -22 103 q-6 21 -20 47.5 q-14 26.5 -16 37.5 q15 11 33 9 q28 -1 55 -9 q25 5 50 12 q4 62 8 123 q-57 -18 -114 -39 l0 1 q-33 -20 -70 -23 q-21 1 -57.5 18.5 q-36.5 17.5 -41.5 36.5 q22 28 60 16 q114 9 223 46 q0 26 -0.5 63.5 q-0.5 37.5 -6.5 61.5 q-24 -12 -60.5 -27.5 q-36.5 -15.5 -63.5 -16.5 q-22 -1 -24 21 q48 25 121 74.5 q73 49.5 95 99.5 q6 23 29 24 ZM614 776 q63 -19 74 -83 q-63 -204 -52 -418 q-3 -54 7 -117.5 q10 -63.5 71 -80.5 l-1 0 q29 -9 60 -10 q96 8 116 81 q20 73 42 118 q16 -18 24 -83 q8 -65 9 -83 l0 1 q4 -11 4 -23 q0 -14 -6 -27 q-82 -71 -191 -64 q-103 1 -168 82 q-25 92 -21 188 q8 203 16 404 q-12 71 -24 101 q0 6 2 12 l0 -1 q8 8 20 9 q9 -1 17 -5 l1 -1 ZM401 91 q18 50 23 101 q0 9 -3 17 l-8 0 q-66 -7 -129 -30 l11 -114 q54 12 106 26 Z" /><glyph glyph-name="uni4E7E" unicode="&#x4e7e;" d="M303 783 q30 0 61.5 -12 q31.5 -12 33.5 -47 q-3 -41 -28 -74 q50 11 102 12 q17 2 27 -9 q-3 -10 -25 -23.5 q-22 -13.5 -31 -18.5 l0 1 q-48 -19 -99 -29 l-28 -84 q39 21 82 26 q59 -9 96 -59 q-31 -52 -43 -88 q-12 -36 -29 -91 l0 1 q-3 -26 -26 -34 q-20 4 -31 21 l-41 -8 q21 -14 20 -39 q-5 -15 -4 -31 l98 28 q12 0 34 -4.5 q22 -4.5 24 -17.5 q-8 -20 -29 -31 q-63 -13 -127 -25 q2 -57 2 -114 q1 -22 -2 -68.5 q-3 -46.5 -24 -51.5 q-45 21 -46 69 q0 10 2 20 l0 -1 q10 65 11 131 q-76 -31 -155 -54 q-17 4 -47 19.5 q-30 15.5 -33 32.5 q6 12 21 12 q109 14 214 39 q-2 38 -7 75 l-34 -5 q-9 -16 -26 -20 q-22 7 -28 31 l1 -1 q-16 89 -59 167 q-7 11 -8 23 q1 12 7 21 q70 0 138 16 q11 43 25 85 q-38 -5 -77 -5 q-22 -2 -31 15 q2 16 13 25 l108 27 q1 19 1 37 q0 54 -10 106 l7 5 ZM700 432 q58 -10 78 -66 q-4 -19 -22 -28 l1 0 q-41 -33 -74 -99.5 q-33 -66.5 -35 -119.5 q0 -27 11 -51 q54 -34 118 -26 q80 6 88.5 69 q8.5 63 29.5 115 q10 -18 19 -73.5 q9 -55.5 17 -84.5 l-2 1 q7 -16 7 -33 q-8 -53 -79.5 -68 q-71.5 -15 -116.5 -13 q-74 2 -107.5 53.5 q-33.5 51.5 -33.5 121.5 q2 38 26.5 103 q24.5 65 43.5 101 q-24 -24 -58 -25 q-14 0 -29 5 l1 0 q-27 3 -40 23 q7 10 66 38 q59 28 91 57 ZM620 757 q0 20 20 20 q23 0 49.5 -15.5 q26.5 -15.5 28.5 -39.5 l-1 -8 q-47 -64 -75 -137 q40 16 97.5 38.5 q57.5 22.5 101.5 24.5 q45 0 53 -44 q-128 -61 -269 -54 q-20 -35 -68.5 -99 q-48.5 -64 -82.5 -73 l-1 9 q2 28 21 47 q53 67 89 156.5 q36 89.5 37 174.5 ZM387 472 q-89 -12 -175 -37 l9 -50 q40 3 76 18 l-1 -1 l36 15 q26 0 39 -20 q-6 -17 -24 -26 l1 1 q-57 -27 -121 -26 l10 -62 q66 19 134 28 q17 65 17 133 q0 14 -1 27 Z" /></font>
</defs>
</svg>
