<?xml version="1.0" standalone="no"?>
<!DOCTYPE svg PUBLIC "-//W3C//DTD SVG 20010904//EN"
 "http://www.w3.org/TR/2001/REC-SVG-20010904/DTD/svg10.dtd">
<svg version="1.0" xmlns="http://www.w3.org/2000/svg"
 width="340.000000pt" height="340.000000pt" viewBox="0 0 340.000000 340.000000"
 preserveAspectRatio="xMidYMid meet">
<metadata>
Created by potrace 1.14, written by Peter Selinger 2001-2017
</metadata>
<g transform="translate(0.000000,340.000000) scale(0.100000,-0.100000)"
fill="#000000" stroke="none">
<path d="M1586 3192 c-3 -5 -20 -8 -38 -7 -18 1 -37 0 -42 -3 -6 -3 -24 -7
-40 -8 -32 -3 -71 -11 -71 -14 0 -1 -13 -3 -30 -5 -16 -1 -31 -7 -33 -14 -2
-6 -8 -11 -13 -11 -6 0 -7 6 -3 13 6 9 5 9 -8 0 -8 -7 -19 -9 -23 -5 -5 4 -5
1 0 -7 6 -10 2 -12 -14 -6 -12 3 -21 2 -21 -3 0 -6 -8 -9 -17 -7 -10 1 -27 -2
-38 -8 -11 -6 -26 -12 -34 -13 -8 -2 -17 -6 -20 -11 -5 -7 -16 -11 -46 -17 -5
-1 -21 -8 -35 -16 -14 -8 -28 -13 -32 -12 -4 1 -5 -5 -2 -12 4 -10 -1 -14 -13
-12 -10 2 -27 -3 -39 -11 -11 -7 -24 -10 -29 -6 -4 5 -2 -3 5 -17 12 -22 12
-24 -2 -12 -13 10 -19 10 -32 -3 -9 -9 -21 -13 -27 -9 -8 4 -9 3 -5 -4 4 -7 2
-13 -3 -13 -6 -1 -16 -2 -21 -3 -6 0 -15 -8 -20 -16 -5 -8 -10 -11 -10 -6 0 5
-7 3 -15 -4 -8 -7 -12 -17 -8 -23 4 -6 0 -8 -10 -4 -16 6 -41 -15 -30 -26 3
-4 1 -7 -5 -7 -23 0 -105 -77 -97 -91 4 -5 2 -9 -4 -9 -5 0 -11 3 -14 8 -2 4
-2 1 0 -7 2 -9 -2 -11 -14 -7 -10 4 -14 4 -11 0 4 -3 -8 -21 -26 -39 -28 -26
-32 -35 -23 -51 10 -17 9 -18 -7 -5 -15 12 -17 12 -14 0 2 -8 -3 -13 -12 -11
-8 2 -12 1 -9 -2 3 -3 -11 -25 -32 -47 -21 -23 -36 -45 -34 -49 3 -4 -2 -11
-11 -14 -8 -3 -12 -10 -9 -16 3 -5 2 -10 -4 -10 -8 0 -24 -31 -26 -51 0 -3 -8
-13 -18 -23 -9 -10 -15 -21 -12 -26 3 -5 0 -10 -5 -12 -6 -2 -12 -11 -13 -20
-2 -9 -8 -22 -14 -30 -6 -7 -13 -20 -15 -28 -2 -8 -6 -18 -11 -21 -4 -3 -9
-15 -12 -27 -2 -12 -7 -28 -12 -35 -4 -6 -9 -18 -10 -24 -7 -31 -12 -48 -13
-48 -2 0 -11 -38 -12 -52 -1 -7 -5 -13 -9 -13 -4 0 -6 -9 -4 -20 2 -11 0 -20
-5 -20 -4 0 -7 -8 -5 -17 1 -10 0 -22 -4 -28 -3 -5 -6 -18 -7 -27 -1 -10 -3
-19 -4 -20 -1 -2 -3 -14 -4 -28 -1 -14 -4 -29 -7 -35 -3 -5 -5 -22 -4 -37 1
-16 -2 -28 -7 -28 -5 0 -6 -5 -3 -11 4 -6 13 -8 19 -6 7 3 13 -1 13 -8 0 -7
-6 -11 -12 -8 -7 2 -15 -3 -19 -13 -5 -14 -4 -15 9 -4 18 15 20 -1 3 -18 -18
-18 -19 -155 -1 -140 14 11 19 -3 6 -16 -12 -11 -12 -76 -1 -76 7 0 7 -5 -1
-13 -6 -8 -7 -17 -3 -21 4 -4 8 -22 9 -39 4 -50 6 -56 13 -52 4 2 7 -10 8 -28
1 -28 6 -61 12 -77 1 -3 2 -9 1 -14 -1 -5 7 -6 17 -4 11 3 19 0 19 -7 0 -8 -7
-11 -15 -7 -12 4 -14 1 -7 -14 4 -10 10 -29 12 -42 3 -12 10 -22 15 -22 5 0 7
-4 4 -8 -3 -5 1 -20 9 -35 8 -15 11 -27 8 -27 -3 0 0 -6 6 -13 6 -8 7 -18 3
-22 -4 -5 -1 -5 7 0 9 5 12 3 9 -6 -3 -8 6 -31 19 -51 13 -21 20 -38 17 -38
-4 0 -1 -7 6 -15 7 -8 17 -12 22 -9 6 4 8 -1 4 -14 -5 -13 -1 -22 10 -26 9 -4
14 -9 11 -13 -16 -15 193 -273 216 -265 4 1 7 -6 5 -15 -2 -10 2 -18 7 -18 6
0 28 -17 50 -37 47 -43 91 -78 102 -81 4 -1 7 -6 5 -10 -1 -5 2 -6 7 -3 5 4
11 2 13 -2 1 -5 21 -20 42 -35 29 -19 44 -24 57 -17 26 14 36 12 15 -3 -16
-12 -16 -14 -2 -26 9 -8 16 -10 16 -6 0 4 6 2 14 -4 11 -10 16 -9 23 3 7 13
10 13 28 -1 20 -15 20 -15 -3 -8 -13 4 -22 2 -22 -4 0 -6 9 -11 20 -11 11 0
20 -4 20 -8 0 -10 49 -35 70 -36 8 0 21 -6 28 -13 7 -7 20 -9 29 -6 11 4 14 3
9 -5 -5 -8 -1 -10 10 -5 11 4 15 3 10 -5 -4 -7 1 -10 14 -7 11 2 22 0 25 -6
10 -15 28 -10 22 5 -4 10 -1 13 8 9 8 -3 13 -9 10 -13 -6 -10 14 -25 35 -25 8
0 20 -3 25 -6 6 -3 17 -5 25 -4 8 0 18 -4 22 -10 5 -6 8 -4 8 5 0 13 1 13 10
0 7 -11 10 -11 10 -2 0 7 5 10 10 7 6 -4 8 -10 6 -14 -3 -4 7 -7 22 -6 15 1
31 -1 37 -3 5 -3 20 -7 33 -8 17 -2 22 1 18 11 -3 8 0 17 6 21 6 4 8 3 5 -3
-8 -12 20 -39 30 -30 3 4 11 3 17 -2 7 -6 11 -2 12 14 1 14 -5 25 -15 28 -10
2 -18 -1 -18 -8 0 -7 7 -11 16 -8 14 4 14 4 1 -6 -11 -8 -19 -6 -30 8 -8 10
-24 17 -34 15 -11 -1 -25 0 -30 4 -6 4 -23 7 -38 8 -16 1 -30 3 -33 4 -3 1
-14 4 -25 5 -11 1 -22 4 -25 5 -3 1 -14 4 -25 5 -11 1 -23 4 -27 5 -5 1 -11 2
-15 1 -5 0 -8 4 -8 10 0 6 -9 8 -21 4 -12 -4 -19 -3 -16 2 3 5 -2 9 -11 10
-28 2 -59 11 -84 24 -13 8 -26 14 -30 15 -5 1 -10 3 -13 4 -3 1 -8 3 -12 4
-32 9 -93 40 -93 48 0 5 -10 6 -21 3 -16 -6 -20 -4 -13 6 6 10 3 10 -11 -1
-17 -14 -18 -13 -12 2 7 19 -27 45 -52 39 -7 -1 -10 2 -6 9 3 6 3 9 -2 8 -4
-2 -21 8 -36 22 -16 14 -33 25 -38 25 -5 0 -13 5 -17 10 -11 15 -47 42 -39 29
4 -7 1 -14 -7 -17 -9 -4 -12 0 -9 13 3 10 -1 25 -8 33 -12 12 -15 12 -26 -2
-12 -14 -12 -14 -6 3 5 16 3 18 -13 13 -17 -6 -17 -6 -2 6 15 12 13 15 -18 36
-19 13 -34 27 -34 32 0 5 -7 9 -15 9 -8 0 -14 4 -13 9 3 7 -55 83 -89 117 -7
6 -9 15 -5 19 4 5 2 5 -5 1 -7 -3 -14 2 -18 14 -3 11 -11 20 -16 20 -6 0 -7
-4 -4 -10 3 -6 -1 -7 -10 -4 -14 6 -14 7 1 18 14 11 14 13 0 25 -9 8 -16 19
-16 27 0 7 -9 16 -20 19 -11 3 -20 11 -20 16 0 6 4 8 9 5 5 -4 4 5 -2 19 -7
14 -16 25 -20 25 -5 0 -5 4 -2 10 4 6 -1 7 -12 3 -15 -5 -16 -3 -6 7 10 11 9
17 -4 32 -9 10 -13 18 -9 18 4 0 0 7 -8 16 -9 8 -22 12 -28 9 -7 -4 -4 1 6 9
11 9 14 16 8 16 -7 0 -11 3 -11 8 3 18 -2 32 -12 32 -5 0 -8 -4 -4 -9 3 -5 1
-12 -4 -15 -10 -7 -9 13 2 31 4 6 3 14 -2 18 -6 3 -8 12 -4 20 3 8 1 15 -5 15
-5 0 -8 10 -8 22 1 13 -2 29 -8 36 -5 8 -11 21 -12 30 -9 53 -14 79 -18 97 -2
11 -5 23 -5 28 -1 4 -5 7 -10 7 -6 0 -8 -9 -6 -20 2 -12 0 -18 -6 -15 -5 4 -7
11 -4 16 4 5 1 9 -5 9 -7 0 -6 5 2 14 7 8 16 12 19 10 5 -3 4 37 -1 44 -3 2
-6 29 -9 57 0 8 -5 15 -11 15 -5 0 -7 -6 -4 -14 3 -8 1 -16 -4 -20 -5 -3 -8 4
-7 15 1 11 8 25 16 30 12 7 12 9 -1 10 -10 0 -8 3 5 9 11 5 15 9 9 9 -6 1 -10
21 -9 51 1 27 -2 47 -7 44 -4 -3 -8 0 -8 5 0 6 6 11 13 11 8 0 7 4 -3 10 -13
9 -13 10 0 10 13 0 13 1 0 10 -8 5 -10 10 -4 10 7 0 10 13 9 30 -1 17 1 30 5
30 3 0 6 10 5 23 -1 12 3 25 9 29 7 5 7 8 -2 8 -8 0 -10 5 -5 13 4 6 9 23 9
37 1 14 3 26 4 28 1 1 4 11 5 22 1 11 3 21 5 23 7 9 6 37 -1 37 -6 0 -7 5 -4
10 4 6 11 7 17 4 7 -4 8 -2 4 4 -4 6 -1 22 7 34 7 13 13 30 12 38 0 8 4 18 10
22 6 5 6 8 -2 8 -7 0 -13 5 -13 10 0 6 7 10 16 10 10 0 14 6 11 15 -4 8 -2 17
4 20 5 4 7 11 4 16 -4 5 -2 9 4 9 9 0 20 22 22 45 0 6 8 18 16 28 9 9 13 17 8
17 -4 0 -2 7 5 15 7 8 9 15 6 15 -4 0 2 10 13 22 11 11 18 24 16 28 -3 4 4 15
15 25 11 10 16 24 13 33 -5 11 -3 13 8 7 8 -4 11 -5 7 0 -5 5 1 15 12 22 11 8
18 18 16 22 -3 4 8 22 24 40 16 17 31 35 32 39 2 4 7 6 11 4 5 -1 6 2 2 8 -3
5 -1 10 5 10 6 0 8 11 6 25 -3 15 -1 23 5 20 5 -4 7 -11 4 -16 -4 -5 -3 -9 2
-9 4 1 22 18 38 39 17 21 44 49 61 62 28 21 30 25 15 36 -14 10 -13 11 7 6 12
-3 22 -1 22 6 0 5 -8 8 -17 5 -15 -5 -15 -4 -3 4 9 7 18 7 26 1 8 -7 18 -2 32
15 10 14 22 23 25 20 3 -3 13 6 23 20 9 15 19 24 22 22 3 -3 23 9 45 27 23 17
44 31 47 29 3 -1 12 4 22 12 9 8 20 11 24 8 4 -4 4 -1 0 6 -4 7 -12 9 -18 6
-7 -4 -8 -2 -4 4 4 7 20 10 37 7 21 -4 29 -1 29 9 0 9 7 13 20 11 11 -2 20 0
20 6 0 5 7 9 16 9 10 0 14 6 11 14 -7 17 20 30 29 14 4 -7 3 -8 -4 -4 -7 4
-12 2 -12 -3 0 -14 17 -14 25 -1 4 6 10 8 15 5 4 -3 13 2 20 10 7 8 17 12 23
8 6 -4 7 -1 2 7 -5 9 -2 10 14 5 12 -3 21 -2 21 3 0 6 8 9 18 7 9 -1 26 2 37
8 11 6 24 10 29 9 4 -2 13 1 20 6 6 5 19 8 29 7 9 -2 17 0 17 5 0 4 11 6 26 4
20 -2 23 0 14 11 -8 9 -7 14 5 18 8 4 14 1 12 -5 -2 -12 40 -19 58 -9 9 5 53
10 97 12 9 0 19 6 22 14 6 15 -19 41 -28 27z m19 -22 c-3 -4 -13 -7 -23 -6 -9
2 -20 -2 -24 -8 -5 -8 -8 -7 -8 2 0 6 -5 12 -11 12 -5 0 -8 -4 -5 -9 4 -5 -2
-8 -11 -6 -10 1 -22 0 -28 -3 -21 -13 -53 -9 -48 5 5 12 7 12 14 1 7 -11 9
-11 9 1 0 7 6 11 15 8 8 -4 17 -2 20 2 2 5 21 8 40 6 20 -1 38 2 41 7 3 4 10
6 15 2 5 -3 7 -9 4 -14z m-198 -25 c0 -8 -4 -15 -9 -15 -10 0 -11 14 -1 23 9
10 10 9 10 -8z m-39 -12 c-6 -7 -13 -11 -16 -8 -3 3 -11 0 -18 -5 -6 -6 -16
-10 -20 -8 -5 1 -18 -3 -29 -9 -11 -6 -28 -9 -37 -8 -10 2 -20 -1 -24 -6 -3
-5 -10 -7 -15 -3 -6 3 -19 -2 -30 -12 -24 -22 -47 -26 -56 -11 -3 7 -2 9 2 4
5 -4 17 0 27 10 10 9 18 13 18 9 0 -3 10 0 23 8 12 7 30 12 39 11 10 -2 20 1
23 5 3 5 12 7 19 4 8 -3 17 -1 20 5 4 6 13 8 20 5 7 -3 18 1 24 9 7 7 18 14
27 14 11 0 12 -4 3 -14z m-281 -88 c0 -14 -5 -17 -23 -14 -4 0 -11 -5 -16 -13
-8 -11 -9 -11 -6 0 2 8 7 12 11 10 5 -2 13 5 18 15 12 21 16 21 16 2z m-146
-89 c-1 -3 -3 -5 -5 -3 -2 1 -14 -7 -27 -18 l-24 -20 24 28 c22 24 34 29 32
13z m-71 -37 c0 8 3 11 6 8 9 -9 -16 -38 -26 -32 -5 3 -17 -6 -28 -20 -11 -13
-22 -22 -24 -19 -3 2 -13 -7 -22 -21 -15 -23 -45 -27 -30 -4 3 5 10 7 15 4 5
-4 10 -1 10 4 1 6 2 17 3 23 0 7 10 13 21 13 11 0 20 7 20 15 1 8 6 14 13 12
7 -1 15 5 19 14 5 13 7 13 14 2 7 -11 9 -10 9 1z m-166 -138 c3 -4 -3 -16 -13
-26 -20 -17 -24 -4 -8 23 10 14 14 15 21 3z m-53 -59 c-15 -28 -48 -54 -55
-44 -3 6 8 22 25 36 36 31 43 32 30 8z m-102 -112 c-12 -16 -27 -26 -32 -23
-6 4 -8 0 -4 -10 3 -8 -1 -21 -8 -27 -8 -7 -13 -16 -10 -20 3 -4 -7 -15 -21
-25 -14 -9 -23 -22 -20 -30 2 -7 -4 -21 -14 -30 -11 -10 -17 -21 -15 -25 2 -4
-4 -15 -15 -25 -11 -10 -17 -21 -15 -26 3 -4 1 -10 -5 -14 -6 -4 -8 -10 -5
-15 3 -5 -5 -16 -17 -24 -15 -11 -18 -16 -8 -16 13 0 13 -2 0 -10 -8 -5 -11
-10 -6 -10 5 0 2 -8 -7 -18 -10 -10 -14 -22 -11 -25 4 -4 -1 -10 -10 -13 -12
-5 -14 -9 -6 -14 8 -5 7 -9 -3 -13 -17 -6 -17 20 -1 31 5 4 9 14 9 22 -1 8 3
21 9 29 6 7 11 20 12 28 2 8 10 23 20 34 9 10 13 19 9 19 -4 0 0 9 10 20 10
11 14 20 10 20 -5 0 2 11 15 25 13 14 20 25 16 25 -4 0 2 13 13 29 11 15 17
32 13 36 -4 5 -1 5 6 1 10 -6 13 -2 12 19 -1 9 38 56 43 53 3 -2 15 9 27 25
29 36 36 35 9 -3z m-243 -465 c0 -14 -3 -22 -9 -18 -6 4 -8 0 -5 -8 3 -9 -3
-26 -14 -40 -11 -13 -17 -18 -13 -12 3 7 8 23 11 35 7 33 12 52 14 58 1 3 1
10 0 15 -1 6 2 6 6 2 5 -4 9 -19 10 -32z m-34 -130 c-4 -5 -7 -18 -8 -27 -1
-10 -3 -19 -4 -20 -1 -2 -3 -16 -5 -33 -1 -16 -4 -31 -5 -32 -1 -2 -4 -12 -5
-23 -1 -11 -4 -22 -5 -25 -1 -3 -3 -9 -4 -14 -3 -26 -12 -16 -11 14 0 18 3 37
7 40 4 4 4 13 1 21 -3 8 0 14 6 14 6 0 11 5 11 11 0 5 -5 7 -12 3 -7 -5 -8 -3
-2 7 5 8 9 22 10 32 1 9 3 19 4 22 4 7 7 23 9 38 1 8 4 8 10 -3 6 -8 7 -19 3
-25z m-47 -276 c-3 -12 -1 -27 3 -33 11 -18 9 -73 -3 -73 -7 0 -10 23 -9 61 2
65 2 66 8 66 3 0 3 -10 1 -21z m20 -206 c-1 -10 1 -23 6 -29 5 -6 3 -19 -6
-30 -11 -14 -14 -15 -9 -3 3 10 0 20 -5 24 -6 3 -8 12 -4 18 4 7 8 15 9 20 3
14 4 17 8 17 2 0 3 -8 1 -17z m30 -174 c-1 -16 1 -29 6 -29 4 0 7 -9 6 -19 -1
-15 -5 -17 -13 -10 -7 6 -11 19 -9 29 2 11 0 22 -5 25 -4 3 -7 13 -5 23 2 9 4
22 4 27 1 6 5 4 10 -3 5 -8 7 -27 6 -43z m31 -117 c-3 -3 -1 -11 5 -19 6 -7 8
-13 4 -13 -4 0 -2 -6 4 -14 8 -10 9 -16 1 -21 -6 -4 -10 -3 -9 2 1 4 0 11 -1
16 -1 4 -3 10 -4 15 -1 4 -7 17 -14 29 -11 19 -10 22 3 17 9 -4 13 -9 11 -12z
m40 -107 c-1 -8 -5 -17 -8 -21 -5 -4 -4 16 1 34 3 9 9 -1 7 -13z m43 -100
c-11 -11 -32 18 -34 48 -1 14 3 12 21 -10 15 -18 19 -31 13 -38z m28 -44 c10
-16 9 -19 -5 -17 -9 2 -17 7 -17 12 0 5 -4 15 -8 21 -5 8 -3 11 5 8 7 -3 19
-14 25 -24z m53 -83 c12 -17 18 -28 11 -24 -6 4 -11 2 -11 -5 0 -7 -6 -4 -14
6 -8 11 -12 24 -9 28 3 5 -3 15 -13 23 -14 10 -15 13 -3 9 9 -3 26 -20 39 -37z
m94 -132 c34 -37 61 -72 61 -77 0 -4 19 -22 43 -40 23 -17 39 -35 36 -40 -4
-6 -10 -6 -18 0 -7 6 -15 8 -18 5 -3 -3 -5 3 -4 13 0 11 -5 17 -14 15 -8 -2
-13 -1 -10 2 3 3 -27 40 -67 82 -40 43 -71 80 -68 82 3 3 -3 11 -13 19 -12 10
-13 13 -3 11 8 -2 42 -34 75 -72z m192 -212 c2 -12 -1 -13 -12 -3 -7 6 -11 16
-8 21 7 11 17 3 20 -18z m84 -49 c0 5 18 -8 39 -29 22 -21 44 -35 49 -32 6 3
14 1 18 -5 4 -7 3 -9 -4 -5 -5 3 -12 1 -14 -4 -2 -6 -13 -2 -26 10 -12 11 -22
17 -22 13 0 -4 -16 8 -35 27 -19 19 -35 30 -35 26 0 -5 -7 -3 -15 4 -8 7 -12
17 -9 22 3 5 17 -1 30 -13 13 -12 24 -19 24 -14z m243 -148 c4 3 7 1 7 -4 0
-6 8 -10 18 -8 9 1 22 -1 27 -5 6 -5 14 -8 19 -7 5 1 10 -6 12 -16 2 -17 1
-17 -14 -4 -9 8 -24 13 -33 12 -9 -2 -27 7 -41 19 -13 11 -19 18 -13 14 7 -4
15 -5 18 -1z m140 -56 c4 -1 11 -1 16 -1 5 0 12 -7 15 -16 5 -13 4 -14 -7 -6
-8 7 -16 10 -18 8 -2 -3 -15 4 -29 15 -18 14 -19 17 -5 11 11 -6 23 -10 28
-11z m100 -27 c4 -1 9 -3 12 -4 3 -1 14 -4 25 -5 11 -1 22 -4 25 -5 3 -1 14
-4 25 -5 11 -1 22 -4 25 -5 3 -1 17 -3 33 -4 15 -1 33 -5 40 -9 6 -5 16 -6 20
-3 5 3 9 -1 9 -8 0 -10 -34 -14 -44 -6 -2 2 -11 3 -20 4 -10 1 -25 6 -33 11
-8 5 -32 10 -52 11 -21 1 -40 3 -43 4 -3 1 -15 3 -27 4 -12 0 -22 9 -24 19 -1
11 2 14 9 10 7 -4 15 -8 20 -9z"/>
<path d="M614 2698 l-19 -23 23 19 c21 18 27 26 19 26 -2 0 -12 -10 -23 -22z"/>
<path d="M489 2553 c-13 -16 -12 -17 4 -4 9 7 17 15 17 17 0 8 -8 3 -21 -13z"/>
<path d="M360 1066 c0 -2 8 -10 18 -17 15 -13 16 -12 3 4 -13 16 -21 21 -21
13z"/>
<path d="M560 760 c29 -33 54 -60 57 -60 3 0 -18 27 -47 60 -29 33 -54 60 -57
60 -3 0 18 -27 47 -60z"/>
<path d="M855 490 c10 -11 20 -20 23 -20 3 0 -3 9 -13 20 -10 11 -20 20 -23
20 -3 0 3 -9 13 -20z"/>
<path d="M1624 3173 c-2 -18 3 -21 30 -20 17 1 34 6 38 12 5 7 8 7 8 0 0 -6
21 -10 48 -9 65 1 69 3 52 15 -13 9 -13 10 0 6 8 -2 14 -12 14 -21 -1 -9 2
-16 7 -16 5 0 9 6 9 14 0 8 4 17 9 21 6 3 8 -3 6 -14 -3 -16 2 -18 31 -15 25
2 33 0 27 -9 -4 -7 0 -7 10 2 12 10 17 10 17 2 0 -8 8 -10 21 -6 12 4 19 3 16
-2 -3 -5 6 -9 21 -8 15 0 30 -4 34 -10 5 -6 8 -5 8 3 0 6 5 12 11 12 5 0 7 -6
3 -12 -4 -7 -4 -10 1 -6 4 4 14 3 22 -3 7 -6 13 -8 13 -4 0 4 7 2 15 -5 11 -9
19 -9 28 -2 13 11 34 11 52 1 6 -4 18 -5 28 -4 9 2 15 0 12 -5 -4 -6 -40 -6
-40 0 0 7 -36 6 -41 -1 -3 -5 -2 -9 3 -8 4 1 10 1 13 -1 3 -1 16 -3 29 -6 14
-2 30 -9 36 -14 7 -5 15 -7 18 -4 3 4 13 -1 22 -10 16 -15 35 -20 64 -17 7 2
10 -2 6 -8 -4 -7 0 -8 11 -4 13 5 15 3 9 -7 -5 -8 -4 -11 2 -7 6 4 14 0 17 -8
3 -8 9 -14 13 -13 16 4 53 -14 53 -25 0 -7 4 -6 10 3 8 13 10 13 10 -2 0 -9 5
-20 12 -24 8 -5 9 -2 5 9 -3 9 -1 19 5 23 6 4 8 3 4 -4 -3 -6 -2 -13 4 -17 6
-4 8 -11 4 -16 -3 -5 -2 -8 3 -7 5 2 19 -7 32 -19 13 -12 30 -19 38 -16 7 3
13 2 11 -3 -2 -5 0 -10 4 -12 4 -2 27 -22 51 -45 25 -23 57 -52 73 -65 15 -13
41 -40 57 -60 16 -20 34 -37 40 -37 7 -1 11 -6 10 -13 -2 -7 3 -11 10 -9 6 1
11 -4 9 -11 -3 -17 49 -73 61 -65 6 4 8 0 4 -9 -3 -10 3 -24 14 -34 17 -16 22
-16 29 -4 7 11 10 11 10 2 0 -7 -7 -15 -15 -18 -13 -6 -13 -8 2 -23 10 -9 19
-23 21 -31 2 -8 11 -23 19 -32 9 -10 13 -18 8 -18 -4 0 -2 -7 5 -15 7 -9 19
-14 26 -11 7 3 16 1 19 -5 4 -5 1 -8 -6 -7 -6 2 -14 -3 -16 -10 -3 -8 1 -10
14 -5 16 6 17 5 3 -12 -11 -14 -12 -19 -2 -22 6 -3 10 -9 7 -14 -4 -5 1 -6 11
-2 14 5 15 3 5 -14 -8 -16 -7 -24 4 -33 8 -7 12 -17 8 -23 -4 -6 -1 -7 7 -2
10 6 12 4 7 -9 -4 -11 -3 -15 4 -10 8 4 9 -1 4 -15 -4 -13 -2 -21 5 -21 7 0
10 -7 7 -15 -4 -8 -2 -17 4 -21 6 -3 8 -12 5 -20 -3 -7 -1 -16 5 -20 6 -3 8
-12 5 -20 -3 -8 1 -17 9 -20 8 -4 15 -10 15 -16 0 -5 -4 -6 -10 -3 -5 3 -10 1
-10 -4 0 -6 4 -11 9 -11 6 0 8 -9 6 -20 -2 -11 0 -22 4 -24 4 -3 7 -23 7 -46
-1 -22 1 -40 4 -40 3 0 6 -10 7 -22 0 -13 3 -35 6 -50 4 -18 1 -28 -6 -28 -8
0 -8 -3 -2 -8 6 -4 10 -43 9 -87 0 -44 3 -87 7 -97 6 -10 4 -18 -5 -21 -10 -4
-14 -18 -12 -39 2 -18 -1 -39 -7 -46 -7 -9 -5 -18 8 -32 9 -10 14 -24 10 -29
-3 -6 -1 -11 4 -11 11 0 12 4 15 50 0 14 6 28 11 32 6 5 5 8 -4 8 -9 0 -10 4
-4 13 6 6 9 20 8 30 -2 9 2 17 8 17 7 0 4 7 -5 14 -18 14 -25 32 -9 21 5 -3
13 -1 16 5 4 6 1 9 -6 8 -6 -2 -14 3 -16 10 -3 8 1 10 13 5 12 -4 15 -3 10 6
-5 7 -14 10 -20 8 -7 -3 -13 1 -13 8 0 7 8 12 17 10 12 -2 16 5 15 35 0 21 -4
38 -9 37 -5 -1 -11 4 -13 11 -3 8 1 10 13 5 12 -4 15 -3 10 6 -5 7 -15 10 -23
6 -13 -4 -14 -3 -3 10 7 8 17 12 24 8 6 -4 5 0 -2 9 -9 11 -10 18 -2 23 6 3 7
12 3 18 -4 7 -8 23 -8 37 0 14 -3 30 -7 36 -4 5 -5 19 -4 30 2 10 1 24 -3 29
-3 6 -7 19 -9 30 -4 24 -10 48 -12 55 -1 3 -2 9 -1 13 1 5 -9 6 -21 2 l-23 -7
23 17 c21 16 22 18 8 34 -9 10 -13 21 -9 26 5 4 1 6 -8 3 -9 -4 -16 -1 -16 7
0 7 5 12 11 11 6 -2 8 -1 3 1 -4 3 -5 8 -2 13 3 4 -2 11 -11 14 -10 4 -13 2
-8 -6 4 -7 3 -8 -5 -4 -6 4 -9 12 -5 17 3 5 10 7 15 4 5 -4 9 -1 9 4 0 6 -4
11 -9 11 -5 0 -8 8 -6 18 1 9 -5 28 -15 42 -9 14 -15 30 -13 35 2 6 -6 21 -17
33 -11 12 -20 24 -20 27 1 23 -2 26 -22 20 -23 -7 -23 -7 -3 9 11 8 14 16 8
16 -7 0 -12 3 -12 8 3 18 -2 32 -18 48 -10 10 -18 20 -18 23 -1 14 -37 69 -65
101 -17 19 -38 48 -46 63 -8 15 -19 25 -24 22 -5 -3 -11 3 -14 13 -13 39 -296
283 -296 255 0 -4 -4 -3 -8 2 -13 18 -56 50 -47 36 5 -9 4 -12 -4 -10 -7 3
-12 9 -12 14 0 12 -41 35 -51 29 -5 -3 -8 -1 -8 4 0 9 -21 18 -59 27 -8 2 -18
10 -23 17 -6 9 -7 5 -4 -12 3 -14 3 -20 0 -13 -3 7 -11 10 -19 7 -17 -7 -29
12 -14 22 8 4 9 3 5 -4 -4 -7 -2 -12 4 -12 7 0 10 6 7 13 -2 6 -10 11 -16 9
-6 -1 -11 2 -11 7 0 5 -10 12 -22 16 -33 11 -38 12 -40 14 -2 2 -14 4 -27 7
-14 2 -30 9 -38 15 -7 6 -13 8 -13 4 0 -4 -6 -2 -14 4 -10 8 -16 9 -21 1 -4
-7 -11 -5 -21 5 -8 8 -25 13 -37 11 -12 -2 -27 1 -34 6 -7 5 -14 5 -18 -2 -3
-5 -11 -10 -17 -10 -7 0 -7 4 1 14 9 11 4 13 -29 11 -22 -1 -40 1 -40 4 0 4
-17 7 -37 6 -21 0 -46 3 -55 7 -13 6 -16 4 -13 -10 2 -12 -3 -19 -13 -19 -20
0 -44 16 -38 26 2 3 -21 6 -52 6 -51 0 -57 -2 -58 -22z m30 5 c-7 -11 -5 -11
39 7 7 3 21 -1 32 -10 19 -14 19 -15 -6 -6 -15 5 -30 7 -33 4 -3 -3 -17 -7
-31 -9 -22 -2 -24 0 -14 12 14 17 23 19 13 2z m236 -18 c0 -7 -13 -7 -38 -1
-2 1 -1 5 3 11 6 10 35 2 35 -10z m57 -5 c0 -8 -4 -12 -9 -9 -4 3 -8 9 -8 15
0 5 4 9 8 9 5 0 9 -7 9 -15z m79 -9 c12 2 27 -3 34 -11 10 -12 16 -12 26 -4
11 9 15 7 20 -6 6 -13 9 -14 16 -3 8 10 9 10 5 -2 -2 -8 -11 -13 -18 -11 -8 2
-19 4 -25 5 -7 1 -18 7 -26 14 -8 6 -26 9 -41 6 -16 -2 -27 0 -27 6 0 6 -5 8
-12 4 -7 -4 -8 -3 -4 5 5 8 12 9 19 3 7 -5 22 -8 33 -6z m234 -80 c0 -2 -37 0
-48 3 -2 1 0 6 3 11 5 9 45 -3 45 -14z m141 -60 c5 3 9 0 9 -6 0 -6 5 -8 12
-4 7 4 8 3 4 -4 -5 -8 -13 -9 -25 -2 -10 5 -20 8 -22 6 -2 -2 -13 8 -24 22
l-20 27 29 -22 c16 -13 32 -20 37 -17z m119 -72 c0 11 161 -114 167 -130 3 -8
9 -11 14 -8 5 3 14 -6 20 -20 7 -14 15 -23 19 -21 4 2 20 -9 35 -25 16 -17 26
-30 22 -30 -4 0 1 -9 10 -19 9 -11 21 -17 26 -14 6 3 7 1 3 -5 -3 -5 -3 -12 2
-14 4 -1 23 -23 42 -48 19 -25 39 -48 44 -51 4 -4 5 -12 1 -19 -9 -15 -30 3
-30 28 0 9 -5 16 -12 15 -7 -2 -21 11 -33 27 -12 17 -18 30 -14 30 4 0 -3 11
-16 25 -12 13 -28 22 -34 18 -6 -3 -8 -3 -4 1 3 4 -9 24 -28 44 -19 20 -34 40
-34 45 0 4 -4 5 -10 2 -6 -4 -7 1 -3 11 4 11 2 15 -4 11 -13 -8 -105 61 -98
74 6 8 -8 13 -27 10 -5 0 -7 5 -5 12 1 6 -6 11 -15 11 -9 -1 -31 15 -50 35
-18 19 -23 27 -10 17 12 -11 22 -16 22 -12z m428 -437 c-1 -3 7 -16 20 -30 27
-28 36 -64 19 -73 -7 -4 -9 -4 -5 1 4 4 -1 19 -12 33 -11 13 -18 28 -15 32 3
4 -2 13 -10 20 -8 7 -12 17 -9 22 3 5 8 7 11 4 2 -2 3 -7 1 -9z m102 -178 c11
-19 10 -20 -10 -9 -11 6 -18 15 -15 21 9 13 13 11 25 -12z m37 -87 c1 -9 -8
-5 -22 8 -13 12 -21 29 -18 37 4 11 9 9 22 -9 8 -13 16 -29 18 -36z m47 -144
c-3 -5 -12 -4 -20 3 -7 6 -11 15 -8 21 3 5 12 4 20 -3 7 -6 11 -15 8 -21z m11
-65 c-1 -10 2 -24 8 -30 5 -7 6 -13 2 -13 -4 0 -3 -6 2 -12 12 -17 11 -38 -2
-38 -5 0 -11 9 -11 20 -1 11 -3 22 -4 25 -5 9 -6 50 -3 58 7 13 11 7 8 -10z
m30 -149 c0 -16 4 -34 8 -41 4 -6 3 -14 -3 -18 -6 -4 -8 -10 -5 -15 3 -5 1
-11 -3 -14 -5 -3 -8 7 -7 22 1 15 -1 31 -4 37 -11 20 -10 66 2 62 7 -2 12 -17
12 -33z m0 -155 c-4 -5 0 -9 7 -9 9 0 9 -3 -2 -10 -11 -7 -11 -10 -2 -10 7 0
10 -5 7 -11 -10 -15 -17 -4 -20 30 -1 17 1 28 6 25 5 -3 7 -10 4 -15z m1 -161
c-1 -13 -4 -27 -7 -33 -3 -5 -5 -25 -4 -43 2 -30 1 -32 -13 -18 -11 10 -12 19
-5 28 5 7 9 27 8 43 -2 23 7 43 21 45 0 0 0 -10 0 -22z"/>
<path d="M2520 2926 c0 -2 8 -10 18 -17 15 -13 16 -12 3 4 -13 16 -21 21 -21
13z"/>
<path d="M2610 2857 c0 -3 17 -17 37 -33 20 -15 33 -23 29 -16 -8 13 -66 56
-66 49z"/>
<path d="M2760 2725 c13 -14 26 -25 28 -25 3 0 -5 11 -18 25 -13 14 -26 25
-28 25 -3 0 5 -11 18 -25z"/>
<path d="M2855 2606 c10 -14 19 -26 22 -26 7 0 -17 39 -28 46 -6 3 -3 -5 6
-20z"/>
<path d="M2970 2440 c6 -11 13 -20 16 -20 2 0 0 9 -6 20 -6 11 -13 20 -16 20
-2 0 0 -9 6 -20z"/>
<path d="M3050 2266 c0 -2 8 -10 18 -17 15 -13 16 -12 3 4 -13 16 -21 21 -21
13z"/>
<path d="M1750 3186 c0 -9 5 -16 10 -16 6 0 10 4 10 9 0 6 -4 13 -10 16 -5 3
-10 -1 -10 -9z"/>
<path d="M1546 2383 c-189 -43 -513 -230 -671 -387 -84 -84 -103 -121 -83
-163 12 -25 18 -28 63 -27 38 0 71 11 139 44 86 43 104 59 91 80 -4 6 -34 -5
-82 -30 -85 -44 -103 -48 -103 -22 0 20 34 59 87 99 21 15 40 31 43 34 12 14
223 151 313 203 147 84 257 126 257 98 0 -10 -69 -75 -155 -147 -58 -48 -93
-78 -140 -120 -12 -11 -51 -45 -86 -75 -370 -320 -608 -606 -667 -800 -26 -84
-19 -163 16 -204 21 -23 90 -55 111 -51 9 1 34 6 56 9 52 9 149 63 244 134
116 87 120 90 381 349 135 134 249 246 254 251 4 4 -14 -27 -41 -68 -116 -175
-173 -315 -177 -433 -2 -39 0 -85 4 -104 39 -170 235 -168 469 7 76 56 342
313 431 415 100 115 188 225 289 360 61 83 115 155 119 160 26 33 103 170 128
225 32 73 39 154 14 171 -24 16 -95 4 -152 -26 -148 -77 -368 -279 -368 -337
0 -25 10 -23 45 10 17 15 59 52 95 82 36 30 67 58 70 61 17 20 161 124 187
135 44 19 53 18 53 -6 0 -46 -120 -236 -293 -464 -193 -254 -576 -656 -747
-783 -117 -87 -207 -110 -253 -65 -42 42 -28 164 33 297 23 49 176 289 202
316 7 8 38 46 68 84 30 39 57 72 61 75 3 3 24 26 45 51 74 87 139 163 149 173
37 41 114 136 128 159 17 26 17 30 2 53 -9 14 -25 24 -38 24 -16 0 -115 -92
-352 -328 -298 -296 -468 -457 -580 -553 -21 -19 -46 -41 -55 -49 -9 -8 -40
-35 -69 -60 -30 -25 -59 -50 -65 -55 -29 -26 -167 -125 -222 -159 -148 -90
-222 -64 -179 63 54 164 354 504 873 991 262 245 283 355 58 303z"/>
<path d="M3133 1430 c3 -11 1 -20 -5 -20 -5 0 -7 -4 -3 -9 3 -5 1 -13 -5 -16
-8 -5 -8 -11 0 -20 8 -10 7 -14 -7 -18 -16 -4 -16 -5 -1 -6 12 -1 15 -6 11
-17 -5 -13 -8 -13 -15 -2 -8 10 -9 9 -5 -4 3 -9 0 -22 -8 -28 -7 -6 -11 -22
-9 -36 3 -14 0 -24 -7 -24 -6 0 -9 -6 -6 -14 3 -8 -1 -20 -9 -27 -8 -7 -13
-18 -10 -26 3 -7 0 -13 -6 -13 -6 0 -8 -3 -5 -7 4 -3 0 -15 -10 -25 -9 -10
-12 -18 -8 -18 4 0 0 -9 -10 -20 -10 -11 -14 -20 -10 -20 4 0 0 -9 -10 -20
-10 -11 -14 -20 -10 -20 4 0 1 -8 -8 -18 -10 -10 -14 -22 -10 -25 3 -4 1 -7
-5 -7 -7 0 -12 -6 -12 -13 0 -7 -9 -23 -20 -35 -12 -12 -16 -22 -10 -22 6 0 8
-5 5 -10 -4 -6 -11 -7 -17 -4 -7 4 -8 2 -4 -4 4 -7 4 -12 -1 -12 -4 0 -16 -11
-26 -25 -12 -17 -14 -26 -5 -31 7 -5 8 -3 3 6 -5 9 -4 11 4 6 18 -12 3 -25
-22 -19 -12 3 -19 3 -15 -1 4 -5 -9 -22 -28 -38 -19 -17 -32 -33 -30 -36 3 -3
-9 -17 -27 -33 -17 -15 -32 -34 -32 -41 0 -7 -4 -13 -10 -13 -19 0 -35 -16
-29 -27 5 -7 1 -9 -9 -5 -10 4 -23 -3 -35 -18 -11 -13 -22 -21 -26 -17 -4 3
-4 -1 0 -11 4 -12 2 -16 -7 -12 -8 3 -30 -10 -49 -27 -19 -18 -38 -33 -42 -33
-5 0 -13 -7 -18 -15 -5 -8 -10 -11 -10 -6 0 5 -9 1 -20 -9 -11 -10 -20 -15
-20 -10 0 4 -6 2 -14 -5 -8 -6 -12 -19 -9 -28 6 -15 5 -16 -12 -2 -14 11 -19
12 -22 2 -3 -6 -10 -9 -15 -6 -7 4 -8 2 -4 -4 6 -11 0 -14 -20 -11 -3 0 -16
-7 -30 -15 -13 -9 -24 -14 -24 -10 0 4 -7 1 -15 -6 -8 -7 -15 -9 -15 -5 0 5
-9 0 -21 -11 -11 -10 -26 -19 -32 -20 -32 -3 -37 -5 -37 -14 0 -12 22 -9 33 5
5 6 7 4 4 -5 -4 -16 -26 -21 -42 -9 -9 7 -36 6 -55 -1 -3 -1 -9 -2 -13 -1 -5
1 -5 -4 -1 -10 4 -7 0 -9 -12 -5 -23 7 -46 -6 -42 -24 2 -7 -4 -15 -12 -17
-10 -3 -11 -2 -3 4 8 6 9 14 3 23 -8 13 -10 12 -10 -2 0 -9 -5 -20 -11 -24 -8
-4 -9 1 -4 17 3 13 3 19 -2 13 -4 -6 -16 -10 -25 -8 -10 1 -18 -1 -18 -5 0 -5
-16 -7 -34 -6 -19 1 -33 -2 -31 -5 4 -6 -20 -8 -102 -10 -24 0 -28 -8 -15 -25
10 -14 56 -20 47 -6 -3 6 -10 9 -14 7 -4 -3 -13 -1 -20 3 -8 5 0 8 22 7 22 -1
33 -5 30 -13 -5 -13 34 -12 54 0 6 4 18 4 27 1 9 -3 16 -1 16 4 0 6 9 9 20 7
11 -2 22 0 25 5 3 5 16 7 29 4 15 -2 31 3 41 13 14 14 18 14 26 2 7 -11 9 -11
9 -1 0 7 5 10 10 7 6 -3 13 1 16 10 6 13 8 14 15 3 7 -10 9 -11 9 0 0 7 5 10
10 7 6 -3 10 -2 10 4 0 6 7 8 15 5 8 -4 22 -1 30 6 8 7 15 9 15 5 0 -4 11 0
25 9 14 9 25 14 25 11 0 -3 14 2 30 10 17 9 28 20 25 25 -4 6 -1 10 5 10 6 0
8 5 4 12 -4 7 -3 8 4 4 6 -4 10 -12 8 -19 -1 -7 -1 -9 1 -4 3 4 9 5 14 2 5 -4
6 1 3 9 -4 10 0 14 13 12 10 -2 28 4 41 12 12 8 22 11 22 7 0 -4 7 -2 15 5 8
7 13 16 10 20 -3 5 -1 11 5 15 5 3 10 0 10 -7 0 -8 3 -9 8 -3 4 6 24 18 44 27
28 13 36 22 31 34 -4 11 -2 15 4 11 6 -4 19 0 27 9 9 8 16 12 16 8 0 -4 11 5
25 20 13 14 28 26 34 26 5 0 19 13 31 30 12 16 24 29 28 27 4 -1 9 3 12 8 3 6
20 23 37 38 18 16 31 34 30 40 -1 7 4 11 11 9 8 -1 11 2 7 8 -3 5 1 13 10 16
10 4 13 13 10 24 -3 10 0 22 6 26 7 4 9 3 5 -4 -3 -6 -1 -14 6 -18 7 -4 10 -4
7 0 -4 4 8 23 26 43 20 22 32 44 30 56 -3 13 0 17 10 13 8 -3 16 -1 16 4 1 6
2 14 3 18 0 5 9 16 19 26 9 10 15 21 12 26 -3 5 -1 10 4 12 5 1 11 10 13 18 2
8 9 21 16 28 7 8 10 18 7 23 -4 5 0 9 7 9 10 0 10 2 -1 9 -9 6 -10 11 -2 15 6
4 11 4 11 -1 1 -8 31 54 35 72 2 6 4 17 6 25 2 8 8 18 13 22 5 3 10 15 11 25
0 10 5 24 9 32 5 8 3 17 -5 22 -14 8 -5 14 16 9 6 -1 7 2 3 6 -4 4 -4 12 1 18
4 6 11 19 14 28 4 13 2 16 -11 12 -14 -5 -14 -3 2 10 11 9 17 19 13 22 -4 4
-2 13 3 19 8 9 6 14 -5 18 -8 4 -12 13 -9 22 4 8 1 15 -6 15 -7 0 -10 -8 -7
-20z m13 -42 c-1 -13 -6 -22 -9 -20 -7 2 -7 10 0 30 8 20 13 14 9 -10z m-25
-92 c-15 -16 -19 -26 -12 -31 6 -3 9 -11 5 -16 -7 -12 -23 -2 -20 14 2 16 40
66 45 61 3 -2 -6 -15 -18 -28z m-11 -74 c0 -4 -5 -13 -12 -20 -11 -11 -13 -16
-21 -55 -2 -10 -10 -23 -18 -28 -8 -5 -10 -9 -5 -9 5 0 1 -10 -10 -22 -11 -13
-20 -30 -19 -38 1 -8 -5 -23 -13 -32 -8 -10 -11 -18 -7 -18 4 0 0 -9 -10 -20
-10 -11 -14 -20 -9 -20 5 -1 -1 -9 -14 -20 -13 -11 -21 -23 -18 -28 3 -5 -1
-9 -9 -9 -10 0 -11 5 -4 19 5 10 15 18 21 18 6 0 8 3 5 7 -4 3 -2 12 4 20 6 7
8 13 4 13 -5 0 0 9 10 20 10 11 14 20 10 20 -4 0 0 9 10 20 10 11 14 20 10 20
-4 0 0 9 10 20 10 11 14 20 9 20 -5 1 0 8 11 18 11 9 20 26 20 37 0 11 6 28
14 38 8 9 11 17 7 17 -4 0 -4 5 -1 10 7 12 25 13 25 2z m-184 -356 c-3 -21
-27 -47 -38 -40 -5 3 1 17 13 30 26 28 28 29 25 10z m-100 -125 c-15 -15 -24
-30 -21 -33 3 -3 -9 -18 -27 -33 -18 -16 -32 -32 -30 -37 1 -5 -2 -7 -7 -3 -6
3 -20 -8 -32 -24 -12 -17 -26 -28 -30 -25 -4 2 -14 -4 -21 -14 -18 -26 -39
-37 -32 -18 3 9 11 16 17 16 6 0 7 3 4 7 -4 3 -2 12 4 20 9 10 15 10 25 2 14
-12 14 -12 18 24 0 6 6 12 11 12 17 0 36 16 30 25 -3 4 11 20 31 35 19 15 33
30 30 33 -9 8 36 52 46 46 5 -4 -2 -18 -16 -33z m-216 -200 c0 -12 -25 -32
-32 -26 -3 3 -11 -1 -18 -10 -10 -12 -10 -15 1 -15 17 -1 -15 -20 -39 -25 -10
-2 -18 -4 -19 -4 -2 -1 -5 0 -6 2 -8 5 -37 -26 -32 -33 10 -16 -13 -20 -25 -5
-7 8 -10 15 -6 15 16 0 22 3 39 17 9 9 17 12 17 7 0 -5 7 0 15 10 8 11 15 14
15 8 0 -7 16 6 36 28 35 39 54 50 54 31z m-202 -137 c-1 -5 -9 -9 -16 -10 -10
-2 -11 1 -1 12 12 14 24 13 17 -2z m-81 -39 c0 -12 -18 -23 -49 -31 -5 -1 -10
-2 -13 -3 -3 0 -8 -1 -11 0 -4 0 -11 -5 -15 -13 -5 -7 -9 -8 -9 -2 0 6 9 19
20 29 11 10 20 15 20 10 0 -4 8 -1 17 6 11 10 14 10 9 2 -4 -7 -3 -13 2 -13 6
0 12 7 16 15 7 19 13 19 13 0z m-160 -61 c-3 -3 -13 -7 -22 -8 -9 -1 -21 -9
-26 -17 -5 -8 -9 -9 -9 -3 0 16 18 30 41 31 12 1 19 0 16 -3z m-73 -22 c2 -4
-4 -8 -14 -8 -10 0 -16 4 -14 8 3 4 9 8 14 8 5 0 11 -4 14 -8z m-98 -31 c-4
-5 -15 -8 -26 -6 -11 2 -22 -1 -25 -6 -4 -5 -11 -7 -16 -4 -5 4 -15 3 -21 -1
-20 -12 -45 -12 -45 1 0 6 6 12 14 12 7 0 13 -4 13 -9 0 -5 10 -2 23 5 12 8
34 13 50 12 15 -1 27 3 27 8 0 6 3 8 6 4 3 -3 3 -10 0 -16z"/>
<path d="M2899 843 c-13 -16 -12 -17 4 -4 9 7 17 15 17 17 0 8 -8 3 -21 -13z"/>
<path d="M2814 748 l-19 -23 23 19 c21 18 27 26 19 26 -2 0 -12 -10 -23 -22z"/>
<path d="M2765 684 c-18 -16 -22 -22 -9 -15 18 9 53 42 43 41 -2 -1 -17 -12
-34 -26z"/>
<path d="M1626 233 c-8 -20 15 -27 85 -28 55 -1 66 2 64 15 -2 8 -4 18 -4 21
-2 11 -141 4 -145 -8z m132 -8 c-4 -12 -118 -13 -125 -1 -4 5 -1 6 5 2 7 -4
12 -3 12 1 0 5 25 9 55 8 30 0 54 -5 53 -10z"/>
</g>
</svg>
